<svg width="40" height="40" viewBox="0 0 40 40" fill="none" xmlns="http://www.w3.org/2000/svg" xmlns:xlink="http://www.w3.org/1999/xlink">
<path d="M36,20C36,28.837 28.837,36 20,36L20,40C31.046,40 40,31.046 40,20L36,20ZM20,36C11.163,36 4,28.837 4,20L0,20C0,31.046 8.954,40 20,40L20,36ZM4,20C4,11.163 11.163,4 20,4L20,0C8.954,0 0,8.954 0,20L4,20ZM20,4C28.837,4 36,11.163 36,20L40,20C40,8.954 31.046,0 20,0L20,4Z" fill="#1E232C"/>
<path d="M22,30C22,28.895 21.105,28 20,28C18.895,28 18,28.895 18,30L22,30ZM18,30.02C18,31.125 18.895,32.02 20,32.02C21.105,32.02 22,31.125 22,30.02L18,30.02ZM18.003,23.113C18.066,24.216 19.01,25.059 20.113,24.997C21.216,24.934 22.059,23.99 21.997,22.887L18.003,23.113ZM22,20L22.663,21.887C22.681,21.881 22.697,21.875 22.714,21.868L22,20ZM14.407,10.791C13.739,11.671 13.911,12.926 14.791,13.593C15.671,14.261 16.926,14.089 17.593,13.209L14.407,10.791ZM18,30L18,30.02L22,30.02L22,30L18,30ZM22,30.02L22,30L18,30L18,30.02L22,30.02ZM21.997,22.887C21.985,22.67 22.043,22.456 22.163,22.275L18.835,20.057C18.234,20.958 17.942,22.031 18.003,23.113L21.997,22.887ZM22.163,22.275C22.283,22.095 22.459,21.959 22.663,21.887L21.337,18.113C20.314,18.473 19.436,19.155 18.835,20.057L22.163,22.275ZM22.714,21.868C23.755,21.47 24.69,20.836 25.444,20.015L22.499,17.308C22.163,17.673 21.748,17.955 21.286,18.132L22.714,21.868ZM25.444,20.015C26.198,19.195 26.751,18.211 27.06,17.14L23.217,16.031C23.08,16.506 22.834,16.944 22.499,17.308L25.444,20.015ZM27.06,17.14C27.369,16.069 27.426,14.941 27.225,13.845L23.29,14.566C23.38,15.053 23.354,15.555 23.217,16.031L27.06,17.14ZM27.225,13.845C27.024,12.749 26.571,11.715 25.903,10.823L22.703,13.223C23,13.619 23.201,14.079 23.29,14.566L27.225,13.845ZM25.903,10.823C25.234,9.932 24.368,9.207 23.371,8.708L21.578,12.283C22.02,12.505 22.405,12.827 22.703,13.223L25.903,10.823ZM23.371,8.708C22.375,8.208 21.277,7.946 20.163,7.943L20.151,11.943C20.647,11.944 21.135,12.061 21.578,12.283L23.371,8.708ZM20.163,7.943C19.048,7.94 17.948,8.196 16.95,8.69L18.723,12.275C19.167,12.055 19.656,11.942 20.151,11.943L20.163,7.943ZM16.95,8.69C15.951,9.184 15.08,9.903 14.407,10.791L17.593,13.209C17.893,12.814 18.28,12.495 18.723,12.275L16.95,8.69Z" fill="#35C2C1"/>
</svg>
