<svg width="18" height="20" viewBox="0 0 18 20" fill="none" xmlns="http://www.w3.org/2000/svg">
    <path d="M5 11L11 11" stroke="#33363F" stroke-width="2" stroke-linecap="round"/>
    <path d="M5 7L9 7" stroke="#33363F" stroke-width="2" stroke-linecap="round"/>
    <path d="M5 15L9 15" stroke="#33363F" stroke-width="2" stroke-linecap="round"/>
    <path d="M15 11V13C15 15.8284 15 17.2426 14.1213 18.1213C13.2426 19 11.8284 19 9 19H7C4.17157 19 2.75736 19 1.87868 18.1213C1 17.2426 1 15.8284 1 13V7C1 4.17157 1 2.75736 1.87868 1.87868C2.75736 1 4.17157 1 7 1V1" stroke="#33363F" stroke-width="2"/>
    <path d="M14 1L14 7" stroke="#35C2C1" stroke-width="2" stroke-linecap="round"/>
    <path d="M17 4L11 4" stroke="#35C2C1" stroke-width="2" stroke-linecap="round"/>
</svg>
