<svg width="32" height="40" viewBox="0 0 32 40" fill="none" xmlns="http://www.w3.org/2000/svg" xmlns:xlink="http://www.w3.org/1999/xlink">
<path d="M10,8C11.105,8 12,7.105 12,6C12,4.895 11.105,4 10,4L10,8ZM6,6L6,4L6,6ZM2,10L0,10L2,10ZM2,34L0,34L2,34ZM26,6L26,4L26,6ZM22,4C20.895,4 20,4.895 20,6C20,7.105 20.895,8 22,8L22,4ZM10,4L6,4L6,8L10,8L10,4ZM6,4C4.409,4 2.883,4.632 1.757,5.757L4.586,8.586C4.961,8.211 5.47,8 6,8L6,4ZM1.757,5.757C0.632,6.883 0,8.409 0,10L4,10C4,9.47 4.211,8.961 4.586,8.586L1.757,5.757ZM0,10L0,34L4,34L4,10L0,10ZM0,34C0,35.591 0.632,37.117 1.757,38.243L4.586,35.414C4.211,35.039 4,34.53 4,34L0,34ZM1.757,38.243C2.883,39.368 4.409,40 6,40L6,36C5.47,36 4.961,35.789 4.586,35.414L1.757,38.243ZM6,40L26,40L26,36L6,36L6,40ZM26,40C27.591,40 29.117,39.368 30.243,38.243L27.414,35.414C27.039,35.789 26.53,36 26,36L26,40ZM30.243,38.243C31.368,37.117 32,35.591 32,34L28,34C28,34.53 27.789,35.039 27.414,35.414L30.243,38.243ZM32,34L32,10L28,10L28,34L32,34ZM32,10C32,8.409 31.368,6.883 30.243,5.757L27.414,8.586C27.789,8.961 28,9.47 28,10L32,10ZM30.243,5.757C29.117,4.632 27.591,4 26,4L26,8C26.53,8 27.039,8.211 27.414,8.586L30.243,5.757ZM26,4L22,4L22,8L26,8L26,4Z" fill="#B2B2B2"/>
<path d="M14,4L18,4L18,0L14,0L14,4ZM18,4C19.105,4 20,4.895 20,6L24,6C24,2.686 21.314,0 18,0L18,4ZM20,6C20,7.105 19.105,8 18,8L18,12C21.314,12 24,9.314 24,6L20,6ZM18,8L14,8L14,12L18,12L18,8ZM14,8C12.895,8 12,7.105 12,6L8,6C8,9.314 10.686,12 14,12L14,8ZM12,6C12,4.895 12.895,4 14,4L14,0C10.686,0 8,2.686 8,6L12,6Z" fill="#B2B2B2"/>
<path d="M10,18C8.895,18 8,18.895 8,20C8,21.105 8.895,22 10,22L10,18ZM10.02,22C11.125,22 12.02,21.105 12.02,20C12.02,18.895 11.125,18 10.02,18L10.02,22ZM18,18C16.895,18 16,18.895 16,20C16,21.105 16.895,22 18,22L18,18ZM22,22C23.105,22 24,21.105 24,20C24,18.895 23.105,18 22,18L22,22ZM10,26C8.895,26 8,26.895 8,28C8,29.105 8.895,30 10,30L10,26ZM10.02,30C11.125,30 12.02,29.105 12.02,28C12.02,26.895 11.125,26 10.02,26L10.02,30ZM18,26C16.895,26 16,26.895 16,28C16,29.105 16.895,30 18,30L18,26ZM22,30C23.105,30 24,29.105 24,28C24,26.895 23.105,26 22,26L22,30ZM10,22L10.02,22L10.02,18L10,18L10,22ZM10.02,18L10,18L10,22L10.02,22L10.02,18ZM18,22L22,22L22,18L18,18L18,22ZM22,18L18,18L18,22L22,22L22,18ZM10,30L10.02,30L10.02,26L10,26L10,30ZM10.02,26L10,26L10,30L10.02,30L10.02,26ZM18,30L22,30L22,26L18,26L18,30Z" fill="#B2B2B2"/>
</svg>
