<svg width="320" height="178" viewBox="0 0 320 178" fill="none" xmlns="http://www.w3.org/2000/svg">
    <mask id="mask0_24_601" style="mask-type:alpha" maskUnits="userSpaceOnUse" x="0" y="0" width="320" height="178">
        <rect width="320" height="178" rx="20" fill="#D9D9D9"/>
    </mask>
    <g mask="url(#mask0_24_601)">
        <path d="M-9.52466 122H285.85C305.038 109.876 319.022 95.3062 328.794 73.8391C340.626 47.6439 343.17 18.4542 336.037 -9.25877C330.232 -31.5267 317.735 -52.6575 298.631 -66.5116C279.527 -80.3657 253.503 -86.1102 230.761 -78.8335C190.497 -65.9297 170.724 -18.2919 130.199 -6.16762C88.5864 6.28237 42.1717 -23.9083 1.09428 -9.83535C-25.4809 -0.727425 -42.7576 26.5269 -42.9972 53.5678C-43.2256 79.5141 -29.5034 104.419 -9.52466 122Z" fill="#1E232C"/>
        <path d="M308.972 201H35.1909C17.406 189.054 4.44431 174.699 -4.61337 153.547C-15.5801 127.737 -17.9383 98.977 -11.3266 71.6715C-5.94574 49.731 5.63721 28.9109 23.3447 15.2606C41.0521 1.61025 65.1732 -4.04977 86.2528 3.11995C123.573 15.834 141.9 62.7712 179.463 74.7172C218.033 86.9841 261.055 57.2374 299.129 71.1034C323.762 80.0774 339.775 106.931 339.997 133.574C340.209 159.139 327.49 183.678 308.972 201Z" fill="#35C2C1"/>
        <path d="M102.644 85.7549C102.644 85.7549 108.543 115.269 109.592 120.73C110.641 126.19 112.567 139.168 114.751 144.86C116.935 150.552 116.222 157.839 115.13 159.888C114.034 161.668 112.776 163.344 111.372 164.894L104.045 155.37C104.045 155.37 99.6856 108.703 99.5223 102.094C99.3589 95.4844 102.644 85.7549 102.644 85.7549Z" fill="white" stroke="#263238" stroke-linecap="round" stroke-linejoin="round"/>
        <path d="M106.53 154.204C106.53 154.204 111.174 157.093 111.991 158.319C112.808 159.545 113.393 161.105 112.756 162.433C112.12 163.762 108.654 167.774 107.777 168.554C106.9 169.334 106.161 166.222 106.058 163.548C105.954 160.873 106.53 154.204 106.53 154.204Z" fill="white" stroke="#263238" stroke-linecap="round" stroke-linejoin="round"/>
        <path d="M66.4415 62.4469C66.4415 62.4469 62.6665 63.0812 61.2305 64.7614C59.7913 66.3956 58.4966 68.1509 57.3609 70.0076C57.1631 70.6419 34.9602 84.0746 34.9602 84.0746L36.5597 148.126C36.5597 148.126 37.2218 157.993 36.0437 161.353C34.0537 167.96 33.0881 174.832 33.1802 181.729C33.3866 189.916 33.9197 203.16 33.9197 203.16C33.9197 203.16 59.3301 208.201 71.5494 208.201C79.0655 208.183 86.5751 207.756 94.0447 206.923L95.0508 196.422L96.5814 207.138L101.801 205.423L106.101 173.706C106.101 173.706 109.093 166.985 109.059 165.511C109.024 164.036 109.815 162.15 108.947 160.89C108.078 159.63 106.531 157.11 106.531 157.11C106.531 157.11 102.644 87.6492 102.644 85.7548C102.644 83.8603 91.1468 72.7421 90.2955 72.3221C89.4442 71.902 84.1987 64.127 77.3968 62.0354C70.5949 59.9438 66.4415 62.4469 66.4415 62.4469Z" fill="white" stroke="#263238" stroke-linecap="round" stroke-linejoin="round"/>
        <path d="M59.5193 72.1079L56.9739 95.1758L67.4304 100.019L64.8163 107.846L90.9662 153.656" stroke="#263238" stroke-linecap="round" stroke-linejoin="round"/>
        <path d="M88.7304 74.6968L96.5728 92.9471L93.2105 97.4132L98.8171 105.231L96.5728 155.516" stroke="#263238" stroke-linecap="round" stroke-linejoin="round"/>
        <path d="M65.4698 65.6014C65.6605 70.1017 66.4796 74.5535 67.9034 78.8283C70.165 85.1289 85.1532 128.599 85.1532 128.599L94.8444 162.613C94.8444 162.613 93.5631 127.964 93.5287 126.499C93.4943 125.033 86.1851 76.9339 86.1851 76.9339C86.1851 76.9339 84.9382 69.1674 82.969 66.2271C80.9998 63.2869 67.8002 57.8264 65.4698 65.6014Z" fill="#35C2C1" stroke="#263238" stroke-linecap="round" stroke-linejoin="round"/>
        <path d="M64.5411 62.2412C64.5411 62.2412 58.4444 62.867 59.5192 72.1078C60.5941 81.3487 62.013 87.6493 62.013 87.6493" stroke="#263238" stroke-width="2" stroke-linecap="round" stroke-linejoin="round"/>
        <path d="M61.2649 99.8306C61.2649 99.8306 63.8446 110.537 65.6074 113.478C67.3702 116.418 72.7017 119.358 76.4939 119.358" stroke="#263238" stroke-linecap="round" stroke-linejoin="round"/>
        <path d="M69.4168 97.3101C69.4168 97.3101 72.2545 109.697 72.7274 112.011C73.2004 114.326 71.6354 118.723 69.004 123.155" stroke="#263238" stroke-linecap="round" stroke-linejoin="round"/>
        <path d="M68.2474 124.621C67.9767 124.473 67.7759 124.224 67.6889 123.928C67.6019 123.633 67.6357 123.315 67.783 123.044L68.084 122.495C68.158 122.364 68.2575 122.249 68.3767 122.157C68.4959 122.065 68.6323 121.997 68.778 121.958C68.9238 121.919 69.0758 121.909 69.2254 121.929C69.375 121.949 69.519 121.999 69.649 122.075C69.9195 122.224 70.1207 122.473 70.2091 122.768C70.2976 123.063 70.2663 123.38 70.122 123.653L69.821 124.193C69.7469 124.325 69.6471 124.441 69.5275 124.534C69.4078 124.627 69.2708 124.696 69.1243 124.736C68.9778 124.776 68.8248 124.786 68.6743 124.767C68.5237 124.747 68.3786 124.698 68.2474 124.621Z" fill="#263238"/>
        <path d="M77.9041 119.59C77.9043 119.741 77.8738 119.89 77.8145 120.029C77.7552 120.169 77.6683 120.294 77.5591 120.399C77.4499 120.504 77.3206 120.586 77.179 120.64C77.0373 120.693 76.8862 120.718 76.7347 120.713H76.1069C75.7975 120.706 75.5031 120.578 75.2875 120.357C75.0719 120.135 74.9523 119.838 74.9546 119.53C74.9534 119.379 74.9828 119.229 75.0411 119.09C75.0995 118.951 75.1855 118.825 75.294 118.72C75.4025 118.615 75.5313 118.533 75.6725 118.48C75.8137 118.426 75.9644 118.401 76.1155 118.407H76.7433C77.0528 118.415 77.3468 118.544 77.5633 118.764C77.7798 118.985 77.902 119.281 77.9041 119.59Z" fill="#263238"/>
        <path d="M61.2821 100.671L59.8374 91.5412C59.6761 90.5999 59.8807 89.6327 60.4095 88.8365C60.9382 88.0402 61.7515 87.4747 62.6837 87.2551V87.2551C63.6882 87.0273 64.7422 87.1966 65.6242 87.7273C66.5061 88.2581 67.1474 89.1089 67.4132 90.1011L69.8812 99.1876" stroke="#263238" stroke-width="2" stroke-linecap="round" stroke-linejoin="round"/>
        <path d="M95.2733 106.841C97.3431 106.634 98.8272 104.538 98.5882 102.159C98.3491 99.7802 96.4775 98.0192 94.4077 98.2259C92.3379 98.4326 90.8538 100.529 91.0928 102.908C91.3319 105.286 93.2035 107.047 95.2733 106.841Z" fill="white" stroke="#263238" stroke-linecap="round" stroke-linejoin="round"/>
        <path d="M84.6974 66.0898C84.6974 66.0898 92.9783 77.7052 95.6182 101.382" stroke="#263238" stroke-width="2" stroke-linecap="round" stroke-linejoin="round"/>
        <path d="M95.8382 104.123C96.9684 104.018 97.7852 102.867 97.6625 101.552C97.5399 100.237 96.5243 99.2555 95.3941 99.3602C94.264 99.4649 93.4472 100.616 93.5698 101.931C93.6924 103.246 94.708 104.228 95.8382 104.123Z" fill="white" stroke="#263238" stroke-linecap="round" stroke-linejoin="round"/>
        <path d="M107.941 156.013C107.433 157.582 107.016 159.179 106.694 160.796C106.694 161.482 106.531 163.531 104.922 163.068C103.314 162.605 103.796 154.418 104.002 153.51C104.209 152.601 108.121 155.541 108.121 155.541" fill="white"/>
        <path d="M107.941 156.013C107.433 157.582 107.016 159.179 106.694 160.796C106.694 161.482 106.531 163.531 104.922 163.068C103.314 162.605 103.796 154.418 104.002 153.51C104.209 152.601 108.121 155.541 108.121 155.541" stroke="#263238" stroke-linecap="round" stroke-linejoin="round"/>
        <path d="M55.7443 148.761C57.1746 149.546 58.7728 149.978 60.405 150.021C62.9331 150.021 67.5508 149.164 69.2449 149.601C70.9389 150.038 75.2642 155.473 75.2642 155.473C75.2642 155.473 76.5541 156.733 75.9436 157.367C75.333 158.002 74.0862 159.082 73.2263 158.413C72.3663 157.744 68.0668 154.213 68.0668 154.213L57.2233 158.627L52.769 156.313L55.7443 148.761Z" fill="white" stroke="#263238" stroke-linecap="round" stroke-linejoin="round"/>
        <path d="M39.1394 82.6089C39.1394 82.6089 31.9935 83.4661 30.7811 85.3349C29.5686 87.2036 9.98845 130.065 10.0314 131.959C10.0744 133.854 49.1832 164.534 49.1832 164.534L57.6275 148.512L36.4995 128.985L45.6661 107.777" fill="white"/>
        <path d="M39.1394 82.6089C39.1394 82.6089 31.9935 83.4661 30.7811 85.3349C29.5686 87.2036 9.98845 130.065 10.0314 131.959C10.0744 133.854 49.1832 164.534 49.1832 164.534L57.6275 148.512L36.4995 128.985L45.6661 107.777" stroke="#263238" stroke-linecap="round" stroke-linejoin="round"/>
        <path d="M52.3218 172.275L72.9769 172.695L72.8737 159.888" stroke="#263238" stroke-linecap="round" stroke-linejoin="round"/>
        <path d="M57.2491 158.627L51.7887 160.659" stroke="#263238" stroke-linecap="round" stroke-linejoin="round"/>
        <path d="M63.4748 53.2061C63.4748 53.2061 65.8224 71.4821 67.3702 74.2081C68.9181 76.934 79.9249 87.855 79.9249 87.855C79.9249 87.855 83.3645 75.2624 83.7515 72.3222C84.1385 69.3819 84.4394 57.6208 84.4394 57.6208L63.4318 51.7402L63.4748 53.2061Z" fill="white" stroke="#263238" stroke-linecap="round" stroke-linejoin="round"/>
        <path d="M63.4748 53.2061C63.4748 53.2061 63.75 55.3491 64.1713 58.2723C65.8178 59.8007 67.699 61.0567 69.7436 61.9926C72.4523 63.1842 79.6755 63.8528 84.2417 63.3213C84.3621 60.2439 84.4394 57.6208 84.4394 57.6208L63.4318 51.7402L63.4748 53.2061Z" fill="#263238" stroke="#263238" stroke-linecap="round" stroke-linejoin="round"/>
        <path d="M57.3866 37.2531C57.3866 37.2531 54.5747 34.3129 53.1816 37.6646C51.7886 41.0164 54.9015 46.0654 56.5611 46.2797C57.5458 46.4077 58.5464 46.3348 59.502 46.0654C59.502 46.0654 60.6801 50.9001 61.7636 52.366C63.896 55.0539 66.6285 57.2084 69.7435 58.658C73.5787 60.3724 86.4172 60.9811 88.0424 58.658C89.6676 56.3349 89.573 43.9566 89.5473 42.9108C89.5215 41.865 89.3409 26.8979 89.3409 26.8979C89.3409 26.8979 90.4932 21.7031 88.9281 18.1285C87.3631 14.5539 71.6525 9.55626 67.7055 11.6222C63.7585 13.6881 59.2096 17.2884 58.9001 21.9088C58.5905 26.5293 58.7797 34.09 58.7797 34.09L57.3866 37.2531Z" fill="white" stroke="#263238" stroke-linecap="round" stroke-linejoin="round"/>
        <path d="M80.6043 30.7383C80.6043 30.7383 83.227 42.7394 82.6251 44.1795C82.0231 45.6197 80.1399 45.6454 77.7838 44.3853C75.4276 43.1252 76.6573 41.445 76.6573 41.445" stroke="#263238" stroke-linecap="round" stroke-linejoin="round"/>
        <path d="M71.472 44.5996C71.472 44.5996 72.6071 47.7456 74.7139 47.9599C76.8207 48.1742 82.1091 48.5857 82.1091 48.5857" stroke="#263238" stroke-linecap="round" stroke-linejoin="round"/>
        <path d="M63.9478 31.1582L64.2831 36.1987C64.2831 36.1987 66.2093 37.253 70.6293 37.253C75.0492 37.253 76.5024 36.1987 76.5024 36.1987L76.382 31.1582C76.382 31.1582 69.9671 27.3778 63.9478 31.1582Z" stroke="#263238" stroke-linecap="round" stroke-linejoin="round"/>
        <path d="M80.6215 31.1581L82.2209 36.4129C82.2209 36.4129 82.8744 37.2702 87.303 37.2702C91.7315 37.2702 93.1847 36.2158 93.1847 36.2158L93.0558 31.1753C93.0558 31.1753 86.6322 27.3778 80.6215 31.1581Z" stroke="#263238" stroke-linecap="round" stroke-linejoin="round"/>
        <path d="M76.4078 31.1582H80.6214" stroke="#263238" stroke-linecap="round" stroke-linejoin="round"/>
        <path d="M63.9736 31.1582L55.6669 35.9929" stroke="#263238" stroke-linecap="round" stroke-linejoin="round"/>
        <path d="M66.0201 28.6381C66.0201 28.6381 68.2731 26.1178 73.381 28.218" stroke="#263238" stroke-linecap="round" stroke-linejoin="round"/>
        <path d="M81.3954 28.6381C82.1539 28.0314 83.0689 27.6507 84.0351 27.54C85.0012 27.4293 85.979 27.593 86.8558 28.0123" stroke="#263238" stroke-linecap="round" stroke-linejoin="round"/>
        <path d="M71.4032 33.4727C71.4032 34.3985 71.0679 35.1872 70.6035 35.1872C70.1391 35.1872 69.7436 34.4328 69.7436 33.4727C69.7436 32.5127 70.0789 31.7583 70.5519 31.7583C71.0248 31.7583 71.386 32.5384 71.4032 33.4727Z" fill="#263238"/>
        <path d="M84.8866 33.2584C84.8866 34.1842 84.5513 34.9728 84.0869 34.9728C83.6225 34.9728 83.227 34.2185 83.227 33.2584C83.227 32.2983 83.5623 31.5439 84.0267 31.5439C84.4911 31.5439 84.8608 32.3326 84.8866 33.2584Z" fill="#263238"/>
        <path d="M70.4573 13.8337C70.4573 13.8337 72.4867 18.2999 69.9671 19.9286C69.1896 20.3771 68.3072 20.6133 67.4089 20.6133C66.5106 20.6133 65.6282 20.3771 64.8507 19.9286C65.5205 20.851 65.8946 21.9539 65.9238 23.0922C65.9529 24.2306 65.6358 25.3511 65.0141 26.3063C63.7789 28.3578 62.3384 30.2793 60.7145 32.0412C60.7145 32.0412 61.1703 37.4674 60.2244 38.1017C59.2785 38.7361 56.6987 37.7846 56.6557 36.1901C56.6127 34.5957 55.5808 31.4068 55.5378 29.8124C55.4949 28.2179 54.7553 24.069 54.7553 24.069C54.7553 24.069 48.2888 21.1973 51.7198 17.6913C55.1509 14.1852 62.4343 11.3135 62.4343 11.3135C62.4343 11.3135 62.5977 4.93577 67.0262 3.02416C71.4548 1.11256 80.9826 -1.75914 81.06 1.42973C81.1812 3.07087 80.8854 4.71599 80.2001 6.21303C80.2001 6.21303 88.1886 5.89586 93.7609 11.3564C99.3331 16.8169 99.1439 21.8831 96.2632 21.8831C93.3825 21.8831 92.4452 22.5174 92.4452 22.5174C92.4452 22.5174 97.9572 25.7063 95.1195 27.3007C92.2818 28.8952 89.3581 26.9836 89.3581 26.9836C89.3581 26.9836 90.5792 24.7548 86.9848 21.8402C83.3903 18.9257 70.4573 13.8337 70.4573 13.8337Z" fill="#263238" stroke="#263238" stroke-linecap="round" stroke-linejoin="round"/>
    </g>
</svg>
