<svg width="328" height="312" viewBox="0 0 328 312" fill="none" xmlns="http://www.w3.org/2000/svg">
    <path d="M324.903 164.628H321.85V164.105C321.848 162.68 321.28 161.313 320.272 160.305C319.264 159.296 317.897 158.729 316.472 158.727H314.404C312.977 158.727 311.609 159.294 310.599 160.302C309.589 161.31 309.021 162.678 309.019 164.105V164.628H305.973C305.566 164.627 305.163 164.706 304.787 164.861C304.41 165.017 304.069 165.245 303.781 165.533C303.493 165.82 303.265 166.162 303.11 166.538C302.954 166.915 302.875 167.318 302.876 167.725V181.836C302.876 182.657 303.202 183.445 303.783 184.026C304.364 184.607 305.152 184.933 305.973 184.933H324.903C325.724 184.931 326.51 184.604 327.091 184.024C327.671 183.443 327.998 182.656 328 181.836V167.725C328 166.903 327.674 166.116 327.093 165.535C326.512 164.954 325.724 164.628 324.903 164.628ZM310.49 164.105C310.492 163.068 310.906 162.075 311.639 161.342C312.373 160.61 313.367 160.199 314.404 160.199H316.472C317.508 160.199 318.501 160.61 319.234 161.343C319.967 162.075 320.378 163.069 320.378 164.105V164.628H310.49V164.105Z" fill="#263238"/>
    <path d="M321.077 173.338H317.178V169.446H313.691V173.338H309.791V176.833H313.691V180.725H317.178V176.833H321.077V173.338Z" fill="white"/>
    <path d="M318.87 80.5372C318.264 80.5372 317.663 80.4176 317.103 80.1853C316.543 79.953 316.034 79.6126 315.606 79.1835C315.177 78.7544 314.837 78.245 314.606 77.6845C314.375 77.124 314.256 76.5233 314.257 75.917V63.4689C314.256 62.8625 314.375 62.2619 314.606 61.7014C314.837 61.1409 315.177 60.6315 315.606 60.2024C316.034 59.7733 316.543 59.4329 317.103 59.2006C317.663 58.9683 318.264 58.8487 318.87 58.8487C319.476 58.8487 320.077 58.9683 320.637 59.2006C321.197 59.4329 321.706 59.7733 322.134 60.2024C322.563 60.6315 322.902 61.1409 323.134 61.7014C323.365 62.2619 323.484 62.8625 323.483 63.4689V75.8949C323.487 76.5031 323.37 77.1061 323.14 77.6692C322.91 78.2322 322.571 78.7442 322.142 79.1757C321.713 79.6072 321.204 79.9496 320.642 80.1832C320.08 80.4169 319.478 80.5372 318.87 80.5372Z" fill="white" stroke="#263238" stroke-linecap="round" stroke-linejoin="round"/>
    <path d="M318.87 80.5372C318.264 80.5372 317.663 80.4176 317.103 80.1853C316.543 79.953 316.034 79.6126 315.606 79.1835C315.177 78.7544 314.837 78.245 314.606 77.6845C314.375 77.124 314.256 76.5233 314.257 75.917V69.7003H323.483V75.917C323.484 76.5233 323.365 77.124 323.134 77.6845C322.902 78.245 322.563 78.7544 322.134 79.1835C321.706 79.6126 321.197 79.953 320.637 80.1853C320.077 80.4176 319.476 80.5372 318.87 80.5372Z" fill="#263238" stroke="#263238" stroke-linecap="round" stroke-linejoin="round"/>
    <path d="M295.666 62.2035C295.287 61.7298 295.005 61.1858 294.836 60.6028C294.668 60.0197 294.616 59.4092 294.685 58.8062C294.753 58.2032 294.94 57.6196 295.235 57.0891C295.529 56.5585 295.926 56.0914 296.402 55.7147L306.091 47.931C307.05 47.1683 308.273 46.8174 309.491 46.9553C310.709 47.0932 311.822 47.7087 312.587 48.6667C313.349 49.625 313.7 50.8467 313.562 52.0633C313.424 53.28 312.809 54.3922 311.851 55.1555L302.155 62.9319C301.681 63.3107 301.137 63.5923 300.555 63.7607C299.972 63.9291 299.362 63.981 298.759 63.9134C298.157 63.8457 297.573 63.6599 297.042 63.3665C296.512 63.0731 296.044 62.6779 295.666 62.2035Z" fill="white" stroke="#263238" stroke-linecap="round" stroke-linejoin="round"/>
    <path d="M295.666 62.2035C295.287 61.7298 295.005 61.1858 294.836 60.6028C294.668 60.0197 294.616 59.4092 294.685 58.8062C294.753 58.2032 294.94 57.6196 295.235 57.0891C295.529 56.5585 295.926 56.0914 296.402 55.7147L301.25 51.8228L307.025 59.0253L302.177 62.9098C301.704 63.2932 301.16 63.5793 300.576 63.7514C299.992 63.9235 299.38 63.9783 298.774 63.9126C298.169 63.847 297.583 63.6622 297.049 63.3688C296.516 63.0755 296.046 62.6794 295.666 62.2035Z" fill="#263238" stroke="#263238" stroke-linecap="round" stroke-linejoin="round"/>
    <path d="M249.53 28.3319C248.955 28.3322 248.394 28.5123 247.926 28.8469L237.207 20.5262C237.733 19.5539 237.979 18.4553 237.919 17.3518C237.86 16.2482 237.496 15.1826 236.869 14.2727L243.417 5.90047C243.971 6.11415 244.579 6.14482 245.152 5.98799C245.724 5.83115 246.232 5.49506 246.6 5.02892C246.968 4.56278 247.177 3.99106 247.197 3.39749C247.216 2.80392 247.045 2.21967 246.709 1.73027C246.372 1.24088 245.888 0.872051 245.327 0.677791C244.766 0.48353 244.157 0.474042 243.59 0.650714C243.023 0.827386 242.527 1.18094 242.176 1.65961C241.824 2.13828 241.635 2.71692 241.636 3.31081C241.633 3.88318 241.811 4.44195 242.144 4.90728L235.773 13.0662C234.918 12.3468 233.88 11.8796 232.775 11.7172C231.67 11.5547 230.542 11.7034 229.517 12.1465C228.491 12.5896 227.61 13.3097 226.971 14.2258C226.332 15.142 225.961 16.218 225.9 17.3332H218.454C218.373 16.6724 218.057 16.0626 217.565 15.6148C217.072 15.167 216.435 14.9108 215.769 14.8929C215.103 14.875 214.453 15.0965 213.937 15.5172C213.421 15.9378 213.073 16.5297 212.956 17.1853C212.84 17.8408 212.962 18.5165 213.301 19.0895C213.64 19.6625 214.174 20.0947 214.805 20.3077C215.436 20.5207 216.122 20.5002 216.739 20.25C217.356 19.9999 217.863 19.5366 218.167 18.9444H226.039C226.27 20.0141 226.787 21.0008 227.536 21.7983C228.286 22.5958 229.238 23.1739 230.291 23.4705C231.345 23.7671 232.459 23.771 233.514 23.4816C234.569 23.1923 235.526 22.6207 236.28 21.8284L246.941 30.1197C246.73 30.6727 246.702 31.2785 246.861 31.8486C247.019 32.4186 247.356 32.923 247.822 33.2881C248.287 33.6532 248.857 33.8599 249.449 33.8778C250.04 33.8958 250.622 33.7242 251.109 33.3881C251.596 33.0519 251.962 32.5689 252.155 32.0095C252.348 31.4501 252.357 30.8437 252.181 30.279C252.004 29.7142 251.652 29.2206 251.175 28.8703C250.698 28.52 250.122 28.3313 249.53 28.3319Z" fill="#263238"/>
    <path d="M31.7854 80.6254C30.8943 80.6235 30.0403 80.2687 29.4102 79.6385C28.7801 79.0084 28.4252 78.1544 28.4233 77.2633V49.3067H35.1476V77.2633C35.1476 78.155 34.7933 79.0102 34.1628 79.6407C33.5323 80.2712 32.6771 80.6254 31.7854 80.6254Z" fill="white" stroke="#263238" stroke-linecap="round" stroke-linejoin="round"/>
    <path d="M31.7854 80.6254C30.8943 80.6235 30.0403 80.2687 29.4102 79.6385C28.7801 79.0084 28.4252 78.1544 28.4233 77.2633V60.07H35.1476V77.2633C35.1476 78.155 34.7933 79.0102 34.1628 79.6407C33.5323 80.2712 32.6771 80.6254 31.7854 80.6254Z" fill="#263238" stroke="#263238" stroke-linecap="round" stroke-linejoin="round"/>
    <path d="M36.1113 47.6735H27.4669V50.1234H36.1113V47.6735Z" fill="white" stroke="#263238" stroke-linecap="round" stroke-linejoin="round"/>
    <path d="M21.596 80.6254C20.7049 80.6235 19.8508 80.2687 19.2207 79.6385C18.5906 79.0084 18.2358 78.1544 18.2338 77.2633V49.3067H24.9581V77.2633C24.9581 78.155 24.6039 79.0102 23.9734 79.6407C23.3428 80.2712 22.4877 80.6254 21.596 80.6254Z" fill="white" stroke="#263238" stroke-linecap="round" stroke-linejoin="round"/>
    <path d="M21.596 80.6254C20.7049 80.6235 19.8508 80.2687 19.2207 79.6385C18.5906 79.0084 18.2358 78.1544 18.2338 77.2633V60.07H24.9581V77.2633C24.9581 78.155 24.6039 79.0102 23.9734 79.6407C23.3428 80.2712 22.4877 80.6254 21.596 80.6254Z" fill="#263238" stroke="#263238" stroke-linecap="round" stroke-linejoin="round"/>
    <path d="M25.9219 47.6735H17.2774V50.1234H25.9219V47.6735Z" fill="white" stroke="#263238" stroke-linecap="round" stroke-linejoin="round"/>
    <path d="M118.598 20.1142L121.276 13.6842C121.321 13.5806 121.397 13.493 121.493 13.4327C121.588 13.3724 121.7 13.3421 121.813 13.3458C121.926 13.3514 122.035 13.3919 122.125 13.4616C122.214 13.5314 122.28 13.6271 122.313 13.7357L125.558 24.4327L128.03 16.5534C128.064 16.4425 128.132 16.3452 128.224 16.2752C128.316 16.2052 128.429 16.1661 128.545 16.1635C128.659 16.1666 128.77 16.2031 128.864 16.2684C128.958 16.3337 129.031 16.4251 129.074 16.5313L130.45 20.4894H137.888C139.41 18.8986 140.295 16.8041 140.375 14.6038C140.389 12.5486 139.643 10.5606 138.281 9.0216C136.919 7.48264 135.036 6.50123 132.994 6.26585C130.952 6.03047 128.895 6.55773 127.219 7.74635C125.542 8.93497 124.364 10.7012 123.91 12.7057C123.442 10.7152 122.26 8.96593 120.587 7.79057C118.914 6.61521 116.867 6.09577 114.836 6.33103C112.805 6.56629 110.931 7.53984 109.571 9.06653C108.211 10.5932 107.459 12.5665 107.459 14.6111C107.541 16.6489 108.306 18.6 109.63 20.151L118.598 20.1142Z" fill="#263238"/>
    <path d="M130.06 21.5929C129.946 21.5934 129.834 21.5582 129.74 21.4923C129.647 21.4264 129.576 21.333 129.538 21.2251L128.581 18.4736L126.073 26.4706C126.037 26.5833 125.966 26.6817 125.871 26.7517C125.776 26.8218 125.661 26.8599 125.543 26.8605C125.424 26.8601 125.309 26.8211 125.215 26.7495C125.121 26.6778 125.053 26.5773 125.021 26.4633L121.703 15.5234L119.495 20.8793C119.453 20.9794 119.383 21.0649 119.293 21.1251C119.202 21.1853 119.096 21.2175 118.988 21.2177H110.52C112.337 23.2483 114.603 25.0434 116.295 26.7134C118.855 29.2442 121.364 31.8633 123.976 34.3058C127.323 31.0025 130.693 27.6845 134.011 24.3812C134.93 23.4616 135.931 22.5493 136.858 21.5929H130.06Z" fill="#263238"/>
    <path d="M5.95398 186.032L9.5614 187.283L13.4648 176.03L9.85735 174.778L5.95398 186.032Z" fill="white" stroke="#263238" stroke-miterlimit="10"/>
    <path d="M4.24369 187.818L9.81122 189.749L10.5466 187.629L4.97904 185.698L4.24369 187.818Z" fill="white" stroke="#263238" stroke-miterlimit="10"/>
    <path d="M5.87947 177.674L14.7972 180.768L21.8686 160.381L12.9509 157.288L5.87947 177.674Z" fill="white" stroke="#263238" stroke-miterlimit="10"/>
    <path d="M10.2156 168.953L16.798 171.236L20.7013 159.983L14.119 157.7L10.2156 168.953Z" fill="#263238" stroke="#263238" stroke-miterlimit="10"/>
    <path d="M9.05133 177.111L12.6588 178.362L16.5621 167.109L12.9547 165.858L9.05133 177.111Z" fill="#263238" stroke="#263238" stroke-miterlimit="10"/>
    <path d="M5.24982 177.46L15.4396 180.995L16.3244 178.444L6.13465 174.91L5.24982 177.46Z" fill="white" stroke="#263238" stroke-miterlimit="10"/>
    <path d="M15.1253 156.863L20.4357 158.705L21.6146 155.306L16.3043 153.464L15.1253 156.863Z" fill="white" stroke="#263238" stroke-miterlimit="10"/>
    <path d="M12.0984 157.71L22.2881 161.244L23.173 158.693L12.9832 155.159L12.0984 157.71Z" fill="white" stroke="#263238" stroke-miterlimit="10"/>
    <path d="M19.0137 153.923L23.2807 141.608" stroke="#263238" stroke-miterlimit="10"/>
    <path d="M256.262 306.985C277.524 306.985 294.761 303.099 294.761 298.304C294.761 293.51 277.524 289.623 256.262 289.623C234.999 289.623 217.763 293.51 217.763 298.304C217.763 303.099 234.999 306.985 256.262 306.985Z" fill="#263238" stroke="#263238" stroke-linecap="round" stroke-linejoin="round"/>
    <path d="M226.576 102.078C226.576 102.078 221.368 105.264 221.427 106.662C221.485 108.06 219.484 133.552 219.256 136.737C219.028 139.923 215.997 146.5 215.762 149.487C215.526 152.474 216.277 155.468 217.152 156.844C218.028 158.22 221.243 162.619 221.243 162.619L229.887 149.266C230.099 146.35 230.143 143.425 230.02 140.504C229.887 134.14 226.576 102.078 226.576 102.078Z" fill="white" stroke="#263238" stroke-linecap="round" stroke-linejoin="round"/>
    <path d="M259.837 38.9113C259.837 38.9113 250.641 38.3227 245.403 44.7012C240.165 51.0798 241.29 60.8351 241.254 63.8294C241.217 66.8237 232.322 75.6006 233.308 79.1761C234.294 82.7516 236.913 83.1562 236.074 86.1432C235.236 89.1301 229.762 90.9252 230.557 94.7141C231.351 98.5029 234.235 103.874 234.235 103.874L287.205 104.234C287.205 104.234 289.096 98.6574 287.08 94.4713C285.065 90.2852 282.203 88.9021 282.666 86.9083C283.13 84.9146 285.69 80.1325 284.704 76.5497C283.718 72.9668 280.29 71.9736 279.929 65.5951C279.569 59.2166 278.627 48.674 273.566 43.5241C268.504 38.3742 259.837 38.9113 259.837 38.9113Z" fill="#263238" stroke="#263238" stroke-linecap="round" stroke-linejoin="round"/>
    <path d="M243.549 284.716C241.922 287.85 239.948 290.792 237.663 293.485C234.279 297.274 230.998 299.268 231.108 301.262C231.219 303.255 238.605 303.645 242.512 302.247C246.418 300.85 249.258 298.061 250.045 297.833C250.832 297.605 253.032 297.833 253.084 295.038C253.135 292.242 252.708 284.282 252.708 284.282L243.549 284.716Z" fill="white" stroke="#263238" stroke-linecap="round" stroke-linejoin="round"/>
    <path d="M242.497 302.247C246.411 300.85 249.243 298.061 250.031 297.833C250.818 297.605 253.018 297.833 253.069 295.038C253.069 293.566 252.988 290.623 252.885 288.218C252.306 289.303 251.449 290.216 250.402 290.862C249.356 291.508 248.156 291.865 246.926 291.896C246.926 291.896 246.852 290.498 244.719 288.115C243.343 286.555 241.953 287.784 241.143 288.85L240.489 289.836L240.437 289.932C239.588 291.184 238.659 292.381 237.656 293.515C234.272 297.304 230.991 299.297 231.101 301.291C231.211 303.285 238.59 303.645 242.497 302.247Z" fill="white" stroke="#263238" stroke-linecap="round" stroke-linejoin="round"/>
    <path d="M270.807 284.701C272.784 287.847 275.076 290.783 277.649 293.463C281.438 297.245 284.932 299.231 285.006 301.225C285.079 303.219 277.766 303.616 273.705 302.225C269.644 300.835 266.51 298.047 265.708 297.848C264.906 297.649 262.714 297.848 262.368 295.067C262.023 292.286 261.588 284.311 261.588 284.311L270.807 284.701Z" fill="white" stroke="#263238" stroke-linecap="round" stroke-linejoin="round"/>
    <path d="M273.735 302.225C269.681 300.835 266.54 298.047 265.738 297.848C264.936 297.649 262.743 297.848 262.398 295.067C262.214 293.596 262.008 290.653 261.853 288.24C262.534 289.319 263.468 290.214 264.575 290.848C265.682 291.481 266.928 291.834 268.202 291.874C268.202 291.874 268.129 290.476 269.99 288.085C271.204 286.533 272.727 287.754 273.669 288.821C273.911 289.145 274.162 289.468 274.404 289.807L274.471 289.902C275.459 291.153 276.515 292.349 277.634 293.485C281.423 297.267 284.917 299.253 284.991 301.247C285.065 303.241 277.796 303.616 273.735 302.225Z" fill="white" stroke="#263238" stroke-linecap="round" stroke-linejoin="round"/>
    <path d="M227.548 179.562C227.548 179.562 228.776 220.989 230.409 229.156C232.043 237.322 239.334 284.127 239.334 284.127C241.562 285.07 243.962 285.541 246.382 285.51H254.349L255.085 250.653L255.357 200.059L259.352 285.702C259.352 285.702 270.329 286.091 271.513 285.893C272.697 285.694 273.683 285.496 273.683 285.496L280.739 231.311L284.778 195.262L284.998 180.923C284.998 180.923 251.274 179.754 241.474 178.959C231.675 178.164 227.643 177.966 227.643 177.966L227.548 179.562Z" fill="#35C2C1" stroke="#263238" stroke-linecap="round" stroke-linejoin="round"/>
    <path d="M273.087 252.705C272.999 253.397 272.911 254.037 272.808 254.626" stroke="#263238" stroke-linecap="round" stroke-linejoin="round"/>
    <path d="M273.992 202.832C273.992 202.832 274.676 232.349 273.477 248.372" stroke="#263238" stroke-linecap="round" stroke-linejoin="round"/>
    <path d="M237.833 200.463C237.833 200.463 238.679 219.989 239.517 224.366" stroke="#263238" stroke-linecap="round" stroke-linejoin="round"/>
    <path d="M269.269 188.023V202.928C271.179 203.442 273.132 203.78 275.103 203.936C278.127 204.135 283.77 203.936 283.77 203.936L284.174 198.293L269.269 188.023Z" fill="#263238" stroke="#263238" stroke-linecap="round" stroke-linejoin="round"/>
    <path d="M228.173 199.5C228.173 199.5 235.832 201.92 239.054 202.119C242.276 202.317 245.293 202.722 245.293 202.722L244.895 198.698L227.768 197.087L228.173 199.5Z" fill="#263238" stroke="#263238" stroke-linecap="round" stroke-linejoin="round"/>
    <path d="M251.421 86.3271L245.41 93.1029L228.739 105.264L232.293 178.974C232.293 178.974 245.58 182.549 256.983 183.542C268.386 184.536 283.049 181.924 283.049 181.924L280.893 104.675C280.893 104.675 274.404 95.1114 271.079 92.5291C267.754 89.9467 266.231 87.5557 261.824 87.1584C257.417 86.7612 251.421 86.3271 251.421 86.3271Z" fill="#35C2C1" stroke="#263238" stroke-linecap="round" stroke-linejoin="round"/>
    <path d="M244.447 89.9541L226.576 102.115L229.379 146.927L228.43 151.429L220.919 160.081L224.119 175.281L222.692 196.726C222.692 196.726 229.791 199.117 234.603 199.706C238.185 200.09 241.785 200.289 245.388 200.302L246.006 171.021C246.006 171.021 248.383 122.413 248.662 120.258C248.942 118.102 251.421 86.4154 251.421 86.4154L244.447 89.9541Z" fill="white" stroke="#263238" stroke-linecap="round" stroke-linejoin="round"/>
    <path d="M244.734 91.786L236.082 113.482L245.418 117.359L236.604 118.963L244.41 149.546" stroke="#263238" stroke-linecap="round" stroke-linejoin="round"/>
    <path d="M249.92 80.5519C249.92 80.5519 253.025 101.262 255.467 106.044C257.91 110.826 258.601 112.415 258.601 112.415C258.601 112.415 263.913 96.2738 264.98 93.8827C266.047 91.4917 267.187 82.9282 267.187 82.9282C267.187 82.9282 256.6 86.3198 249.92 80.5519Z" fill="white" stroke="#263238" stroke-linecap="round" stroke-linejoin="round"/>
    <path d="M249.92 80.5519C249.92 80.5519 250.2 82.4353 250.656 85.1941C252.208 86.3786 256.321 89.3067 259.359 89.4612C261.677 89.5789 264.62 88.0781 266.576 86.8789C266.93 84.7086 267.172 82.9282 267.172 82.9282C267.172 82.9282 256.6 86.3198 249.92 80.5519Z" fill="#263238" stroke="#263238" stroke-linecap="round" stroke-linejoin="round"/>
    <path d="M245.705 66.2352C245.705 66.2352 243.586 63.2188 242.159 66.2352C240.731 69.2515 244.366 73.7172 245.381 74.3279C248.265 76.042 247.5 72.8565 247.5 72.8565L245.705 66.2352Z" fill="white" stroke="#263238" stroke-linecap="round" stroke-linejoin="round"/>
    <path d="M272.021 67.5374C272.021 67.5374 273.808 64.418 275.559 67.3608C277.31 70.3036 274.154 74.9311 273.212 75.5859C270.52 77.4472 270.946 74.2543 270.946 74.2543L272.021 67.5374Z" fill="white" stroke="#263238" stroke-linecap="round" stroke-linejoin="round"/>
    <path d="M245.204 63.5719C245.204 63.5719 252.885 61.7768 256.755 59.4888C259.125 58.0572 261.192 56.1752 262.839 53.949C262.839 53.949 266.164 60.2319 269.093 62.7774C272.021 65.3229 272.631 65.47 272.631 65.47C272.631 65.47 271.226 76.4687 269.637 80.2944C268.048 84.12 262.861 87.8427 258.02 86.7685C255.269 86.1653 250.501 84.1789 249.118 80.8314C247.735 77.484 245.204 63.5719 245.204 63.5719Z" fill="white" stroke="#263238" stroke-linecap="round" stroke-linejoin="round"/>
    <path d="M264.803 72.0251C262.42 72.084 254.437 72.0987 250.317 69.612C248.666 68.6507 247.12 67.5189 245.705 66.2352C245.852 66.9709 246.028 67.8905 246.22 68.8469L247.117 69.5017L249.368 78.0064L248.316 78.2344C248.538 79.1038 248.806 79.9609 249.118 80.802C250.501 84.1494 255.269 86.1358 258.02 86.7391C262.854 87.8059 268.026 84.1053 269.63 80.287C269.251 79.5452 269.139 78.6957 269.313 77.8813C269.777 75.4755 270.351 71.26 270.351 71.26L271.991 69.7886C272.079 69.2515 272.153 68.7365 272.227 68.2657C270.24 69.6415 266.518 71.981 264.803 72.0251Z" fill="#35C2C1" stroke="#263238" stroke-linecap="round" stroke-linejoin="round"/>
    <path d="M256.041 68.4717C256.041 68.4717 253.474 65.3523 250.104 65.6392" stroke="#263238" stroke-linecap="round" stroke-linejoin="round"/>
    <path d="M262.655 69.0897C263.474 68.2283 264.492 67.5808 265.619 67.2037C266.747 66.8267 267.949 66.7316 269.122 66.9267" stroke="#263238" stroke-linecap="round" stroke-linejoin="round"/>
    <path d="M248.625 64.0796C248.625 64.0796 252.304 62.6082 255.563 63.2997" stroke="#263238" stroke-linecap="round" stroke-linejoin="round"/>
    <path d="M262.957 64.1016C263.926 63.6065 265.024 63.4213 266.102 63.5714C267.18 63.7214 268.185 64.1993 268.982 64.9403" stroke="#263238" stroke-linecap="round" stroke-linejoin="round"/>
    <path d="M253.569 67.4491C253.586 67.5621 253.58 67.6774 253.552 67.7882C253.524 67.899 253.475 68.0032 253.406 68.0948C253.338 68.1864 253.252 68.2636 253.154 68.3219C253.056 68.3803 252.947 68.4187 252.834 68.4349C252.603 68.409 252.392 68.2965 252.241 68.1203C252.091 67.944 252.014 67.7172 252.024 67.4859C252.007 67.3727 252.012 67.2571 252.039 67.1459C252.067 67.0347 252.116 66.9301 252.185 66.8383C252.253 66.7465 252.34 66.6693 252.438 66.6112C252.537 66.5531 252.646 66.5153 252.76 66.5C252.99 66.5276 253.2 66.6405 253.35 66.8164C253.5 66.9922 253.578 67.2181 253.569 67.4491Z" fill="#263238"/>
    <path d="M266.893 68.4055C266.913 68.5189 266.909 68.6352 266.882 68.7472C266.856 68.8593 266.806 68.9646 266.737 69.0569C266.669 69.1492 266.582 69.2265 266.482 69.284C266.382 69.3415 266.272 69.378 266.157 69.3913C265.928 69.3672 265.716 69.2562 265.566 69.0812C265.415 68.9061 265.337 68.6802 265.348 68.4496C265.328 68.3362 265.332 68.2199 265.358 68.1079C265.385 67.9958 265.434 67.8905 265.503 67.7982C265.572 67.7059 265.659 67.6286 265.759 67.5711C265.859 67.5136 265.969 67.4771 266.084 67.4638C266.313 67.4879 266.525 67.5989 266.675 67.7739C266.826 67.949 266.903 68.1749 266.893 68.4055Z" fill="#263238"/>
    <path d="M286.705 97.8555C286.705 97.8555 290.994 99.8419 292.591 103.005C294.187 106.169 306.952 140.445 306.893 143.035C306.834 145.624 302.611 148.611 298.653 149.016C294.695 149.421 288.927 142.248 288.066 141.056C287.205 139.864 287.051 125.915 287.051 125.915L286.705 97.8555Z" fill="white" stroke="#263238" stroke-linecap="round" stroke-linejoin="round"/>
    <path d="M266.488 88.7034L268.578 157.226L269.313 200.449C273.319 201.434 277.423 201.964 281.548 202.031C284.988 202.103 288.409 201.492 291.612 200.235C291.612 200.235 290.362 173.346 290.141 168.961C289.92 164.576 288.464 156.211 288.464 156.211L286.727 97.8555C286.727 97.8555 270.564 90.2925 266.488 88.7034Z" fill="white" stroke="#263238" stroke-linecap="round" stroke-linejoin="round"/>
    <path d="M271.079 92.4849L278.487 116.653L271.734 118.485L278.303 121.67L270.108 147.706" fill="white"/>
    <path d="M271.079 92.4849L278.487 116.653L271.734 118.485L278.303 121.67L270.108 147.706" stroke="#263238" stroke-linecap="round" stroke-linejoin="round"/>
    <path d="M276.244 114.593L267.055 158.617C267.055 158.617 273.338 160.603 277.928 160.824C282.519 161.045 292.083 161.015 292.083 161.015L301.647 119.978C301.647 119.978 282.821 118.176 276.244 114.593Z" fill="#263238" stroke="#263238" stroke-linecap="round" stroke-linejoin="round"/>
    <path d="M279.444 155.623L279.745 141.865L287.036 143.403C287.036 143.403 282.217 154.019 279.444 155.623Z" fill="white" stroke="#263238" stroke-linecap="round" stroke-linejoin="round"/>
    <path d="M285.028 136.892C285.028 136.892 283.086 134.111 282.46 133.508C281.835 132.904 278.745 131.124 278.149 131.124C277.553 131.124 274.353 130.925 273.735 130.925C273.117 130.925 272.418 132.323 273.051 132.919C273.683 133.515 275.883 133.713 275.883 133.713L277.391 135.921L270.586 135.325C270.586 135.325 269.453 136.524 269.71 137.532C269.903 138.215 270.149 138.881 270.446 139.526C270.42 140.988 270.497 142.451 270.674 143.903C270.939 145.102 272.146 145.499 273.801 146.493C275.456 147.486 280.996 146.89 280.996 146.89H283.556L285.028 136.892Z" fill="white" stroke="#263238" stroke-linecap="round" stroke-linejoin="round"/>
    <path d="M301.618 138.275L283.961 135.899C283.961 135.899 282.585 147.258 281.195 151.039C279.804 154.821 279.444 155.623 279.444 155.623C279.444 155.623 297.947 155.211 302.309 154.813C306.672 154.416 309.122 151.819 308.931 148.236C308.739 144.653 306.554 141.063 306.554 141.063" fill="white"/>
    <path d="M301.618 138.275L283.961 135.899C283.961 135.899 282.585 147.258 281.195 151.039C279.804 154.821 279.444 155.623 279.444 155.623C279.444 155.623 297.947 155.211 302.309 154.813C306.672 154.416 309.122 151.819 308.931 148.236C308.739 144.653 306.554 141.063 306.554 141.063" stroke="#263238" stroke-linecap="round" stroke-linejoin="round"/>
    <path d="M227.989 150.679C227.989 150.679 232.109 153.261 233.139 154.063C234.169 154.865 234.257 160.037 234.912 161.03C235.567 162.023 234.794 162.626 233.602 162.626C232.411 162.626 230.608 158.845 230.608 158.845L230.535 157.447L222.118 160.243L219.911 156.461C219.911 156.461 222.412 150.679 227.989 150.679Z" fill="white" stroke="#263238" stroke-linecap="round" stroke-linejoin="round"/>
    <path d="M166.676 306.985C187.938 306.985 205.175 303.099 205.175 298.304C205.175 293.51 187.938 289.623 166.676 289.623C145.413 289.623 128.177 293.51 128.177 298.304C128.177 303.099 145.413 306.985 166.676 306.985Z" fill="#263238" stroke="#263238" stroke-linecap="round" stroke-linejoin="round"/>
    <path d="M196.744 92.0067C196.744 92.0067 201.791 117.337 202.688 122.023C203.586 126.71 205.234 137.848 207.103 142.733C208.971 147.618 208.361 153.872 207.426 155.63C206.489 157.158 205.413 158.596 204.211 159.926L197.943 151.753C197.943 151.753 194.213 111.701 194.073 106.029C193.934 100.357 196.744 92.0067 196.744 92.0067Z" fill="white" stroke="#263238" stroke-linecap="round" stroke-linejoin="round"/>
    <path d="M200.069 150.752C200.069 150.752 204.042 153.232 204.741 154.284C205.44 155.336 205.94 156.675 205.396 157.815C204.851 158.955 201.886 162.398 201.136 163.068C200.386 163.737 199.753 161.067 199.665 158.771C199.576 156.476 200.069 150.752 200.069 150.752Z" fill="white" stroke="#263238" stroke-linecap="round" stroke-linejoin="round"/>
    <path d="M178.705 289.652C178.705 289.652 191.16 295.707 191.947 296.884C192.734 298.061 189.895 299.628 182.471 299.628C175.048 299.628 174.827 298.65 171.877 297.87C168.927 297.09 163.049 297.671 162.254 295.913C161.46 294.155 162.843 288.1 162.843 288.1L178.705 289.652Z" fill="white" stroke="#263238" stroke-linecap="round" stroke-linejoin="round"/>
    <path d="M162.166 292.779C162.166 292.779 172.466 299.032 171.561 301.181C170.656 303.329 163.211 303.329 159.289 302.74C155.368 302.152 147.033 296.855 146.591 294.927C146.15 293 147.253 290.042 153.293 289.461C159.334 288.88 162.166 292.779 162.166 292.779Z" fill="white" stroke="#263238" stroke-linecap="round" stroke-linejoin="round"/>
    <path d="M193.433 190.598C193.433 190.598 187.548 235.924 186.525 242.568C185.502 249.211 182.258 259.761 180.507 267.773C179.515 272.484 178.778 277.246 178.3 282.038C178.121 283.401 178.153 284.783 178.396 286.136C178.646 288.093 178.682 289.652 178.682 289.652C176.063 290.31 173.397 290.767 170.707 291.021C167.389 291.219 162.894 291.219 162.894 291.219L161.423 278.521C161.423 278.521 162.519 259.761 163.167 254.295C163.814 248.828 164.506 205.841 164.476 204.664C164.447 203.487 164.189 193.136 164.189 193.136L184.237 190.988C184.237 190.988 186.974 183.175 191.086 183.564C195.199 183.954 193.433 190.598 193.433 190.598Z" fill="white" stroke="#263238" stroke-linecap="round" stroke-linejoin="round"/>
    <path d="M191.116 183.564C187.003 183.175 184.266 190.988 184.266 190.988L164.197 193.136C164.197 193.136 164.263 195.887 164.329 198.713C166.47 198.904 168.449 199.014 170.141 199.014C176.571 199.004 182.996 198.643 189.387 197.933L190.248 188.928L191.594 198.102L192.521 197.8C193.095 193.43 193.463 190.583 193.463 190.583C193.463 190.583 195.228 183.954 191.116 183.564Z" fill="#263238" stroke="#263238" stroke-linecap="round" stroke-linejoin="round"/>
    <path d="M143.259 191.966C143.259 191.966 143.259 192.246 143.303 192.753C143.575 198.095 145.193 229.045 145.686 234.754C146.238 241.008 143.479 247.843 143.619 253.507C143.759 259.172 145.09 289.851 145.09 289.851L146.562 294.927C146.562 294.927 150.02 292.588 153.338 292.588C156.656 292.588 162.166 292.779 162.166 292.779C162.166 292.779 162.453 288.674 162.424 287.313C162.394 285.952 162.269 281.059 162.269 281.059C162.269 281.059 167.882 255.464 168.221 253.316C168.559 251.168 172.915 214.044 172.885 212.853C172.856 211.661 173.805 195.071 173.805 195.071L143.259 191.966Z" fill="white" stroke="#263238" stroke-linecap="round" stroke-linejoin="round"/>
    <path d="M173.599 198.977C173.724 196.711 173.812 195.093 173.812 195.093L143.259 191.966C143.259 191.966 143.259 192.246 143.303 192.753C143.303 193.401 143.384 194.423 143.457 195.696C150.601 196.976 162.997 198.992 170.141 198.992C171.318 199.014 172.466 198.999 173.599 198.977Z" fill="#263238" stroke="#263238" stroke-linecap="round" stroke-linejoin="round"/>
    <path d="M165.771 72.003C165.771 72.003 162.541 72.5475 161.313 73.9894C160.081 75.392 158.974 76.8985 158.002 78.4919C157.833 79.0363 138.837 90.5647 138.837 90.5647L140.205 145.536C140.205 145.536 140.772 154.004 139.764 156.888C138.061 162.558 137.235 168.456 137.314 174.376C137.491 181.402 137.947 192.768 137.947 192.768C137.947 192.768 159.687 197.094 170.141 197.094C176.571 197.079 182.996 196.713 189.387 195.998L190.248 186.985L191.557 196.182L196.023 194.71L199.701 167.489C199.701 167.489 202.262 161.722 202.232 160.456C202.203 159.191 202.88 157.572 202.137 156.491C201.394 155.409 200.069 153.246 200.069 153.246C200.069 153.246 196.744 93.6326 196.744 92.0067C196.744 90.3808 186.908 80.8388 186.179 80.4783C185.451 80.1178 180.963 73.445 175.144 71.6499C169.324 69.8548 165.771 72.003 165.771 72.003Z" fill="white" stroke="#263238" stroke-linecap="round" stroke-linejoin="round"/>
    <path d="M159.849 80.2944L157.671 100.092L166.617 104.249L164.38 110.966L186.753 150.281" stroke="#263238" stroke-linecap="round" stroke-linejoin="round"/>
    <path d="M184.84 82.5162L191.55 98.1792L188.673 102.012L193.47 108.722L191.55 151.878" stroke="#263238" stroke-linecap="round" stroke-linejoin="round"/>
    <path d="M164.94 74.7104C165.103 78.5727 165.803 82.3935 167.022 86.0623C168.956 91.4697 181.78 128.777 181.78 128.777L190.071 157.97C190.071 157.97 188.975 128.233 188.945 126.975C188.916 125.716 182.663 84.4364 182.663 84.4364C182.663 84.4364 181.596 77.7709 179.911 75.2475C178.226 72.724 166.933 68.0376 164.94 74.7104Z" fill="#35C2C1" stroke="#263238" stroke-linecap="round" stroke-linejoin="round"/>
    <path d="M164.145 71.8265C164.145 71.8265 158.929 72.3635 159.849 80.2944C160.768 88.2252 161.982 93.6326 161.982 93.6326" stroke="#263238" stroke-width="2" stroke-linecap="round" stroke-linejoin="round"/>
    <path d="M161.342 104.087C161.342 104.087 163.549 113.276 165.057 115.799C166.565 118.323 171.127 120.846 174.371 120.846" stroke="#263238" stroke-linecap="round" stroke-linejoin="round"/>
    <path d="M168.316 101.924C168.316 101.924 170.744 112.555 171.149 114.541C171.554 116.528 170.215 120.302 167.963 124.105" stroke="#263238" stroke-linecap="round" stroke-linejoin="round"/>
    <path d="M167.316 125.363C167.084 125.236 166.913 125.022 166.838 124.768C166.764 124.515 166.793 124.242 166.919 124.01L167.176 123.539C167.239 123.426 167.325 123.327 167.427 123.248C167.529 123.169 167.645 123.111 167.77 123.077C167.895 123.044 168.025 123.035 168.153 123.053C168.281 123.07 168.404 123.113 168.515 123.178C168.747 123.306 168.919 123.519 168.994 123.772C169.07 124.026 169.043 124.298 168.92 124.532L168.662 124.995C168.599 125.109 168.513 125.208 168.411 125.288C168.309 125.369 168.192 125.427 168.066 125.462C167.941 125.496 167.81 125.505 167.681 125.488C167.552 125.471 167.428 125.429 167.316 125.363Z" fill="#263238"/>
    <path d="M175.578 121.045C175.578 121.174 175.552 121.303 175.501 121.422C175.45 121.542 175.376 121.65 175.283 121.74C175.189 121.83 175.079 121.9 174.957 121.946C174.836 121.992 174.707 122.013 174.577 122.009H174.04C173.775 122.003 173.524 121.893 173.339 121.703C173.155 121.513 173.052 121.258 173.054 120.993C173.053 120.864 173.078 120.736 173.128 120.616C173.178 120.497 173.252 120.389 173.345 120.299C173.438 120.209 173.548 120.138 173.669 120.092C173.789 120.046 173.918 120.025 174.048 120.03H174.585C174.849 120.037 175.101 120.147 175.286 120.337C175.471 120.526 175.576 120.78 175.578 121.045Z" fill="#263238"/>
    <path d="M161.357 104.808L160.121 96.9727C159.983 96.1648 160.158 95.3348 160.61 94.6514C161.063 93.968 161.758 93.4827 162.556 93.2942V93.2942C163.415 93.0987 164.317 93.244 165.072 93.6995C165.826 94.155 166.375 94.8852 166.602 95.7367L168.714 103.535" stroke="#263238" stroke-width="2" stroke-linecap="round" stroke-linejoin="round"/>
    <path d="M190.438 110.103C192.209 109.926 193.479 108.127 193.274 106.085C193.07 104.044 191.468 102.532 189.697 102.71C187.927 102.887 186.657 104.686 186.861 106.728C187.066 108.769 188.667 110.281 190.438 110.103Z" fill="white" stroke="#263238" stroke-linecap="round" stroke-linejoin="round"/>
    <path d="M181.39 75.1298C181.39 75.1298 188.475 85.0985 190.733 105.419" stroke="#263238" stroke-width="2" stroke-linecap="round" stroke-linejoin="round"/>
    <path d="M190.921 107.771C191.888 107.681 192.587 106.693 192.482 105.564C192.377 104.436 191.508 103.594 190.541 103.683C189.575 103.773 188.876 104.761 188.981 105.89C189.086 107.019 189.954 107.861 190.921 107.771Z" fill="white" stroke="#263238" stroke-linecap="round" stroke-linejoin="round"/>
    <path d="M201.276 152.305C200.841 153.651 200.485 155.022 200.209 156.41C200.209 156.998 200.069 158.757 198.693 158.359C197.318 157.962 197.73 150.936 197.906 150.156C198.083 149.377 201.43 151.9 201.43 151.9" fill="white"/>
    <path d="M201.276 152.305C200.841 153.651 200.485 155.022 200.209 156.41C200.209 156.998 200.069 158.757 198.693 158.359C197.318 157.962 197.73 150.936 197.906 150.156C198.083 149.377 201.43 151.9 201.43 151.9" stroke="#263238" stroke-linecap="round" stroke-linejoin="round"/>
    <path d="M156.619 146.081C157.843 146.754 159.21 147.125 160.606 147.162C162.769 147.162 166.72 146.426 168.169 146.802C169.619 147.177 173.319 151.841 173.319 151.841C173.319 151.841 174.423 152.923 173.9 153.467C173.378 154.011 172.311 154.938 171.576 154.365C170.84 153.791 167.161 150.76 167.161 150.76L157.884 154.548L154.073 152.562L156.619 146.081Z" fill="white" stroke="#263238" stroke-linecap="round" stroke-linejoin="round"/>
    <path d="M142.413 89.3067C142.413 89.3067 136.299 90.0424 135.262 91.6462C134.224 93.2501 117.472 130.035 117.509 131.661C117.546 133.287 151.005 159.617 151.005 159.617L158.23 145.867L140.154 129.108L147.996 110.907" fill="white"/>
    <path d="M142.413 89.3067C142.413 89.3067 136.299 90.0424 135.262 91.6462C134.224 93.2501 117.472 130.035 117.509 131.661C117.546 133.287 151.005 159.617 151.005 159.617L158.23 145.867L140.154 129.108L147.996 110.907" stroke="#263238" stroke-linecap="round" stroke-linejoin="round"/>
    <path d="M153.691 166.261L171.362 166.621L171.274 155.63" stroke="#263238" stroke-linecap="round" stroke-linejoin="round"/>
    <path d="M157.906 154.548L153.235 156.292" stroke="#263238" stroke-linecap="round" stroke-linejoin="round"/>
    <path d="M163.233 64.0722C163.233 64.0722 165.241 79.7573 166.565 82.0968C167.89 84.4364 177.307 93.8092 177.307 93.8092C177.307 93.8092 180.249 83.0017 180.581 80.4783C180.912 77.9548 181.169 67.8611 181.169 67.8611L163.196 62.8142L163.233 64.0722Z" fill="white" stroke="#263238" stroke-linecap="round" stroke-linejoin="round"/>
    <path d="M163.233 64.0722C163.233 64.0722 163.468 65.9115 163.829 68.4202C165.237 69.7319 166.847 70.8099 168.596 71.6131C170.913 72.6358 177.093 73.2096 181 72.7535C181.103 70.1123 181.169 67.8611 181.169 67.8611L163.196 62.8142L163.233 64.0722Z" fill="#263238" stroke="#263238" stroke-linecap="round" stroke-linejoin="round"/>
    <path d="M158.024 50.3808C158.024 50.3808 155.618 47.8574 154.426 50.734C153.235 53.6106 155.898 57.9438 157.318 58.1278C158.16 58.2376 159.016 58.175 159.834 57.9438C159.834 57.9438 160.842 62.0932 161.769 63.3512C163.593 65.6581 165.931 67.5072 168.596 68.7513C171.877 70.2226 182.861 70.745 184.252 68.7513C185.642 66.7575 185.561 56.134 185.539 55.2365C185.517 54.3389 185.363 41.4936 185.363 41.4936C185.363 41.4936 186.348 37.0353 185.009 33.9674C183.671 30.8995 170.229 26.6104 166.852 28.3834C163.476 30.1565 159.584 33.2464 159.319 37.2118C159.054 41.1772 159.216 47.6661 159.216 47.6661L158.024 50.3808Z" fill="white" stroke="#263238" stroke-linecap="round" stroke-linejoin="round"/>
    <path d="M177.888 44.7895C177.888 44.7895 180.132 55.0893 179.617 56.3253C179.102 57.5613 177.491 57.5833 175.475 56.5019C173.459 55.4204 174.511 53.9784 174.511 53.9784" stroke="#263238" stroke-linecap="round" stroke-linejoin="round"/>
    <path d="M170.075 56.6858C170.075 56.6858 171.046 59.3858 172.848 59.5697C174.651 59.7537 179.175 60.1068 179.175 60.1068" stroke="#263238" stroke-linecap="round" stroke-linejoin="round"/>
    <path d="M163.637 45.15L163.924 49.4759C163.924 49.4759 165.572 50.3808 169.354 50.3808C173.135 50.3808 174.379 49.4759 174.379 49.4759L174.276 45.15C174.276 45.15 168.787 41.9056 163.637 45.15Z" stroke="#263238" stroke-linecap="round" stroke-linejoin="round"/>
    <path d="M177.903 45.15L179.271 49.6599C179.271 49.6599 179.83 50.3956 183.619 50.3956C187.408 50.3956 188.651 49.4907 188.651 49.4907L188.541 45.1647C188.541 45.1647 183.045 41.9056 177.903 45.15Z" stroke="#263238" stroke-linecap="round" stroke-linejoin="round"/>
    <path d="M174.298 45.15H177.903" stroke="#263238" stroke-linecap="round" stroke-linejoin="round"/>
    <path d="M163.659 45.15L156.553 49.2994" stroke="#263238" stroke-linecap="round" stroke-linejoin="round"/>
    <path d="M165.41 42.9871C165.41 42.9871 167.338 40.8241 171.708 42.6266" stroke="#263238" stroke-linecap="round" stroke-linejoin="round"/>
    <path d="M178.565 42.9871C179.214 42.4664 179.997 42.1397 180.823 42.0447C181.65 41.9496 182.486 42.0902 183.236 42.45" stroke="#263238" stroke-linecap="round" stroke-linejoin="round"/>
    <path d="M170.016 47.1364C170.016 47.931 169.729 48.6078 169.332 48.6078C168.934 48.6078 168.596 47.9604 168.596 47.1364C168.596 46.3124 168.883 45.665 169.288 45.665C169.692 45.665 170.001 46.3345 170.016 47.1364Z" fill="#263238"/>
    <path d="M181.552 46.9525C181.552 47.7471 181.265 48.4239 180.868 48.4239C180.47 48.4239 180.132 47.7765 180.132 46.9525C180.132 46.1285 180.419 45.4811 180.816 45.4811C181.213 45.4811 181.53 46.1579 181.552 46.9525Z" fill="#263238"/>
    <path d="M169.207 30.2815C169.207 30.2815 170.943 34.1145 168.787 35.5124C168.122 35.8973 167.367 36.1 166.599 36.1C165.83 36.1 165.075 35.8973 164.41 35.5124C164.983 36.304 165.303 37.2505 165.328 38.2275C165.353 39.2045 165.082 40.1661 164.55 40.986C163.493 42.7466 162.26 44.3957 160.871 45.9078C160.871 45.9078 161.261 50.5648 160.452 51.1092C159.643 51.6536 157.435 50.837 157.399 49.4686C157.362 48.1002 156.479 45.3634 156.442 43.995C156.405 42.6266 155.773 39.0658 155.773 39.0658C155.773 39.0658 150.24 36.6012 153.176 33.5922C156.111 30.5832 162.343 28.1186 162.343 28.1186C162.343 28.1186 162.482 22.645 166.271 21.0044C170.06 19.3638 178.212 16.8992 178.278 19.636C178.382 21.0445 178.128 22.4564 177.542 23.7412C177.542 23.7412 184.377 23.469 189.144 28.1554C193.911 32.8418 193.75 37.1898 191.285 37.1898C188.82 37.1898 188.018 37.7342 188.018 37.7342C188.018 37.7342 192.734 40.471 190.306 41.8394C187.879 43.2078 185.377 41.5672 185.377 41.5672C185.377 41.5672 186.422 39.6544 183.347 37.153C180.272 34.6516 169.207 30.2815 169.207 30.2815Z" fill="#263238" stroke="#263238" stroke-linecap="round" stroke-linejoin="round"/>
    <path d="M75.8538 306.985C97.1163 306.985 114.353 303.099 114.353 298.304C114.353 293.51 97.1163 289.623 75.8538 289.623C54.5913 289.623 37.3547 293.51 37.3547 298.304C37.3547 303.099 54.5913 306.985 75.8538 306.985Z" fill="#263238" stroke="#263238" stroke-linecap="round" stroke-linejoin="round"/>
    <path d="M101.206 118.742V125.775L111.432 130.462C111.432 130.462 112.499 125.775 111.646 117.462L101.206 118.742Z" fill="#999999" stroke="#263238" stroke-linecap="round" stroke-linejoin="round"/>
    <path d="M50.4501 287.519C48.1095 289.528 45.898 291.683 43.8288 293.971C40.886 297.289 40.3122 300.592 43.049 302.174C45.7858 303.756 50.0823 303.344 54.7687 300.416C59.4551 297.488 59.2638 296.31 62.0006 295.339C64.7374 294.368 66.4957 292.396 66.4957 289.277C66.4957 286.158 56.527 285.76 54.3787 285.599C52.2305 285.437 50.4501 287.519 50.4501 287.519Z" fill="white" stroke="#263238" stroke-linecap="round" stroke-linejoin="round"/>
    <path d="M66.4736 289.277C66.4736 289.277 62.0594 291.234 59.9185 293.014C57.7776 294.795 53.5106 301.203 48.5225 301.203C45.9824 301.205 43.4844 300.554 41.2686 299.312C41.2718 299.904 41.4375 300.484 41.7475 300.989C42.0575 301.493 42.5 301.903 43.0269 302.174C45.7637 303.734 50.0602 303.344 54.7466 300.416C59.433 297.488 59.2417 296.31 61.9785 295.339C64.7153 294.368 66.4736 292.404 66.4736 289.277Z" stroke="#263238" stroke-linecap="round" stroke-linejoin="round"/>
    <path d="M100.029 287.519C102.37 289.528 104.581 291.683 106.65 293.971C109.593 297.289 110.167 300.592 107.43 302.174C104.693 303.756 100.397 303.344 95.7103 300.416C91.0239 297.488 91.2152 296.31 88.4784 295.339C85.7416 294.368 83.9833 292.396 83.9833 289.277C83.9833 286.158 93.952 285.76 96.1002 285.599C98.2485 285.437 100.029 287.519 100.029 287.519Z" fill="white" stroke="#263238" stroke-linecap="round" stroke-linejoin="round"/>
    <path d="M84.0054 289.277C84.0054 289.277 88.4196 291.234 90.5605 293.014C92.7013 294.795 96.9684 301.203 101.956 301.203C104.497 301.205 106.995 300.554 109.21 299.312C109.207 299.904 109.042 300.484 108.732 300.989C108.421 301.493 107.979 301.903 107.452 302.174C104.715 303.734 100.419 303.344 95.7324 300.416C91.046 297.488 91.2373 296.31 88.5005 295.339C85.7637 294.368 84.0054 292.404 84.0054 289.277Z" stroke="#263238" stroke-linecap="round" stroke-linejoin="round"/>
    <path d="M44.7852 176.546C44.7852 176.546 45.955 220.504 46.5435 226.956C47.1321 233.408 48.8683 248.056 48.8683 248.865C48.8683 249.674 49.8395 282.082 49.8395 282.082L48.0812 285.025L48.6697 289.13L56.4828 290.69C60.3894 291.469 65.4731 292.647 66.2529 291.867C67.0328 291.087 67.2314 289.52 67.6213 287.372C68.0112 285.223 68.7911 281.309 68.0112 278.19C67.2314 275.071 68.9897 241.847 69.1884 241.067C69.387 240.287 73.8821 208.196 73.8821 208.196C73.8821 208.196 76.8249 234.578 78.9584 242.582C81.092 250.587 80.3269 262.512 81.1067 267.199C81.8865 271.885 83.4536 287.717 83.6522 288.887C83.8508 290.057 84.2334 291.83 84.2334 291.83C84.2334 291.83 94.0035 290.462 95.7618 289.674C97.5445 289.018 99.3743 288.496 101.235 288.115C101.235 288.115 101.817 276.976 101.037 272.481C100.469 269.322 100.141 266.125 100.058 262.917C100.058 261.549 101.037 218.179 101.037 218.179L100.058 176.171C100.058 176.171 73.6835 178.907 63.5235 176.951C53.3635 174.994 44.9839 173.824 44.9839 173.824L44.7852 176.546Z" fill="#35C2C1" stroke="#263238" stroke-linecap="round" stroke-linejoin="round"/>
    <path d="M63.5382 176.936C53.3782 174.986 44.9839 173.824 44.9839 173.824L44.7852 176.553C44.7852 176.553 44.8514 179.077 44.9618 182.991C49.6188 184.293 59.0799 186.581 68.2246 186.581C77.8917 186.581 93.2899 183.638 100.22 182.233L100.073 176.163C100.073 176.163 73.6982 178.893 63.5382 176.936Z" fill="#263238" stroke="#263238" stroke-linecap="round" stroke-linejoin="round"/>
    <path d="M97.476 275.932C97.6011 277.278 97.682 278.05 97.682 278.05" stroke="#263238" stroke-linecap="round" stroke-linejoin="round"/>
    <path d="M94.4817 186.86C94.4817 186.86 95.2174 224.616 95.2174 238.867C95.2174 248.725 96.4092 263.689 97.1449 271.973" stroke="#263238" stroke-linecap="round" stroke-linejoin="round"/>
    <path d="M54.9379 184.727L56.7183 225.691" stroke="#263238" stroke-linecap="round" stroke-linejoin="round"/>
    <path d="M56.3578 228.891V235.659" stroke="#263238" stroke-linecap="round" stroke-linejoin="round"/>
    <path d="M65.6202 73.3567C64.6583 73.3619 63.7115 73.5961 62.8581 74.04C62.0047 74.484 61.2694 75.1249 60.7131 75.9096C59.4964 77.515 58.1425 79.0116 56.6668 80.3827L39.1939 89.7628L40.9007 156.461L41.5408 179.268C41.5408 179.268 54.9599 183.741 67.7464 183.741C80.5328 183.741 103.332 178.591 103.332 178.591C103.332 178.591 101.419 89.7334 102.059 89.7334C102.699 89.7334 89.4863 78.2565 83.5198 75.2401C77.5533 72.2237 65.6202 73.3567 65.6202 73.3567Z" fill="#35C2C1" stroke="#263238" stroke-linecap="round" stroke-linejoin="round"/>
    <path d="M60.6395 81.42C60.6395 81.42 67.408 93.8901 70.2625 99.5918C73.117 105.293 78.4434 113.496 78.4434 113.496L87.3528 89.6304" stroke="#263238" stroke-linecap="round" stroke-linejoin="round"/>
    <path d="M65.6423 160.515L65.2965 150.561L45.1899 149.391C45.1899 149.391 45.3885 164.046 45.7784 164.841" stroke="#263238" stroke-linecap="round" stroke-linejoin="round"/>
    <path d="M65.8851 167.563L65.7894 164.767" stroke="#263238" stroke-linecap="round" stroke-linejoin="round"/>
    <path d="M89.7217 165.996L89.1332 149.59C89.1332 149.59 96.1665 150.171 102.03 146.264" stroke="#263238" stroke-linecap="round" stroke-linejoin="round"/>
    <path d="M59.5728 110.495C60.1908 112.444 62.0742 113.592 63.7736 113.048C65.4731 112.503 66.3339 110.48 65.7085 108.531C65.0832 106.581 63.2072 105.433 61.5077 105.978C59.8082 106.522 58.9475 108.545 59.5728 110.495Z" stroke="#263238" stroke-linecap="round" stroke-linejoin="round"/>
    <path d="M59.7714 76.3584C59.7714 76.3584 57.5128 85.0396 62.648 108.604" stroke="#263238" stroke-width="2" stroke-linecap="round" stroke-linejoin="round"/>
    <path d="M64.2298 109.413C64.0784 109.719 63.8426 109.974 63.5503 110.149C63.2581 110.324 62.9218 110.412 62.5812 110.402C62.2406 110.392 61.9102 110.284 61.629 110.091C61.3479 109.899 61.1278 109.63 60.9951 109.316C60.8623 109.002 60.8224 108.657 60.88 108.321C60.9377 107.985 61.0905 107.673 61.3203 107.421C61.5501 107.17 61.8472 106.99 62.1765 106.902C62.5057 106.814 62.8532 106.823 63.1777 106.927C63.6451 107.119 64.0176 107.488 64.2146 107.954C64.4116 108.419 64.417 108.944 64.2298 109.413V109.413Z" stroke="#263238" stroke-linecap="round" stroke-linejoin="round"/>
    <path d="M101.206 88.4827C101.206 88.4827 104.399 90.8296 104.612 91.683C104.826 92.5364 115.692 118.529 115.692 118.529L99.9259 120.853L100.139 105.507" fill="#35C2C1"/>
    <path d="M101.206 88.4827C101.206 88.4827 104.399 90.8296 104.612 91.683C104.826 92.5364 115.692 118.529 115.692 118.529L99.9259 120.853L100.139 105.507" stroke="#263238" stroke-linecap="round" stroke-linejoin="round"/>
    <path d="M41.3274 88.9094C41.3274 88.9094 37.7004 89.3361 36.847 92.1023C35.9936 94.8686 29.8211 123.002 29.8211 123.002L52.4071 120.853L50.2735 99.7536" fill="#35C2C1"/>
    <path d="M41.3274 88.9094C41.3274 88.9094 37.7004 89.3361 36.847 92.1023C35.9936 94.8686 29.8211 123.002 29.8211 123.002L52.4071 120.853L50.2735 99.7536" stroke="#263238" stroke-linecap="round" stroke-linejoin="round"/>
    <path d="M84.9544 75.0341C84.9544 75.0341 90.5531 78.2271 91.1049 86.1726C91.6566 94.1182 91.1049 96.134 91.1049 96.134" stroke="#263238" stroke-width="2" stroke-linecap="round" stroke-linejoin="round"/>
    <path d="M93.6356 106.309C93.6356 106.309 93.1354 115.704 92.1127 118.418C91.0901 121.133 87.0438 124.348 83.8361 124.863" stroke="#263238" stroke-linecap="round" stroke-linejoin="round"/>
    <path d="M86.389 105.293C86.389 105.293 85.9402 116.13 85.8961 118.146C85.8519 120.162 87.8825 123.671 90.7959 127.033" stroke="#263238" stroke-linecap="round" stroke-linejoin="round"/>
    <path d="M91.6314 128.214L91.7171 128.144C92.1179 127.819 92.1793 127.231 91.8543 126.83L91.4419 126.321C91.1169 125.921 90.5285 125.859 90.1277 126.184L90.042 126.254C89.6412 126.579 89.5797 127.167 89.9048 127.568L90.3172 128.076C90.6422 128.477 91.2306 128.539 91.6314 128.214Z" fill="#263238"/>
    <path d="M82.6843 125.206L82.7048 125.315C82.8009 125.822 83.2898 126.155 83.7968 126.059L84.4401 125.937C84.9471 125.841 85.2802 125.352 85.1841 124.845L85.1636 124.737C85.0675 124.23 84.5787 123.897 84.0717 123.993L83.4283 124.115C82.9213 124.211 82.5882 124.699 82.6843 125.206Z" fill="#263238"/>
    <path d="M93.746 107.022L93.5326 99.1283C93.5127 98.3049 93.1866 97.5184 92.618 96.9226C92.0493 96.3267 91.279 95.9642 90.4574 95.9059V95.9059C89.5848 95.8409 88.7219 96.1241 88.0574 96.6934C87.3929 97.2628 86.9809 98.0721 86.9113 98.9444L86.2492 106.949" stroke="#263238" stroke-width="2" stroke-linecap="round" stroke-linejoin="round"/>
    <path d="M112.072 125.135L106.989 124.068L89.089 121.089L63.987 116.307L58.0352 113.68C58.0352 113.68 52.4071 106.323 51.9215 105.588C51.436 104.852 45.0722 107.42 45.3002 108.398C45.5283 109.377 46.2787 119.154 46.7716 119.772C47.2646 120.39 52.7602 120.383 52.7602 120.383C52.7602 120.383 78.9805 133.037 80.0694 133.5C95.2027 139.879 102.501 139.82 105.083 140.239C107.665 140.658 109.35 139.614 110.836 137.907C112.322 136.2 112.072 125.135 112.072 125.135Z" fill="#999999" stroke="#263238" stroke-linecap="round" stroke-linejoin="round"/>
    <path d="M51.1564 105.485C51.1564 105.485 48.1032 105.61 43.5787 108.663C41.8939 109.803 41.0111 110.62 41.0111 111.113C41.1075 111.699 41.273 112.272 41.504 112.82C44.4375 111.407 47.5095 110.302 50.6708 109.524" fill="#999999"/>
    <path d="M51.1564 105.485C51.1564 105.485 48.1032 105.61 43.5787 108.663C41.8939 109.803 41.0111 110.62 41.0111 111.113C41.1075 111.699 41.273 112.272 41.504 112.82C44.4375 111.407 47.5095 110.302 50.6708 109.524" stroke="#263238" stroke-linecap="round" stroke-linejoin="round"/>
    <path d="M52.3777 113.313C52.3777 113.313 44.0716 115.387 42.7253 115.637C41.379 115.888 41.1362 114.534 41.1362 114.048C41.1362 113.563 41.504 112.82 42.9681 112.091C44.4321 111.363 51.7965 109.399 51.7965 109.399" fill="#999999"/>
    <path d="M52.3777 113.313C52.3777 113.313 44.0716 115.387 42.7253 115.637C41.379 115.888 41.1362 114.534 41.1362 114.048C41.1362 113.563 41.504 112.82 42.9681 112.091C44.4321 111.363 51.7965 109.399 51.7965 109.399" stroke="#263238" stroke-linecap="round" stroke-linejoin="round"/>
    <path d="M53.2384 117.101C53.2384 117.101 43.5787 118.08 42.843 117.469C42.6179 117.224 42.4471 116.934 42.3419 116.619C42.2367 116.303 42.1993 115.968 42.2324 115.637L50.9136 113.798" fill="#999999"/>
    <path d="M53.2384 117.101C53.2384 117.101 43.5787 118.08 42.843 117.469C42.6179 117.224 42.4471 116.934 42.3419 116.619C42.2367 116.303 42.1993 115.968 42.2324 115.637L50.9136 113.798" stroke="#263238" stroke-linecap="round" stroke-linejoin="round"/>
    <path d="M50.5458 117.587L43.0931 117.955C43.0931 117.955 43.4536 119.058 43.8288 119.176C45.5944 119.612 47.3933 119.9 49.2068 120.037C50.396 120.076 51.581 120.199 52.7529 120.405" fill="#999999"/>
    <path d="M50.5458 117.587L43.0931 117.955C43.0931 117.955 43.4536 119.058 43.8288 119.176C45.5944 119.612 47.3933 119.9 49.2068 120.037C50.396 120.076 51.581 120.199 52.7529 120.405" stroke="#263238" stroke-linecap="round" stroke-linejoin="round"/>
    <path d="M34.5075 122.575C34.5075 122.575 37.9138 137.289 38.7672 138.348C39.6206 139.408 46.6539 138.348 53.6872 136.215C60.7205 134.081 90.5531 121.302 90.5531 121.302L94.8128 122.148C94.8128 122.148 93.1059 116.822 90.1264 116.608C87.1468 116.395 52.4071 120.853 52.4071 120.853L34.5075 122.575Z" fill="#999999" stroke="#263238" stroke-linecap="round" stroke-linejoin="round"/>
    <path d="M64.3181 63.9766C64.3181 63.9766 64.3181 64.2929 64.3181 64.83C64.3843 67.633 64.6565 76.5349 65.3701 78.6832C66.2235 81.2361 77.7298 102.763 78.6127 101.056C79.4955 99.349 84.7926 76.123 84.7926 76.123V66.9635C84.7926 66.9635 82.019 69.303 76.9059 69.303C71.7928 69.303 64.3181 63.9766 64.3181 63.9766Z" fill="#999999" stroke="#263238" stroke-linecap="round" stroke-linejoin="round"/>
    <path d="M81.3863 76.6012C82.5794 75.8725 83.7201 75.0613 84.7999 74.1734V66.9635C84.7999 66.9635 82.0263 69.303 76.9132 69.303C71.8001 69.303 64.3181 63.9766 64.3181 63.9766C64.3181 63.9766 64.3181 64.2929 64.3181 64.83C64.3181 65.8158 64.3916 67.5594 64.4799 69.5017C64.6817 69.825 64.908 70.1325 65.1568 70.4213C66.6281 72.1208 73.6761 76.3878 75.383 76.8145C77.0898 77.2412 79.4661 77.6606 81.3863 76.6012Z" fill="#263238" stroke="#263238" stroke-linecap="round" stroke-linejoin="round"/>
    <path d="M89.913 51.6168C89.913 51.6168 93.3193 49.6966 93.3193 53.3236C93.3193 56.9506 90.1264 61.2103 90.1264 61.2103L89.913 51.6168Z" fill="#999999" stroke="#263238" stroke-linecap="round" stroke-linejoin="round"/>
    <path d="M59.4403 51.8302C59.4403 51.8302 54.7466 50.5501 54.7466 54.8171C54.7466 59.0842 59.0136 61.843 59.0136 61.843H61.9564C61.9564 61.843 63.6633 66.1101 65.1567 67.8096C66.6502 69.509 73.6761 73.7761 75.3829 74.2028C77.0898 74.6295 79.4293 75.0562 81.3495 73.9894C83.7619 72.4855 85.985 70.6972 87.9708 68.663C88.8242 67.6036 90.3176 60.3569 90.3176 60.3569C90.3176 60.3569 90.7443 47.3571 89.8909 42.8841C89.0375 38.411 83.4977 31.3777 75.8244 30.5243C68.151 29.6709 60.9044 35.8508 59.845 40.7505C58.7856 45.6503 59.4403 51.8302 59.4403 51.8302Z" fill="#999999" stroke="#263238" stroke-linecap="round" stroke-linejoin="round"/>
    <path d="M73.2862 55.2438C73.2862 55.2438 71.8148 58.2234 74.353 59.0768C76.8912 59.9302 80.1062 59.7169 80.7462 58.4368C81.3863 57.1566 80.3195 55.6705 80.3195 55.6705" stroke="#263238" stroke-linecap="round" stroke-linejoin="round"/>
    <path d="M70.7333 60.5703C70.7333 60.5703 76.0598 65.0433 83.3064 60.7836" stroke="#263238" stroke-linecap="round" stroke-linejoin="round"/>
    <path d="M73.7129 64.6166C73.7129 64.6166 78.1933 67.1769 81.1729 64.1899" stroke="#263238" stroke-linecap="round" stroke-linejoin="round"/>
    <path d="M71.16 52.6836C71.7492 52.6836 72.2268 51.9194 72.2268 50.9768C72.2268 50.0341 71.7492 49.2699 71.16 49.2699C70.5709 49.2699 70.0933 50.0341 70.0933 50.9768C70.0933 51.9194 70.5709 52.6836 71.16 52.6836Z" fill="#263238"/>
    <path d="M82.6664 50.7634C82.6664 51.7051 82.1882 52.4702 81.5996 52.4702C81.0111 52.4702 80.5328 51.7345 80.5328 50.7634C80.5328 49.7923 81.0111 49.0639 81.5996 49.0639C82.1882 49.0639 82.6664 49.8217 82.6664 50.7634Z" fill="#263238"/>
    <path d="M68.1731 48.6372C68.1731 48.6372 69.2399 46.9304 73.323 47.5705" stroke="#263238" stroke-linecap="round" stroke-linejoin="round"/>
    <path d="M79.8928 47.7838C79.8928 47.7838 81.8129 44.7969 84.7999 47.7838" stroke="#263238" stroke-linecap="round" stroke-linejoin="round"/>
    <path d="M89.913 42.8694C89.6362 41.6039 89.1568 40.3916 88.4931 39.2791C88.2449 40.4587 88.1583 41.6665 88.2356 42.8694C88.5446 44.429 89.6408 46.6067 89.6408 47.6955C89.6408 48.7844 89.479 53.1471 90.2588 52.5291C90.3361 52.4474 90.3983 52.3528 90.4427 52.2495C90.4914 49.1141 90.3144 45.9793 89.913 42.8694Z" fill="#263238" stroke="#263238" stroke-linecap="round" stroke-linejoin="round"/>
    <path d="M79.2013 34.041C80.5694 33.9685 81.9311 33.8038 83.277 33.548C81.1034 31.9208 78.5416 30.8911 75.8465 30.5611C68.1731 29.7077 60.9265 35.8876 59.8671 40.7873C58.8077 45.6871 59.4404 51.867 59.4404 51.867C59.4404 51.867 61.1325 53.0441 61.7578 51.8007C62.3832 50.5574 61.7578 48.5269 62.3832 46.3492C63.0085 44.1715 63.9355 43.0753 64.09 41.3612C64.2445 39.647 63.1557 37.1603 63.781 35.7551C64.4063 34.35 68.2982 31.7088 70.7922 32.6431C73.4755 33.6594 76.3335 34.1345 79.2013 34.041Z" fill="#263238" stroke="#263238" stroke-linecap="round" stroke-linejoin="round"/>
</svg>
