<svg width="200" height="200" viewBox="0 0 200 200" fill="none" xmlns="http://www.w3.org/2000/svg" xmlns:xlink="http://www.w3.org/1999/xlink">
<path d="M192.962,99.996C196.05,96.399 198.215,92.103 199.267,87.48C200.319,82.857 200.229,78.048 199.001,73.468C197.774,68.889 195.448,64.678 192.225,61.201C189.002,57.724 184.979,55.085 180.506,53.515C181.383,48.855 181.109,44.052 179.709,39.523C178.309,34.993 175.825,30.873 172.472,27.521C169.119,24.168 164.999,21.685 160.469,20.285C155.939,18.886 151.136,18.613 146.476,19.49C144.907,15.015 142.269,10.991 138.792,7.768C135.315,4.544 131.104,2.217 126.524,0.991C121.944,-0.236 117.133,-0.327 112.51,0.727C107.887,1.781 103.591,3.948 99.995,7.038C96.399,3.95 92.102,1.785 87.48,0.733C82.857,-0.32 78.047,-0.229 73.468,0.999C68.888,2.226 64.677,4.552 61.2,7.775C57.723,10.998 55.085,15.021 53.515,19.494C48.855,18.618 44.053,18.893 39.524,20.293C34.994,21.693 30.875,24.178 27.523,27.53C24.171,30.883 21.688,35.003 20.289,39.532C18.89,44.062 18.617,48.865 19.493,53.524C15.02,55.094 10.997,57.732 7.774,61.209C4.551,64.686 2.225,68.897 0.998,73.477C-0.229,78.056 -0.32,82.866 0.732,87.489C1.785,92.112 3.949,96.408 7.038,100.005C3.948,103.601 1.783,107.898 0.73,112.521C-0.323,117.144 -0.231,121.955 0.997,126.534C2.224,131.114 4.551,135.325 7.775,138.802C10.999,142.279 15.023,144.916 19.498,146.485C18.62,151.145 18.893,155.948 20.292,160.477C21.692,165.007 24.176,169.127 27.528,172.479C30.881,175.831 35.001,178.315 39.531,179.714C44.061,181.113 48.864,181.385 53.523,180.506C55.094,184.98 57.732,189.003 61.209,192.226C64.686,195.449 68.897,197.775 73.476,199.002C78.056,200.228 82.865,200.32 87.488,199.268C92.111,198.215 96.407,196.051 100.004,192.962C103.601,196.052 107.897,198.217 112.521,199.27C117.144,200.322 121.954,200.23 126.534,199.003C131.114,197.776 135.325,195.449 138.802,192.225C142.279,189 144.916,184.977 146.485,180.502C151.144,181.379 155.947,181.107 160.477,179.707C165.007,178.308 169.127,175.824 172.48,172.471C175.832,169.119 178.316,164.999 179.715,160.469C181.115,155.939 181.388,151.136 180.51,146.477C184.984,144.907 189.007,142.269 192.23,138.791C195.453,135.314 197.779,131.103 199.006,126.523C200.233,121.943 200.323,117.133 199.27,112.511C198.217,107.888 196.051,103.592 192.962,99.996L192.962,99.996Z" fill="#18C07A"/>
<path d="M82.049,138.168L54.26,110.397C53.205,109.341 52.613,107.909 52.613,106.416C52.613,104.924 53.205,103.492 54.26,102.436L57.636,99.055C58.692,98.001 60.124,97.408 61.617,97.408C63.109,97.408 64.541,98.001 65.597,99.055L85.798,119.242L133.371,68.688C134.394,67.602 135.807,66.966 137.299,66.92C138.791,66.875 140.24,67.423 141.328,68.445L144.795,71.717C145.882,72.741 146.519,74.155 146.564,75.648C146.61,77.14 146.061,78.59 145.038,79.678L90.145,138.043C89.628,138.594 89.005,139.035 88.315,139.34C87.624,139.646 86.879,139.809 86.123,139.821C85.368,139.833 84.618,139.693 83.918,139.409C83.218,139.125 82.583,138.703 82.049,138.168L82.049,138.168Z" fill="#FFFFFF"/>
</svg>
