<svg width="36" height="24" viewBox="0 0 36 24" fill="none" xmlns="http://www.w3.org/2000/svg" xmlns:xlink="http://www.w3.org/1999/xlink">
<path d="M2.635,15.647C4.183,8.191 10.654,2.893 17.934,2.893C25.211,2.893 31.682,8.191 33.232,15.647C33.294,15.943 33.47,16.202 33.722,16.368C33.974,16.534 34.281,16.592 34.576,16.531C34.871,16.469 35.129,16.292 35.295,16.04C35.46,15.787 35.518,15.479 35.457,15.183C33.693,6.702 26.316,0.617 17.934,0.617C9.551,0.617 2.174,6.702 0.411,15.183C0.349,15.479 0.408,15.787 0.573,16.04C0.738,16.292 0.997,16.469 1.291,16.531C1.586,16.592 1.894,16.534 2.146,16.368C2.398,16.202 2.574,15.943 2.635,15.647L2.635,15.647ZM17.911,7.447C20.018,7.447 22.039,8.286 23.529,9.781C25.018,11.275 25.855,13.302 25.855,15.415C25.855,17.528 25.018,19.555 23.529,21.05C22.039,22.544 20.018,23.383 17.911,23.383C15.804,23.383 13.783,22.544 12.294,21.05C10.804,19.555 9.967,17.528 9.967,15.415C9.967,13.302 10.804,11.275 12.294,9.781C13.783,8.286 15.804,7.447 17.911,7.447L17.911,7.447Z" fill="#6A707C"/>
</svg>
