<svg width="160" height="203" viewBox="0 0 160 203" fill="none" xmlns="http://www.w3.org/2000/svg">
    <path d="M77.4788 44.1778C76.5028 44.2947 75.5834 44.7661 74.8199 45.46C73.8019 46.3852 73.0219 47.709 72.5949 49.2588C72.5708 49.3465 72.5623 49.4377 72.5698 49.5282C72.8011 52.3423 73.6636 55.2477 74.9787 57.6163C75.0538 57.7511 75.1674 57.8606 75.305 57.9308C75.7035 58.1341 76.1327 58.2674 76.5772 58.3267C78.0955 58.5292 79.548 57.824 80.6271 56.6538C81.7062 55.4835 82.4652 53.8331 82.7176 51.9479C82.9699 50.0627 82.6709 48.272 81.9374 46.86C81.204 45.4479 79.989 44.3864 78.4707 44.1839C78.1363 44.1392 77.8041 44.139 77.4788 44.1778ZM78.2641 45.7233C79.1873 45.8465 79.9944 46.4919 80.5568 47.5747C81.1192 48.6574 81.3897 50.1491 81.1764 51.7426C80.9631 53.336 80.3099 54.7047 79.4825 55.6021C78.655 56.4993 77.7069 56.9104 76.7837 56.7872C76.5887 56.761 76.4138 56.6866 76.237 56.6174C75.1333 54.5475 74.3696 51.9977 74.1474 49.5456C74.5124 48.3098 75.1349 47.2735 75.8673 46.6079C76.6269 45.9175 77.4511 45.6149 78.2641 45.7233Z" fill="black"/>
    <path d="M65.7444 43.7994C64.2257 43.5968 62.7737 44.3011 61.6947 45.4713C60.6157 46.6416 59.856 48.2919 59.6035 50.1778C59.3511 52.0638 59.6501 53.8553 60.3835 55.2673C61.1169 56.6793 62.3327 57.7395 63.8514 57.9421C65.3701 58.1447 66.8221 57.4404 67.9011 56.2702C68.9801 55.1 69.7389 53.4496 69.9914 51.5636C70.2438 49.6776 69.9456 47.8862 69.2123 46.4742C68.4789 45.0622 67.2631 44.002 65.7444 43.7994ZM65.5384 45.3382C66.4626 45.4615 67.2691 46.1069 67.8313 47.1893C68.3936 48.2718 68.6634 49.7634 68.45 51.358C68.2366 52.9525 67.5838 54.321 66.7567 55.2181C65.9295 56.1153 64.9815 56.5266 64.0573 56.4033C63.1332 56.28 62.3258 55.6345 61.7636 54.552C61.2014 53.4696 60.9315 51.978 61.1449 50.3834C61.3583 48.7889 62.0111 47.4204 62.8382 46.5232C63.6654 45.6261 64.6143 45.2149 65.5384 45.3382Z" fill="black"/>
    <path d="M79.6742 39.2325C76.7515 39.1853 74.6701 40.6709 73.5911 42.8157C72.512 44.9605 72.3073 47.7058 72.6686 50.4654C73.0299 53.225 73.9689 56.0062 75.331 58.225C76.6931 60.4438 78.5006 62.1552 80.699 62.5047C80.7999 62.5208 80.9029 62.5168 81.0023 62.4931C81.1016 62.4694 81.1953 62.4264 81.278 62.3666C81.3606 62.3067 81.4307 62.2312 81.4841 62.1443C81.5376 62.0574 81.5733 61.9609 81.5894 61.8602C81.6216 61.6569 81.5717 61.4493 81.4507 61.2828C81.3296 61.1162 81.1473 61.0045 80.9438 60.9722C79.4172 60.7295 77.8808 59.4069 76.6569 57.4133C75.433 55.4197 74.5441 52.81 74.2106 50.2635C73.8772 47.717 74.1109 45.2405 74.9804 43.5122C75.8499 41.7839 77.2277 40.7449 79.649 40.7841C79.8551 40.7874 80.054 40.7088 80.2021 40.5657C80.3502 40.4226 80.4353 40.2266 80.4387 40.0209C80.442 39.8152 80.3633 39.6166 80.2199 39.4687C80.0766 39.3209 79.8803 39.236 79.6742 39.2325Z" fill="black"/>
    <path d="M71.5778 46.4671C69.8102 46.6237 68.5736 47.5379 68.5736 47.5379C68.4911 47.5979 68.4212 47.6736 68.368 47.7606C68.3148 47.8476 68.2793 47.9443 68.2635 48.045C68.2477 48.1457 68.2519 48.2486 68.276 48.3477C68.3 48.4467 68.3433 48.5401 68.4035 48.6225C68.4637 48.7049 68.5395 48.7746 68.6267 48.8277C68.7138 48.8808 68.8106 48.9163 68.9115 48.932C69.0124 48.9478 69.1154 48.9436 69.2147 48.9196C69.3139 48.8957 69.4075 48.8524 69.49 48.7923C69.49 48.7923 71.143 47.6148 73.1025 48.127C73.2013 48.1528 73.3043 48.159 73.4055 48.1451C73.5066 48.1312 73.6041 48.0976 73.6923 48.0461C73.7804 47.9946 73.8576 47.9263 73.9193 47.845C73.981 47.7638 74.026 47.6712 74.0519 47.5725C74.0778 47.4739 74.084 47.3711 74.0701 47.2701C74.0562 47.1691 74.0225 47.0717 73.9709 46.9837C73.9193 46.8957 73.8509 46.8187 73.7695 46.7571C73.6881 46.6955 73.5953 46.6505 73.4965 46.6247C72.8154 46.4467 72.1671 46.4148 71.5778 46.4671Z" fill="black"/>
    <path d="M64.7215 38.7773C62.1965 39.0931 60.1443 40.36 58.3086 41.7488C58.1443 41.8732 58.0362 42.0575 58.008 42.2614C57.9799 42.4653 58.034 42.672 58.1584 42.8361C58.283 43.0001 58.4677 43.108 58.6719 43.1361C58.8761 43.1642 59.0832 43.1102 59.2475 42.9859C61.5956 41.2094 63.892 39.8737 67.1929 40.3462C67.294 40.3607 67.3969 40.3551 67.4958 40.3298C67.5948 40.3046 67.6877 40.2601 67.7695 40.199C67.8512 40.1378 67.92 40.0613 67.9721 39.9736C68.0241 39.8859 68.0584 39.7887 68.0728 39.6878C68.0873 39.5869 68.0817 39.4841 68.0564 39.3854C68.0311 39.2866 67.9866 39.1938 67.9253 39.1123C67.8641 39.0307 67.7873 38.9619 67.6995 38.91C67.6116 38.858 67.5144 38.8238 67.4133 38.8094C66.4571 38.6725 65.5631 38.6719 64.7215 38.7773Z" fill="black"/>
    <path d="M38.9137 46.445C38.8117 46.4384 38.7095 46.4519 38.6128 46.4848C38.5161 46.5177 38.4268 46.5693 38.3501 46.6366C38.2734 46.7039 38.2107 46.7857 38.1657 46.8773C38.1206 46.9688 38.0941 47.0683 38.0876 47.1701C38.081 47.2719 38.0945 47.374 38.1275 47.4705C38.1604 47.567 38.2121 47.6561 38.2795 47.7327C38.347 47.8093 38.4289 47.8719 38.5206 47.9169C38.6123 47.9618 38.7119 47.9883 38.8139 47.9948L60.7071 49.4009C60.8091 49.4075 60.9113 49.3939 61.008 49.361C61.1047 49.3282 61.194 49.2766 61.2707 49.2092C61.3474 49.1419 61.4101 49.0601 61.4551 48.9686C61.5002 48.8771 61.5267 48.7776 61.5332 48.6758C61.5398 48.574 61.5263 48.4719 61.4933 48.3754C61.4604 48.2788 61.4087 48.1897 61.3412 48.1131C61.2738 48.0366 61.1919 47.974 61.1002 47.929C61.0085 47.884 60.9088 47.8575 60.8069 47.851L38.9137 46.445Z" fill="black"/>
    <path d="M59.0167 68.8861C58.8207 68.823 58.6075 68.8401 58.4241 68.9338C58.3332 68.9802 58.2524 69.0442 58.1862 69.1218C58.1201 69.1995 58.0699 69.2893 58.0385 69.3864C58.0072 69.4834 57.9953 69.5856 58.0035 69.6872C58.0117 69.7888 58.0399 69.8878 58.0865 69.9785C59.8202 73.3574 63.0054 75.2604 67.2199 75.7145C67.4248 75.7366 67.6301 75.6766 67.7908 75.5476C67.9514 75.4186 68.0541 75.2312 68.0764 75.0266C68.0873 74.9253 68.0782 74.8227 68.0494 74.7249C68.0207 74.627 67.9729 74.5358 67.9089 74.4564C67.8448 74.377 67.7657 74.311 67.6761 74.2621C67.5864 74.2132 67.488 74.1825 67.3865 74.1716C63.5324 73.7563 60.9687 72.1905 59.4706 69.2708C59.424 69.18 59.3599 69.0993 59.282 69.0333C59.2041 68.9673 59.114 68.9173 59.0167 68.8861Z" fill="black"/>
    <path d="M75.1583 63.5303C75.0562 63.5293 74.9549 63.5483 74.8602 63.5864C74.7655 63.6245 74.6792 63.6808 74.6062 63.7521C74.5333 63.8235 74.4752 63.9085 74.4352 64.0022C74.3951 64.096 74.374 64.1968 74.373 64.2987C74.2927 72.5036 71.4205 80.3481 66.1725 84.4114C60.9245 88.4748 53.251 89.0157 42.8691 82.3236C42.7833 82.2682 42.6874 82.2304 42.587 82.2121C42.4865 82.1938 42.3834 82.1954 42.2835 82.2168C42.1837 82.2383 42.0891 82.2792 42.0051 82.3372C41.921 82.3952 41.8493 82.4692 41.7939 82.5549C41.7385 82.6405 41.7005 82.7362 41.6821 82.8364C41.6636 82.9367 41.6652 83.0396 41.6866 83.1393C41.7081 83.239 41.749 83.3335 41.807 83.4174C41.865 83.5013 41.939 83.5729 42.0248 83.6283C52.7406 90.5356 61.3368 90.12 67.1253 85.6381C72.9138 81.1563 75.8444 72.8672 75.9281 64.3143C75.9291 64.2124 75.91 64.1113 75.8719 64.0167C75.8337 63.9221 75.7773 63.8359 75.7059 63.7631C75.6344 63.6903 75.5493 63.6323 75.4553 63.5924C75.3614 63.5524 75.2604 63.5313 75.1583 63.5303Z" fill="black"/>
    <path d="M26.442 81.3855C26.2482 81.3152 26.0344 81.3247 25.8476 81.4117C25.6609 81.4988 25.5165 81.6563 25.446 81.8496C25.3756 82.0429 25.3849 82.2561 25.4718 82.4426C30.7304 93.6947 42.1378 98.5434 57.6864 98.6196C57.8925 98.6205 58.0905 98.5397 58.2369 98.395C58.3834 98.2503 58.4663 98.0534 58.4674 97.8477C58.468 97.7458 58.4484 97.6447 58.4099 97.5503C58.3714 97.4559 58.3146 97.37 58.2428 97.2975C58.171 97.2251 58.0856 97.1674 57.9914 97.1278C57.8973 97.0883 57.7963 97.0677 57.6942 97.0671C42.4598 96.9924 31.8504 92.42 26.8811 81.7869C26.8379 81.6945 26.7769 81.6115 26.7015 81.5427C26.6262 81.4738 26.538 81.4203 26.442 81.3855Z" fill="black"/>
    <path d="M22.9935 84.6221C22.8913 84.6232 22.7904 84.6445 22.6964 84.6846C22.6024 84.7247 22.5173 84.783 22.4459 84.856C21.2711 86.0584 20.1147 87.8657 19.5476 89.8945C18.9804 91.9234 19.034 94.2342 20.4492 96.1572C31.1827 110.72 39.5685 112.337 49.0642 113.162C54.4044 113.625 58.3525 111.269 60.9901 108.305C63.6274 105.341 65.0308 101.801 65.5538 99.6078C67.1921 92.7391 63.2177 86.8486 63.2177 86.8486C63.161 86.7637 63.0882 86.6909 63.0033 86.6342C62.9184 86.5775 62.8231 86.538 62.723 86.518C62.6228 86.4981 62.5197 86.498 62.4195 86.5179C62.3193 86.5377 62.224 86.5771 62.1391 86.6337C61.9675 86.7478 61.8484 86.9253 61.8079 87.1271C61.7674 87.3288 61.8088 87.5384 61.923 87.7097C61.923 87.7097 65.501 93.13 64.0412 99.2483H64.0403C63.5777 101.189 62.2335 104.57 59.8273 107.274C57.421 109.978 54.029 112.034 49.1987 111.615C39.7842 110.798 32.245 109.541 21.7022 95.2381H21.7014C20.6234 93.7725 20.5639 92.0352 21.0453 90.313C21.5268 88.5905 22.5802 86.9427 23.5593 85.9407C23.7032 85.7933 23.7826 85.5948 23.78 85.389C23.7774 85.1831 23.693 84.9868 23.5454 84.843C23.3979 84.6996 23.1994 84.6205 22.9935 84.623L22.9935 84.6221Z" fill="black"/>
    <path d="M29.0523 0.0186891C27.8984 0.0555046 26.7021 0.143989 25.4623 0.292449C16.7947 1.33033 5.38694 9.12219 3.30005 31.6015C2.95568 35.31 2.33328 44.1076 4.86292 52.221C6.12774 56.2777 8.19169 60.1786 11.5119 63.1393C14.832 66.1001 19.402 68.0882 25.5204 68.3598C32.3337 68.6648 37.5142 64.04 40.3959 59.7867C40.3962 59.7867 40.3965 59.7867 40.3968 59.7867C40.5087 59.621 40.6062 59.4473 40.6511 59.2071C40.6959 58.967 40.64 58.6327 40.4749 58.4084C40.1448 57.9598 39.7796 57.9463 39.47 57.8955C38.8509 57.7939 38.1278 57.7951 37.396 57.6616C36.1202 57.425 34.2981 56.9726 32.9729 55.5131C31.6472 54.0529 30.6958 51.5123 31.4587 46.7086C31.7856 44.6511 33.3437 43.2066 35.0808 42.9643C36.8179 42.722 38.8201 43.576 40.2094 46.6896C41.7007 50.0298 42.8563 52.4702 43.9538 54.0187C44.5026 54.7929 45.0349 55.3691 45.7076 55.6829C46.3803 55.9966 47.2148 55.9115 47.845 55.4914C49.1845 54.5986 49.8809 52.6386 50.1411 50.2467C50.3619 48.2165 50.1341 45.8627 49.2716 43.6089C51.5553 43.6962 53.4876 43.0465 54.7533 41.4665C56.0902 39.7977 56.6522 37.268 56.6251 33.9458C59.4228 35.2829 72.3974 40.7523 88.6697 34.2404C92.9478 32.5291 96.7213 29.905 99.4388 26.8922C102.156 23.8794 103.842 20.4605 103.78 17.1287C103.752 15.5983 103.564 11.6335 100.13 8.07901C96.6968 4.52454 90.1299 1.42836 77.6289 1.14838C73.6332 1.05643 62.7765 2.50312 53.4699 10.1963C52.8806 9.39733 51.0793 7.08835 47.175 4.63107C43.1142 2.07524 37.1293 -0.237611 29.0523 0.0196096L29.0523 0.0186891ZM29.1035 1.56855C36.8627 1.31634 42.5069 3.52757 46.3454 5.94351C50.7323 8.70453 52.7045 11.6899 52.7045 11.6899C52.7656 11.7817 52.8456 11.8596 52.9391 11.9182C53.0327 11.9768 53.1377 12.0148 53.2472 12.0297C53.3566 12.0446 53.468 12.0361 53.5739 12.0047C53.6798 11.9732 53.7777 11.9197 53.8612 11.8475C62.9008 4.03999 73.9672 2.61654 77.5933 2.69997C77.5936 2.69997 77.5939 2.69997 77.5942 2.69997C89.851 2.97445 95.952 5.98928 99.011 9.15585C102.07 12.3224 102.199 15.6883 102.226 17.1564C102.278 19.9368 100.821 23.0392 98.2838 25.8526C95.7461 28.666 92.1514 31.1737 88.0908 32.7979C70.4422 39.8606 56.219 32.0746 56.219 32.0746C56.0977 32.0085 55.9609 31.9759 55.8227 31.9802C55.6845 31.9844 55.55 32.0254 55.433 32.0988C55.3159 32.1722 55.2206 32.2755 55.1568 32.3979C55.093 32.5203 55.0631 32.6575 55.0701 32.7953C55.2635 36.5735 54.6596 39.0957 53.5385 40.4953C52.4173 41.8948 50.7531 42.3894 48.2129 41.9914C48.0716 41.9694 47.927 41.9868 47.795 42.0415C47.6629 42.0962 47.5486 42.1863 47.4644 42.3017C47.3803 42.4171 47.3297 42.5534 47.3181 42.6957C47.3065 42.838 47.3345 42.9807 47.3989 43.1081C48.5449 45.3756 48.8262 47.9507 48.5947 50.0786C48.3633 52.2065 47.492 53.8594 46.9815 54.1997C46.6868 54.3962 46.6188 54.3932 46.3654 54.2751C46.112 54.1569 45.694 53.7863 45.2225 53.1211C44.2796 51.7909 43.1131 49.3791 41.6299 46.0571C40.0445 42.5039 37.3104 41.0847 34.8656 41.4257C32.4208 41.7667 30.352 43.7624 29.9227 46.4643C29.114 51.5564 30.129 54.6912 31.8205 56.5544C33.5121 58.4176 35.7565 58.9365 37.114 59.188C37.1149 59.188 37.1158 59.188 37.1166 59.188C37.8091 59.3144 38.3047 59.3334 38.7385 59.3717C36 63.1985 31.4245 67.0694 25.5899 66.8082C19.7704 66.5499 15.6006 64.704 12.5481 61.9819C9.49554 59.2598 7.55394 55.6287 6.34778 51.7601C3.93544 44.0229 4.51016 35.3955 4.84912 31.7454C6.89158 9.74456 17.7201 2.78378 25.6472 1.83451C26.8429 1.69133 27.995 1.60457 29.1035 1.56855Z" fill="black"/>
    <path fill-rule="evenodd" clip-rule="evenodd" d="M49.4269 47.8985L41.3743 47.384C41.2263 47.0558 41.0749 46.7187 40.9198 46.3727C37.9452 39.706 31.4468 41.8262 30.6906 46.5856C29.1191 56.4814 34.6227 57.9363 37.2561 58.4242C38.8849 58.7214 40.3626 58.4464 39.7517 59.3513C36.9659 63.4631 31.996 67.872 25.5549 67.5837C1.67893 66.5236 3.39127 39.0318 4.07461 31.6731C6.13929 9.43302 17.2575 2.05661 25.5549 1.06304C45.0385 -1.27009 53.3523 11.2605 53.3523 11.2605C62.5911 3.28083 73.756 1.83486 77.6112 1.92357C102.369 2.47802 102.948 14.1436 103.003 17.1421C103.116 23.2543 96.7189 30.1828 88.3802 33.5183C70.4131 40.7084 55.8462 32.7554 55.8462 32.7554C56.2429 40.5044 53.4998 43.6049 48.0926 42.7577C48.9315 44.4166 49.334 46.2086 49.4269 47.8985Z" fill="black"/>
    <path d="M53.4812 111.308C53.3899 111.354 53.3085 111.417 53.2417 111.494C53.1749 111.571 53.1239 111.661 53.0918 111.758C53.0596 111.854 53.0469 111.957 53.0543 112.058C53.0617 112.16 53.0891 112.259 53.1349 112.35C53.1349 112.35 54.9002 115.87 55.9275 118.559C56.0009 118.752 56.1479 118.907 56.336 118.991C56.5241 119.075 56.738 119.081 56.9306 119.008C57.1232 118.935 57.2787 118.788 57.363 118.6C57.4473 118.412 57.4535 118.199 57.3801 118.007C56.3032 115.187 54.5251 111.654 54.5251 111.654C54.4793 111.563 54.416 111.481 54.3387 111.415C54.2615 111.348 54.1718 111.297 54.0749 111.265C53.9779 111.233 53.8756 111.22 53.7737 111.228C53.6719 111.235 53.5725 111.262 53.4812 111.308Z" fill="black"/>
    <path d="M59.6884 134.533C58.4826 134.533 57.4591 135.497 57.4591 136.703C57.4591 137.909 58.4826 138.874 59.6884 138.874C60.8942 138.874 61.9169 137.909 61.9169 136.703C61.9169 135.497 60.8942 134.533 59.6884 134.533ZM59.6884 136.086C60.0855 136.086 60.3618 136.369 60.3618 136.703C60.3618 137.037 60.0855 137.322 59.6884 137.322C59.2914 137.322 59.0142 137.037 59.0142 136.703C59.0142 136.369 59.2914 136.086 59.6884 136.086Z" fill="black"/>
    <path d="M66.254 134.135C65.2041 134.135 64.3076 134.978 64.3076 136.035C64.3076 137.091 65.2041 137.934 66.254 137.934C67.304 137.934 68.2005 137.091 68.2005 136.035C68.2005 134.978 67.304 134.135 66.254 134.135ZM66.254 135.689C66.4947 135.689 66.6445 135.851 66.6445 136.035C66.6445 136.218 66.4947 136.38 66.254 136.38C66.0134 136.38 65.8636 136.218 65.8635 136.035C65.8636 135.851 66.0134 135.689 66.254 135.689Z" fill="black"/>
    <path d="M57.7819 114.402C57.6844 114.371 57.5818 114.36 57.48 114.369C57.3781 114.378 57.279 114.407 57.1884 114.454C57.0057 114.549 56.8684 114.713 56.8066 114.909C56.7448 115.106 56.7635 115.318 56.8586 115.501C56.8586 115.501 63.2635 127.839 65.0991 135.166C65.1238 135.265 65.1679 135.358 65.2287 135.44C65.2895 135.522 65.3659 135.591 65.4535 135.644C65.5411 135.696 65.6381 135.731 65.7392 135.746C65.8402 135.761 65.9432 135.756 66.0423 135.731C66.2423 135.681 66.4142 135.554 66.5202 135.377C66.6261 135.201 66.6574 134.989 66.6073 134.79C64.6671 127.045 58.2375 114.783 58.2375 114.783C58.1422 114.601 57.9784 114.464 57.7819 114.402Z" fill="black"/>
    <path d="M52.734 115.258C52.5349 115.312 52.3653 115.442 52.2625 115.62C52.1596 115.799 52.132 116.011 52.1855 116.209C52.1855 116.209 53.1704 119.869 54.4374 124.133C55.7045 128.396 57.2327 133.231 58.4084 135.75C58.4954 135.937 58.6531 136.081 58.8467 136.152C59.0404 136.222 59.2542 136.213 59.441 136.126C59.5337 136.083 59.6169 136.022 59.6859 135.947C59.755 135.872 59.8085 135.784 59.8435 135.688C59.8785 135.592 59.8942 135.491 59.8898 135.389C59.8853 135.287 59.8608 135.187 59.8177 135.094C58.7496 132.806 57.1889 127.933 55.9283 123.692C54.6677 119.45 53.6868 115.806 53.6868 115.806C53.6603 115.708 53.6147 115.616 53.5525 115.535C53.4902 115.454 53.4127 115.386 53.3242 115.335C53.2357 115.284 53.138 115.251 53.0368 115.238C52.9355 115.225 52.8326 115.232 52.734 115.258Z" fill="black"/>
    <path d="M22.9414 97.4435C17.3948 97.941 12.5164 101.391 8.77488 106.077C5.03333 110.764 2.3966 116.712 1.33628 122.422C-2.76721 144.519 2.84078 169.569 14.5838 186.392C20.424 194.758 24.8276 198.695 29.33 200.608C33.8324 202.522 38.273 202.374 44.1222 202.815C63.9247 204.301 78.5591 196.357 78.5591 196.357C78.6816 196.291 78.7839 196.193 78.8553 196.073C78.9268 195.954 78.9647 195.817 78.9652 195.678C79.0097 184.347 77.7677 177.747 76.4782 173.93C75.8334 172.021 75.176 170.808 74.6567 170.055C74.1375 169.302 73.6753 168.955 73.6753 168.955C73.5613 168.875 73.4279 168.827 73.2891 168.816C54.17 167.329 29.428 174.445 29.428 174.445C29.3298 174.473 29.2382 174.521 29.1582 174.584C29.0783 174.648 29.0117 174.726 28.9622 174.816C28.9127 174.905 28.8813 175.003 28.8698 175.104C28.8583 175.206 28.867 175.308 28.8952 175.406C28.9521 175.604 29.0854 175.771 29.2657 175.871C29.446 175.971 29.6586 175.995 29.8567 175.938C29.8567 175.938 54.2951 168.995 72.8917 170.356C72.9452 170.397 73.0301 170.434 73.3759 170.935C73.8003 171.55 74.3986 172.631 75.0047 174.425C76.1976 177.957 77.4013 184.303 77.398 195.19C76.2831 195.775 62.7723 202.657 44.2393 201.267H44.2384C38.3096 200.82 34.0711 200.936 29.9391 199.18C25.807 197.424 21.6209 193.758 15.8594 185.504C4.39916 169.086 -1.1531 144.343 2.86528 122.705C3.8763 117.26 6.42817 111.507 9.99062 107.045C13.5531 102.583 18.0938 99.4371 23.0802 98.9899C23.1819 98.9808 23.2808 98.9517 23.3713 98.9044C23.4618 98.8571 23.542 98.7924 23.6074 98.7141C23.6729 98.6359 23.7222 98.5455 23.7527 98.4482C23.7831 98.3509 23.794 98.2485 23.7848 98.147C23.7663 97.942 23.6671 97.7528 23.5089 97.6209C23.3508 97.489 23.1467 97.4252 22.9414 97.4435Z" fill="black"/>
    <path d="M23.1028 120.058C23.0036 120.082 22.9101 120.125 22.8278 120.186C22.7455 120.246 22.6759 120.322 22.6229 120.409C22.5699 120.496 22.5347 120.593 22.5191 120.694C22.5035 120.795 22.508 120.897 22.5322 120.996C22.5565 121.095 22.6001 121.189 22.6605 121.271C22.7208 121.353 22.7968 121.423 22.8841 121.476C26.8311 123.867 29.132 127.657 30.7844 132.001C32.4368 136.344 33.4097 141.205 34.7293 145.578C37.4446 154.574 38.283 166.854 38.4972 170.324C35.6644 167.784 31.4161 167.696 31.4161 167.696C31.314 167.693 31.2123 167.71 31.1169 167.747C31.0215 167.783 30.9341 167.838 30.8599 167.908C30.7857 167.978 30.726 168.062 30.6843 168.155C30.6426 168.248 30.6197 168.349 30.6169 168.451C30.614 168.553 30.6313 168.654 30.6677 168.749C30.7041 168.845 30.759 168.932 30.8292 169.006C30.8994 169.08 30.9835 169.14 31.0768 169.181C31.17 169.223 31.2706 169.246 31.3728 169.248C31.3728 169.248 37.019 169.519 38.7862 173.15C38.8645 173.311 38.9961 173.44 39.1588 173.515C39.3214 173.59 39.5051 173.607 39.6787 173.562C39.8524 173.518 40.0053 173.415 40.1116 173.271C40.218 173.127 40.2712 172.951 40.2623 172.772C40.2623 172.772 39.4482 155.831 36.2184 145.13C34.9304 140.862 33.9543 135.962 32.2379 131.45C30.5216 126.938 28.0335 122.778 23.6912 120.148C23.6038 120.095 23.5069 120.06 23.406 120.044C23.305 120.029 23.202 120.033 23.1028 120.058Z" fill="black"/>
    <path d="M12.837 181.447C12.631 181.438 12.4299 181.511 12.2779 181.65C12.1259 181.789 12.0355 181.983 12.0265 182.189C12.0265 182.189 11.5282 193.405 11.8894 199.1C11.9025 199.306 11.9968 199.497 12.1516 199.633C12.3064 199.769 12.5089 199.838 12.7146 199.825C12.9204 199.812 13.1125 199.718 13.2489 199.564C13.3853 199.41 13.4547 199.208 13.4418 199.002C13.0947 193.529 13.5798 182.256 13.5798 182.256C13.5887 182.051 13.5155 181.85 13.3762 181.698C13.2369 181.546 13.043 181.456 12.837 181.447Z" fill="black"/>
    <path d="M118.848 153.516C117.495 153.44 115.933 153.785 114.34 154.222C112.217 154.806 110.084 155.627 108.678 156.198C106.081 157.252 103.507 157.1 103.507 157.1C103.301 157.087 103.099 157.156 102.944 157.292C102.789 157.428 102.695 157.62 102.682 157.826C102.669 158.031 102.738 158.233 102.874 158.388C103.01 158.542 103.202 158.636 103.408 158.649C103.408 158.649 106.288 158.844 109.264 157.636C110.643 157.076 112.733 156.274 114.752 155.719C116.772 155.165 118.764 154.931 119.639 155.219C119.92 155.311 119.962 155.362 120.124 155.441C120.037 155.466 119.977 155.498 119.883 155.516C119.183 155.648 117.466 156.086 115.732 156.62C114.865 156.886 114.006 157.174 113.287 157.461C112.568 157.748 112.026 157.956 111.585 158.395C111.439 158.54 111.357 158.737 111.356 158.943C111.356 159.149 111.438 159.347 111.583 159.492C111.729 159.638 111.927 159.72 112.133 159.72C112.339 159.72 112.537 159.638 112.683 159.492C112.692 159.483 113.209 159.163 113.864 158.902C114.519 158.64 115.349 158.361 116.19 158.102C117.873 157.584 119.653 157.137 120.173 157.039C120.532 156.971 120.884 156.869 121.209 156.71C121.533 156.551 121.883 156.353 122.065 155.868C122.156 155.626 122.155 155.312 122.057 155.062C121.959 154.812 121.798 154.628 121.617 154.477C121.257 154.175 120.793 153.962 120.126 153.743C119.728 153.612 119.299 153.54 118.848 153.515L118.848 153.516Z" fill="black"/>
    <path d="M120.775 155.403C120.677 155.373 120.575 155.362 120.473 155.372C120.371 155.381 120.272 155.41 120.182 155.458C120.092 155.506 120.012 155.571 119.946 155.649C119.881 155.728 119.832 155.818 119.802 155.916C119.741 156.112 119.761 156.325 119.858 156.507C119.954 156.689 120.119 156.825 120.316 156.886C120.316 156.886 120.82 157.045 121.267 157.271C121.401 157.339 121.473 157.4 121.57 157.466C121.549 157.481 121.548 157.489 121.524 157.504C121.249 157.664 120.827 157.853 120.356 158.036C119.412 158.404 118.268 158.759 117.443 159.056C117.442 159.056 117.441 159.056 117.44 159.056C116.5 159.399 115.179 160.015 113.959 160.669C112.74 161.324 111.69 161.916 111.09 162.586C110.953 162.74 110.882 162.942 110.894 163.147C110.905 163.353 110.998 163.545 111.152 163.682C111.306 163.819 111.508 163.89 111.714 163.879C111.92 163.867 112.112 163.774 112.25 163.621C112.44 163.409 113.532 162.66 114.695 162.036C115.857 161.413 117.158 160.812 117.97 160.516H117.973C118.736 160.241 119.9 159.88 120.921 159.482C121.432 159.284 121.907 159.078 122.308 158.844C122.71 158.609 123.118 158.405 123.285 157.79C123.436 157.237 123.128 156.747 122.853 156.481C122.578 156.215 122.27 156.039 121.97 155.887C121.37 155.583 120.775 155.403 120.775 155.403Z" fill="black"/>
    <path d="M121.368 157.956C121.28 157.904 121.182 157.87 121.081 157.856C120.98 157.842 120.877 157.848 120.778 157.874C120.679 157.899 120.586 157.944 120.505 158.006C120.423 158.067 120.355 158.144 120.303 158.232C120.199 158.41 120.169 158.621 120.221 158.82C120.273 159.02 120.402 159.19 120.58 159.294C120.58 159.294 120.874 159.496 121.001 159.686C121.064 159.781 121.07 159.829 121.067 159.857C121.065 159.885 121.061 159.968 120.844 160.16C120.425 160.53 118.996 161.183 117.069 162.081C115.141 162.979 112.676 164.199 109.959 166.027C109.874 166.084 109.802 166.157 109.745 166.242C109.689 166.327 109.65 166.423 109.63 166.523C109.611 166.623 109.611 166.726 109.632 166.826C109.652 166.926 109.692 167.02 109.749 167.105C109.806 167.19 109.879 167.262 109.964 167.318C110.049 167.375 110.145 167.414 110.245 167.433C110.345 167.453 110.449 167.452 110.549 167.432C110.649 167.411 110.744 167.372 110.828 167.315C113.45 165.55 115.826 164.373 117.726 163.488C119.625 162.603 121.009 162.088 121.875 161.322C122.301 160.946 122.57 160.48 122.615 160.005C122.661 159.53 122.49 159.12 122.296 158.828C121.908 158.244 121.368 157.956 121.368 157.956Z" fill="black"/>
    <path d="M119.583 160.936C119.483 160.956 119.388 160.995 119.302 161.051C119.217 161.108 119.144 161.18 119.087 161.265C119.03 161.349 118.99 161.444 118.97 161.544C118.95 161.644 118.949 161.747 118.969 161.847C118.989 161.947 119.028 162.043 119.085 162.128C119.141 162.213 119.214 162.286 119.299 162.342C119.299 162.342 119.518 162.515 119.613 162.692C119.66 162.78 119.671 162.834 119.662 162.893C119.654 162.953 119.626 163.064 119.419 163.263C119.419 163.263 119.418 163.263 119.418 163.263C119.418 163.264 119.419 163.263 119.418 163.263C119.231 163.443 118.545 163.939 117.679 164.501C116.814 165.064 115.739 165.73 114.635 166.416C112.427 167.787 110.135 169.198 108.993 170.138C107.112 171.684 105.358 171.734 103.488 171.661C103.487 171.661 103.487 171.661 103.486 171.661C102.542 171.626 100.983 171.544 99.4456 171.521C97.9078 171.499 96.431 171.514 95.4139 171.757C94.624 171.944 93.9917 172.478 92.9659 173.237C91.9394 173.997 90.6509 174.996 89.1199 176.094C86.058 178.29 82.0333 180.881 77.332 182.704C77.2367 182.741 77.1497 182.796 77.0759 182.866C77.002 182.937 76.9429 183.021 76.9017 183.114C76.8605 183.208 76.8381 183.308 76.8359 183.41C76.8336 183.512 76.8515 183.614 76.8885 183.709C76.9255 183.804 76.9808 183.891 77.0514 183.964C77.122 184.038 77.2065 184.097 77.3 184.138C77.3935 184.179 77.4941 184.202 77.5963 184.204C77.6984 184.206 77.8 184.188 77.8952 184.151C82.7806 182.257 86.9117 179.588 90.0267 177.354C91.5842 176.237 92.8892 175.228 93.8927 174.485C94.8961 173.742 95.7306 173.277 95.774 173.267C95.7746 173.267 95.7752 173.267 95.7758 173.267C96.4275 173.111 97.9252 173.052 99.4231 173.074C100.921 173.095 102.459 173.176 103.429 173.212C105.384 173.289 107.729 173.187 109.982 171.337C109.983 171.337 109.983 171.337 109.983 171.337C110.909 170.574 113.248 169.106 115.456 167.735C116.56 167.05 117.641 166.38 118.528 165.803C119.416 165.227 120.081 164.782 120.497 164.383C120.497 164.383 120.498 164.383 120.498 164.383C120.894 164.002 121.14 163.557 121.203 163.109C121.265 162.662 121.143 162.256 120.983 161.959C120.663 161.363 120.167 161.055 120.167 161.055C119.995 160.94 119.786 160.898 119.583 160.937L119.583 160.936Z" fill="black"/>
    <path d="M131.564 125.664C126.743 125.692 120.985 126.55 118.055 127.436C115.584 128.177 114.223 130.017 113.537 131.931H113.538C112.878 133.764 104.601 157.549 104.601 157.549C104.568 157.646 104.553 157.748 104.559 157.849C104.565 157.951 104.591 158.051 104.636 158.143C104.68 158.234 104.742 158.317 104.819 158.384C104.895 158.452 104.984 158.504 105.08 158.538C105.275 158.605 105.489 158.593 105.674 158.503C105.86 158.413 106.002 158.253 106.07 158.059C106.07 158.059 114.39 134.153 115.001 132.455C115.584 130.829 116.538 129.512 118.503 128.922H118.505C121.147 128.123 126.936 127.243 131.574 127.217C131.575 127.217 131.576 127.217 131.577 127.217C132.055 127.213 132.351 127.457 132.589 127.941C132.827 128.424 132.891 129.119 132.739 129.64C132.504 130.449 129.913 138.756 127.338 146.906C126.05 150.982 124.762 155.037 123.758 158.144C123.257 159.697 122.827 161.014 122.505 161.975C122.345 162.455 122.21 162.846 122.11 163.131C122.009 163.416 121.913 163.641 121.935 163.596C121.632 164.204 121.406 164.722 121.148 165.105C120.89 165.487 120.628 165.746 120.134 165.959H120.132C119.035 166.436 113.416 168.311 111.292 168.611C111.088 168.64 110.904 168.749 110.78 168.914C110.656 169.078 110.603 169.285 110.631 169.489C110.646 169.59 110.68 169.687 110.732 169.775C110.784 169.863 110.852 169.94 110.934 170.001C111.016 170.062 111.109 170.107 111.208 170.132C111.306 170.158 111.409 170.163 111.511 170.149C114.089 169.784 119.316 168.006 120.751 167.383H120.752C121.522 167.05 122.063 166.527 122.438 165.973C122.812 165.418 123.049 164.844 123.326 164.29C123.421 164.101 123.469 163.948 123.575 163.649C123.681 163.35 123.817 162.952 123.98 162.466C124.305 161.496 124.736 160.176 125.238 158.62C126.243 155.507 127.533 151.451 128.821 147.373C131.397 139.219 133.945 131.06 134.233 130.073C134.504 129.139 134.41 128.119 133.984 127.255C133.559 126.392 132.686 125.656 131.566 125.665L131.564 125.664Z" fill="black"/>
    <path fill-rule="evenodd" clip-rule="evenodd" d="M121.628 135.141C121.628 135.282 121.606 135.422 121.565 135.552C121.523 135.682 121.462 135.8 121.386 135.9C121.309 135.999 121.218 136.078 121.117 136.132C121.017 136.186 120.91 136.213 120.801 136.213C120.692 136.213 120.585 136.186 120.485 136.132C120.384 136.078 120.293 135.999 120.216 135.9C120.14 135.8 120.079 135.682 120.037 135.552C119.996 135.422 119.974 135.282 119.974 135.141C119.974 135.001 119.996 134.861 120.037 134.731C120.079 134.601 120.14 134.483 120.216 134.383C120.293 134.284 120.384 134.205 120.485 134.151C120.585 134.097 120.692 134.069 120.801 134.069C120.91 134.069 121.017 134.097 121.117 134.151C121.218 134.205 121.309 134.284 121.386 134.383C121.462 134.483 121.523 134.601 121.565 134.731C121.606 134.861 121.628 135.001 121.628 135.141Z" fill="black"/>
    <path fill-rule="evenodd" clip-rule="evenodd" d="M119.567 132.505C119.567 132.645 119.546 132.785 119.504 132.915C119.463 133.045 119.402 133.163 119.325 133.263C119.248 133.362 119.157 133.441 119.057 133.495C118.957 133.549 118.849 133.577 118.741 133.577C118.632 133.577 118.524 133.549 118.424 133.495C118.324 133.441 118.233 133.362 118.156 133.263C118.079 133.163 118.018 133.045 117.977 132.915C117.935 132.785 117.914 132.645 117.914 132.505C117.914 132.364 117.935 132.225 117.977 132.094C118.018 131.964 118.079 131.846 118.156 131.747C118.233 131.647 118.324 131.568 118.424 131.514C118.524 131.46 118.632 131.433 118.741 131.433C118.849 131.433 118.957 131.46 119.057 131.514C119.157 131.568 119.248 131.647 119.325 131.747C119.402 131.846 119.463 131.964 119.504 132.094C119.546 132.225 119.567 132.364 119.567 132.505Z" fill="black"/>
    <path fill-rule="evenodd" clip-rule="evenodd" d="M117.971 137.546C117.971 137.687 117.95 137.826 117.908 137.956C117.867 138.086 117.806 138.204 117.729 138.304C117.652 138.403 117.561 138.482 117.461 138.536C117.361 138.59 117.253 138.618 117.144 138.618C117.036 138.618 116.928 138.59 116.828 138.536C116.728 138.482 116.637 138.403 116.56 138.304C116.483 138.204 116.422 138.086 116.381 137.956C116.339 137.826 116.318 137.687 116.318 137.546C116.318 137.405 116.339 137.266 116.381 137.135C116.422 137.005 116.483 136.887 116.56 136.788C116.637 136.688 116.728 136.609 116.828 136.555C116.928 136.501 117.036 136.474 117.144 136.474C117.253 136.474 117.361 136.501 117.461 136.555C117.561 136.609 117.652 136.688 117.729 136.788C117.806 136.887 117.867 137.005 117.908 137.135C117.95 137.266 117.971 137.405 117.971 137.546Z" fill="black"/>
    <path d="M106.727 147.938C106.485 147.898 106.226 147.907 105.97 147.992C105.457 148.163 105.061 148.583 104.778 149.14C104.05 150.568 101.859 152.008 99.345 152.496H99.3459C96.1757 153.105 93.6607 156.342 92.4228 158.659C91.3023 160.753 89.1709 163.68 87.0226 164.322C84.3717 165.109 72.9854 168.853 72.9854 168.853C72.7895 168.917 72.6273 169.056 72.5344 169.24C72.4414 169.424 72.4254 169.637 72.4899 169.833C72.5218 169.929 72.5725 170.019 72.6391 170.096C72.7058 170.174 72.7871 170.237 72.8783 170.283C72.9695 170.329 73.0689 170.357 73.1708 170.364C73.2727 170.372 73.3752 170.359 73.4722 170.327C73.4722 170.327 84.9462 166.558 87.4669 165.81H87.4686C90.4891 164.908 92.594 161.635 93.7947 159.391C94.8787 157.361 97.4129 154.449 99.6401 154.021H99.6419C102.526 153.462 105.093 151.948 106.164 149.845H106.165C106.332 149.517 106.45 149.471 106.46 149.468C106.47 149.463 106.48 149.451 106.593 149.517C106.818 149.65 107.177 150.203 107.215 150.382C107.258 150.583 107.378 150.759 107.551 150.872C107.724 150.984 107.934 151.024 108.136 150.981C108.236 150.96 108.331 150.92 108.415 150.862C108.499 150.804 108.571 150.731 108.627 150.645C108.683 150.56 108.721 150.464 108.74 150.364C108.759 150.264 108.757 150.161 108.736 150.061C108.579 149.318 108.135 148.622 107.383 148.18C107.194 148.069 106.969 147.98 106.727 147.94L106.727 147.938Z" fill="black"/>
    <path d="M69.5846 113.152C69.3788 113.166 69.1869 113.26 69.051 113.415C68.9151 113.57 68.8464 113.772 68.86 113.978C68.86 113.978 69.3482 121.641 73.5035 128.555C77.4455 135.115 81.512 147.367 86.6885 161.525C86.7593 161.719 86.9041 161.876 87.0911 161.963C87.278 162.049 87.4919 162.058 87.6856 161.988C87.879 161.917 88.0365 161.773 88.1234 161.586C88.2103 161.4 88.2195 161.187 88.149 160.993C82.9821 146.861 78.9726 134.637 74.8372 127.757C70.916 121.231 70.4116 113.875 70.4116 113.875C70.398 113.67 70.3032 113.478 70.1481 113.343C69.993 113.207 69.7903 113.139 69.5846 113.152Z" fill="black"/>
    <path d="M72.7173 118.194C72.5216 118.129 72.3082 118.144 72.1238 118.236C71.9394 118.328 71.7992 118.49 71.7341 118.685C71.7341 118.685 71.4399 119.564 71.2282 120.634C71.0164 121.703 70.7925 122.94 71.275 124.009C71.3599 124.196 71.5159 124.343 71.7087 124.415C71.9015 124.488 72.1154 124.482 72.3033 124.397C72.3964 124.355 72.4804 124.295 72.5504 124.221C72.6203 124.147 72.675 124.06 72.7111 123.964C72.7473 123.869 72.7643 123.767 72.7612 123.665C72.7581 123.564 72.7349 123.463 72.693 123.37C72.5428 123.038 72.5636 121.895 72.7537 120.935C72.9438 119.975 73.2093 119.176 73.2093 119.176C73.2744 118.98 73.2591 118.767 73.1669 118.583C73.0746 118.399 72.9129 118.259 72.7173 118.194Z" fill="black"/>
    <path d="M64.4013 100.044C64.2992 100.043 64.1979 100.062 64.1032 100.1C64.0085 100.138 63.9222 100.194 63.8492 100.266C63.7763 100.337 63.7182 100.422 63.6782 100.516C63.6381 100.61 63.617 100.71 63.616 100.812C63.615 100.914 63.6341 101.016 63.6723 101.11C63.7105 101.205 63.7669 101.291 63.8385 101.364C63.9101 101.437 63.9953 101.495 64.0894 101.535C64.1834 101.575 64.2844 101.596 64.3866 101.596C64.3866 101.596 65.4738 101.588 67.2433 102.486C69.0128 103.385 71.3832 105.187 73.6736 108.88C78.3265 116.385 87 134.287 94.6938 152.828C94.7729 153.018 94.9244 153.169 95.1149 153.247C95.3055 153.326 95.5195 153.326 95.71 153.247C95.9004 153.168 96.0516 153.017 96.1305 152.827C96.2095 152.637 96.2096 152.423 96.1308 152.233C88.4145 133.639 79.7748 115.771 74.9961 108.063C72.5711 104.153 69.97 102.129 67.948 101.103C65.9259 100.076 64.4013 100.044 64.4013 100.044Z" fill="black"/>
    <path d="M90.8937 177.701C90.799 177.663 90.6978 177.644 90.5956 177.645C90.4935 177.645 90.3925 177.666 90.2984 177.706C90.1086 177.786 89.9584 177.938 89.8809 178.129C89.8035 178.32 89.8051 178.533 89.8853 178.723C89.8853 178.723 92.7551 185.467 93.1482 197.573C93.155 197.778 93.2434 197.973 93.3939 198.114C93.5444 198.254 93.7448 198.33 93.9509 198.323C94.157 198.316 94.352 198.228 94.4929 198.077C94.6338 197.927 94.7092 197.727 94.7024 197.521C94.3019 185.187 91.318 178.118 91.318 178.118C91.2782 178.024 91.2202 177.939 91.1474 177.868C91.0746 177.796 90.9884 177.74 90.8937 177.701Z" fill="black"/>
    <path d="M119.288 169.896C119.208 169.833 119.116 169.787 119.017 169.759C118.919 169.732 118.816 169.725 118.714 169.737C118.613 169.75 118.515 169.782 118.426 169.833C118.337 169.883 118.259 169.95 118.197 170.031C118.134 170.111 118.088 170.203 118.06 170.301C118.033 170.4 118.026 170.502 118.038 170.604C118.051 170.705 118.083 170.803 118.134 170.891C118.184 170.98 118.251 171.058 118.332 171.121C121.591 173.657 121.911 176.718 121.149 179.897C120.386 183.076 118.423 186.235 117.064 188.381C115.821 190.346 113.426 192.231 110.825 193.489C108.223 194.747 105.41 195.366 103.474 195.048C100.139 194.499 97.5636 191.995 95.8236 189.553C94.0836 187.112 93.222 184.82 93.222 184.82C93.1862 184.724 93.1319 184.637 93.0622 184.562C92.9925 184.488 92.9087 184.427 92.8157 184.385C92.7227 184.343 92.6223 184.319 92.5202 184.316C92.418 184.313 92.3162 184.329 92.2206 184.365C92.125 184.401 92.0374 184.455 91.9627 184.525C91.8881 184.594 91.828 184.678 91.7858 184.771C91.7435 184.864 91.72 184.964 91.7166 185.066C91.7132 185.168 91.7299 185.269 91.7659 185.365C91.7659 185.365 92.6901 187.834 94.5566 190.454C96.4232 193.073 99.2741 195.93 103.221 196.579C105.684 196.984 108.697 196.242 111.503 194.886C114.308 193.529 116.902 191.544 118.379 189.21C119.741 187.059 121.813 183.791 122.661 180.259C123.508 176.727 123.012 172.793 119.288 169.896Z" fill="black"/>
    <path d="M117.246 171.079C116.827 170.987 116.317 171.116 116.003 171.41C115.374 172 115.325 172.826 115.426 173.812C115.572 175.237 115.842 177.758 115.002 180.047C114.161 182.335 112.325 184.446 107.763 185.209C106.423 185.433 104.519 185.485 102.673 184.695C100.827 183.905 98.9866 182.297 97.6989 178.958C97.2834 177.881 96.7143 177.03 95.7229 176.805C95.2272 176.692 94.5617 176.965 94.2824 177.433C94.0031 177.901 93.9463 178.442 93.9839 179.133C94.1858 182.834 96.9715 188.289 102.101 190.868C106.385 193.023 113.207 192.267 117.733 189.99C117.917 189.897 118.057 189.735 118.122 189.54C118.186 189.344 118.17 189.131 118.078 188.948C118.032 188.856 117.968 188.775 117.891 188.709C117.814 188.642 117.724 188.591 117.627 188.559C117.53 188.527 117.427 188.515 117.325 188.522C117.224 188.53 117.124 188.558 117.033 188.604C112.974 190.646 106.313 191.248 102.801 189.482C98.2811 187.209 95.6992 182.011 95.5372 179.049C95.5194 178.718 95.5598 178.658 95.5893 178.527C95.7817 178.712 96.0513 179.007 96.2479 179.517C97.6575 183.172 99.8399 185.173 102.06 186.123C104.281 187.073 106.487 186.997 108.02 186.741C112.999 185.908 115.461 183.309 116.462 180.582C117.463 177.855 117.116 175.054 116.972 173.654C116.906 173.008 117.04 172.768 117.054 172.7C117.115 172.735 117.141 172.732 117.254 172.841C118.646 174.184 119.45 176.703 119.824 178.894C120.198 181.084 120.181 182.894 120.181 182.894C120.179 183.1 120.259 183.298 120.404 183.445C120.548 183.592 120.745 183.676 120.951 183.678C121.157 183.68 121.355 183.6 121.503 183.456C121.65 183.311 121.733 183.115 121.735 182.909C121.735 182.909 121.755 180.971 121.356 178.633C120.957 176.295 120.179 173.504 118.336 171.725H118.334C118.005 171.409 117.664 171.174 117.246 171.081L117.246 171.079Z" fill="black"/>
    <path fill-rule="evenodd" clip-rule="evenodd" d="M120.958 182.901C119.998 185.185 118.692 187.261 117.722 188.796C117.616 188.965 117.503 189.129 117.383 189.297C113.09 191.457 106.349 192.136 102.451 190.175C97.6262 187.749 94.9422 182.422 94.7605 179.091C94.6285 176.665 96.2613 177.392 96.9735 179.237C99.6709 186.232 105.019 186.454 107.892 185.975C117.432 184.378 116.489 176.558 116.199 173.733C116.02 171.994 116.743 171.271 117.795 172.282C121.03 175.405 120.958 182.901 120.958 182.901Z" fill="black"/>
    <path d="M98.2178 173.69C96.3038 175.307 95.5051 177.766 95.5051 177.766C95.4383 177.96 95.4517 178.174 95.5423 178.359C95.6329 178.543 95.7934 178.685 95.9885 178.752C96.0851 178.785 96.1873 178.798 96.2892 178.792C96.3912 178.786 96.4908 178.759 96.5825 178.714C96.6743 178.669 96.7562 178.607 96.8237 178.53C96.8912 178.454 96.943 178.365 96.976 178.268C96.976 178.268 97.7564 176.114 99.2227 174.875C99.3006 174.809 99.3648 174.728 99.4116 174.638C99.4584 174.547 99.4868 174.448 99.4953 174.347C99.5038 174.245 99.4921 174.143 99.4609 174.046C99.4298 173.948 99.3798 173.858 99.3138 173.781C99.2478 173.703 99.1671 173.639 99.0764 173.592C98.9856 173.545 98.8865 173.517 98.7847 173.509C98.6829 173.5 98.5804 173.512 98.4832 173.543C98.3859 173.574 98.2957 173.624 98.2178 173.69Z" fill="black"/>
    <path d="M97.6268 56.2717C95.5179 56.4019 94.0427 56.9775 93.0319 57.9212C91.6843 59.1796 91.3103 60.9377 91.1454 62.6531C90.8161 66.0829 89.7902 85.2342 89.5565 89.9719C89.3531 94.0964 92.5277 98.1064 96.8632 98.6144C96.8635 98.6144 96.8638 98.6144 96.8641 98.6144C100.713 99.0609 120.201 100.841 121.419 100.953C121.149 110.521 113.627 119.495 113.627 119.495C113.521 119.618 113.457 119.772 113.443 119.933C113.43 120.095 113.467 120.257 113.551 120.397C113.634 120.536 113.759 120.646 113.908 120.711C114.057 120.775 114.223 120.792 114.382 120.758C120.39 119.463 123.768 114.202 125.634 109.411C127.245 105.275 127.68 101.914 127.794 100.928C128.541 101.045 129.345 101.149 130.753 101.249C132.561 101.377 134.815 101.497 137.155 101.599C141.835 101.802 146.84 101.932 149.314 101.893C151.902 101.856 153.72 101.014 154.892 99.8177C156.064 98.6218 156.58 97.1342 156.815 95.8647C157.051 94.585 157.673 89.8866 158.322 84.7384C158.971 79.5903 159.633 74.0651 159.907 71.3303C160.189 68.5088 159.831 66.3638 158.826 64.8293C157.822 63.2954 156.178 62.4849 154.272 62.2884H154.27C152.565 62.1107 140.605 60.7226 128.29 59.3264C115.974 57.9302 103.324 56.5254 99.9533 56.2934C99.1032 56.2349 98.3298 56.2292 97.6268 56.2726L97.6268 56.2717ZM97.7379 57.8181C98.3541 57.7818 99.053 57.7871 99.8466 57.8417C103.05 58.0621 115.801 59.4718 128.114 60.8678C140.427 62.2637 152.323 63.6452 154.111 63.8314C154.111 63.8314 154.111 63.8314 154.112 63.8314C155.697 63.9945 156.795 64.564 157.524 65.6776C158.254 66.7912 158.621 68.5632 158.359 71.1753C158.089 73.8696 157.427 79.4023 156.779 84.5436C156.131 89.6849 155.484 94.5067 155.286 95.5824C155.085 96.6637 154.658 97.8369 153.78 98.7324C152.902 99.6279 151.564 100.308 149.291 100.341C146.905 100.378 141.883 100.25 137.223 100.047C134.893 99.9462 132.649 99.8263 130.864 99.7C129.078 99.5737 127.676 99.416 127.327 99.3301C127.219 99.3034 127.106 99.3003 126.996 99.3211C126.886 99.3419 126.782 99.3862 126.691 99.4508C126.6 99.5155 126.524 99.5989 126.468 99.6956C126.412 99.7923 126.377 99.8999 126.367 100.011C126.367 100.011 125.96 104.289 124.184 108.848C122.689 112.688 120.248 116.599 116.372 118.425C118.77 115.076 123.109 107.991 123.032 100.244C123.03 100.052 122.957 99.8673 122.826 99.726C122.696 99.5847 122.517 99.4967 122.326 99.4791C122.326 99.4791 100.877 97.517 97.0446 97.0724H97.0437C93.5803 96.6662 90.9488 93.3132 91.1098 90.0483C91.3426 85.3293 92.3883 65.9806 92.6935 62.8014C92.8463 61.2122 93.1755 59.9139 94.095 59.0554C94.7846 58.4115 95.8892 57.9275 97.7379 57.8181Z" fill="black"/>
    <path d="M101.278 65.1251C101.177 65.1161 101.074 65.1272 100.977 65.1577C100.879 65.1883 100.789 65.2377 100.71 65.3032C100.632 65.3687 100.567 65.4489 100.52 65.5394C100.473 65.6298 100.444 65.7287 100.435 65.8303C100.417 66.0352 100.481 66.239 100.613 66.3967C100.746 66.5544 100.935 66.6533 101.141 66.6715L140.454 70.1585C140.659 70.1765 140.863 70.1125 141.021 69.9804C141.179 69.8483 141.278 69.6591 141.296 69.4542C141.305 69.3526 141.294 69.2503 141.264 69.153C141.233 69.0557 141.184 68.9655 141.118 68.8873C141.053 68.8091 140.972 68.7445 140.882 68.6973C140.791 68.6501 140.692 68.6211 140.591 68.6121L101.278 65.1251Z" fill="black"/>
    <path d="M101.333 73.7683C101.127 73.7596 100.926 73.8329 100.774 73.9721C100.623 74.1114 100.532 74.3051 100.524 74.5107C100.515 74.7163 100.588 74.917 100.728 75.0686C100.867 75.2201 101.061 75.3102 101.267 75.319L107.706 75.5893C107.912 75.598 108.113 75.5247 108.265 75.3854C108.417 75.2462 108.507 75.0525 108.516 74.8468C108.524 74.6412 108.451 74.4406 108.312 74.289C108.172 74.1374 107.978 74.0473 107.772 74.0386L101.333 73.7683Z" fill="black"/>
    <path d="M114.947 74.8557C114.741 74.8441 114.539 74.9147 114.385 75.0518C114.231 75.1889 114.138 75.3814 114.127 75.5869C114.115 75.7924 114.186 75.9942 114.323 76.1477C114.461 76.3012 114.653 76.394 114.859 76.4056L145.376 78.1261C145.581 78.1377 145.784 78.0672 145.937 77.9301C146.091 77.7929 146.184 77.6005 146.196 77.3949C146.207 77.1894 146.137 76.9877 145.999 76.8341C145.862 76.6806 145.669 76.5879 145.463 76.5763L114.947 74.8557Z" fill="black"/>
    <path d="M100.422 81.693C100.32 81.6833 100.218 81.6937 100.12 81.7236C100.023 81.7535 99.9318 81.8023 99.853 81.8672C99.7743 81.9322 99.7092 82.0119 99.6613 82.102C99.6135 82.192 99.5839 82.2906 99.5742 82.3921C99.5645 82.4936 99.5749 82.596 99.6049 82.6935C99.6348 82.7909 99.6837 82.8815 99.7487 82.9601C99.8138 83.0387 99.8937 83.1038 99.9839 83.1515C100.074 83.1993 100.173 83.2288 100.274 83.2385L116.507 84.7779C116.609 84.7876 116.712 84.7772 116.809 84.7472C116.907 84.7173 116.998 84.6684 117.076 84.6034C117.155 84.5384 117.22 84.4585 117.268 84.3683C117.316 84.2782 117.345 84.1795 117.355 84.078C117.374 83.873 117.311 83.6688 117.18 83.5102C117.048 83.3517 116.859 83.2517 116.654 83.2324L100.422 81.693Z" fill="black"/>
    <path d="M122.393 83.1864C122.188 83.1722 121.985 83.24 121.829 83.375C121.674 83.51 121.578 83.7011 121.564 83.9064C121.549 84.1116 121.617 84.3142 121.752 84.4695C121.888 84.6248 122.079 84.7201 122.285 84.7346L129.404 85.2318C129.506 85.2389 129.608 85.2259 129.705 85.1935C129.802 85.1611 129.891 85.11 129.968 85.043C130.045 84.9761 130.109 84.8947 130.154 84.8034C130.2 84.7121 130.227 84.6128 130.234 84.5111C130.248 84.3058 130.18 84.1033 130.045 83.9479C129.91 83.7926 129.718 83.6973 129.513 83.6829L122.393 83.1864Z" fill="black"/>
    <path d="M138.66 84.9513C138.454 84.9402 138.252 85.0112 138.099 85.1486C137.945 85.2861 137.853 85.4787 137.841 85.6842C137.83 85.8898 137.901 86.0912 138.039 86.2444C138.177 86.3976 138.37 86.49 138.576 86.5012L148.642 87.0426C148.744 87.0481 148.846 87.0335 148.942 86.9996C149.039 86.9657 149.127 86.9132 149.203 86.845C149.279 86.7769 149.341 86.6944 149.385 86.6024C149.429 86.5104 149.455 86.4107 149.46 86.3089C149.466 86.207 149.451 86.1051 149.417 86.009C149.383 85.9128 149.33 85.8242 149.262 85.7483C149.194 85.6725 149.111 85.6108 149.019 85.5668C148.927 85.5228 148.827 85.4973 148.725 85.4919L138.66 84.9513Z" fill="black"/>
    <path d="M127.763 92.1438L123.682 92.2373C123.476 92.2421 123.28 92.3284 123.138 92.4772C122.995 92.626 122.918 92.8251 122.923 93.0309C122.927 93.2366 123.014 93.432 123.163 93.5742C123.312 93.7163 123.511 93.7936 123.718 93.7889L127.799 93.6962C127.901 93.6939 128.001 93.6714 128.095 93.6302C128.188 93.589 128.273 93.5299 128.343 93.4561C128.414 93.3823 128.469 93.2954 128.506 93.2003C128.543 93.1052 128.56 93.0037 128.558 92.9018C128.553 92.6961 128.467 92.5006 128.318 92.3585C128.169 92.2163 127.969 92.1391 127.763 92.1438Z" fill="black"/>
    <path d="M99.352 88.8004C99.1473 88.776 98.9412 88.8337 98.7791 88.961C98.6171 89.0882 98.5122 89.2744 98.4877 89.4787C98.4632 89.6831 98.521 89.8888 98.6485 90.0506C98.7759 90.2124 98.9624 90.3171 99.1671 90.3416L116.624 92.426C116.829 92.4504 117.035 92.3927 117.197 92.2655C117.359 92.1383 117.464 91.952 117.489 91.7477C117.513 91.5433 117.455 91.3376 117.328 91.1758C117.2 91.014 117.014 90.9093 116.809 90.8848L99.352 88.8004Z" fill="black"/>
</svg>
