<svg width="328" height="251" viewBox="0 0 328 251" fill="none" xmlns="http://www.w3.org/2000/svg">
    <path d="M168.407 250.678C250.716 250.678 317.44 238.827 317.44 224.208C317.44 209.588 250.716 197.737 168.407 197.737C86.0987 197.737 19.3745 209.588 19.3745 224.208C19.3745 238.827 86.0987 250.678 168.407 250.678Z" fill="#ADD5D5"/>
    <path d="M314.552 87.3369C314.552 87.3369 314.552 84.0937 310.012 79.5455C305.471 74.9973 302.544 72.4105 302.544 72.4105C302.544 72.4105 300.274 79.8698 304.49 84.418C307.588 87.6103 310.946 90.5393 314.529 93.1747L314.552 87.3369Z" fill="#ADD5D5"/>
    <path d="M307.957 107.599C307.957 107.599 307.957 104.356 303.417 99.8155C298.876 95.275 295.958 92.6727 295.958 92.6727C295.958 92.6727 293.641 100.14 297.903 104.68C301 107.874 304.357 110.803 307.942 113.437L307.957 107.599Z" fill="#ADD5D5"/>
    <path d="M314.266 92.8658C314.266 92.8658 314.606 89.638 319.61 85.5995C324.614 81.5609 327.78 79.2907 327.78 79.2907C327.78 79.2907 329.254 86.9508 324.575 91.0203C321.152 93.8679 317.497 96.425 313.648 98.6649L314.266 92.8658Z" fill="#ADD5D5"/>
    <path d="M306.305 116.796C306.305 116.796 306.984 113.622 312.374 110.132C317.764 106.642 321.17 104.727 321.17 104.727C321.17 104.727 321.826 112.503 316.753 116.062C313.046 118.534 309.141 120.693 305.077 122.518L306.305 116.796Z" fill="#ADD5D5"/>
    <path d="M307.803 142.888C307.803 142.888 307.803 139.637 312.343 135.097C316.884 130.556 319.803 127.962 319.803 127.962C319.803 127.962 322.073 135.421 317.857 139.962C314.762 143.159 311.404 146.091 307.818 148.726L307.803 142.888Z" fill="#ADD5D5"/>
    <path d="M307.726 149.251C307.726 149.251 308.181 146.039 304.336 140.896C300.49 135.753 297.965 132.773 297.965 132.773C297.965 132.773 294.653 139.838 298.181 144.935C300.798 148.539 303.711 151.917 306.892 155.035L307.726 149.251Z" fill="#ADD5D5"/>
    <path d="M303.247 168.162C303.247 168.162 303.247 164.919 307.788 160.378C312.328 155.838 315.247 153.243 315.247 153.243C315.247 153.243 317.525 160.703 313.301 165.243C310.206 168.441 306.848 171.372 303.263 174.008L303.247 168.162Z" fill="#ADD5D5"/>
    <path d="M306.259 185.243C306.259 185.243 305.432 182.1 308.676 176.556C311.919 171.011 314.081 167.761 314.081 167.761C314.081 167.761 318.166 174.401 315.239 179.868C313.045 183.743 310.532 187.429 307.726 190.888L306.259 185.243Z" fill="#ADD5D5"/>
    <path d="M314.961 86.5029C314.734 89.8825 314.319 93.2467 313.718 96.58C311.926 105.846 307.432 111.839 305.641 120.225C303.849 128.61 309 139.398 307.618 150.162C306.235 160.927 302.05 166.911 303.247 174.1C304.444 181.289 310.869 201.436 310.869 201.436" stroke="#263238" stroke-width="0.75" stroke-linecap="round" stroke-linejoin="round"/>
    <path d="M314.22 95.0202L319.116 91.2596" stroke="#263238" stroke-width="0.75" stroke-linecap="round" stroke-linejoin="round"/>
    <path d="M314.451 90.6959L312.397 87.0512" stroke="#263238" stroke-width="0.75" stroke-linecap="round" stroke-linejoin="round"/>
    <path d="M305.911 119.838C305.911 119.838 310.011 116.75 314.22 113.661" stroke="#263238" stroke-width="0.75" stroke-linecap="round" stroke-linejoin="round"/>
    <path d="M307.741 112.866C305.744 109.118 303.377 105.579 300.676 102.302" stroke="#263238" stroke-width="0.75" stroke-linecap="round" stroke-linejoin="round"/>
    <path d="M307.958 147.498C310.298 143.186 313.253 139.238 316.73 135.776" stroke="#263238" stroke-width="0.75" stroke-linecap="round" stroke-linejoin="round"/>
    <path d="M307.162 152.054C305.92 149.127 304.434 146.309 302.722 143.63C300.336 140.101 299.988 139.645 299.988 139.645" stroke="#263238" stroke-width="0.75" stroke-linecap="round" stroke-linejoin="round"/>
    <path d="M303.247 174.092C304.283 171.512 305.517 169.016 306.938 166.625C308.357 164.41 309.956 162.316 311.718 160.363" stroke="#263238" stroke-width="0.75" stroke-linecap="round" stroke-linejoin="round"/>
    <path d="M307.757 190.888C307.52 188.427 307.944 185.948 308.984 183.706C310.691 180.401 312.629 176.077 313.425 174.37" stroke="#263238" stroke-width="0.75" stroke-linecap="round" stroke-linejoin="round"/>
    <path d="M284.807 130.68C284.807 130.68 284.452 128.649 286.807 125.275C289.162 121.9 290.714 119.985 290.714 119.985C290.714 119.985 292.946 124.425 290.799 127.707C289.199 130.047 287.406 132.251 285.44 134.294L284.807 130.68Z" fill="#ADD5D5"/>
    <path d="M291.139 142.68C291.139 142.68 290.792 140.649 293.147 137.274C295.502 133.9 297.046 131.985 297.046 131.985C297.046 131.985 299.286 136.417 297.131 139.707C295.532 142.046 293.739 144.246 291.772 146.286L291.139 142.68Z" fill="#ADD5D5"/>
    <path d="M285.587 134.116C285.587 134.116 285.023 132.132 281.448 130.139C277.873 128.147 275.633 127.051 275.633 127.051C275.633 127.051 275.549 132.016 278.923 134.054C281.378 135.472 283.949 136.681 286.606 137.668L285.587 134.116Z" fill="#ADD5D5"/>
    <path d="M293.178 148.255C293.178 148.255 292.406 146.34 288.645 144.742C284.884 143.143 282.545 142.301 282.545 142.301C282.545 142.301 282.977 147.243 286.545 148.927C289.137 150.075 291.821 151.005 294.568 151.707L293.178 148.255Z" fill="#ADD5D5"/>
    <path d="M295.069 164.78C295.069 164.78 294.722 162.749 291.378 160.394C288.035 158.039 285.919 156.726 285.919 156.726C285.919 156.726 285.309 161.653 288.444 164.046C290.738 165.711 293.166 167.183 295.703 168.448L295.069 164.78Z" fill="#ADD5D5"/>
    <path d="M295.811 168.764C295.811 168.764 295.17 166.803 297.031 163.158C298.892 159.514 300.12 157.375 300.12 157.375C300.12 157.375 302.961 161.444 301.301 165.019C300.053 167.564 298.593 170 296.938 172.301L295.811 168.764Z" fill="#ADD5D5"/>
    <path d="M301.51 185.15C301.51 185.15 301.749 183.096 304.946 180.517C308.143 177.938 310.181 176.548 310.181 176.548C310.181 176.548 311.077 181.428 308.081 183.992C305.889 185.79 303.548 187.399 301.085 188.803L301.51 185.15Z" fill="#ADD5D5"/>
    <path d="M300.668 180.116C300.668 180.116 300.313 178.085 296.977 175.73C293.641 173.374 291.517 172.062 291.517 172.062C291.517 172.062 290.907 176.988 294.042 179.374C296.334 181.044 298.762 182.519 301.301 183.783L300.668 180.116Z" fill="#ADD5D5"/>
    <path d="M300.622 191.181C300.622 191.181 300.799 189.119 298.158 185.992C295.517 182.865 293.811 181.065 293.811 181.065C293.811 181.065 291.973 185.698 294.405 188.787C296.2 190.981 298.176 193.019 300.313 194.88L300.622 191.181Z" fill="#ADD5D5"/>
    <path d="M284.46 130.209C284.972 132.3 285.596 134.362 286.328 136.386C288.467 142.008 291.927 145.274 293.965 150.34C296.004 155.405 293.965 162.695 295.973 169.328C297.981 175.961 301.286 179.22 301.317 183.853C301.348 188.486 299.517 201.366 299.517 201.366" stroke="#263238" stroke-width="0.75" stroke-linecap="round" stroke-linejoin="round"/>
    <path d="M285.85 135.468L282.367 133.637" stroke="#263238" stroke-width="0.75" stroke-linecap="round" stroke-linejoin="round"/>
    <path d="M285.232 132.773L286.128 130.271" stroke="#263238" stroke-width="0.75" stroke-linecap="round" stroke-linejoin="round"/>
    <path d="M293.757 150.124C293.757 150.124 290.846 148.641 287.873 147.174" stroke="#263238" stroke-width="0.75" stroke-linecap="round" stroke-linejoin="round"/>
    <path d="M291.749 145.699C292.675 143.23 293.807 140.844 295.131 138.564" stroke="#263238" stroke-width="0.75" stroke-linecap="round" stroke-linejoin="round"/>
    <path d="M295.448 167.691C293.51 165.242 291.23 163.086 288.676 161.29" stroke="#263238" stroke-width="0.75" stroke-linecap="round" stroke-linejoin="round"/>
    <path d="M296.467 170.479C296.928 168.507 297.553 166.577 298.336 164.71C299.448 162.239 299.618 161.923 299.618 161.923" stroke="#263238" stroke-width="0.75" stroke-linecap="round" stroke-linejoin="round"/>
    <path d="M301.154 187.374C302.287 185.979 303.54 184.687 304.899 183.513C305.763 182.874 306.573 182.166 307.324 181.397" stroke="#263238" stroke-width="0.75" stroke-linecap="round" stroke-linejoin="round"/>
    <path d="M301.317 183.853C300.385 182.349 299.34 180.919 298.189 179.575C297.059 178.342 295.83 177.203 294.514 176.17" stroke="#263238" stroke-width="0.75" stroke-linecap="round" stroke-linejoin="round"/>
    <path d="M300.313 194.88C300.195 193.312 299.662 191.803 298.768 190.509C297.34 188.625 295.68 186.123 294.969 185.104" stroke="#263238" stroke-width="0.75" stroke-linecap="round" stroke-linejoin="round"/>
    <path d="M293.78 199.698H315.934V211.15C315.934 211.66 315.732 212.149 315.371 212.509C315.01 212.87 314.521 213.073 314.011 213.073H295.703C295.193 213.073 294.704 212.87 294.343 212.509C293.983 212.149 293.78 211.66 293.78 211.15V199.698Z" fill="#263238" stroke="#263238" stroke-linecap="round" stroke-linejoin="round"/>
    <path d="M33.0886 102.649C33.0886 102.649 33.0886 99.885 29.2276 96.0241C25.3667 92.1631 22.8648 89.9546 22.8648 89.9546C22.8648 89.9546 20.9343 96.302 24.5173 100.163C27.1579 102.88 30.0197 105.372 33.0732 107.615L33.0886 102.649Z" fill="#ADD5D5"/>
    <path d="M27.4979 119.877C27.4979 119.877 27.4979 117.12 23.6369 113.259C19.776 109.398 17.2741 107.159 17.2741 107.159C17.2741 107.159 15.3436 113.499 18.9266 117.367C21.5698 120.094 24.4369 122.594 27.4979 124.842V119.877Z" fill="#ADD5D5"/>
    <path d="M32.8492 107.344C32.8492 107.344 33.1349 104.603 37.3897 101.167C41.6445 97.7306 44.3394 95.8078 44.3394 95.8078C44.3394 95.8078 45.5904 102.317 41.6136 105.785C38.7103 108.205 35.6108 110.38 32.3473 112.286L32.8492 107.344Z" fill="#ADD5D5"/>
    <path d="M26.0771 127.699C26.0771 127.699 26.6563 124.997 31.2354 122.031C35.8144 119.066 38.7179 117.398 38.7179 117.398C38.7179 117.398 39.2739 124.001 34.9573 127.027C31.8085 129.133 28.4895 130.972 25.0347 132.525L26.0771 127.699Z" fill="#ADD5D5"/>
    <path d="M27.3512 149.884C27.3512 149.884 27.3512 147.128 31.2121 143.259C35.0731 139.39 37.5364 137.19 37.5364 137.19C37.5364 137.19 39.4668 143.537 35.8761 147.398C33.2416 150.118 30.3821 152.611 27.328 154.85L27.3512 149.884Z" fill="#ADD5D5"/>
    <path d="M27.2817 155.297C27.2817 155.297 27.6755 152.572 24.4015 148.193C21.1274 143.815 18.9961 141.282 18.9961 141.282C18.9961 141.282 16.1854 147.29 19.1815 151.629C21.4085 154.694 23.8882 157.566 26.5945 160.216L27.2817 155.297Z" fill="#ADD5D5"/>
    <path d="M23.4748 171.351C23.4748 171.351 23.4748 168.594 27.3357 164.726C31.1967 160.857 33.6754 158.656 33.6754 158.656C33.6754 158.656 35.6059 165.004 32.0229 168.865C29.3823 171.581 26.5205 174.074 23.467 176.316L23.4748 171.351Z" fill="#ADD5D5"/>
    <path d="M26.0539 185.922C26.0539 185.922 25.3513 183.258 28.1157 178.54C30.8801 173.822 32.7488 171.058 32.7488 171.058C32.7488 171.058 36.1928 176.656 33.6755 181.336C31.8103 184.63 29.6743 187.763 27.2895 190.702L26.0539 185.922Z" fill="#ADD5D5"/>
    <path d="M33.436 101.939C33.2437 104.814 32.8905 107.675 32.3781 110.51C30.8337 118.394 27.0345 123.483 25.5133 130.587C23.9921 137.691 28.3704 146.896 27.1967 156.07C26.023 165.243 22.4555 170.309 23.4748 176.417C24.494 182.525 29.9612 199.667 29.9612 199.667" stroke="#263238" stroke-width="0.75" stroke-linecap="round" stroke-linejoin="round"/>
    <path d="M32.8105 109.182L36.9727 105.985" stroke="#263238" stroke-width="0.75" stroke-linecap="round" stroke-linejoin="round"/>
    <path d="M33.0036 105.499L31.2584 102.402" stroke="#263238" stroke-width="0.75" stroke-linecap="round" stroke-linejoin="round"/>
    <path d="M25.745 130.325C25.745 130.325 29.2276 127.707 32.8105 125.097" stroke="#263238" stroke-width="0.75" stroke-linecap="round" stroke-linejoin="round"/>
    <path d="M27.2972 124.356C25.6087 121.171 23.6065 118.162 21.3204 115.375" stroke="#263238" stroke-width="0.75" stroke-linecap="round" stroke-linejoin="round"/>
    <path d="M27.4979 153.807C29.4888 150.141 32.0015 146.783 34.9573 143.838" stroke="#263238" stroke-width="0.75" stroke-linecap="round" stroke-linejoin="round"/>
    <path d="M26.8029 157.683C25.7478 155.194 24.4874 152.797 23.0346 150.518C20.996 147.514 20.718 147.128 20.718 147.128" stroke="#263238" stroke-width="0.75" stroke-linecap="round" stroke-linejoin="round"/>
    <path d="M23.4747 176.417C24.3586 174.225 25.4066 172.103 26.6098 170.069C27.8187 168.188 29.1797 166.408 30.6793 164.749" stroke="#263238" stroke-width="0.75" stroke-linecap="round" stroke-linejoin="round"/>
    <path d="M27.3126 190.702C27.1104 188.61 27.4703 186.501 28.355 184.594C29.8067 181.783 31.4438 178.108 32.131 176.656" stroke="#263238" stroke-width="0.75" stroke-linecap="round" stroke-linejoin="round"/>
    <path d="M7.79159 139.506C7.79159 139.506 7.49816 137.776 9.49813 134.935C11.4981 132.093 12.8186 130.441 12.8186 130.441C12.8186 130.441 14.7181 134.209 12.888 137.02C11.5284 139.01 10.0044 140.882 8.33213 142.618L7.79159 139.506Z" fill="#ADD5D5"/>
    <path d="M13.1814 149.707C13.1814 149.707 12.8803 147.977 14.888 145.135C16.8957 142.294 18.2084 140.633 18.2084 140.633C18.2084 140.633 20.108 144.409 18.2779 147.22C16.9182 149.21 15.3943 151.083 13.722 152.819L13.1814 149.707Z" fill="#ADD5D5"/>
    <path d="M8.45569 142.425C8.45569 142.425 7.97693 140.742 4.94222 139.05C1.90751 137.359 0.000202034 136.44 0.000202034 136.44C0.000202034 136.44 -0.0770166 140.657 2.78781 142.402C4.87571 143.611 7.06087 144.644 9.32054 145.491L8.45569 142.425Z" fill="#ADD5D5"/>
    <path d="M14.9112 154.456C14.9112 154.456 14.2549 152.826 11.0503 151.46C7.84567 150.093 5.87659 149.382 5.87659 149.382C5.87659 149.382 6.24724 153.591 9.28195 155.019C11.485 155.998 13.7657 156.79 16.1004 157.39L14.9112 154.456Z" fill="#ADD5D5"/>
    <path d="M16.525 168.502C16.525 168.502 16.2239 166.772 13.3822 164.772C10.5406 162.772 8.74909 161.683 8.74909 161.683C8.74909 161.683 8.19312 165.846 10.8881 167.876C12.8402 169.293 14.9064 170.546 17.0656 171.621L16.525 168.502Z" fill="#ADD5D5"/>
    <path d="M17.1506 171.892C17.1506 171.892 16.61 170.224 18.1853 167.127C19.7606 164.031 20.8339 162.208 20.8339 162.208C20.8339 162.208 23.2509 165.668 21.8378 168.71C20.7774 170.87 19.5376 172.936 18.1312 174.888L17.1506 171.892Z" fill="#ADD5D5"/>
    <path d="M21.9999 185.853C21.9999 185.853 22.2007 184.108 24.9265 181.946C27.6523 179.784 29.3743 178.571 29.3743 178.571C29.3743 178.571 30.1465 182.718 27.5905 184.903C25.7241 186.436 23.7326 187.81 21.637 189.011L21.9999 185.853Z" fill="#ADD5D5"/>
    <path d="M21.3203 181.544C21.3203 181.544 21.0192 179.814 18.1775 177.814C15.3358 175.814 13.5444 174.726 13.5444 174.726C13.5444 174.726 13.0193 178.919 15.6911 180.95C17.6423 182.368 19.7087 183.621 21.8686 184.695L21.3203 181.544Z" fill="#ADD5D5"/>
    <path d="M21.2431 190.949C21.2431 190.949 21.3899 189.204 19.1505 186.54C16.9112 183.876 15.4517 182.355 15.4517 182.355C15.4517 182.355 13.9073 186.27 15.9536 188.919C17.4822 190.783 19.1637 192.516 20.9806 194.1L21.2431 190.949Z" fill="#ADD5D5"/>
    <path d="M7.49817 139.105C7.93498 140.884 8.46597 142.64 9.08888 144.363C10.9035 149.143 13.8533 151.915 15.583 156.224C17.3127 160.533 15.583 166.757 17.2895 172.371C18.9961 177.984 21.8069 180.787 21.83 184.726C21.8532 188.664 20.2856 199.621 20.2856 199.621" stroke="#263238" stroke-width="0.75" stroke-linecap="round" stroke-linejoin="round"/>
    <path d="M8.67966 143.576L5.72217 142.023" stroke="#263238" stroke-width="0.75" stroke-linecap="round" stroke-linejoin="round"/>
    <path d="M8.16223 141.29L8.91898 139.159" stroke="#263238" stroke-width="0.75" stroke-linecap="round" stroke-linejoin="round"/>
    <path d="M15.4054 156.039C15.4054 156.039 12.9344 154.78 10.4016 153.529" stroke="#263238" stroke-width="0.75" stroke-linecap="round" stroke-linejoin="round"/>
    <path d="M13.6989 152.278C14.4899 150.179 15.4532 148.149 16.5791 146.209" stroke="#263238" stroke-width="0.75" stroke-linecap="round" stroke-linejoin="round"/>
    <path d="M16.8648 170.981C15.2149 168.911 13.2747 167.09 11.1042 165.575" stroke="#263238" stroke-width="0.75" stroke-linecap="round" stroke-linejoin="round"/>
    <path d="M17.7065 173.336C18.1005 171.66 18.6325 170.02 19.2973 168.432C20.2471 166.332 20.386 166.054 20.386 166.054" stroke="#263238" stroke-width="0.75" stroke-linecap="round" stroke-linejoin="round"/>
    <path d="M21.6987 187.714C22.6591 186.522 23.7238 185.419 24.8802 184.417C25.6145 183.873 26.304 183.271 26.9419 182.617" stroke="#263238" stroke-width="0.75" stroke-linecap="round" stroke-linejoin="round"/>
    <path d="M21.8301 184.726C21.0397 183.447 20.1516 182.231 19.1737 181.089C18.2254 180.038 17.1924 179.067 16.085 178.185" stroke="#263238" stroke-width="0.75" stroke-linecap="round" stroke-linejoin="round"/>
    <path d="M20.9806 194.1C20.8765 192.765 20.421 191.48 19.6601 190.378C18.4478 188.78 17.0115 186.648 16.4324 185.814" stroke="#263238" stroke-width="0.75" stroke-linecap="round" stroke-linejoin="round"/>
    <path d="M14.2471 199.698H36.4012V211.15C36.4012 211.405 36.3505 211.658 36.252 211.893C36.1534 212.128 36.009 212.342 35.8272 212.521C35.6453 212.699 35.4297 212.84 35.1929 212.935C34.956 213.03 34.7027 213.077 34.4476 213.073H16.1698C15.6599 213.073 15.1708 212.87 14.8102 212.509C14.4496 212.149 14.2471 211.66 14.2471 211.15V199.698Z" fill="#263238" stroke="#263238" stroke-linecap="round" stroke-linejoin="round"/>
    <path d="M225.287 56.1945C222.584 59.5595 220.749 63.537 219.943 67.7773C218.522 74.9819 215.024 88.5184 215.464 93.2133C215.905 97.9082 217.009 100.526 221.248 101.29C225.487 102.055 227.904 98.3406 228.785 95.1746C229.343 93.0912 229.778 90.977 230.09 88.8427L230.962 71.6383C230.962 71.6383 229.418 61.2986 228.684 59.1211C227.951 56.9435 225.287 56.1945 225.287 56.1945Z" fill="#35C2C1" stroke="#263238" stroke-linecap="round" stroke-linejoin="round"/>
    <path d="M282.074 52.7505C282.074 52.7505 283.618 52.4107 285.085 57.7697C286.552 63.1287 288.321 70.8198 291.216 80.3023C294.112 89.7847 294.676 92.9121 294.452 95.0279C294.228 97.1437 292.56 99.4912 286.73 99.4912C280.9 99.4912 278.236 97.2595 276.691 92.2403C275.147 87.2211 275.371 71.7155 275.263 69.7078C275.155 67.7001 280.282 51.7467 282.074 52.7505Z" fill="#35C2C1" stroke="#263238" stroke-linecap="round" stroke-linejoin="round"/>
    <path d="M242.244 219.312C242.244 219.312 238.453 223.327 236.221 225.899C233.989 228.47 233.209 230.022 236.885 231.582C240.561 233.142 246.259 230.81 247.935 228.238C249.611 225.667 253.178 222.771 253.178 222.771C253.178 222.771 255.07 220.656 252.615 217.644C250.159 214.632 243.356 218.084 242.244 219.312Z" fill="white" stroke="#263238" stroke-linecap="round" stroke-linejoin="round"/>
    <path d="M265 222.663C265 222.663 268.792 223.219 270.799 224.98C272.807 226.74 279.842 230.671 284.521 228.771C289.201 226.872 286.197 223.752 283.633 221.52C282.193 220.243 280.622 219.123 278.946 218.177C278.946 218.177 271.471 217.621 268.135 219.289C264.8 220.957 265 222.663 265 222.663Z" fill="white" stroke="#263238" stroke-linecap="round" stroke-linejoin="round"/>
    <path d="M237.889 170.78C237.889 170.78 239.68 184.17 238.784 188.185C237.889 192.2 235.325 194.548 237.24 198.455C238.658 201.476 239.695 204.661 240.329 207.938C240.553 209.273 239.325 209.606 240.329 211.026C241.061 211.942 241.661 212.956 242.113 214.038C242.113 214.378 240.777 216.27 240.777 216.717C240.777 217.165 241.449 219.953 241.449 219.953C241.449 219.953 245.016 219.181 247.58 220.177C249.437 220.977 251.196 221.987 252.823 223.188C252.823 223.188 255.139 222.293 255.95 220.957C256.387 220.257 256.652 219.463 256.722 218.64C256.831 218.192 257.95 215.845 257.842 214.061C257.734 212.277 256.499 208.486 256.499 206.254C256.499 204.023 258.174 201.567 258.174 197.999C258.174 194.432 256.499 171.56 256.499 171.56L258.043 170.996C258.043 170.996 260.498 184.61 260.498 190.973C260.498 197.335 258.607 205.25 259.834 206.81C261.062 208.37 262.506 209.714 262.506 210.046C262.506 210.378 261.054 212.833 261.394 214.061C261.924 215.674 262.37 217.313 262.73 218.972C262.73 219.644 263.958 222.208 264.962 222.656C265.966 223.103 266.506 222.092 272.437 220.872C278.367 219.652 281.703 219.976 281.139 218.192C280.575 216.409 280.027 214.061 279.355 213.613C278.684 213.165 279.579 212.841 279.355 211.165C279.131 209.49 277.904 207.706 276.792 205.026C275.68 202.347 277.232 199.451 277.68 196.656C278.128 193.861 277.456 189.706 276.344 185.166C275.232 180.625 276.228 169.436 276.228 169.436L276.792 165.089C276.792 165.089 259.719 166.633 249.232 166.533L237.966 166.425C237.966 166.425 237.225 167.212 237.889 170.78Z" fill="#263238" stroke="#263238" stroke-linecap="round" stroke-linejoin="round"/>
    <path d="M281.178 124.147C281.178 124.147 282.722 144.456 284.745 155.035C285.909 161.006 286.647 167.052 286.954 173.127H278.838C278.498 173.127 279.394 135.529 279.61 132.201C279.904 129.477 280.429 126.783 281.178 124.147Z" fill="#35C2C1" stroke="#263238" stroke-linecap="round" stroke-linejoin="round"/>
    <path d="M247.572 41.5229C247.572 41.5229 238.09 47.878 233.186 50.1096C228.283 52.3413 225.596 55.2447 225.264 56.2872C224.931 57.3296 230.615 73.3526 230.615 73.3526C230.615 73.3526 230.283 126.348 230.283 135.275C230.283 144.201 227.495 171.081 227.827 171.081C228.159 171.081 237.093 176.888 249.356 177.22C261.618 177.552 265.572 175.768 269.433 175.768C273.294 175.768 281.016 175.768 281.147 174.656C281.278 173.544 281.371 148.88 281.479 137.39C281.587 125.9 281.703 117.754 281.479 115.862C281.255 113.97 278.135 73.1286 278.135 73.1286C278.135 73.1286 280.452 66.3256 281.819 60.8585C283.186 55.3914 283.155 54.7196 281.479 52.2718C279.803 49.8239 267.232 43.1522 265 42.2951C262.258 41.3352 259.403 40.7356 256.506 40.5113C254.406 40.3646 247.572 41.5229 247.572 41.5229Z" fill="#35C2C1" stroke="#263238" stroke-linecap="round" stroke-linejoin="round"/>
    <path d="M226.623 86.889C226.623 86.889 228.074 90.2326 229.858 91.6843C231.642 93.1361 235.773 93.8079 236.661 96.0395C237.549 98.2711 236.661 99.9391 235.657 102.619C234.653 105.298 235.217 109.761 231.534 110.34C227.85 110.92 226.738 109.568 223.719 107.437C220.7 105.306 218.816 104.981 217.032 101.746C215.248 98.5105 214.715 94.0241 216.26 91.5994" fill="#35C2C1"/>
    <path d="M226.623 86.889C226.623 86.889 228.074 90.2326 229.858 91.6843C231.642 93.1361 235.773 93.8079 236.661 96.0395C237.549 98.2711 236.661 99.9391 235.657 102.619C234.653 105.298 235.217 109.761 231.534 110.34C227.85 110.92 226.738 109.568 223.719 107.437C220.7 105.306 218.816 104.981 217.032 101.746C215.248 98.5105 214.715 94.0241 216.26 91.5994" stroke="#263238" stroke-linecap="round" stroke-linejoin="round"/>
    <path d="M247.155 37.1291L246.8 46.5035C246.8 46.5035 245.912 47.8394 251.263 48.1714C254.703 48.3518 258.152 48.0923 261.526 47.3992L260.638 37.2527C260.638 37.2527 255.055 39.5692 251.819 38.4804C250.302 37.9096 248.743 37.4577 247.155 37.1291Z" fill="white" stroke="#263238" stroke-linecap="round" stroke-linejoin="round"/>
    <path d="M245.032 34.7894C245.032 34.7894 244.259 45.6 243.696 48.8432C243.132 52.0864 243.248 54.0864 244.468 54.8663C245.688 55.6462 252.831 58.4415 256.514 58.2176C260.197 57.9937 265.78 54.6424 266.221 53.6385C266.661 52.6347 262.885 36.8897 262.885 36.8897L262.321 37.5615C262.321 37.5615 263.325 45.8162 262.993 46.0556C262.661 46.295 249.719 45.3838 247.371 45.2834C245.024 45.183 245.703 45.0595 245.703 45.0595L245.588 35.577L245.032 34.7894Z" fill="white" stroke="#263238" stroke-linecap="round" stroke-linejoin="round"/>
    <path d="M244.676 47.6541C244.676 47.6541 256.869 49.4533 264.182 48.0402" stroke="#263238" stroke-width="0.5" stroke-miterlimit="10"/>
    <path d="M244.167 50.4803C244.167 50.4803 252.661 54.071 264.182 50.8586" stroke="#263238" stroke-width="0.5" stroke-miterlimit="10"/>
    <path d="M245.062 53.8161C245.062 53.8161 253.147 58.179 264.182 53.5536" stroke="#263238" stroke-width="0.5" stroke-miterlimit="10"/>
    <path d="M264.784 23.4073C265.062 19.9788 265.294 16.4576 264.444 14.7047C263.109 11.9171 259.085 8.68161 253.286 8.90555C247.487 9.12948 242.576 11.3611 242.692 18.4961C242.692 18.4961 242.939 20.6197 243.225 23.222C242.693 24.3583 242.508 25.6258 242.692 26.8667C242.872 28.0574 243.289 29.1997 243.92 30.2257C243.974 30.8898 244.012 31.4612 244.028 31.8859C244.136 34.8975 246.143 38.465 247.935 39.6928C249.726 40.9206 253.062 42.8201 255.186 42.8201C257.309 42.8201 261.093 40.8125 262.908 37.909C264.313 35.5925 264.452 34.0481 264.452 31.3222H264.56C264.88 29.8906 265.068 28.4329 265.124 26.9671C265.17 25.7706 265.055 24.5735 264.784 23.4073Z" fill="white" stroke="#263238" stroke-linecap="round" stroke-linejoin="round"/>
    <path d="M243.711 24.0791C243.711 24.0791 244.043 26.8667 244.599 26.7509C245.155 26.635 245.827 22.6274 245.827 22.6274L243.711 24.0791Z" fill="#263238" stroke="#263238" stroke-linecap="round" stroke-linejoin="round"/>
    <path d="M262.661 23.7625C262.661 23.7625 262.661 26.8899 263.433 27.3377C264.205 27.7856 264.769 24.6582 264.769 24.6582C264.136 24.216 263.418 23.9109 262.661 23.7625Z" fill="#263238" stroke="#263238" stroke-linecap="round" stroke-linejoin="round"/>
    <path d="M264.444 14.7047C263.108 11.9171 259.085 8.68161 253.286 8.90555C247.487 9.12948 242.576 11.3611 242.692 18.4961C242.692 18.4961 242.939 20.6197 243.225 23.222C242.873 23.9764 242.671 24.792 242.63 25.6235C244.8 23.886 248.862 21.3996 253.958 21.8475C257.924 22.2994 261.736 23.6431 265.108 25.7779C265.073 24.9794 264.965 24.1859 264.784 23.4073C265.062 19.9788 265.332 16.4807 264.444 14.7047Z" fill="#35C2C1" stroke="#263238" stroke-linecap="round" stroke-linejoin="round"/>
    <path d="M252.506 26.0791L251.834 30.0944C251.834 30.0944 250.607 30.2026 251.062 30.9825C251.518 31.7624 253.85 32.6581 254.97 32.3261C256.089 31.994 257.201 30.8744 257.085 30.4265C257.051 30.2925 256.981 30.1702 256.883 30.0724C256.786 29.9746 256.663 29.9049 256.529 29.8705L255.078 25.7393" stroke="#263238" stroke-linecap="round" stroke-linejoin="round"/>
    <path d="M251.279 34.3415C253.421 34.8037 255.644 34.7268 257.75 34.1176" stroke="#263238" stroke-linecap="round" stroke-linejoin="round"/>
    <path d="M250.051 25.9169C250.051 26.5038 249.75 26.9748 249.379 26.9748C249.008 26.9748 248.715 26.5038 248.715 25.9169C248.715 25.33 249.016 24.859 249.379 24.859C249.742 24.859 250.051 25.3069 250.051 25.9169Z" fill="#263238"/>
    <path d="M258.53 25.8628C258.53 26.4497 258.228 26.9207 257.865 26.9207C257.502 26.9207 257.194 26.4497 257.194 25.8628C257.194 25.276 257.495 24.8049 257.865 24.8049C258.236 24.8049 258.53 25.3069 258.53 25.8628Z" fill="#263238"/>
    <path d="M247.487 24.303C247.487 24.303 248.259 22.4034 250.723 23.0752" stroke="#263238" stroke-linecap="round" stroke-linejoin="round"/>
    <path d="M255.742 23.1833C255.742 23.1833 258.058 21.5077 259.757 24.4111" stroke="#263238" stroke-linecap="round" stroke-linejoin="round"/>
    <path d="M234.653 100.835C234.653 100.835 241.464 102.379 243.024 102.063C245.068 101.681 246.941 100.665 248.375 99.1591C250.391 97.1514 252.058 95.4758 252.058 97.1514C252.065 97.8127 251.941 98.4687 251.691 99.0812C251.442 99.6937 251.073 100.25 250.607 100.719C249.835 101.615 248.375 102.619 248.043 104.07C247.711 105.522 248.159 106.634 249.943 107.306C251.726 107.978 257.302 108.974 257.302 110.395C257.302 111.815 256.854 115.198 254.846 116.309C252.838 117.421 247.935 116.642 247.935 116.642C247.935 116.642 251.95 118.873 251.17 119.437C250.391 120.001 248.043 119.213 246.931 118.209C245.819 117.205 245.387 117.089 242.128 114.75C238.869 112.41 236.105 109.615 234.545 108.727C233.7 108.331 232.919 107.81 232.229 107.182C231.333 106.41 231.001 104.866 231.665 103.059C231.891 102.523 232.227 102.041 232.649 101.642C233.072 101.244 233.573 100.937 234.12 100.742L234.653 100.835Z" fill="white" stroke="#263238" stroke-linecap="round" stroke-linejoin="round"/>
    <path d="M287.649 88.1168C287.649 88.1168 279.618 89.6612 278.838 90.2326C278.058 90.804 278.838 93.1361 278.838 93.1361C278.838 93.1361 272.027 96.3715 269.464 98.1553C266.9 99.9391 269.24 103.514 269.356 103.954C269.356 103.954 271.363 110.541 274.707 112.773C278.051 115.004 281.51 114.217 284.861 110.649C288.213 107.082 290.328 102.155 291.888 100.495C293.448 98.8348 295.124 97.2596 294.568 93.5453C294.012 89.8311 291.108 89.4141 291.108 89.4141" fill="#35C2C1"/>
    <path d="M287.649 88.1168C287.649 88.1168 279.618 89.6612 278.838 90.2326C278.058 90.804 278.838 93.1361 278.838 93.1361C278.838 93.1361 272.027 96.3715 269.464 98.1553C266.9 99.9391 269.24 103.514 269.356 103.954C269.356 103.954 271.363 110.541 274.707 112.773C278.051 115.004 281.51 114.217 284.861 110.649C288.213 107.082 290.328 102.155 291.888 100.495C293.448 98.8348 295.124 97.2596 294.568 93.5453C294.012 89.8311 291.108 89.4141 291.108 89.4141" stroke="#263238" stroke-linecap="round" stroke-linejoin="round"/>
    <path d="M271.247 102.843C271.247 102.843 266.12 104.178 264.668 104.294C263.217 104.41 262.993 104.626 262.105 103.954C261.217 103.283 257.078 100.866 255.155 98.6032C253.232 96.3407 251.804 95.9237 252.028 97.1515C252.252 98.3792 251.804 99.2673 253.147 100.163C254.491 101.059 255.819 103.514 255.819 104.518C255.819 105.522 255.711 105.854 252.923 106.835C250.136 107.815 243.773 109.066 244.429 109.846C245.086 110.626 246.437 110.85 247.889 110.742C249.34 110.634 255.363 109.738 255.804 110.07C255.949 110.219 256.058 110.399 256.121 110.598C256.184 110.796 256.201 111.006 256.168 111.211C256.136 111.417 256.056 111.612 255.935 111.781C255.814 111.95 255.656 112.089 255.472 112.186C254.468 112.858 250.9 112.858 248.777 113.082C246.653 113.306 246.545 113.854 247.441 114.31C248.879 114.846 250.409 115.095 251.943 115.043C253.726 115.043 255.804 114.866 254.916 115.421C254.028 115.977 252.792 116.093 250.56 116.425C248.329 116.757 247.549 115.761 247.889 116.649C248.228 117.537 250.9 117.545 254.244 117.421C257.287 117.266 260.243 116.347 262.838 114.75C265.07 113.406 273.209 111.398 273.772 110.958C274.336 110.518 275.216 107.939 274.661 104.819C274.105 101.7 271.247 102.843 271.247 102.843Z" fill="white" stroke="#263238" stroke-linecap="round" stroke-linejoin="round"/>
    <path d="M280.066 89.7848C282.24 87.9858 284.595 86.4175 287.093 85.1053" stroke="#263238" stroke-linecap="round" stroke-linejoin="round"/>
    <path d="M249.271 110.804C249.271 110.804 255.618 110.078 256.259 109.985C256.9 109.893 258.074 110.618 257.526 111.437C256.977 112.255 256.707 112.07 254.437 112.526C252.183 112.868 249.905 113.021 247.626 112.981" fill="white"/>
    <path d="M249.271 110.804C249.271 110.804 255.618 110.078 256.259 109.985C256.9 109.893 258.074 110.618 257.526 111.437C256.977 112.255 256.707 112.07 254.437 112.526C252.183 112.868 249.905 113.021 247.626 112.981" stroke="#263238" stroke-linecap="round" stroke-linejoin="round"/>
    <path d="M249.997 115.159C249.997 115.159 257.07 114.703 256.892 115.252C256.715 115.8 256.259 116.518 253.719 116.703C251.178 116.889 248.313 117.066 245.912 115.885" fill="white"/>
    <path d="M249.997 115.159C249.997 115.159 257.07 114.703 256.892 115.252C256.715 115.8 256.259 116.518 253.719 116.703C251.178 116.889 248.313 117.066 245.912 115.885" stroke="#263238" stroke-linecap="round" stroke-linejoin="round"/>
    <path d="M179.249 213.814C179.249 213.814 180.453 215.011 175.65 217.945C170.847 220.88 166.84 222.215 166.84 223.953C166.84 225.69 172.175 227.42 177.65 226.084C183.125 224.748 185.372 224.354 188.461 223.822C191.55 223.289 192.469 220.617 192.469 216.872C192.469 213.127 184.33 212.239 183.395 212.069C182.461 211.899 179.92 212.347 179.249 213.814Z" fill="white" stroke="#263238" stroke-linecap="round" stroke-linejoin="round"/>
    <path d="M191.256 216.88C189.235 219.908 186.761 222.609 183.921 224.887C179.782 227.976 179.249 229.42 181.388 230.223C183.527 231.026 189.658 231.289 193.797 229.69C197.936 228.092 199.936 225.69 201.133 224.617C202.33 223.544 203.001 224.215 203.001 219.945C203.001 215.675 198.461 214.208 194.731 214.478C191.002 214.748 191.256 216.88 191.256 216.88Z" fill="white" stroke="#263238" stroke-linecap="round" stroke-linejoin="round"/>
    <path d="M174.986 129.885C174.986 129.885 176.191 154.17 176.592 161.243C176.994 168.317 179.928 194.864 180.453 201.135C180.978 207.405 180.986 209.273 180.986 209.273C180.986 209.273 178.585 211.011 178.585 211.412C178.585 211.814 178.314 215.544 178.314 215.544C180.087 216.52 181.968 217.282 183.92 217.814C186.065 218.297 188.273 218.433 190.461 218.215C190.461 218.215 194.862 219.683 198.6 220.748C202.337 221.814 203.804 221.281 203.804 221.281C203.804 221.281 204.87 215.945 205.133 214.208C205.395 212.47 209.936 194.061 209.936 185.637C209.936 177.212 208.87 173.359 207.271 168.425C205.673 163.49 209.403 145.869 210.739 139.467C211.504 135.896 212.084 132.288 212.476 128.657C212.476 128.657 201.001 134.556 174.986 129.885Z" fill="#263238" stroke="#263238" stroke-linecap="round" stroke-linejoin="round"/>
    <path d="M189.928 138.047C189.928 138.047 189.256 155.807 189.256 162.595C189.256 169.382 190.994 177.675 191.789 185.683C192.584 193.691 192.059 206.764 191.125 209.034C190.191 211.304 189.527 212.123 189.658 213.837C189.789 215.551 189.928 217.968 189.928 217.968" stroke="white" stroke-linecap="round" stroke-linejoin="round"/>
    <path d="M187.789 34.743C187.789 34.743 187.017 32.3415 185.781 33.2759C184.546 34.2102 185.388 35.9476 186.453 37.6851C187.519 39.4225 188.716 39.8163 188.855 38.882C188.994 37.9476 187.789 34.743 187.789 34.743Z" fill="white" stroke="#263238" stroke-linecap="round" stroke-linejoin="round"/>
    <path d="M187.789 35.8164L186.453 31.9554C186.453 31.9554 180.855 29.6852 182.592 24.0791C184.33 18.473 197.673 13.4074 201.272 13.4074C204.87 13.4074 211.812 18.2104 213.017 23.8165C214.221 29.4226 210.214 34.4882 210.214 34.4882C210.214 34.4882 208.476 39.4225 207.125 39.16C205.773 38.8974 206.584 35.021 204.855 31.9554C203.125 28.8898 202.052 27.3223 200.183 28.0945C198.314 28.8667 190.577 31.1832 189.913 32.2257C189.249 33.2682 188.059 36.4805 187.789 35.8164Z" fill="#263238" stroke="#263238" stroke-linecap="round" stroke-linejoin="round"/>
    <path d="M214.878 90.7886L215.542 94.2557L207.271 107.066L209.14 110.001C213.064 107.385 216.648 104.293 219.812 100.796C225.148 94.9275 225.68 94.1245 225.68 91.7229C225.68 89.3214 223.82 85.1825 223.82 85.1825C223.82 85.1825 220.082 90.7886 214.878 90.7886Z" fill="white" stroke="#263238" stroke-linecap="round" stroke-linejoin="round"/>
    <path d="M169.643 83.0513C169.643 83.0513 166.971 89.4527 167.511 91.4527C168.052 93.4527 177.249 105.198 177.249 105.198L178.847 100.796C178.847 100.796 175.38 93.5917 175.38 91.1901C175.38 88.7886 176.585 84.1169 176.585 84.1169L169.643 83.0513Z" stroke="#263238" stroke-linecap="round" stroke-linejoin="round"/>
    <path d="M193.264 51.2911C193.264 51.2911 181.789 55.6926 179.65 56.3644C177.511 57.0362 176.044 57.43 175.913 58.0941C175.782 58.7582 169.38 75.1749 168.191 77.4452C167.002 79.7154 165.388 82.2482 165.388 82.2482C166.942 83.2201 168.545 84.1119 170.191 84.92C171.87 85.6536 173.612 86.2326 175.396 86.6497L176.168 95.8619L168.291 130.549C168.291 130.549 184.036 134.95 194.546 134.556C201.237 134.328 207.853 133.068 214.159 130.819C216.167 130.147 219.233 128.95 219.233 128.95L209.194 91.1901L209.966 85.584L210.499 91.0589C210.499 91.0589 215.835 92.2558 218.901 91.4527C221.966 90.6496 225.85 87.5917 225.85 87.5917L215.974 56.7736L197.565 51.7003L193.264 51.2911Z" fill="#35C2C1" stroke="#263238" stroke-linecap="round" stroke-linejoin="round"/>
    <path d="M206.229 54.0478L197.665 51.6926L193.264 51.2911L189.303 52.8354C189.225 54.9358 189.125 58.5111 189.125 62.7967C189.125 69.7464 189.897 75.8776 191.928 74.673C193.959 73.4684 203.511 60.5342 205.133 56.9126C205.571 55.9871 205.937 55.0294 206.229 54.0478Z" fill="#ADD5D5" stroke="#263238" stroke-linecap="round" stroke-linejoin="round"/>
    <path d="M210.075 85.584C209.804 85.3215 208.607 73.839 208.607 73.839" stroke="#263238" stroke-linecap="round" stroke-linejoin="round"/>
    <path d="M175.38 86.6497C175.38 86.6497 174.446 82.1169 174.716 80.3795C174.986 78.6421 176.847 68.3719 176.847 68.3719" stroke="#263238" stroke-linecap="round" stroke-linejoin="round"/>
    <path d="M179.921 105.869C179.921 105.869 173.782 107.869 173.782 108.271C173.782 108.673 173.643 110.534 173.643 110.534L179.921 107.599V105.869Z" stroke="#263238" stroke-linecap="round" stroke-linejoin="round"/>
    <path d="M196.198 106.804L195.928 108.534L209.272 112.001L209.936 110.672L196.198 106.804Z" stroke="#263238" stroke-linecap="round" stroke-linejoin="round"/>
    <path d="M200.6 80.2714C200.418 80.2714 200.243 80.199 200.114 80.0701C199.985 79.9412 199.913 79.7664 199.913 79.5841C199.913 77.2675 201.063 71.6769 202.183 66.2716C203.071 61.9705 203.913 57.901 203.913 56.6269C203.947 55.9247 203.831 55.2233 203.573 54.5695C203.314 53.9157 202.919 53.3245 202.414 52.8354C200.816 51.3528 197.974 50.7505 193.974 51.044C185.627 51.6617 185.017 70.3487 185.009 70.5263C185.005 70.7059 184.931 70.8768 184.803 71.0023C184.674 71.1279 184.502 71.1982 184.322 71.1981C184.232 71.1951 184.143 71.1744 184.061 71.1371C183.979 71.0997 183.904 71.0465 183.843 70.9806C183.781 70.9146 183.733 70.8371 183.701 70.7525C183.67 70.668 183.655 70.578 183.658 70.4877C183.658 69.6692 184.314 50.4108 193.897 49.6386C198.299 49.322 201.488 50.0401 203.372 51.8007C204.014 52.4189 204.518 53.1654 204.852 53.9917C205.186 54.818 205.342 55.7054 205.31 56.596C205.31 58.0091 204.499 61.955 203.557 66.5187C202.499 71.6074 201.31 77.3757 201.31 79.5532C201.315 79.648 201.299 79.7427 201.265 79.8313C201.231 79.9198 201.179 80.0004 201.112 80.0679C201.046 80.1353 200.966 80.1882 200.877 80.2233C200.789 80.2583 200.695 80.2747 200.6 80.2714Z" fill="#263238" stroke="#263238" stroke-linecap="round" stroke-linejoin="round"/>
    <path d="M191.789 47.1598C191.789 47.1598 191.789 51.0208 191.658 51.793C191.527 52.5652 191.658 55.9319 191.658 60.4724C191.658 65.0129 192.43 68.0708 193.527 67.0051C194.623 65.9395 201.665 56.4647 202.067 54.596C202.303 53.5457 202.437 52.4752 202.469 51.3992L203.001 46.0556C203.001 46.0556 194.731 48.4571 191.256 47.3915" fill="white"/>
    <path d="M191.789 47.1598C191.789 47.1598 191.789 51.0208 191.658 51.793C191.527 52.5652 191.658 55.9319 191.658 60.4724C191.658 65.0129 192.43 68.0708 193.527 67.0051C194.623 65.9395 201.665 56.4647 202.067 54.596C202.303 53.5457 202.437 52.4752 202.469 51.3992L203.001 46.0556C203.001 46.0556 194.731 48.4571 191.256 47.3915" stroke="#263238" stroke-linecap="round" stroke-linejoin="round"/>
    <path d="M205.534 39.1522C206.229 43.7873 206.408 48.4853 206.067 53.1598C205.534 61.2987 204.569 65.1133 202.206 66.287C199.843 67.4607 202.893 68.7889 206.492 68.9202C210.09 69.0514 215.434 68.5186 216.368 57.847C217.302 47.1753 209.565 40.2333 208.893 38.8974C208.721 38.5872 208.464 38.3328 208.152 38.1644C207.84 37.9961 207.486 37.9209 207.132 37.9477C206.778 37.9745 206.44 38.1023 206.156 38.3158C205.873 38.5293 205.657 38.8196 205.534 39.1522Z" fill="#263238" stroke="#263238" stroke-linecap="round" stroke-linejoin="round"/>
    <path d="M179.519 79.8698H179.465C179.371 79.8643 179.28 79.8395 179.196 79.7969C179.113 79.7543 179.039 79.6949 178.979 79.6224C178.92 79.5498 178.876 79.4657 178.851 79.3754C178.825 79.2851 178.819 79.1906 178.832 79.0976C178.832 78.7193 179.604 69.785 184.322 69.785C189.04 69.785 189.148 78.3795 189.148 78.7502C189.148 78.9324 189.076 79.1072 188.947 79.2361C188.818 79.365 188.643 79.4374 188.461 79.4374C188.279 79.4374 188.104 79.365 187.975 79.2361C187.846 79.1072 187.774 78.9324 187.774 78.7502C187.774 78.6729 187.673 71.1672 184.33 71.1672C181.457 71.1672 180.384 76.9664 180.214 79.2058C180.206 79.3847 180.129 79.5536 180 79.6773C179.87 79.801 179.698 79.87 179.519 79.8698Z" fill="#263238"/>
    <path d="M179.519 78.6498C179.519 78.6498 179.519 85.3215 179.782 86.6497C180.044 87.9778 183.388 90.7886 187.388 92.526" stroke="#263238" stroke-width="2" stroke-linecap="round" stroke-linejoin="round"/>
    <path d="M188.191 77.8158C188.191 77.8158 188.453 84.4875 187.125 87.4219C185.797 90.3562 181.789 91.5608 180.052 92.2249" stroke="#263238" stroke-width="2" stroke-linecap="round" stroke-linejoin="round"/>
    <path d="M189.256 92.7886C189.232 92.4867 189.095 92.2051 188.873 91.9997C188.65 91.7944 188.358 91.6803 188.056 91.6803C187.753 91.6803 187.461 91.7944 187.239 91.9997C187.016 92.2051 186.879 92.4867 186.855 92.7886C186.842 92.9544 186.863 93.1211 186.917 93.2783C186.971 93.4355 187.058 93.5797 187.17 93.702C187.283 93.8242 187.42 93.9217 187.572 93.9884C187.725 94.0551 187.889 94.0896 188.056 94.0896C188.222 94.0896 188.386 94.0551 188.539 93.9884C188.691 93.9217 188.828 93.8242 188.941 93.702C189.054 93.5797 189.14 93.4355 189.194 93.2783C189.248 93.1211 189.27 92.9544 189.256 92.7886Z" fill="white" stroke="#263238" stroke-linecap="round" stroke-linejoin="round"/>
    <path d="M180.986 92.526C180.988 92.2875 180.918 92.0538 180.787 91.8547C180.655 91.6556 180.468 91.5 180.248 91.4076C180.028 91.3153 179.785 91.2903 179.551 91.3359C179.317 91.3815 179.102 91.4956 178.932 91.6638C178.763 91.8319 178.648 92.0466 178.601 92.2804C178.554 92.5143 178.577 92.7569 178.668 92.9775C178.759 93.1981 178.913 93.3867 179.111 93.5194C179.31 93.6521 179.543 93.7229 179.781 93.7229C180.1 93.7229 180.405 93.5971 180.631 93.3728C180.856 93.1486 180.984 92.8442 180.986 92.526Z" fill="white" stroke="#263238" stroke-linecap="round" stroke-linejoin="round"/>
    <path d="M204.6 82.1169C204.601 81.2976 204.36 80.4963 203.905 79.8145C203.451 79.1327 202.805 78.601 202.048 78.2868C201.292 77.9726 200.459 77.8899 199.655 78.0494C198.852 78.2089 198.113 78.6032 197.534 79.1825C196.955 79.7618 196.561 80.5 196.401 81.3036C196.242 82.1072 196.324 82.94 196.638 83.6967C196.953 84.4533 197.484 85.0996 198.166 85.5538C198.848 86.008 199.649 86.2496 200.469 86.2481C201.564 86.2461 202.613 85.8102 203.388 85.0359C204.162 84.2615 204.598 83.2119 204.6 82.1169Z" fill="white" stroke="#263238" stroke-linecap="round" stroke-linejoin="round"/>
    <path d="M202.731 82.1169C202.731 81.6676 202.598 81.2283 202.348 80.8548C202.098 80.4813 201.743 80.1903 201.328 80.0187C200.912 79.8471 200.456 79.8026 200.015 79.8909C199.574 79.9791 199.17 80.1961 198.853 80.5143C198.536 80.8326 198.32 81.2379 198.233 81.6787C198.147 82.1196 198.193 82.5764 198.366 82.991C198.539 83.4057 198.831 83.7598 199.205 84.0083C199.579 84.2568 200.019 84.3887 200.469 84.3871C201.069 84.3851 201.645 84.145 202.069 83.7195C202.493 83.2939 202.731 82.7177 202.731 82.1169Z" fill="white" stroke="#263238" stroke-linecap="round" stroke-linejoin="round"/>
    <path d="M202.731 25.4073C202.731 25.4073 191.125 29.94 189.658 30.7122C189.026 31.0939 188.356 31.4071 187.658 31.6466C187.658 31.6466 188.322 41.7854 188.592 44.4572C188.863 47.129 193.125 49.6617 196.862 49.5305C200.6 49.3992 203.665 47.3915 204.337 46.1946C205.009 44.9977 206.87 41.3916 206.87 41.3916C206.87 41.3916 211.272 40.6194 211.503 36.7198C211.735 32.8203 210.438 33.6311 208.97 34.4496C207.503 35.2681 206.7 35.7855 206.7 35.7855C206.986 34.37 206.747 32.8991 206.028 31.6466C204.87 29.6775 203.001 27.276 202.731 25.4073Z" fill="white" stroke="#263238" stroke-linecap="round" stroke-linejoin="round"/>
    <path d="M193.264 37.8163C193.264 37.8163 194.33 39.4148 195.264 39.2835" stroke="#263238" stroke-linecap="round" stroke-linejoin="round"/>
    <path d="M192.862 40.2179C192.862 40.2179 195.125 42.3568 199.04 40.6194" stroke="#263238" stroke-linecap="round" stroke-linejoin="round"/>
    <path d="M198.6 34.6118C198.6 34.6118 201.333 33.4149 202.87 35.5461" stroke="#263238" stroke-width="1.5" stroke-linecap="round" stroke-linejoin="round"/>
    <path d="M193.264 34.3492C193.264 34.3492 191.125 33.0133 189.527 34.0789" stroke="#263238" stroke-width="1.5" stroke-linecap="round" stroke-linejoin="round"/>
    <path d="M194.832 33.8473C194.833 34.5932 194.613 35.3229 194.2 35.9437C193.786 36.5646 193.198 37.0488 192.509 37.335C191.82 37.6211 191.062 37.6964 190.33 37.5513C189.598 37.4061 188.926 37.0471 188.399 36.5196C187.871 35.9921 187.512 35.32 187.367 34.5883C187.222 33.8566 187.297 33.0983 187.583 32.4094C187.869 31.7205 188.354 31.132 188.974 30.7186C189.595 30.3051 190.325 30.0852 191.071 30.0867C192.068 30.0888 193.023 30.4856 193.728 31.1904C194.433 31.8952 194.829 32.8506 194.832 33.8473Z" stroke="#263238" stroke-linecap="round" stroke-linejoin="round"/>
    <path d="M204.214 34.9052C204.215 35.6508 203.996 36.3801 203.582 37.0008C203.169 37.6215 202.581 38.1057 201.893 38.3921C201.204 38.6785 200.446 38.7543 199.715 38.6097C198.984 38.4652 198.311 38.1069 197.784 37.5802C197.256 37.0535 196.896 36.3821 196.75 35.6509C196.604 34.9197 196.678 34.1617 196.963 33.4726C197.248 32.7836 197.731 32.1946 198.351 31.7802C198.971 31.3658 199.7 31.1446 200.445 31.1446C201.443 31.1467 202.399 31.5433 203.105 32.2478C203.811 32.9524 204.21 33.9077 204.214 34.9052V34.9052Z" stroke="#263238" stroke-linecap="round" stroke-linejoin="round"/>
    <path d="M194.832 33.8473C195.101 33.756 195.39 33.7387 195.668 33.7971C195.947 33.8555 196.204 33.9875 196.415 34.1793" stroke="#263238" stroke-linecap="round" stroke-linejoin="round"/>
    <path d="M204.345 35.4998L208.044 34.9747" stroke="#263238" stroke-linecap="round" stroke-linejoin="round"/>
    <path d="M47.4668 214.787C46.444 216.959 45.1855 219.013 43.714 220.91C41.4824 223.652 40.9187 225.605 43.3433 227.304C45.768 229.003 50.1849 228.74 52.4089 225.999C54.6328 223.258 58.2157 215.698 58.2157 215.698C58.2157 215.698 50.4012 213.351 47.4668 214.787Z" fill="white" stroke="#263238" stroke-linecap="round" stroke-linejoin="round"/>
    <path d="M74.6634 216.478C74.6634 216.478 78.5243 221.567 80.8409 224.2C83.1575 226.833 87.5358 228.107 89.8755 227.976C92.2152 227.845 95.5743 227.065 93.304 222.895C91.0338 218.725 86.2925 214.679 86.2925 214.679C86.2925 214.679 81.3351 214.679 77.9297 214.285C74.5244 213.891 74.4935 215.698 74.6634 216.478Z" fill="white" stroke="#263238" stroke-linecap="round" stroke-linejoin="round"/>
    <path d="M49.598 120.634C49.598 120.634 48.0536 138.394 48.5787 150.888C49.1038 163.382 46.8026 188.316 46.0304 194.417C45.2583 200.517 46.7331 210.586 46.8026 212.802C46.8721 215.019 46.9494 216.2 46.9494 216.2C46.9494 216.2 48.0922 215.428 52.3006 216.2C54.2005 216.606 56.1291 216.864 58.0689 216.972C59.8051 214.035 61.2409 210.931 62.3545 207.706C63.6132 203.536 62.9028 199.212 62.8024 197.011C62.702 194.81 62.3391 192.447 62.5862 192.054C62.8333 191.66 67.9915 154.371 68.2695 146.155C68.5855 140.585 69.4126 135.056 70.7405 129.637C70.7405 129.637 73.2038 141.112 73.3969 145.545C73.5899 149.977 72.9567 186.1 73.2733 193.42C73.5899 200.741 73.0262 202.687 72.1923 204.509C71.3583 206.331 71.6594 207.243 72.2463 208.679C72.8332 210.115 74.6787 216.501 74.6787 216.501C74.6787 216.501 84.0917 217.026 85.3658 216.37C86.6399 215.714 87.1341 215.073 87.111 214.679C87.0878 214.285 91.6437 204.895 91.2113 200.988C90.7789 197.081 90.2847 197.729 89.8445 190.687C89.4044 183.644 92.2846 124.279 92.2769 121.19C92.2692 118.101 91.7518 124.055 72.5552 120.418C53.3585 116.781 50.1462 118.155 49.598 120.634Z" fill="#35C2C1" stroke="#263238" stroke-linecap="round" stroke-linejoin="round"/>
    <path d="M75.2194 211.405C75.2194 211.405 81.2502 206.185 86.2771 204.88L75.2194 211.405Z" fill="white"/>
    <path d="M75.2194 211.405C75.2194 211.405 81.2502 206.185 86.2771 204.88" stroke="#263238" stroke-linecap="round" stroke-linejoin="round"/>
    <path d="M50.5941 208.918C50.5941 208.918 58.1307 205.266 60.3083 204.355L50.5941 208.918Z" fill="white"/>
    <path d="M50.5941 208.918C50.5941 208.918 58.1307 205.266 60.3083 204.355" stroke="#263238" stroke-linecap="round" stroke-linejoin="round"/>
    <path d="M63.2426 24.1409C63.2426 24.1409 61.2195 19.5772 59.7214 21.1448C58.2234 22.7123 59.3585 24.7895 61.4203 27.2682C63.482 29.747 65.1113 28.1794 64.6789 27.137C64.2465 26.0945 63.2426 24.1409 63.2426 24.1409Z" fill="white" stroke="#263238" stroke-linecap="round" stroke-linejoin="round"/>
    <path d="M82.8254 21.6621C82.8254 21.6621 84.8486 17.2298 86.501 19.3456C88.1535 21.4614 84.6015 26.6505 83.7289 27.5617C82.8563 28.4728 82.2926 21.5617 82.2926 21.5617L82.8254 21.6621Z" fill="white" stroke="#263238" stroke-linecap="round" stroke-linejoin="round"/>
    <path d="M38.9032 78.781C38.9032 78.781 38.3395 86.8659 37.6522 88.9508C36.2493 93.8646 35.5933 98.9614 35.7063 104.07C35.9766 110.194 38.3781 123.499 38.4244 127.537C38.4708 131.576 37.2121 132.495 38.5634 133.537C39.9148 134.58 42.7873 137.715 43.8298 137.715C44.8722 137.715 46.4629 138.232 46.4243 137.452C46.3857 136.672 45.8761 136.796 45.4359 135.753C44.874 134.234 44.4148 132.678 44.0614 131.097C44.3786 129.946 44.7627 128.814 45.212 127.707C45.212 127.707 46.1386 130.966 46.3162 132.016C46.4938 133.066 47.9455 133.444 47.8606 131.491C47.7757 129.537 47.737 128.749 47.6444 126.665C47.5517 124.58 45.907 122.757 45.212 121.707C44.517 120.657 43.9688 120.016 43.9456 119.622C43.9224 119.228 46.1927 105.414 46.2622 100.588C46.3317 95.7615 46.4012 91.8465 46.7486 90.9353C47.0961 90.0241 48.8258 81.808 48.8258 81.808L38.9032 78.781Z" fill="white" stroke="#263238" stroke-linecap="round" stroke-linejoin="round"/>
    <path d="M103.396 79.1671C103.396 79.1671 103.952 87.2983 104.647 89.445C106.034 94.4227 106.687 99.5759 106.586 104.742C106.315 110.85 103.898 123.939 103.852 127.977C103.806 132.016 105.072 133.035 103.721 133.962C102.369 134.888 99.4892 137.761 98.4468 137.676C97.4043 137.591 95.8213 137.962 95.8522 137.182C95.8831 136.402 96.4004 136.579 96.8406 135.576C97.4111 134.087 97.873 132.559 98.2228 131.004C97.9031 129.817 97.5164 128.649 97.0645 127.506C97.0645 127.506 96.1379 130.688 95.9603 131.715C95.7827 132.742 94.3387 133.004 94.4159 131.058C94.4931 129.112 94.5317 128.333 94.6244 126.255C94.7171 124.178 96.3618 122.495 97.0645 121.514C97.7672 120.533 98.3078 119.923 98.3309 119.537C98.3541 119.151 96.0838 105.128 96.0143 100.294C95.9449 95.4604 95.8831 91.5454 95.5279 90.6033C95.1727 89.6612 93.4507 81.2907 93.4507 81.2907L103.396 79.1671Z" fill="white" stroke="#263238" stroke-linecap="round" stroke-linejoin="round"/>
    <path d="M67.4202 39.1368C67.4202 39.1368 60.0072 42.658 55.5285 44.6116C51.0498 46.5653 45.4205 48.9127 45.49 49.8316C45.5595 50.7505 40.7179 68.9974 39.1889 72.7811C37.66 76.5649 36.2314 79.561 36.2314 79.561C36.2314 79.561 41.7063 83.2211 45.2584 83.9933C47.5476 84.4781 49.8712 84.7828 52.2081 84.9045L47.9842 122.464C47.9842 122.464 56.4783 125.854 69.7831 125.985C78.0385 126.046 86.2901 125.61 94.4932 124.68C94.4932 124.68 95.7442 93.7924 95.6129 90.7732C95.5223 89.1187 95.5817 87.4594 95.7905 85.8157C97.8171 86.2577 99.9234 86.1699 101.906 85.5609C103.65 84.912 105.359 84.1722 107.026 83.3447C107.026 83.3447 100.547 57.5227 99.4816 54.0015C98.4159 50.4803 98.9101 49.9629 97.9835 49.5691C97.0569 49.1753 86.8176 44.7429 83.4741 42.7893C80.1305 40.8356 78.8409 40.8279 75.9143 39.9167C72.9877 39.0055 68.926 37.8318 67.4202 39.1368Z" fill="#35C2C1" stroke="#263238" stroke-linecap="round" stroke-linejoin="round"/>
    <path d="M95.8059 85.8157L94.1534 62.6577" stroke="#263238" stroke-linecap="round" stroke-linejoin="round"/>
    <path d="M52.5169 97.9468L66.98 97.553C66.98 97.553 66.3391 115.684 65.8989 117.63C65.4588 119.576 62.5244 120.889 58.733 120.757C54.9415 120.626 52.6481 118.804 52.2157 117.892" stroke="#263238" stroke-linecap="round" stroke-linejoin="round"/>
    <path d="M51.7061 100.294L66.9568 100.163" stroke="#263238" stroke-linecap="round" stroke-linejoin="round"/>
    <path d="M91.8599 120.765C90.4391 121.159 87.0492 121.159 86.3079 119.074C85.5666 116.989 86.0531 98.3406 86.0531 98.3406L93.497 98.5954" stroke="#263238" stroke-linecap="round" stroke-linejoin="round"/>
    <path d="M85.9913 99.9005L93.0723 100.943" stroke="#263238" stroke-linecap="round" stroke-linejoin="round"/>
    <path d="M52.208 84.9045C52.208 84.9045 52.7331 67.0438 52.5246 62.3488" stroke="#263238" stroke-linecap="round" stroke-linejoin="round"/>
    <path d="M65.2117 30.3956C65.2117 30.3956 66.3391 41.2063 66.3854 42.3954C66.4317 43.5846 67.7522 46.8278 69.0031 48.5266C70.2541 50.2255 73.7521 55.7003 75.142 54.6501C76.532 53.5999 80.447 47.739 80.8254 44.4804C81.2037 41.2217 81.3891 33.5307 81.3891 33.5307C81.3891 33.5307 76.3158 33.7932 72.4703 32.4882C68.6248 31.1832 65.2117 30.3956 65.2117 30.3956Z" fill="white" stroke="#263238" stroke-linecap="round" stroke-linejoin="round"/>
    <path d="M59.8063 14.2259L62.6866 23.3609C62.6866 23.3609 63.7677 30.1408 65.7136 32.8743C67.6595 35.6079 74.478 39.5306 77.5744 38.743C80.6709 37.9553 84.3234 35.0905 84.1844 31.9631C84.0454 28.8358 83.4122 19.7085 83.4971 16.1873C83.5821 12.6661 82.7249 5.49246 80.5937 3.53882C78.4625 1.58518 71.3274 0.403732 66.2078 2.49637C61.0882 4.589 57.6133 8.48856 59.8063 14.2259Z" fill="#263238" stroke="#263238" stroke-linecap="round" stroke-linejoin="round"/>
    <path d="M62.8488 24.1409C62.8488 24.1409 62.594 24.2721 63.2658 21.6621C63.9376 19.0521 65.9607 17.7471 66.1615 16.4498C66.3623 15.1526 63.6133 14.751 63.9144 12.7974C64.2156 10.8437 66.9028 9.40747 72.6093 8.7511C78.3158 8.09474 82.115 11.4924 81.9296 13.1835C81.7443 14.8746 81.2347 15.1448 82.0686 16.3186C82.9026 17.4923 83.2578 19.7085 83.3196 21.0135C83.3813 22.3185 84.0918 27.0057 82.8563 28.442C81.6208 29.8782 80.6941 29.6157 79.4663 28.442C78.2386 27.2682 77.783 25.7084 75.0494 25.7084C72.3159 25.7084 71.4433 26.7509 70.9645 27.7933C70.4858 28.8358 70.0225 30.1099 68.4626 30.1099C66.9028 30.1099 65.7909 28.6736 64.6789 27.1061C64.0013 26.161 63.3898 25.1702 62.8488 24.1409Z" fill="white" stroke="#263238" stroke-linecap="round" stroke-linejoin="round"/>
    <path d="M74.6015 17.7471C74.6015 17.7471 77.1266 24.7895 77.0185 25.3146C76.9104 25.8397 75.6749 27.3995 74.2309 27.2682C72.7869 27.137 72.0687 25.4459 72.0687 25.4459" stroke="#263238" stroke-linecap="round" stroke-linejoin="round"/>
    <path d="M75.3119 16.8128C75.2429 16.5771 75.228 16.3288 75.2684 16.0865C75.3089 15.8443 75.4035 15.6143 75.5454 15.4138C75.6872 15.2133 75.8726 15.0474 76.0875 14.9287C76.3025 14.8099 76.5416 14.7412 76.7868 14.7279C77.5937 14.6887 78.3998 14.8198 79.1528 15.1124C79.9057 15.4051 80.5887 15.8529 81.1574 16.4267" stroke="#263238" stroke-width="2" stroke-linecap="round" stroke-linejoin="round"/>
    <path d="M71.5128 16.0406C71.1401 15.7635 70.7106 15.5727 70.2552 15.4819C69.7999 15.3911 69.33 15.4026 68.8796 15.5155C67.3352 15.9093 65.4742 18.2568 65.4974 18.6506" stroke="#263238" stroke-width="2" stroke-linecap="round" stroke-linejoin="round"/>
    <path d="M71.0109 19.8398C71.0109 20.4884 70.7406 21.0135 70.3391 21.0135C69.9375 21.0135 69.5669 20.4884 69.5669 19.8398C69.5669 19.1911 69.8372 18.666 70.231 18.666C70.6248 18.666 70.98 19.1911 71.0109 19.8398Z" fill="#263238"/>
    <path d="M78.5552 19.4459C78.5552 20.0946 78.2849 20.6197 77.8911 20.6197C77.4973 20.6197 77.1189 20.0946 77.1189 19.4459C77.1189 18.7973 77.3892 18.2722 77.783 18.2722C78.1768 18.2722 78.5243 18.7973 78.5552 19.4459Z" fill="#263238"/>
    <path d="M71.8525 30.1408C71.8525 30.1408 74.3776 31.3145 78.2154 29.6157" stroke="white" stroke-width="2" stroke-linecap="round" stroke-linejoin="round"/>
    <path d="M62.5631 41.5229C62.5631 41.5229 66.4241 54.82 70.5707 63.5612C74.7174 72.3024 78.0069 78.4258 78.0069 78.4258C78.0069 78.4258 84.2539 57.43 84.223 50.627C84.1922 43.824 84.1535 43.0672 84.1535 43.0672" stroke="#263238" stroke-linecap="round" stroke-linejoin="round"/>
    <path d="M82.6323 91.6843H74.6711L74.0919 78.3872H82.0455L82.6323 91.6843Z" fill="white" stroke="#263238" stroke-linecap="round" stroke-linejoin="round"/>
    <path d="M141.118 220.524C141.118 220.524 145.288 223.914 148.284 224.825C151.28 225.737 152.847 226.262 152.199 227.698C151.55 229.134 149.458 229.652 143.334 229.783C137.211 229.914 136.029 228.609 133.682 227.953C131.334 227.296 128.076 227.953 127.033 226.655C125.991 225.358 126.377 223.389 126.377 221.304C126.377 219.219 135.381 218.308 137.728 219.088C138.906 219.444 140.043 219.925 141.118 220.524Z" fill="white" stroke="#263238" stroke-linecap="round" stroke-linejoin="round"/>
    <path d="M129.249 223.134C129.249 223.134 133.164 227.304 136.423 229.126C139.682 230.949 141.504 232.262 140.724 233.173C139.944 234.084 137.466 235.258 130.941 234.609C124.416 233.96 123.118 232.516 119.991 230.3C116.863 228.084 115.427 228.347 114.385 227.173C113.342 225.999 113.342 223.389 113.342 223.389L129.249 223.134Z" fill="white" stroke="#263238" stroke-linecap="round" stroke-linejoin="round"/>
    <path d="M148.809 126.634C148.809 126.634 146.492 157.668 145.55 163.274C144.608 168.88 143.72 172.015 143.851 175.923C143.983 179.83 145.157 191.05 142.809 197.706C140.462 204.362 140.492 212.439 140.724 214.787C140.956 217.134 141.767 220.262 141.635 220.787C141.504 221.312 137.728 223.389 134.987 223.914C133.264 224.231 131.518 224.404 129.767 224.432C127.114 225.368 124.358 225.983 121.558 226.262C117.643 226.524 112.292 225.35 112.292 225.35C112.292 225.35 112.292 215.698 111.767 209.436C111.242 203.173 109.45 193.142 111.636 185.575C113.821 178.007 113.335 173.992 113.18 171.49C113.026 168.988 113.18 157.799 113.049 157.405C112.918 157.012 112.138 124.417 112.138 124.417C112.138 124.417 126.346 126.502 135.867 125.591C145.388 124.68 147.867 124.68 147.867 124.68C147.867 124.68 149.983 122.333 148.809 126.634Z" fill="#263238" stroke="#263238" stroke-linecap="round" stroke-linejoin="round"/>
    <path d="M130.423 222.609C130.416 220.498 130.157 218.396 129.651 216.347C128.879 213.744 128.732 204.486 129.126 200.702C129.52 196.918 131.442 187.405 131.442 182.054C131.442 176.702 131.967 168.494 131.967 168.494" stroke="white" stroke-linecap="round" stroke-linejoin="round"/>
    <path d="M157.411 165.622L142.554 165.49C141.906 165.49 141.906 155.583 141.906 155.583L157.411 165.622Z" fill="white" stroke="#263238" stroke-linecap="round" stroke-linejoin="round"/>
    <path d="M125.991 128.464C125.991 128.464 140.855 129.375 149.203 127.939L146.33 57.7852C146.33 57.7852 144.377 54.5266 139.157 52.6965C133.937 50.8664 127.682 53.4687 125.466 55.9551C123.249 58.4416 124.817 128.201 124.817 128.201L125.991 128.464Z" fill="#ADD5D5" stroke="#263238" stroke-linecap="round" stroke-linejoin="round"/>
    <path d="M126.639 52.6965C126.639 52.6965 111.906 60.1326 109.69 61.4376C107.474 62.7426 107.373 67.4298 107.373 69.6537C107.373 71.8777 108.022 170.579 108.022 170.579C113.599 170.943 119.197 170.372 124.585 168.888C129.899 167.497 134.899 165.107 139.319 161.846L136.84 108.773L134.06 62.2176C134.06 62.2176 132.377 49.3065 126.639 52.6965Z" fill="white" stroke="#263238" stroke-linecap="round" stroke-linejoin="round"/>
    <path d="M131.072 47.8703C131.072 47.8703 127.682 48.2641 126.246 50.1868C125.404 51.3213 124.785 52.6053 124.423 53.9706L123.118 65.7079L127.551 64.6654L125.334 69.8777C125.334 69.8777 127.551 76.4027 130.029 81.8775C132.508 87.3523 136.16 98.5645 136.16 98.5645L134.462 63.4917C134.462 63.4917 134.462 53.3219 133.689 51.1366C132.917 48.9513 132.114 47.8703 131.072 47.8703Z" fill="white" stroke="#263238" stroke-linecap="round" stroke-linejoin="round"/>
    <path d="M139.55 55.0439L142.16 161.32L157.411 165.622L155.195 84.6497C155.195 84.6497 155.589 63.8005 154.284 60.9126C152.979 58.0246 141.249 52.1791 140.075 52.3335C138.902 52.488 139.55 55.0439 139.55 55.0439Z" fill="white" stroke="#263238" stroke-linecap="round" stroke-linejoin="round"/>
    <path d="M139.55 49.7003C140.5 49.9318 141.388 50.3665 142.153 50.9744C142.918 51.5823 143.543 52.349 143.983 53.2215C145.288 56.0864 148.678 64.9588 148.678 64.9588L144.377 65.4762L148.94 68.7348L140.855 99.1205L139.944 66.2329L139.172 52.6733C139.172 52.6733 138.245 50.4803 139.55 49.7003Z" fill="white" stroke="#263238" stroke-linecap="round" stroke-linejoin="round"/>
    <path d="M130.029 43.4379C130.029 43.4379 130.554 47.2216 129.767 49.3065C128.979 51.3914 132.245 57.9165 133.55 61.955C134.855 65.9936 136.16 69.2599 136.94 68.8661C137.72 68.4723 140.462 53.2215 140.33 51.2602C140.199 49.2988 141.504 43.4379 141.504 43.4379C141.504 43.4379 134.33 45.5228 130.029 43.4379Z" fill="white" stroke="#263238" stroke-linecap="round" stroke-linejoin="round"/>
    <path d="M120.871 39.4611C124.978 39.4611 128.307 35.9832 128.307 31.6929C128.307 27.4026 124.978 23.9246 120.871 23.9246C116.764 23.9246 113.435 27.4026 113.435 31.6929C113.435 35.9832 116.764 39.4611 120.871 39.4611Z" fill="#263238" stroke="#263238" stroke-linecap="round" stroke-linejoin="round"/>
    <path d="M124.686 35.3453C124.686 35.3453 123.381 31.9554 121.813 33.2604C120.246 34.5654 121.813 37.4302 122.987 39.1291C124.161 40.8279 126.377 40.0403 126.122 38.3569C125.911 37.2459 125.416 36.2083 124.686 35.3453Z" fill="white" stroke="#263238" stroke-linecap="round" stroke-linejoin="round"/>
    <path d="M144.871 33.2373C144.871 33.2373 145.527 29.9786 146.415 32.1948C146.808 33.0629 146.989 34.012 146.944 34.9639C146.898 35.9157 146.627 36.8431 146.153 37.6696C145.38 38.9746 145.504 38.8434 145.241 37.6696C145.036 36.2001 144.912 34.7204 144.871 33.2373Z" fill="white" stroke="#263238" stroke-linecap="round" stroke-linejoin="round"/>
    <path d="M122.856 29.0674C122.856 29.0674 125.334 41.0595 126.902 43.9321C128.469 46.8046 133.682 51.654 138.377 49.6695C143.072 47.6849 145.682 44.0634 145.682 39.631C145.682 35.1986 146.33 29.5925 145.55 24.7586C145.157 22.5575 144.024 20.5566 142.339 19.0866C140.654 17.6166 138.518 16.7654 136.284 16.6738C132.106 16.5425 125.589 18.89 124.284 23.0675C123.608 25.0144 123.129 27.0245 122.856 29.0674Z" fill="white" stroke="#263238" stroke-linecap="round" stroke-linejoin="round"/>
    <path d="M122.987 33.4998C122.987 33.4998 130.292 30.6273 134.987 27.1061C139.682 23.5849 141.118 20.9826 141.118 20.9826C141.118 20.9826 143.334 26.9748 144.245 28.9362C145.156 30.8975 145.936 33.106 145.936 33.106C145.936 33.106 147.373 30.6273 147.373 25.3841C147.373 20.1409 145.936 15.9943 140.423 13.253C134.91 10.5117 125.952 12.2105 121.89 16.1255C117.829 20.0405 118.632 26.4265 119.674 28.9053C120.49 30.6253 121.613 32.1823 122.987 33.4998Z" fill="#263238" stroke="#263238" stroke-linecap="round" stroke-linejoin="round"/>
    <path d="M139.157 28.6736C139.157 28.6736 138.384 28.8049 138.384 31.1523C138.384 33.4998 139.157 37.4071 139.033 37.9322C138.909 38.4573 137.489 40.0171 136.562 39.1059" stroke="#263238" stroke-linecap="round" stroke-linejoin="round"/>
    <path d="M133.288 41.4534C133.288 41.4534 136.678 42.8896 141.01 40.2796" stroke="#263238" stroke-linecap="round" stroke-linejoin="round"/>
    <path d="M139.682 28.3956C139.682 28.3956 142.431 27.3454 144.245 28.9207" stroke="#263238" stroke-linecap="round" stroke-linejoin="round"/>
    <path d="M135.118 28.9362C133.925 28.5816 132.664 28.515 131.44 28.7419C130.216 28.9687 129.063 29.4825 128.076 30.2412" stroke="#263238" stroke-linecap="round" stroke-linejoin="round"/>
    <path d="M133.288 32.7122C133.288 33.4844 132.971 34.1484 132.578 34.1484C132.184 34.1484 131.859 33.5075 131.859 32.7122C131.859 31.9168 132.176 31.2836 132.578 31.2836C132.979 31.2836 133.288 31.9245 133.288 32.7122Z" fill="#263238"/>
    <path d="M141.782 32.1948C141.782 32.967 141.458 33.6311 141.064 33.6311C140.67 33.6311 140.346 32.9902 140.346 32.1948C140.346 31.3994 140.67 30.7585 141.064 30.7585C141.458 30.7585 141.782 31.3994 141.782 32.1948Z" fill="#263238"/>
    <path d="M150.114 85.0358L147.797 81.252C147.141 80.2096 144.145 80.6034 142.709 80.6034C141.962 80.6811 141.244 80.9308 140.61 81.3327C139.977 81.7346 139.445 82.2779 139.056 82.92C138.539 83.9624 136.191 85.6612 137.102 86.7037C138.014 87.7462 140.492 87.0898 140.886 87.3524C141.28 87.6149 144.539 89.8311 145.712 90.2249C146.337 90.4541 147.004 90.5411 147.666 90.4797L150.114 85.0358Z" stroke="#263238" stroke-linecap="round" stroke-linejoin="round"/>
    <path d="M153.635 60.1327C154.947 60.738 156.12 61.6051 157.084 62.6807C158.049 63.7563 158.782 65.0177 159.241 66.3874C160.677 70.951 165.496 101.337 164.453 104.225C163.411 107.113 160.809 109.306 156.245 107.746C151.681 106.186 144.662 98.7422 144.662 98.7422L150.137 85.0512L154.438 87.2674L153.527 75.0128" fill="white"/>
    <path d="M153.635 60.1327C154.947 60.738 156.12 61.6051 157.084 62.6807C158.049 63.7563 158.782 65.0177 159.241 66.3874C160.677 70.951 165.496 101.337 164.453 104.225C163.411 107.113 160.809 109.306 156.245 107.746C151.681 106.186 144.662 98.7422 144.662 98.7422L150.137 85.0512L154.438 87.2674L153.527 75.0128" stroke="#263238" stroke-linecap="round" stroke-linejoin="round"/>
    <path d="M154.415 87.252C154.415 87.252 161.326 91.2982 161.983 92.7345" stroke="#263238" stroke-linecap="round" stroke-linejoin="round"/>
    <path d="M145.674 68.9974H120.508V104.209H145.674V68.9974Z" fill="#263238" stroke="#263238" stroke-linecap="round" stroke-linejoin="round"/>
    <path d="M131.859 93.5144C131.859 93.5144 136.678 90.9044 138.114 89.4682C139.55 88.0319 139.813 87.9238 140.593 87.9238C142.512 87.9233 144.429 87.7917 146.33 87.53C147.102 87.2674 146.724 89.0743 146.33 89.4836C145.936 89.8929 143.465 90.4025 143.465 90.4025C143.465 90.4025 147.635 90.0087 147.766 91.3137C147.86 91.6879 147.848 92.0807 147.732 92.4487C147.616 92.8166 147.401 93.1453 147.11 93.3986L146.724 93.7924C146.724 93.7924 147.11 96.526 146.724 97.831C146.338 99.136 145.55 99.5298 143.851 99.7846C141.584 99.9295 139.308 99.7998 137.072 99.3985C135.767 99.136 131.334 100.047 131.334 100.047L131.859 93.5144Z" fill="white" stroke="#263238" stroke-linecap="round" stroke-linejoin="round"/>
    <path d="M114.516 59.0902C114.516 59.0902 106.794 60.7813 105.512 61.5612C104.23 62.3411 99.9061 93.3832 98.9949 98.6263C98.0838 103.869 107.08 104.889 109.806 105.931C112.531 106.974 132.516 108.51 132.516 108.51L132.778 92.3407L118.956 88.8195L118.825 66.5187" fill="white"/>
    <path d="M114.516 59.0902C114.516 59.0902 106.794 60.7813 105.512 61.5612C104.23 62.3411 99.9061 93.3832 98.9949 98.6263C98.0838 103.869 107.08 104.889 109.806 105.931C112.531 106.974 132.516 108.51 132.516 108.51L132.778 92.3407L118.956 88.8195L118.825 66.5187" stroke="#263238" stroke-linecap="round" stroke-linejoin="round"/>
    <path d="M118.948 88.8195C118.948 88.8195 114.122 86.6033 110.995 87.777C107.867 88.9508 105.257 94.9507 105.257 94.9507" stroke="#263238" stroke-linecap="round" stroke-linejoin="round"/>
    <path d="M113.597 87.252C113.597 87.252 109.033 86.9894 106.817 87.9083C105.454 88.4849 104.247 89.3768 103.296 90.5106" stroke="#263238" stroke-linecap="round" stroke-linejoin="round"/>
    <path d="M138.377 67.8237H129.512V70.6962H138.377V67.8237Z" fill="white" stroke="#263238" stroke-linecap="round" stroke-linejoin="round"/>
</svg>