<svg width="38" height="38" viewBox="0 0 38 38" fill="none" xmlns="http://www.w3.org/2000/svg" xmlns:xlink="http://www.w3.org/1999/xlink">
<path d="M32,11.42L30.772,12.999L30.773,12.999L32,11.42ZM21.334,3.124L20.106,4.703L20.106,4.703L21.334,3.124ZM18.06,2L18.06,0L18.06,2ZM14.786,3.124L16.014,4.703L16.014,4.703L14.786,3.124ZM4.118,11.42L2.89,9.841L2.89,9.841L4.118,11.42ZM2.06,15.63L4.06,15.63L4.06,15.629L2.06,15.63ZM33.228,9.841L22.562,1.545L20.106,4.703L30.772,12.999L33.228,9.841ZM22.562,1.545C21.275,0.544 19.691,0 18.06,0L18.06,4C18.801,4 19.521,4.248 20.106,4.703L22.562,1.545ZM18.06,0C16.429,0 14.845,0.544 13.558,1.545L16.014,4.703C16.599,4.248 17.319,4 18.06,4L18.06,0ZM13.558,1.545L2.89,9.841L5.346,12.999L16.014,4.703L13.558,1.545ZM2.89,9.841C2.009,10.527 1.295,11.405 0.805,12.408L4.398,14.165C4.621,13.709 4.945,13.31 5.346,12.999L2.89,9.841ZM0.805,12.408C0.314,13.412 0.06,14.514 0.06,15.631L4.06,15.629C4.06,15.122 4.176,14.621 4.398,14.165L0.805,12.408ZM0.06,15.63L0.06,30.03L4.06,30.03L4.06,15.63L0.06,15.63ZM0.06,30.03C0.06,31.621 0.692,33.147 1.817,34.273L4.646,31.444C4.271,31.069 4.06,30.56 4.06,30.03L0.06,30.03ZM1.817,34.273C2.943,35.398 4.469,36.03 6.06,36.03L6.06,32.03C5.53,32.03 5.021,31.819 4.646,31.444L1.817,34.273ZM6.06,36.03L30.06,36.03L30.06,32.03L6.06,32.03L6.06,36.03ZM30.06,36.03C31.651,36.03 33.177,35.398 34.303,34.273L31.474,31.444C31.099,31.819 30.59,32.03 30.06,32.03L30.06,36.03ZM34.303,34.273C35.428,33.147 36.06,31.621 36.06,30.03L32.06,30.03C32.06,30.56 31.849,31.069 31.474,31.444L34.303,34.273ZM36.06,30.03L36.06,15.63L32.06,15.63L32.06,30.03L36.06,30.03ZM36.06,15.63C36.06,13.367 35.015,11.23 33.227,9.841L30.773,12.999C31.585,13.63 32.06,14.601 32.06,15.63L36.06,15.63Z" fill="#B2B2B2"/>
<path d="M27.033,25.713C27.979,25.142 28.283,23.913 27.713,22.967C27.142,22.021 25.913,21.717 24.967,22.287L27.033,25.713ZM11.034,22.288C10.088,21.717 8.859,22.021 8.288,22.966C7.717,23.912 8.021,25.141 8.966,25.712L11.034,22.288ZM24.967,22.287C23.139,23.39 20.622,23.999 17.998,23.999C15.375,23.999 12.859,23.39 11.034,22.288L8.966,25.712C11.557,27.276 14.831,27.999 17.998,27.999C21.166,27.999 24.441,27.276 27.033,25.713L24.967,22.287Z" fill="#B2B2B2"/>
</svg>
