<svg width="168" height="248" viewBox="0 0 168 248" fill="none" xmlns="http://www.w3.org/2000/svg" xmlns:xlink="http://www.w3.org/1999/xlink">
<path d="M4.454,221.123C3.801,227.21 2.32,233.916 5.142,239.659C3.365,239.74 4.807,240.262 5.766,240.442C6.314,240.873 7.05,241.043 7.742,240.983C11.337,241.755 15.047,242.035 18.696,242.471C64.262,246.316 110.133,245.295 155.782,243.638C157.267,243.573 158.263,242.478 158.377,241.002C160.05,219.284 160.883,197.499 160.84,175.715C160.097,168.06 165.792,171.046 162.754,160.959C160.312,150.319 156.697,139.961 152.087,130.093C148.9,123.671 145.898,116.914 141.042,111.588C139.507,111.373 138.2,109.824 136.903,108.96C135.59,108.699 134.616,107.567 133.284,107.219C130.748,106.548 125.07,105.122 122.91,106.837C122.824,106.812 122.738,106.793 122.652,106.768C122.23,107.245 121.649,106.887 121.333,106.459C120.254,105.608 115.535,105.521 115,104.213C112.208,101.641 111.46,96.226 111.46,93.058C110.417,91.867 110.344,92.088 108.928,91.458C107.538,89.678 105.86,88.127 103.986,86.905C93.444,79.873 78.146,87.282 75.678,99.506C71.776,102.644 67.761,105.832 62.982,107.467C60.65,106.249 57.993,105.86 55.518,105.858C53.673,105.789 51.124,104.705 49.925,106.678C29.754,113.386 17.58,132.897 8.923,151.384C7.71,154.016 6.259,156.771 6.63,159.771C6.885,163.362 10.722,165.499 9.997,169.305C8.943,179.775 7.744,190.234 6.647,200.701C5.916,207.508 5.185,214.315 4.454,221.123Z" clip-rule="evenodd" fill-rule="evenodd" fill="#FFFFFF"/>
<path d="M152.021,171.179C150.717,171.658 148.889,172.125 147.956,173.209C147.848,172.2 147.74,171.189 147.63,170.18C150.363,170.113 153.102,170.089 155.837,170.012C154.546,170.333 153.27,170.719 152.021,171.179ZM146.017,234.709C145.077,234.718 144.132,234.784 143.193,234.822C141.383,234.893 139.572,234.963 137.762,235.031C134.069,235.172 130.376,235.308 126.683,235.439C119.368,235.697 112.053,235.935 104.738,236.154C90.106,236.592 75.467,236.856 60.838,237.356C56.779,237.494 52.721,237.602 48.666,237.827C46.565,237.943 44.453,238.043 42.362,238.291C40.598,238.499 38.859,238.851 37.105,239.114C37.222,236.79 37.333,234.468 37.447,232.146C37.556,229.949 37.657,227.752 37.758,225.554C44.606,225.918 51.462,226.065 58.319,226.127C65.573,226.192 72.824,226.376 80.078,226.39C94.439,226.419 108.801,226.236 123.161,226.089C127.223,226.048 131.285,226.006 135.346,225.965C137.376,225.944 139.408,225.923 141.439,225.902C142.452,225.892 143.472,225.914 144.485,225.871C145.566,225.825 146.223,225.514 147.007,224.775C147.426,224.38 147.443,223.577 147.007,223.187C146.378,222.621 145.793,222.188 144.92,222.125C144.063,222.063 143.168,222.148 142.309,222.16C140.423,222.185 138.537,222.21 136.652,222.235C133.025,222.283 129.399,222.333 125.772,222.381C118.519,222.478 111.266,222.576 104.013,222.689C96.905,222.799 89.797,222.882 82.689,223.062C75.433,223.248 68.186,223.584 60.93,223.82C53.208,224.073 45.49,224.373 37.786,224.962C37.971,220.889 38.141,216.815 38.302,212.74C53.6,213.586 68.909,214.189 84.232,214.215C100.196,214.242 116.16,213.965 132.119,213.542C134.367,213.482 136.617,213.421 138.864,213.35C140.025,213.313 141.186,213.279 142.347,213.237C143.199,213.205 144.077,213.168 144.847,212.753C146.37,211.936 146.632,209.547 144.827,208.893C143.839,208.537 142.792,208.886 142.551,209.79C142.478,209.797 142.408,209.803 142.347,209.805C141.476,209.839 140.606,209.863 139.736,209.891C137.85,209.952 135.964,210.014 134.078,210.075C130.596,210.185 127.113,210.287 123.631,210.381C116.522,210.572 109.411,210.729 102.301,210.848C88.222,211.087 74.144,211.307 60.067,211.634C52.818,211.802 45.571,212.022 38.323,212.208C38.496,207.779 38.659,203.351 38.807,198.921C38.824,198.402 38.842,197.882 38.861,197.363C39.9,197.596 40.963,197.724 42.022,197.876C43.858,198.139 45.7,198.336 47.544,198.533C51.018,198.905 54.504,199.133 57.992,199.329C65.102,199.727 72.214,200.008 79.331,200.229C93.411,200.664 107.508,200.76 121.593,200.71C129.241,200.684 136.936,200.786 144.581,200.448C145.052,200.578 145.538,200.564 146.008,200.409C146.393,207.333 146.8,214.256 147.2,221.178C147.47,225.85 147.709,230.537 148.04,235.21C147.393,234.886 146.796,234.702 146.017,234.709ZM13.474,164.363C12.133,163.696 10.653,163.088 9.469,162.143C8.175,161.111 7.857,159.899 8.255,158.277C8.285,158.157 8.319,158.036 8.35,157.915C17.889,157.94 27.403,157.512 36.937,157.283C46.623,157.05 56.306,156.853 65.995,156.798C85.318,156.688 104.638,157.129 123.952,157.681C130.908,157.88 137.863,158.075 144.819,158.268C144.66,159.991 144.721,161.756 144.685,163.467C144.653,164.969 144.661,166.474 144.684,167.979C141.045,167.97 137.407,167.89 133.768,167.848C124.758,167.745 115.754,168.007 106.746,168.217C88.732,168.636 70.714,168.965 52.704,169.516C47.812,169.665 42.889,169.744 37.975,169.957C37.806,169.146 37.618,168.338 37.407,167.535C37.071,166.26 36.691,164.95 35.686,164.065C35.638,164.022 35.571,164.041 35.549,164.102C35.167,165.176 35.264,166.271 35.376,167.398C35.464,168.286 35.524,169.179 35.568,170.073C32.512,170.236 29.463,170.465 26.43,170.809C25.562,170.374 24.695,169.939 23.825,169.507C20.375,167.791 16.924,166.078 13.474,164.363ZM124.208,196.373C117.091,196.431 109.974,196.437 102.857,196.391C88.771,196.299 74.688,195.947 60.604,195.663C56.685,195.584 52.77,195.505 48.85,195.505C46.82,195.505 44.784,195.519 42.756,195.608C41.48,195.665 40.186,195.673 38.916,195.829C39.07,191.66 39.229,187.488 39.224,183.317C52.66,185.384 66.241,185.953 79.809,186.359C93.556,186.771 107.306,186.984 121.059,187.005C124.967,187.012 128.875,187.002 132.784,186.979C134.665,186.968 136.548,186.953 138.428,186.935C139.44,186.926 140.458,186.947 141.469,186.903C142.537,186.857 143.183,186.6 143.929,185.828C144.311,185.432 144.331,184.751 143.929,184.358C142.597,183.051 141.029,183.336 139.297,183.357C137.56,183.379 135.823,183.398 134.086,183.413C130.612,183.446 127.138,183.466 123.664,183.475C116.862,183.493 110.058,183.466 103.255,183.395C89.505,183.253 75.76,182.942 62.014,182.616C54.414,182.434 46.817,182.485 39.223,182.858C39.22,182.167 39.214,181.474 39.201,180.781C39.151,178.159 38.899,175.537 38.506,172.943C42.227,172.93 45.948,172.849 49.653,172.801C58.661,172.683 67.667,172.499 76.674,172.315C85.609,172.134 94.543,171.952 103.478,171.769C112.407,171.588 121.363,171.574 130.282,171.085C135.094,170.821 139.908,170.461 144.726,170.272C144.735,170.721 144.744,171.171 144.753,171.619C144.869,177.13 145.081,182.635 145.355,188.14C145.486,190.784 145.625,193.43 145.767,196.073C145.698,196.067 145.628,196.063 145.555,196.062C138.444,196.014 131.32,196.314 124.208,196.373ZM11.596,148.517C12.41,146.388 13.295,144.272 14.252,142.186C18.313,143.351 22.646,143.951 26.837,144.351C31.3,144.777 35.771,145.016 40.251,145.11C49.085,145.292 57.918,144.867 66.742,144.497C84.891,143.735 103.039,143.179 121.205,143.143C126.278,143.134 131.351,143.157 136.425,143.216C138.961,143.244 141.497,143.28 144.033,143.324C145.337,143.347 146.641,143.371 147.946,143.398C148.524,143.411 149.108,143.454 149.685,143.436C150.456,143.413 151.021,143.177 151.737,142.893C152.559,142.568 153.044,141.171 152.018,140.708C150.993,140.246 150.17,139.974 149.032,139.949C147.801,139.923 146.569,139.898 145.337,139.874C143.091,139.833 140.844,139.798 138.598,139.769C134.033,139.712 129.467,139.688 124.901,139.688C115.914,139.689 106.928,139.797 97.943,140.012C79.907,140.443 61.911,141.72 43.88,142.268C38.911,142.419 33.932,142.449 28.962,142.297C24.148,142.151 19.345,141.739 14.537,141.566C16.198,138.01 18.077,134.546 20.197,131.253C28.212,131.538 36.209,131.327 44.226,131.078C48.432,130.948 52.639,130.816 56.845,130.67C58.948,130.597 61.052,130.523 63.155,130.451C64.17,130.415 65.186,130.38 66.2,130.345C67.295,130.306 68.446,130.379 69.508,130.086C69.7,130.033 69.853,129.92 69.968,129.776C72.796,131.254 75.787,132.42 78.862,133.283C85.537,135.158 92.717,135.862 99.622,135.284C105.161,134.822 110.683,133.428 115.555,130.701C126.556,131.729 137.711,131.245 148.736,131.173C149.79,131.166 150.228,130.185 150.051,129.376C153.59,137.123 155.933,145.521 158.127,153.69C159.491,158.766 160.703,163.874 161.857,169.001C161.809,169.005 161.761,169.009 161.714,169.014C161.847,168.452 161.546,167.79 160.79,167.773C156.328,167.668 151.851,167.93 147.388,167.972C147.262,166.837 147.137,165.703 147.005,164.569C146.824,163.024 146.608,161.483 146.424,159.939C146.358,159.379 146.296,158.839 146.22,158.307C149.754,158.404 153.288,158.503 156.822,158.598C159.116,158.659 159.112,155.051 156.822,154.979C137.402,154.376 117.981,153.765 98.554,153.43C79.116,153.095 59.611,152.888 40.188,153.9C29.603,154.452 19.044,155.189 8.591,157.009C9.403,154.13 10.536,151.289 11.596,148.517ZM28.125,121.099C28.477,121.366 28.59,121.535 29.115,121.63C29.685,121.731 30.272,121.763 30.847,121.82C32.078,121.943 33.312,121.989 34.548,122.048C37.015,122.167 39.481,122.293 41.95,122.37C46.851,122.521 51.856,122.734 56.754,122.513C57.953,122.459 58.498,121.455 58.389,120.541C59.307,121.696 60.312,122.781 61.381,123.771C63.101,125.36 64.958,126.77 66.915,128.013C65.646,128.06 64.352,128.222 63.154,128.275C61.123,128.363 59.093,128.452 57.062,128.54C52.783,128.727 48.504,128.927 44.225,129.131C36.306,129.507 28.415,129.975 20.526,130.742C22.779,127.302 25.303,124.058 28.125,121.099ZM157.009,137.806C153.664,128.476 149.35,118.785 141.587,112.376C137.598,109.082 133.152,106.803 128.118,105.724C127.963,105.691 127.902,105.914 128.053,105.965C136.759,108.866 143.2,116.545 147.559,124.413C148.348,125.839 149.08,127.299 149.772,128.78C149.547,128.501 149.202,128.317 148.736,128.324C138.441,128.5 128.026,128.323 117.755,129.344C118.016,129.167 118.278,128.989 118.536,128.803C121.341,126.772 123.867,124.286 125.953,121.47C127.211,121.795 128.534,121.873 129.817,121.997C131.528,122.162 133.251,122.237 134.969,122.332C136.683,122.425 138.405,122.434 140.121,122.476C141.301,122.505 143.607,122.704 143.609,120.871C143.61,119.036 141.301,119.23 140.121,119.254C138.405,119.288 136.684,119.293 134.969,119.375C133.325,119.453 131.67,119.516 130.031,119.665C129.031,119.757 128.002,119.817 126.997,119.978C128.632,117.498 129.935,114.796 130.804,111.947C130.892,111.661 130.921,111.392 130.907,111.144C131.276,110.749 131.511,110.207 131.511,109.711C131.511,108.53 130.606,107.839 129.548,107.715C125.36,107.229 120.745,106.535 117.37,103.739C115.847,102.476 114.622,100.984 113.469,99.378C112.173,97.573 111.688,95.299 111.683,93.089C111.683,92.965 111.48,92.927 111.462,93.058C110.827,97.538 111.742,102.653 114.907,106.009C118.014,109.305 122.235,110.539 126.518,111.26C124.752,116.385 121.837,120.886 117.744,124.426C113.184,128.371 107.411,130.48 101.526,131.277C95.176,132.135 88.521,131.718 82.276,130.316C76.261,128.965 70.376,126.548 65.481,122.693C63.011,120.747 60.739,118.454 58.759,116C57.125,113.975 55.872,111.715 54.469,109.545C59.702,111.003 66.029,109.012 70.413,106.199C72.995,104.543 75.257,102.474 77.115,100.015C78.031,98.802 78.846,97.52 79.519,96.151C79.869,95.438 80.184,94.706 80.473,93.966C80.652,93.509 80.826,93.039 80.826,92.538C80.825,92.167 80.734,91.823 80.551,91.503C80.176,91.099 80.102,90.982 80.327,91.152C79.959,90.385 78.894,90.191 78.213,90.588C77.96,90.737 77.363,91.023 77.069,91.503C76.871,91.827 76.763,92.216 76.636,92.571C76.436,93.133 76.234,93.688 75.982,94.228C75.397,95.484 74.696,96.684 73.895,97.811C72.431,99.871 70.552,101.734 68.504,103.187C66.353,104.714 64.036,105.96 61.522,106.74C58.868,107.563 56.24,107.808 53.501,108.11C53.472,108.069 53.444,108.027 53.414,107.986C53.362,107.912 53.247,107.936 53.243,108.033C53.241,108.08 53.242,108.126 53.24,108.173C52.85,108.359 52.818,108.918 53.253,109.133C53.414,111.707 54.507,114.241 55.699,116.469C56.195,117.397 56.755,118.295 57.363,119.164C57.183,119.095 56.981,119.05 56.755,119.041C51.855,118.85 46.851,119.096 41.951,119.278C39.554,119.367 37.16,119.504 34.766,119.634C33.532,119.701 32.295,119.744 31.065,119.873C30.45,119.938 29.831,119.99 29.22,120.083C29.175,120.09 29.134,120.098 29.095,120.104C30.608,118.59 32.204,117.156 33.888,115.817C39.412,111.427 45.757,107.85 52.527,105.905C52.591,105.886 52.582,105.775 52.511,105.782C39.046,107.181 27.83,115.801 19.984,126.625C15.63,132.631 12.328,139.278 9.487,146.134C8.055,149.59 6.7,153.107 5.565,156.676C4.988,158.49 4.728,160.414 5.554,162.194C6.188,163.559 7.357,164.574 8.582,165.38C8.664,165.433 8.747,165.484 8.83,165.536C7.577,169.97 6.738,174.519 5.933,179.054C5.058,183.981 4.295,188.929 3.64,193.891C2.33,203.81 1.327,213.749 0.889,223.75C0.767,226.516 0.686,229.283 0.651,232.052C0.633,233.436 0.641,234.822 0.66,236.206C0.681,237.756 0.474,239.505 1.251,240.888C2.289,242.735 4.304,242.099 5.19,240.836C5.203,240.852 5.216,240.87 5.229,240.888C5.31,240.726 5.377,240.567 5.434,240.406C5.53,240.193 5.592,239.971 5.615,239.743C5.782,238.885 5.719,238.014 5.712,237.081C5.702,235.769 5.71,234.456 5.713,233.145C5.721,230.667 5.748,228.192 5.818,225.715C5.957,220.763 6.228,215.815 6.6,210.876C7.338,201.064 8.426,191.297 9.358,181.504C9.832,176.519 10.404,171.52 10.503,166.508C11.652,167.123 12.839,167.68 13.986,168.273C16.116,169.375 18.245,170.475 20.374,171.576C22.439,172.645 24.507,173.705 26.576,174.766C28.662,175.836 30.735,177.249 33.082,177.513C34.336,177.652 34.79,175.935 34.051,175.134C33.086,174.086 31.804,173.436 30.515,172.826C32.227,172.89 33.942,172.925 35.657,172.937C35.681,175.131 35.605,177.328 35.496,179.515C35.23,184.881 34.86,190.237 34.509,195.599C33.78,206.741 33.075,217.891 32.525,229.045C32.39,231.776 32.255,234.508 32.12,237.24C32.055,238.568 31.964,239.897 31.926,241.227C31.885,242.718 31.921,244.587 33.28,245.508C34.239,246.158 35.272,245.853 35.992,244.958C36.956,243.762 36.954,242.03 37.032,240.563C37.05,240.224 37.066,239.885 37.083,239.545C38.554,239.739 40.015,240.007 41.493,240.153C43.298,240.332 45.114,240.437 46.927,240.484C50.624,240.581 54.314,240.615 58.012,240.615C65.33,240.616 72.646,240.488 79.963,240.369C94.598,240.128 109.23,239.713 123.858,239.251C127.913,239.123 131.969,238.989 136.024,238.849C138.125,238.777 140.224,238.702 142.324,238.627C144.312,238.554 146.483,238.816 148.233,237.767C148.283,238.405 148.335,239.044 148.391,239.681C148.495,240.889 149.331,241.927 150.601,241.927C151.794,241.927 152.819,240.9 152.811,239.681C152.366,228.662 151.401,217.642 150.637,206.641C149.936,196.538 149.278,186.42 148.275,176.339C148.56,176.526 148.907,176.642 149.318,176.644C150.628,176.649 151.936,175.824 153.163,175.384C154.4,174.942 155.657,174.559 156.931,174.245C157.687,174.058 158.444,173.903 159.204,173.769C159.112,175.347 159.135,176.938 159.106,178.51C159.062,180.925 158.989,183.34 158.931,185.754C158.817,190.513 158.777,195.271 158.687,200.03C158.507,209.624 158.21,219.212 157.705,228.793C157.567,231.426 157.411,234.058 157.237,236.688C157.146,238.077 157.05,239.465 156.949,240.852C156.85,242.217 156.618,243.666 157.125,244.973C157.14,244.964 157.157,244.954 157.172,244.945C157.524,246.071 159.074,246.611 159.807,245.33C160.948,243.332 160.684,240.47 160.816,238.223C160.956,235.812 161.082,233.4 161.195,230.987C161.418,226.16 161.573,221.333 161.663,216.501C161.843,206.839 161.813,197.161 161.231,187.511C161.072,184.873 160.849,182.24 160.62,179.607C160.449,177.633 160.355,175.606 160.051,173.632C161.534,173.41 163.027,173.28 164.535,173.243C165.994,173.206 166.935,171.869 166.626,170.453C164.203,159.368 160.833,148.47 157.009,137.806Z" clip-rule="evenodd" fill-rule="evenodd" fill="#000000"/>
<path d="M96.05,4.613C108.446,4.613 121.268,14.375 125.811,20.604C129.632,25.841 131.689,49.522 131.689,65.526C131.689,68.873 133.507,75.183 132.977,78.384C131.032,90.117 122.562,99.957 105.796,99.957C89.03,99.957 77.008,93.205 64.547,75.078C58.5,75.078 55.57,70.367 55.528,62.933C55.485,55.5 61.364,52.794 61.364,52.794C61.364,52.794 59.268,23.457 64.547,15.818C69.826,8.18 83.656,4.613 96.05,4.613Z" clip-rule="evenodd" fill-rule="evenodd" fill="#FFFFFF"/>
<path d="M90.835,0.465C98.662,-0.34 106.331,0.336 114.044,1.736C114.633,1.844 114.968,2.237 115.092,2.709C118.725,2.878 122.361,3.149 125.989,3.351C127.306,3.424 128.053,4.745 127.452,5.939C127.332,6.176 127.207,6.407 127.081,6.637L127.24,6.584C128.332,6.228 129.511,6.053 130.574,6.617C131.928,7.336 132.458,8.922 132.159,10.381C132.083,10.754 131.954,11.111 131.808,11.459C132.104,11.439 132.404,11.446 132.701,11.486C134.281,11.699 135.455,12.93 135.538,14.569C135.661,17.044 134.091,19.554 132.242,21.326C132.51,21.888 132.613,22.549 132.501,23.218C132.279,24.542 131.319,25.335 130.206,25.852C130.67,27.35 130.889,28.915 130.76,30.515C130.717,31.049 130.257,31.49 129.772,31.598C131.58,36.658 132.496,42.091 133.154,47.384C133.624,51.15 133.856,54.938 133.884,58.733C133.897,60.446 133.869,62.161 133.799,63.875L133.77,64.517C133.683,66.369 133.678,68.314 133.351,70.146C134.469,72.078 134.918,74.476 135.108,76.641C135.344,79.32 134.971,82.083 134.139,84.632C131,94.261 121.525,100.338 112.009,101.917C103.2,103.379 93.007,101.411 87.86,93.283C87.778,93.155 87.951,93.048 88.051,93.133C91.735,96.175 96.007,97.533 100.649,98.194C108.674,99.333 117.694,97.399 124.134,92.272C127.225,89.81 129.454,86.226 130.435,82.369C130.935,80.397 131.107,78.342 130.91,76.312C130.709,74.254 129.812,72.498 129.247,70.552C129.057,69.895 129.258,69.285 129.653,68.851C129.764,67.272 130.026,65.68 130.127,64.105C130.238,62.314 130.305,60.525 130.33,58.733C130.376,55.016 130.223,51.292 129.915,47.591C129.352,40.812 127.856,34.199 126.979,27.479C126.654,27.775 126.188,27.896 125.7,27.638L125.649,27.609L125.383,27.454C125.367,27.454 125.35,27.457 125.335,27.459C123.512,27.639 121.621,27.381 119.875,26.829C118.047,26.252 116.351,25.365 114.836,24.183C114.548,25.667 114.428,27.166 114.426,28.678C114.424,29.623 113.439,30.114 112.657,29.71C109.193,27.922 105.884,25.862 102.742,23.547C102.375,25.456 102.009,27.366 101.64,29.277C101.497,30.014 100.574,30.311 99.982,29.961C97.629,28.57 95.597,26.749 93.941,24.584C93.612,25.226 93.28,25.868 92.946,26.508L92.444,27.468C91.949,28.41 91.285,29.453 90.2,29.754C89.052,30.074 88.093,29.317 87.707,28.262C87.589,27.934 87.48,27.596 87.38,27.257C86.401,29.526 85.296,31.744 84.048,33.86C82.175,37.033 79.926,39.861 77.684,42.762C77.003,43.643 75.837,42.802 75.743,41.946C75.688,41.443 75.643,40.937 75.604,40.433C74.298,43.112 72.934,45.765 71.449,48.341L71.662,49.188C72.274,51.689 72.783,54.208 73.337,56.722C73.515,57.534 73.091,58.694 72.158,58.832C71.043,58.997 69.989,59.575 68.847,59.178C67.602,58.743 67.356,57.65 66.768,56.614C66.65,56.407 66.514,56.217 66.367,56.038L66.33,56.087C66.239,56.209 66.02,56.076 66.074,55.936L66.138,55.775C65.633,55.23 65.029,54.777 64.474,54.288C63.153,54.062 61.668,54.31 60.758,54.854C58.687,56.096 57.735,58.655 57.715,61.009C57.691,63.764 58.532,66.859 59.951,69.215C60.575,70.251 61.431,71.186 62.562,71.645C63.684,72.102 64.9,71.96 66.041,72.391C66.797,72.677 67.262,73.529 66.806,74.3C66.775,74.354 66.741,74.402 66.708,74.454L67.047,74.911C67.28,75.228 67.524,75.568 67.751,75.922C68.332,76.601 68.943,77.254 69.535,77.922C70.628,79.153 71.689,80.417 72.765,81.666C73.781,82.843 74.855,83.951 75.961,85.039C77.007,86.07 78.313,86.938 79.273,88.038C80.207,89.111 80.461,90.986 78.924,91.607C77.224,92.295 75.718,90.681 74.574,89.605L74.525,89.559C72.427,87.597 70.532,85.356 69.028,82.887C67.537,83.918 65.381,84.017 63.896,82.986C63.115,82.444 62.516,81.533 62.225,80.541C61.95,80.604 61.676,80.64 61.408,80.636C61.27,80.717 61.132,80.796 60.992,80.87C59.885,81.455 58.525,81.194 58.019,79.949C57.558,78.819 58.033,77.537 58.448,76.447L58.534,76.223C58.77,75.603 59.03,74.926 59.353,74.289C58.453,73.602 57.685,72.747 57.034,71.777C54.849,68.505 53.757,63.721 54.24,59.818C54.53,57.462 55.619,55.022 57.403,53.434L57.338,53.261C56.838,51.973 56.384,50.68 56.089,49.318C55.744,47.726 55.576,46.076 55.423,44.454C55.1,41.03 55.187,37.528 55.617,34.117C56.425,27.696 58.473,21.393 62.108,16.05C61.077,14.797 60.261,13.322 60.686,11.625C60.881,10.847 61.324,10.108 61.992,9.662C62.361,9.416 62.8,9.379 63.169,9.175L63.28,9.113C63.442,9.017 63.318,9.027 63.221,8.58C62.839,6.797 63.156,5.074 65.088,4.482C66.906,3.925 68.627,5.107 69.702,6.515C72.519,4.486 76.23,3.424 79.494,2.521C83.205,1.498 87.013,0.86 90.835,0.465ZM60.416,60.281C60.402,58.828 61.758,57.932 63.092,58.17C63.988,58.329 64.735,58.871 65.437,59.433L65.779,59.708C66.633,60.39 67.615,61.124 68.123,62.089C68.871,63.513 67.293,65.429 65.819,64.431C64.808,63.743 64.16,62.64 63.497,61.615L63.428,61.509C63.127,61.051 62.863,60.563 62.45,60.195L62.361,60.115C62.225,59.997 62.08,59.89 61.904,59.84C61.566,59.741 60.94,59.88 60.791,60.288L60.778,60.33C60.723,60.537 60.418,60.492 60.416,60.281Z" clip-rule="evenodd" fill-rule="evenodd" fill="#000000"/>
<path d="M109.924,82.609C108.456,82.001 107.147,80.986 106.189,79.69C105.857,79.239 105.771,78.764 105.84,78.328C105.919,77.839 106.204,77.395 106.592,77.098C106.982,76.8 107.47,76.652 107.941,76.728C108.351,76.793 108.758,77.021 109.082,77.493L109.149,77.587C109.718,78.37 110.459,79.011 111.304,79.426C112.119,79.825 113.03,80.01 113.972,79.902C115.768,79.697 117.005,78.71 118.321,77.37C118.484,77.201 118.647,77.027 118.811,76.85C118.914,76.689 119.059,76.585 119.218,76.532C119.394,76.471 119.595,76.475 119.779,76.54C119.955,76.602 120.114,76.722 120.22,76.88C120.32,77.03 120.378,77.216 120.359,77.43C120.239,78.817 119.525,80.056 118.51,81.029C117.382,82.11 115.888,82.857 114.482,83.12C112.933,83.408 111.354,83.201 109.924,82.609ZM115.213,61.193C116.862,62.211 119.374,64.584 117.6,67.108C115.512,69.334 112.507,66.783 111.026,65.628C109.653,64.734 108.109,67.035 109.383,68.079C120.086,76.129 124.43,61.459 116.047,59.996C115.124,59.835 114.782,60.878 115.213,61.193ZM96.035,51.829C96.217,49.532 99.66,49.01 100.003,51.283C100.309,53.319 99.948,55.189 99.045,57.022C98.183,58.774 96.015,57.957 95.851,56.362C95.631,54.225 95.921,53.257 96.035,51.829ZM122.245,50.812C122.726,50.173 123.419,49.737 124.249,49.984C126.844,50.754 126.079,54.497 125.168,56.317C124.673,57.307 123.072,57.558 122.349,56.687C121.17,55.267 120.605,52.43 122.104,51.031C122.145,50.959 122.191,50.886 122.245,50.812ZM99.009,41.779L99.419,41.706C100.687,41.483 102.263,41.269 103.16,42.304C103.636,42.853 103.799,43.874 103.16,44.4C102.035,45.325 100.791,44.966 99.444,45.044C98.333,45.109 97.265,45.296 96.196,45.607C93.848,46.288 91.936,47.532 89.931,48.899C89.668,49.078 89.4,48.736 89.525,48.486C90.682,46.183 92.924,44.292 95.171,43.139C96.371,42.523 97.682,42.013 99.009,41.779ZM119.88,40.747L120.194,40.812C123.608,41.537 128.043,42.985 129.659,46.392C129.721,46.873 129.656,46.977 129.604,47.044L129.586,47.067C129.542,47.124 129.508,47.203 129.302,47.269C129.245,47.255 129.187,47.241 129.129,47.225C128.387,47.028 127.802,46.756 127.234,46.474L126.618,46.166C125.904,45.81 125.184,45.468 124.42,45.215C122.792,44.675 121.116,44.295 119.415,44.092C119.046,44.048 118.691,43.921 118.411,43.704C118.145,43.499 117.941,43.214 117.848,42.835C117.729,42.345 117.764,41.974 118.022,41.532C118.216,41.2 118.495,40.97 118.815,40.838C119.14,40.704 119.511,40.672 119.88,40.747Z" clip-rule="evenodd" fill-rule="evenodd" fill="#000000"/>
</svg>
