<svg width="330" height="317" viewBox="0 0 330 317" fill="none" xmlns="http://www.w3.org/2000/svg">
    <g opacity="0.3">
        <path opacity="0.3" d="M70.9265 102.397H16.9927L17.5387 91.9863H71.4725L70.9265 102.397Z" stroke="black" stroke-linecap="round" stroke-linejoin="round"/>
        <path opacity="0.3" d="M70.9265 116.974H16.9927L17.5387 106.564H71.4725L70.9265 116.974Z" stroke="black" stroke-linecap="round" stroke-linejoin="round"/>
        <path opacity="0.3" d="M70.9265 131.551H16.9927L17.5387 121.141H71.4725L70.9265 131.551Z" stroke="black" stroke-linecap="round" stroke-linejoin="round"/>
        <path opacity="0.3" d="M70.9265 146.128H16.9927L17.5387 135.718H71.4725L70.9265 146.128Z" stroke="black" stroke-linecap="round" stroke-linejoin="round"/>
        <path opacity="0.3" d="M70.9265 160.713H16.9927L17.5387 150.296H71.4725L70.9265 160.713Z" stroke="black" stroke-linecap="round" stroke-linejoin="round"/>
        <path opacity="0.3" d="M70.9265 175.29H16.9927L17.5387 164.873H71.4725L70.9265 175.29Z" stroke="black" stroke-linecap="round" stroke-linejoin="round"/>
        <path opacity="0.3" d="M70.9265 189.868H16.9927L17.5387 179.45H71.4725L70.9265 189.868Z" stroke="black" stroke-linecap="round" stroke-linejoin="round"/>
        <path opacity="0.3" d="M70.9265 204.445H16.9927L17.5387 194.027H71.4725L70.9265 204.445Z" stroke="black" stroke-linecap="round" stroke-linejoin="round"/>
        <path opacity="0.3" d="M70.9265 219.022H16.9927L17.5387 208.605H71.4725L70.9265 219.022Z" stroke="black" stroke-linecap="round" stroke-linejoin="round"/>
        <path opacity="0.3" d="M70.9265 233.599H16.9927L17.5387 223.182H71.4725L70.9265 233.599Z" stroke="black" stroke-linecap="round" stroke-linejoin="round"/>
        <path opacity="0.3" d="M70.9265 248.177H16.9927L17.5387 237.766H71.4725L70.9265 248.177Z" stroke="black" stroke-linecap="round" stroke-linejoin="round"/>
        <path opacity="0.3" d="M127.957 102.397H74.0231L74.5691 91.9863H128.503L127.957 102.397Z" stroke="black" stroke-linecap="round" stroke-linejoin="round"/>
        <path opacity="0.3" d="M127.957 116.974H74.0231L74.5691 106.564H128.503L127.957 116.974Z" stroke="black" stroke-linecap="round" stroke-linejoin="round"/>
        <path opacity="0.3" d="M127.957 131.551H74.0231L74.5691 121.141H128.503L127.957 131.551Z" stroke="black" stroke-linecap="round" stroke-linejoin="round"/>
        <path opacity="0.3" d="M127.957 146.128H74.0231L74.5691 135.718H128.503L127.957 146.128Z" stroke="black" stroke-linecap="round" stroke-linejoin="round"/>
        <path opacity="0.3" d="M127.957 160.713H74.0231L74.5691 150.296H128.503L127.957 160.713Z" stroke="black" stroke-linecap="round" stroke-linejoin="round"/>
        <path opacity="0.3" d="M127.957 175.29H74.0231L74.5691 164.873H128.503L127.957 175.29Z" stroke="black" stroke-linecap="round" stroke-linejoin="round"/>
        <path opacity="0.3" d="M127.957 189.868H74.0231L74.5691 179.45H128.503L127.957 189.868Z" stroke="black" stroke-linecap="round" stroke-linejoin="round"/>
        <path opacity="0.3" d="M127.957 204.445H74.0231L74.5691 194.027H128.503L127.957 204.445Z" stroke="black" stroke-linecap="round" stroke-linejoin="round"/>
        <path opacity="0.3" d="M127.957 219.022H74.0231L74.5691 208.605H128.503L127.957 219.022Z" stroke="black" stroke-linecap="round" stroke-linejoin="round"/>
        <path opacity="0.3" d="M127.957 233.599H74.0231L74.5691 223.182H128.503L127.957 233.599Z" stroke="black" stroke-linecap="round" stroke-linejoin="round"/>
        <path opacity="0.3" d="M127.957 248.177H74.0231L74.5691 237.766H128.503L127.957 248.177Z" stroke="black" stroke-linecap="round" stroke-linejoin="round"/>
    </g>
    <g opacity="0.3">
        <path opacity="0.3" d="M293.796 113.173H224.178V165.843H293.796V113.173Z" stroke="black" stroke-linecap="round" stroke-linejoin="round"/>
        <path opacity="0.3" d="M290.01 117.527H227.95V161.496H290.01V117.527Z" stroke="black" stroke-linecap="round" stroke-linejoin="round"/>
        <path opacity="0.3" d="M248.189 124.453H269.778" stroke="black" stroke-linecap="round" stroke-linejoin="round"/>
        <path opacity="0.3" d="M234.208 130.833H283.759" stroke="black" stroke-linecap="round" stroke-linejoin="round"/>
        <path opacity="0.3" d="M245.25 143.585H272.717" stroke="black" stroke-linecap="round" stroke-linejoin="round"/>
        <path opacity="0.3" d="M234.697 156.345H245.495" stroke="black" stroke-linecap="round" stroke-linejoin="round"/>
        <path opacity="0.3" d="M272.473 156.345H283.264" stroke="black" stroke-linecap="round" stroke-linejoin="round"/>
    </g>
    <g opacity="0.3">
        <path opacity="0.3" d="M312.698 176.95H261.459V215.717H312.698V176.95Z" stroke="black" stroke-linecap="round" stroke-linejoin="round"/>
        <path opacity="0.3" d="M309.918 180.154H264.239V212.52H309.918V180.154Z" stroke="black" stroke-linecap="round" stroke-linejoin="round"/>
        <path opacity="0.3" d="M279.14 185.255H295.025" stroke="black" stroke-linecap="round" stroke-linejoin="round"/>
        <path opacity="0.3" d="M268.844 189.947H305.32" stroke="black" stroke-linecap="round" stroke-linejoin="round"/>
        <path opacity="0.3" d="M276.97 199.337H297.194" stroke="black" stroke-linecap="round" stroke-linejoin="round"/>
        <path opacity="0.3" d="M269.204 208.727H277.15" stroke="black" stroke-linecap="round" stroke-linejoin="round"/>
        <path opacity="0.3" d="M297.008 208.727H304.954" stroke="black" stroke-linecap="round" stroke-linejoin="round"/>
    </g>
    <path d="M253.34 204.222L178.959 201.636C175.894 201.53 172.829 201.53 169.763 201.636L100.469 204.222L103.544 106.93C103.659 103.247 103.659 99.5587 103.544 95.8659L100.469 4.0627H253.34V204.222Z" fill="#263238" stroke="#263238" stroke-linecap="round" stroke-linejoin="round"/>
    <path d="M255.797 0.628525H102.926V200.788H255.797V0.628525Z" fill="white" stroke="#263238" stroke-linecap="round" stroke-linejoin="round"/>
    <path d="M245.631 55.1802H113.085V189.357H245.631V55.1802Z" fill="white" stroke="#263238" stroke-linecap="round" stroke-linejoin="round"/>
    <path d="M114.328 35.1284V10.5934H121.512C122.762 10.5385 124.003 10.8214 125.105 11.4124C126.025 11.96 126.74 12.7958 127.138 13.7905C127.599 14.9931 127.819 16.2748 127.784 17.5623C127.842 18.8969 127.56 20.2243 126.965 21.4204C126.463 22.3717 125.66 23.1297 124.681 23.5757C123.585 24.0448 122.402 24.2727 121.211 24.2439H118.789V35.1284H114.328ZM118.811 21.0755H120.507C121.157 21.1053 121.806 20.9848 122.403 20.7235C122.628 20.611 122.826 20.4534 122.987 20.2605C123.148 20.0677 123.267 19.8437 123.337 19.6027C123.531 18.9283 123.618 18.2278 123.596 17.5264C123.611 16.803 123.546 16.0802 123.402 15.3711C123.352 15.1193 123.251 14.8804 123.105 14.6692C122.959 14.4579 122.772 14.2787 122.554 14.1425C121.917 13.8379 121.212 13.7018 120.507 13.7474H118.811V21.0755Z" fill="#35C2C1"/>
    <path d="M119.781 46.9612L124.717 33.9429L119.932 22.4478H124.113L127.289 30.0489L130.076 22.4478H133.956L129.207 34.7907L134.294 46.9612H130.141L126.656 38.7206L123.625 46.954L119.781 46.9612Z" fill="#35C2C1"/>
    <path d="M188.529 18.1586H245.193" stroke="#263238" stroke-linecap="round" stroke-linejoin="round"/>
    <path d="M188.529 30.3866H245.193" stroke="#263238" stroke-linecap="round" stroke-linejoin="round"/>
    <path d="M200.764 25.0917H245.193" stroke="#263238" stroke-linecap="round" stroke-linejoin="round"/>
    <path d="M200.764 36.0983H245.193" stroke="#263238" stroke-linecap="round" stroke-linejoin="round"/>
    <path d="M117.597 69.93H162.033" stroke="#263238" stroke-linecap="round" stroke-linejoin="round"/>
    <path d="M117.597 81.5329H162.033" stroke="#263238" stroke-linecap="round" stroke-linejoin="round"/>
    <path d="M117.597 75.929H184.865" stroke="#263238" stroke-linecap="round" stroke-linejoin="round"/>
    <path d="M117.597 95.6719H162.033" stroke="#263238" stroke-linecap="round" stroke-linejoin="round"/>
    <path d="M117.597 107.275H162.033" stroke="#263238" stroke-linecap="round" stroke-linejoin="round"/>
    <path d="M117.597 101.671H184.865" stroke="#263238" stroke-linecap="round" stroke-linejoin="round"/>
    <path d="M116.648 182.123H158.771" stroke="#263238" stroke-linecap="round" stroke-linejoin="round"/>
    <path d="M196.525 182.123H238.648" stroke="#263238" stroke-linecap="round" stroke-linejoin="round"/>
    <path d="M122.59 135.876C120.071 137.474 118.083 139.783 116.876 142.511C115.669 145.239 115.297 148.263 115.809 151.202C116.32 154.141 117.691 156.862 119.748 159.022C121.806 161.182 124.457 162.684 127.368 163.337C130.279 163.99 133.317 163.766 136.101 162.693C138.884 161.62 141.287 159.746 143.005 157.307C144.723 154.869 145.681 151.976 145.755 148.994C145.83 146.012 145.019 143.075 143.425 140.553C142.365 138.877 140.985 137.426 139.364 136.284C137.743 135.141 135.912 134.329 133.977 133.895C132.042 133.461 130.04 133.412 128.086 133.752C126.132 134.092 124.265 134.814 122.59 135.876ZM137.067 158.701C135.076 159.963 132.755 160.606 130.399 160.549C128.042 160.492 125.756 159.737 123.828 158.381C121.9 157.024 120.418 155.127 119.569 152.928C118.72 150.729 118.541 148.328 119.057 146.028C119.572 143.728 120.758 141.632 122.464 140.006C124.17 138.379 126.32 137.295 128.642 136.891C130.964 136.486 133.354 136.78 135.51 137.733C137.665 138.687 139.49 140.258 140.752 142.249C141.591 143.571 142.161 145.045 142.43 146.588C142.698 148.13 142.66 149.711 142.318 151.239C141.976 152.767 141.336 154.212 140.435 155.492C139.534 156.773 138.389 157.863 137.067 158.701Z" fill="#35C2C1"/>
    <path d="M136.286 143.721L123.438 151.861L124.749 153.931L137.597 145.79L136.286 143.721Z" fill="#35C2C1"/>
    <path d="M123.395 177.381C123.395 177.381 123.603 182.166 129.861 173.631C136.118 165.096 135.278 165.728 133.611 170.513C132.334 173.825 130.644 176.963 128.582 179.852C128.582 179.852 136.082 167.984 136.082 171.31C136.082 174.636 128.999 188.804 130.457 187.554C131.915 186.304 136.499 180.061 136.499 180.061C136.499 180.061 135.874 184.221 137.534 182.345C139.193 180.47 141.076 176.727 140.867 178.811C140.659 180.894 137.95 183.387 140.659 180.894C143.367 178.401 145.451 175.269 144.826 177.561C144.201 179.852 142.534 180.686 144.201 179.852C145.868 179.019 155.236 163.4 152.319 165.275C149.402 167.15 143.993 183.387 146.493 182.137C148.993 180.887 151.903 174.644 151.694 177.769C151.486 180.894 152.319 180.894 153.131 179.852" stroke="#263238" stroke-linecap="round" stroke-linejoin="round"/>
    <path d="M329 309.036H1" stroke="#263238" stroke-linecap="round" stroke-linejoin="round"/>
    <path d="M329 315.905H1" stroke="#263238" stroke-linecap="round" stroke-linejoin="round"/>
    <path d="M311.032 233.276H241.486C240.388 233.275 239.328 233.67 238.498 234.388C237.668 235.106 237.124 236.098 236.967 237.185L226.564 308.311H309.264L315.579 238.233C315.634 237.603 315.557 236.968 315.354 236.369C315.15 235.77 314.824 235.22 314.396 234.754C313.968 234.288 313.448 233.916 312.869 233.661C312.29 233.407 311.664 233.276 311.032 233.276Z" fill="#263238" stroke="#263238" stroke-linecap="round" stroke-linejoin="round"/>
    <path d="M216.858 221.666C216.858 221.666 198.041 231.006 191.583 233.585C185.124 236.164 183.536 237.321 182.961 238.902C182.386 240.482 157.255 279.975 154.389 283.568C151.522 287.16 145.336 294.912 146.198 300.221C147.06 305.53 153.957 310.136 160.567 309.992C167.177 309.848 171.344 308.555 172.062 306.687C172.781 304.819 191.022 272.202 191.022 272.202L196.77 308.534H270.159C270.159 308.534 275.907 258.846 275.907 251.518C275.907 244.189 277.344 235.575 274.326 233.707C271.309 231.839 258.815 227.536 249.619 224.518C240.423 221.501 237.556 220.926 235.408 220.926C233.26 220.926 216.858 221.666 216.858 221.666Z" fill="white" stroke="#263238" stroke-linecap="round" stroke-linejoin="round"/>
    <path d="M214.867 221.925C214.867 221.925 212.425 226.523 212.281 230.259C212.137 233.995 211.563 240.885 209.407 245.052C207.252 249.219 205.671 251.518 206.821 251.079C207.97 250.641 214.573 243.327 215.291 241.739C216.01 240.152 217.159 243.176 217.159 243.176C217.159 243.176 215.004 249.348 214.717 250.21C214.429 251.072 223.762 262.991 223.762 262.991C223.762 262.991 231.808 256.676 233.676 255.239C235.544 253.802 234.97 252.653 235.113 250.785C235.257 248.917 235.832 246.194 236.83 244.613C237.829 243.033 240.717 249.226 242.722 252.1C244.726 254.973 246.745 255.979 246.458 253.824C246.17 251.668 245.164 247.501 244.446 240.173C243.727 232.845 243.871 224.087 242.003 221.357C240.135 218.627 230.336 218.088 223.906 217.628C222.148 217.432 220.372 217.731 218.775 218.49C217.178 219.249 215.825 220.438 214.867 221.925Z" fill="white" stroke="#263238" stroke-linecap="round" stroke-linejoin="round"/>
    <path d="M185.857 246.388L191.029 272.223L184.348 255.045" stroke="#263238" stroke-linecap="round" stroke-linejoin="round"/>
    <path d="M215.586 228.851C215.586 228.851 217.598 240.051 219.466 248.665C220.493 253.569 221.935 258.375 223.776 263.034C223.776 263.034 233.26 247.092 235.99 238.765C237.54 234.171 238.741 229.466 239.582 224.691H215.586V228.851Z" stroke="#263238" stroke-linecap="round" stroke-linejoin="round"/>
    <path d="M226.068 232.701L220.902 239.167L224.495 246.065L220.96 254.621C221.739 257.467 222.68 260.266 223.776 263.006C223.776 263.006 226.736 258.034 229.818 252.229L227.225 246.244L230.386 239.06L226.068 232.701Z" fill="#35C2C1" stroke="#263238" stroke-linecap="round" stroke-linejoin="round"/>
    <path d="M215.586 224.684V228.851C215.586 228.851 216.973 236.581 218.51 244.132L225.781 236.459L233.447 244.951C234.406 242.935 235.252 240.867 235.983 238.758C237.533 234.164 238.734 229.459 239.575 224.684H215.586Z" fill="white" stroke="#263238" stroke-linecap="round" stroke-linejoin="round"/>
    <path d="M152.973 287.821C152.973 287.821 166.387 282.921 173.621 294.84" stroke="#263238" stroke-linecap="round" stroke-linejoin="round"/>
    <path d="M173.858 291.161C173.858 291.161 166.365 292.857 162.363 299.244C158.362 305.631 166.502 306.342 168.75 306.342C170.999 306.342 173.126 304.834 173.248 304.05C173.37 303.267 176.316 295.695 176.201 293.928C176.187 293.268 175.947 292.632 175.521 292.129C175.094 291.625 174.507 291.283 173.858 291.161Z" fill="white" stroke="#263238" stroke-linecap="round" stroke-linejoin="round"/>
    <path d="M170.41 293.805C170.41 293.805 166.265 297.398 166.545 298.834C166.825 300.271 172.975 305.803 174.16 305.006C174.374 304.897 174.564 304.747 174.72 304.565C174.876 304.382 174.995 304.171 175.069 303.943C175.143 303.715 175.171 303.474 175.152 303.235C175.133 302.996 175.067 302.763 174.958 302.549C174.62 302.01 170.41 293.805 170.41 293.805Z" fill="white" stroke="#263238" stroke-linecap="round" stroke-linejoin="round"/>
    <path d="M166.566 298.799C166.566 298.799 164.131 301.392 164.928 302.578C165.726 303.763 171.294 306.788 172.738 305.875C174.182 304.963 173.248 304.029 173.248 304.029L166.566 298.799Z" fill="white" stroke="#263238" stroke-linecap="round" stroke-linejoin="round"/>
    <path d="M180.835 293.669L175.849 292.807L177.02 299.984L182.113 300.142L180.835 293.669Z" fill="white" stroke="#263238" stroke-linecap="round" stroke-linejoin="round"/>
    <path d="M171.861 282.382L177.702 302.851L180.54 305.43V301.787L174.361 281.671C174.311 281.503 174.227 281.348 174.115 281.214C174.003 281.08 173.865 280.97 173.709 280.891C173.553 280.811 173.383 280.764 173.209 280.753C173.034 280.741 172.859 280.765 172.695 280.823C172.385 280.93 172.127 281.15 171.972 281.439C171.818 281.728 171.778 282.065 171.861 282.382Z" fill="#263238" stroke="#263238" stroke-linecap="round" stroke-linejoin="round"/>
    <path d="M173.858 291.161C173.858 291.161 170.41 293.18 170.755 294.711C171.1 296.241 174.821 303.397 176.165 303.49C177.508 303.583 178.32 302.772 178.126 301.22C177.932 299.668 176.689 294.035 175.849 292.807C175.008 291.578 174.915 291.09 173.858 291.161Z" fill="white" stroke="#263238" stroke-linecap="round" stroke-linejoin="round"/>
    <path d="M180.835 293.669C180.835 293.669 184.506 294.129 185.145 295.249C185.785 296.37 183.22 300.839 182.401 301.859C181.582 302.879 180.116 302.836 180.073 300.25C180.142 298.039 180.397 295.837 180.835 293.669Z" fill="white" stroke="#263238" stroke-linecap="round" stroke-linejoin="round"/>
    <path d="M160.977 302.312H201.26C202.386 302.314 203.464 302.762 204.26 303.558C205.056 304.353 205.504 305.432 205.506 306.558C205.506 307.511 205.128 308.424 204.454 309.098C203.78 309.772 202.867 310.15 201.914 310.15H161.537C160.661 310.15 159.82 309.802 159.2 309.182C158.58 308.562 158.232 307.722 158.232 306.845V305.049C158.232 304.689 158.303 304.332 158.441 304C158.579 303.667 158.782 303.365 159.036 303.111C159.291 302.857 159.594 302.655 159.927 302.518C160.26 302.381 160.617 302.311 160.977 302.312Z" fill="white" stroke="#263238" stroke-linecap="round" stroke-linejoin="round"/>
    <path d="M232.663 293.051C232.663 293.051 222.181 291.901 219.595 291.039C217.008 290.177 212.841 289.459 211.405 290.608C209.968 291.758 202.934 299.948 202.783 300.947C202.632 301.945 201.203 305.257 201.921 306.12C202.523 306.72 203.263 307.164 204.076 307.413C204.076 307.413 213.416 309.999 214.415 310.143C215.414 310.287 225.041 309.855 225.041 309.855L230.07 307.988L237.103 307.844C237.103 307.844 237.247 310.143 237.391 304.539C237.534 298.935 232.663 293.051 232.663 293.051Z" fill="white" stroke="#263238" stroke-linecap="round" stroke-linejoin="round"/>
    <path d="M204.098 307.42C204.098 307.42 204.242 304.115 204.96 302.678C205.678 301.241 213.862 293.92 213.862 293.92" stroke="#263238" stroke-linecap="round" stroke-linejoin="round"/>
    <path d="M206.799 308.268C206.799 308.268 208.236 304.675 208.811 304.388C209.386 304.101 216.132 299.79 216.132 299.79" stroke="#263238" stroke-linecap="round" stroke-linejoin="round"/>
    <path d="M211.706 309.274C211.706 309.274 211.994 307.837 212.712 307.549C213.431 307.262 219.466 304.532 219.466 304.532" stroke="#263238" stroke-linecap="round" stroke-linejoin="round"/>
    <path d="M218.172 309.992L220.902 309.274L220.615 307.98L217.741 308.699" stroke="#263238" stroke-linecap="round" stroke-linejoin="round"/>
    <path d="M265.561 246.797C265.561 246.797 257.953 262.74 258.377 268.351C258.8 273.962 260.683 283.28 260.683 283.28C260.683 283.28 248.62 288.015 244.453 289.746C240.286 291.478 232.663 293.051 232.663 293.051L236.536 308.275L235.968 309.856H277.753C277.753 309.856 280.914 309.281 281.489 308.562C282.064 307.844 282.639 307.556 282.926 305.257C283.213 302.958 285.081 282.856 284.65 277.238C284.219 271.62 278.328 242.487 277.609 239.469C276.891 236.452 275.605 234.44 274.312 233.722C273.019 233.003 267.415 232.436 267.415 232.436" fill="white"/>
    <path d="M265.561 246.797C265.561 246.797 257.953 262.74 258.377 268.351C258.8 273.962 260.683 283.28 260.683 283.28C260.683 283.28 248.62 288.015 244.453 289.746C240.286 291.478 232.663 293.051 232.663 293.051L236.536 308.275L235.968 309.856H277.753C277.753 309.856 280.914 309.281 281.489 308.562C282.064 307.844 282.639 307.556 282.926 305.257C283.213 302.958 285.081 282.856 284.65 277.238C284.219 271.62 278.328 242.487 277.609 239.469C276.891 236.452 275.605 234.44 274.312 233.722C273.019 233.003 267.415 232.436 267.415 232.436" stroke="#263238" stroke-linecap="round" stroke-linejoin="round"/>
    <path d="M261.689 283.568C261.689 283.568 272.746 284.142 278.213 287.584" stroke="#263238" stroke-linecap="round" stroke-linejoin="round"/>
    <path d="M263.693 282.131C263.693 282.131 271.452 281.7 275.619 282.993" stroke="#263238" stroke-linecap="round" stroke-linejoin="round"/>
    <path d="M261.545 246.352C261.545 246.352 257.665 255.404 257.522 258.853C257.378 262.301 257.091 264.313 257.091 264.313" stroke="#263238" stroke-linecap="round" stroke-linejoin="round"/>
    <path d="M243.878 222.385C243.878 222.385 252.636 234.857 245.595 269.637" stroke="#263238" stroke-width="2" stroke-linecap="round" stroke-linejoin="round"/>
    <path d="M249.762 270.643C249.762 269.79 249.51 268.957 249.036 268.248C248.562 267.539 247.889 266.986 247.101 266.66C246.314 266.334 245.447 266.248 244.611 266.415C243.775 266.581 243.007 266.992 242.404 267.595C241.801 268.197 241.39 268.965 241.224 269.802C241.058 270.638 241.143 271.505 241.469 272.292C241.796 273.08 242.348 273.753 243.057 274.227C243.766 274.7 244.599 274.953 245.452 274.953C246.595 274.953 247.692 274.499 248.5 273.691C249.308 272.882 249.762 271.786 249.762 270.643Z" fill="white" stroke="#263238" stroke-linecap="round" stroke-linejoin="round"/>
    <path d="M213.984 223.678C213.984 223.678 209.537 226.552 208.818 238.183" stroke="#263238" stroke-width="2" stroke-linecap="round" stroke-linejoin="round"/>
    <path d="M214.997 255.807C213.912 263.652 212.432 272.08 212.123 273.926C211.405 277.877 206.713 279.257 203.696 277.964" stroke="#263238" stroke-width="2" stroke-linecap="round" stroke-linejoin="round"/>
    <path d="M203.746 256.324C202.762 251.927 202.158 248.112 202.374 246.366C203.379 238.327 208.84 238.183 208.84 238.183C208.84 238.183 215.306 239.045 215.73 245.942C215.774 249.245 215.534 252.545 215.011 255.807" stroke="#263238" stroke-width="2" stroke-linecap="round" stroke-linejoin="round"/>
    <path d="M215.873 277.389C215.873 277.389 212.856 279.113 210.844 277.964C209.486 277.188 205.815 265.491 203.746 256.324" stroke="#263238" stroke-width="2" stroke-linecap="round" stroke-linejoin="round"/>
    <path d="M216.925 275.832L215.737 276.344C215.165 276.59 214.901 277.254 215.148 277.826L215.162 277.859C215.409 278.431 216.072 278.695 216.644 278.448L217.832 277.936C218.404 277.69 218.668 277.026 218.421 276.454L218.407 276.421C218.16 275.849 217.497 275.585 216.925 275.832Z" stroke="#263238" stroke-linecap="round" stroke-linejoin="round"/>
    <path d="M204.068 276.611L202.96 275.945C202.425 275.624 201.733 275.797 201.412 276.331L201.393 276.362C201.073 276.896 201.245 277.589 201.779 277.91L202.888 278.575C203.422 278.896 204.115 278.723 204.436 278.189L204.454 278.159C204.775 277.624 204.602 276.932 204.068 276.611Z" stroke="#263238" stroke-linecap="round" stroke-linejoin="round"/>
    <path d="M208.84 188.926C208.84 188.926 206.541 194.379 206.972 197.828C207.403 201.277 212.001 205.012 212.001 205.012C212.001 205.012 213.581 189.645 213.581 189.07C213.581 188.495 210.7 187.202 208.84 188.926Z" fill="#263238" stroke="#263238" stroke-linecap="round" stroke-linejoin="round"/>
    <path d="M207.187 208.461L210.241 206.327" stroke="#263238" stroke-width="2" stroke-linecap="round" stroke-linejoin="round"/>
    <path d="M210.557 189.932C210.557 189.932 209.982 205.156 210.269 208.023C210.557 210.889 211.706 220.085 212.712 222.959C213.718 225.833 217.023 235.022 219.609 236.028C222.196 237.034 227.361 237.752 229.086 236.603C230.81 235.453 237.125 231.15 238.849 226.983C239.872 224.553 240.549 221.992 240.861 219.374C242.295 218.609 243.533 217.524 244.48 216.204C245.427 214.883 246.057 213.362 246.321 211.759C247.183 206.298 244.884 204.725 244.884 204.725L245.028 195.242C245.028 195.242 243.447 188.639 239.28 185.047C235.113 181.455 230.235 181.167 225.206 183.897C220.177 186.627 210.557 189.932 210.557 189.932Z" fill="white" stroke="#263238" stroke-linecap="round" stroke-linejoin="round"/>
    <path d="M237.556 189.07C237.556 189.07 237.7 185.334 234.115 186.627C230.53 187.921 229.66 190.363 224.344 192.519C219.027 194.674 211.994 192.231 209.558 190.794C207.123 189.358 205.391 187.346 208.696 183.61C212.001 179.874 219.753 176.145 228.094 176.145C236.435 176.145 242.887 183.035 245.617 185.909C248.347 188.783 248.778 192.375 247.772 194.954C246.767 197.533 244.899 204.725 244.899 204.725C244.899 204.725 243.749 204.581 243.318 206.298C242.887 208.016 243.031 209.891 241.163 210.034C239.295 210.178 239.438 205.156 239.438 205.156C239.438 205.156 234.847 203.719 234.273 200.414C233.698 197.11 237.556 192.231 237.556 189.07Z" fill="#263238" stroke="#263238" stroke-linecap="round" stroke-linejoin="round"/>
    <path d="M220.45 210.803L207.166 208.461L207.934 214.417C207.982 214.787 208.147 215.133 208.406 215.402C208.665 215.671 209.003 215.85 209.371 215.911L217.447 217.183C217.891 217.255 218.345 217.151 218.714 216.893C219.083 216.636 219.337 216.245 219.422 215.804L220.45 210.803Z" stroke="#263238" stroke-width="2" stroke-linecap="round" stroke-linejoin="round"/>
    <path d="M222.871 211.055L238.274 210.609L236.766 216.184C236.636 216.56 236.388 216.883 236.059 217.106C235.73 217.329 235.338 217.439 234.941 217.42L225.601 217.549C225.117 217.583 224.637 217.441 224.249 217.149C223.861 216.857 223.591 216.436 223.489 215.962L222.871 211.055Z" stroke="#263238" stroke-width="2" stroke-linecap="round" stroke-linejoin="round"/>
    <path d="M220.471 210.803L222.871 211.055" stroke="#263238" stroke-width="2" stroke-linecap="round" stroke-linejoin="round"/>
    <path d="M238.274 210.609L243.304 206.298" stroke="#263238" stroke-width="2" stroke-linecap="round" stroke-linejoin="round"/>
    <path d="M224.918 209.316C224.918 209.316 229.229 206.018 233.252 208.023" stroke="#263238" stroke-width="2" stroke-linecap="round" stroke-linejoin="round"/>
    <path d="M218.46 208.598C218.46 208.598 215.155 205.005 211.419 207.448" stroke="#263238" stroke-width="2" stroke-linecap="round" stroke-linejoin="round"/>
    <path d="M219.322 221.091C219.322 221.091 218.603 224.109 219.322 224.684C220.545 225.359 221.957 225.611 223.338 225.402" stroke="#263238" stroke-linecap="round" stroke-linejoin="round"/>
    <path d="M217.167 226.954C217.167 226.954 220.04 229.109 222.77 229.253C225.501 229.397 228.654 227.385 228.654 227.385" stroke="#263238" stroke-linecap="round" stroke-linejoin="round"/>
    <path d="M227.792 212.333C227.792 212.333 229.517 214.345 232.39 212.19" stroke="#263238" stroke-linecap="round" stroke-linejoin="round"/>
    <path d="M213.646 211.45C213.646 211.45 215.083 213.677 218.215 211.931" stroke="#263238" stroke-linecap="round" stroke-linejoin="round"/>
    <path d="M124.537 189.056C124.537 189.056 125.449 202.742 124.76 203.885L122.741 207.304C122.741 207.304 123.653 217.118 121.828 218.253C120.415 219.011 118.863 219.477 117.266 219.626C117.266 219.626 115.441 226.925 114.752 227.838C114.062 228.75 109.96 231.717 108.595 232.148C107.23 232.579 102.89 232.867 92.6236 226.674C82.3569 220.481 78.4773 218.462 78.7072 215.042C78.9371 211.622 79.4257 207.743 79.4257 207.743C79.4257 207.743 80.568 191.312 82.6228 186.297C84.6775 181.282 110.685 178.538 116.39 179.91C122.094 181.282 124.537 189.056 124.537 189.056Z" fill="white" stroke="#263238" stroke-linecap="round" stroke-linejoin="round"/>
    <path d="M98.0695 211.637L99.6716 212.779C99.6716 212.779 98.2994 218.253 98.9531 220.768" stroke="#263238" stroke-linecap="round" stroke-linejoin="round"/>
    <path d="M120.88 207.053C120.65 208.102 120.097 208.863 119.652 208.763C119.206 208.662 119.027 207.743 119.264 206.694C119.501 205.645 120.047 204.883 120.492 204.984C120.938 205.084 121.117 206.011 120.88 207.053Z" fill="#263238"/>
    <path d="M118.552 202.864C118.552 202.864 121.038 200.378 123.115 202.728" stroke="#263238" stroke-linecap="round" stroke-linejoin="round"/>
    <path d="M115.413 187.231C115.413 187.231 118.373 192.705 118.15 193.848C117.927 194.99 108.566 197.727 108.566 197.727C108.566 197.727 107.654 203.202 106.281 203.885L104.916 204.567C103.822 203.081 102.903 201.473 102.179 199.775C100.584 196.355 98.2994 195.464 95.792 198.863C93.2846 202.261 95.3322 210.271 96.7044 210.954L98.0695 211.637C98.0695 211.637 96.9271 212.779 92.5949 213.469C88.2627 214.158 85.0656 215.064 81.8757 214.151C78.6858 213.239 74.1164 204.567 72.5359 193.388C70.9553 182.209 75.9557 172.632 82.5941 169.679C89.2326 166.726 104.27 169.449 105.405 170.132C106.54 170.814 114.306 167.172 118.869 169.449C123.431 171.727 123.179 174.241 124.343 175.836C125.507 177.431 131.413 175.384 131.872 181.088C132.332 186.793 130.048 190.212 127.08 190.665C124.113 191.118 115.413 187.231 115.413 187.231Z" fill="#263238" stroke="#263238" stroke-linecap="round" stroke-linejoin="round"/>
    <path d="M61.3927 223.045C61.3927 223.045 39.5304 234.706 35.3634 237.012C31.1964 239.318 30.5713 241.387 30.3343 243.478C30.0972 245.569 30.3343 315.934 30.3343 315.934H148.425C148.425 315.934 130.515 262.158 129.925 256.152C129.336 250.145 128.057 239.491 126.391 238.241C124.724 236.991 101.188 226.58 101.188 226.58C101.188 226.58 95.5621 220.545 82.2421 220.545C68.9221 220.545 61.3927 223.045 61.3927 223.045Z" fill="#ADD5D5" stroke="#263238" stroke-linecap="round" stroke-linejoin="round"/>
    <path d="M74.9282 265.887C75.5461 266.131 76.1711 266.353 76.7962 266.562" stroke="#263238" stroke-linecap="round" stroke-linejoin="round"/>
    <path d="M51.6146 246.575C51.6146 246.575 60.236 258.601 72.0113 264.536" stroke="#263238" stroke-linecap="round" stroke-linejoin="round"/>
    <path d="M59.1008 260.52C59.1008 260.52 63.8857 265.312 73.8793 268.02" stroke="#263238" stroke-linecap="round" stroke-linejoin="round"/>
    <path d="M118.43 243.263C115.104 247.042 110.42 253.084 108.868 258.645" stroke="#263238" stroke-linecap="round" stroke-linejoin="round"/>
    <path d="M121.979 239.491C121.979 239.491 121.318 240.13 120.284 241.229" stroke="#263238" stroke-linecap="round" stroke-linejoin="round"/>
    <path d="M110.111 251.985C110.111 251.985 106.985 258.02 106.368 261.77" stroke="#263238" stroke-linecap="round" stroke-linejoin="round"/>
    <path d="M60.1426 224.08C60.1426 224.08 72.2197 223.663 83.6717 223.872C95.1238 224.08 102.624 227.622 102.624 227.622C102.624 227.622 95.7488 219.295 92.6308 217.42C89.5127 215.545 79.9286 212.391 72.0185 214.92C67.1456 216.557 62.9635 219.783 60.1426 224.08Z" fill="#ADD5D5" stroke="#263238" stroke-linecap="round" stroke-linejoin="round"/>
    <path d="M25.8008 315.855L14.7942 273.653C14.6874 273.14 14.6961 272.611 14.8199 272.102C14.9437 271.593 15.1793 271.119 15.5097 270.713C15.84 270.307 16.2568 269.979 16.7295 269.755C17.2023 269.53 17.7193 269.414 18.2427 269.414H105.814C106.619 269.415 107.399 269.69 108.026 270.194C108.653 270.699 109.089 271.402 109.263 272.187L118.983 315.898" fill="#263238"/>
    <path d="M25.8008 315.855L14.7942 273.653C14.6874 273.14 14.6961 272.611 14.8199 272.102C14.9437 271.593 15.1793 271.119 15.5097 270.713C15.84 270.307 16.2568 269.979 16.7295 269.755C17.2023 269.53 17.7193 269.414 18.2427 269.414H105.814C106.619 269.415 107.399 269.69 108.026 270.194C108.653 270.699 109.089 271.402 109.263 272.187L118.983 315.898" stroke="#263238" stroke-linecap="round" stroke-linejoin="round"/>
</svg>
