<svg width="40" height="40" viewBox="0 0 40 40" fill="none" xmlns="http://www.w3.org/2000/svg" xmlns:xlink="http://www.w3.org/1999/xlink">
<path d="M0.211,8.506C-0.283,9.494 0.118,10.695 1.106,11.189C2.094,11.683 3.295,11.282 3.789,10.294L0.211,8.506ZM8.88,3.536C9.729,2.829 9.844,1.568 9.136,0.72C8.429,-0.129 7.168,-0.244 6.32,0.464L8.88,3.536ZM3.789,10.294C5.109,7.655 6.756,5.307 8.88,3.536L6.32,0.464C3.644,2.693 1.691,5.545 0.211,8.506L3.789,10.294Z" fill="#35C2C1"/>
<path d="M16,6L16.828,7.821C17.542,7.496 18,6.784 18,6L16,6ZM24,6L22,6C22,6.784 22.458,7.496 23.172,7.821L24,6ZM29.6,10.8L31.287,9.726C31.272,9.702 31.255,9.677 31.238,9.653L29.6,10.8ZM32,18L34,18C34,17.949 33.998,17.898 33.994,17.847L32,18ZM32,24L30,24C30,24.11 30.009,24.22 30.027,24.329L32,24ZM36,30L36,32C36.928,32 37.733,31.362 37.946,30.46C38.16,29.557 37.724,28.626 36.894,28.211L36,30ZM4,30L2.971,28.285C2.2,28.748 1.833,29.668 2.073,30.534C2.313,31.4 3.101,32 4,32L4,30ZM6.8,27.4L8.464,28.509C8.482,28.483 8.499,28.456 8.515,28.429L6.8,27.4ZM8,24L9.973,24.329C9.991,24.22 10,24.11 10,24L8,24ZM8,18L6.006,17.847C6.002,17.898 6,17.949 6,18L8,18ZM18,6C18,5.547 18.177,5.051 18.614,4.614L15.786,1.786C14.623,2.949 14,4.453 14,6L18,6ZM18.614,4.614C19.051,4.177 19.547,4 20,4L20,0C18.453,0 16.949,0.623 15.786,1.786L18.614,4.614ZM20,4C20.453,4 20.949,4.177 21.386,4.614L24.214,1.786C23.051,0.623 21.547,0 20,0L20,4ZM21.386,4.614C21.823,5.051 22,5.547 22,6L26,6C26,4.453 25.377,2.949 24.214,1.786L21.386,4.614ZM23.172,7.821C24.994,8.649 26.731,10.189 27.962,11.947L31.238,9.653C29.669,7.411 27.406,5.351 24.828,4.179L23.172,7.821ZM27.913,11.874C29.136,13.797 29.831,15.881 30.006,18.153L33.994,17.847C33.769,14.919 32.864,12.203 31.287,9.726L27.913,11.874ZM30,18L30,24L34,24L34,18L30,18ZM30.027,24.329C30.26,25.726 30.732,27.174 31.485,28.429L34.915,26.371C34.468,25.626 34.14,24.674 33.973,23.671L30.027,24.329ZM31.485,28.429C32.264,29.728 33.538,31.005 35.106,31.789L36.894,28.211C36.062,27.795 35.336,27.072 34.915,26.371L31.485,28.429ZM36,28L4,28L4,32L36,32L36,28ZM5.029,31.715C6.203,31.01 7.455,30.023 8.464,28.509L5.136,26.291C4.545,27.177 3.797,27.79 2.971,28.285L5.029,31.715ZM8.515,28.429C9.268,27.174 9.74,25.726 9.973,24.329L6.027,23.671C5.86,24.674 5.532,25.626 5.085,26.371L8.515,28.429ZM10,24L10,18L6,18L6,24L10,24ZM9.994,18.153C10.169,15.881 10.864,13.797 12.087,11.874L8.713,9.726C7.136,12.203 6.231,14.919 6.006,17.847L9.994,18.153ZM12.087,11.874C13.257,10.036 14.94,8.679 16.828,7.821L15.172,4.179C12.66,5.321 10.343,7.164 8.713,9.726L12.087,11.874Z" fill="#1E232C"/>
<path d="M14,30L14,28C12.895,28 12,28.895 12,30L14,30ZM15.8,36.2L17.336,34.92C17.259,34.827 17.173,34.741 17.08,34.664L15.8,36.2ZM24.2,36.2L22.786,34.786C22.743,34.829 22.702,34.873 22.664,34.92L24.2,36.2ZM26,30L28,30C28,28.895 27.105,28 26,28L26,30ZM12,30L12,32L16,32L16,30L12,30ZM12,32C12,34.053 12.765,36.275 14.52,37.736L17.08,34.664C16.435,34.125 16,33.148 16,32L12,32ZM14.264,37.48C15.725,39.235 17.947,40 20,40L20,36C18.852,36 17.875,35.565 17.336,34.92L14.264,37.48ZM20,40C22.053,40 24.275,39.235 25.736,37.48L22.664,34.92C22.125,35.565 21.148,36 20,36L20,40ZM25.614,37.614C27.164,36.064 28,34.165 28,32L24,32C24,33.035 23.636,33.936 22.786,34.786L25.614,37.614ZM28,32L28,30L24,30L24,32L28,32ZM26,28L14,28L14,32L26,32L26,28Z" fill="#1E232C"/>
<path d="M38,9.4L36.421,10.628C37.053,11.44 38.196,11.64 39.066,11.092C39.936,10.544 40.249,9.425 39.789,8.506L38,9.4ZM32.4,2L33.68,0.464C32.903,-0.184 31.765,-0.149 31.029,0.544C30.292,1.238 30.19,2.372 30.79,3.186L32.4,2ZM35.2,5.8L33.59,6.986C33.6,7 33.611,7.014 33.621,7.028L35.2,5.8ZM39.789,8.506C38.309,5.545 36.356,2.693 33.68,0.464L31.12,3.536C33.244,5.307 34.892,7.655 36.211,10.294L39.789,8.506ZM30.79,3.186L33.59,6.986L36.81,4.614L34.01,0.814L30.79,3.186ZM33.621,7.028L36.421,10.628L39.579,8.172L36.779,4.572L33.621,7.028Z" fill="#35C2C1"/>
</svg>
