<svg width="21" height="20" viewBox="0 0 21 20" fill="none" xmlns="http://www.w3.org/2000/svg">
    <g clip-path="url(#clip0_23_773)">
        <path d="M16.8086 3.2334C15.1581 1.58887 12.4732 1.58887 10.8226 3.2334L7.33276 6.71234L11.295 10.6621C12.1104 9.98518 13.1443 9.5613 14.2859 9.5613C14.9407 9.5613 15.5638 9.6969 16.1308 9.93902L16.8086 9.20077C18.4588 7.55577 18.4588 4.87887 16.8086 3.2334Z" fill="#1E232C"/>
        <path d="M10.6354 11.3305L6.66767 7.37524L3.25206 10.7835C1.60193 12.4285 1.60193 15.1054 3.25206 16.7509C4.90262 18.3953 7.61883 18.4267 9.26946 16.7821L9.96187 16.0885C9.71899 15.5233 9.58297 14.9022 9.58297 14.2494C9.583 13.1406 9.98739 12.1341 10.6354 11.3305Z" fill="#1E232C"/>
        <path d="M10.5236 14.2494C10.5236 16.1602 11.9623 17.7196 13.8156 17.9527V10.5461C11.9623 10.7792 10.5236 12.3386 10.5236 14.2494Z" fill="#35C2C1"/>
        <path d="M14.7562 10.5461V17.9527C16.6095 17.7196 18.0482 16.1602 18.0482 14.2494C18.0482 12.3386 16.6095 10.7792 14.7562 10.5461Z" fill="#35C2C1"/>
    </g>
    <defs>
        <clipPath id="clip0_23_773">
            <rect width="16.0502" height="16" fill="white" transform="translate(2.00629 2)"/>
        </clipPath>
    </defs>
</svg>
