<svg width="186" height="171" viewBox="0 0 186 171" fill="none" xmlns="http://www.w3.org/2000/svg">
    <g clip-path="url(#clip0_0_630)">
        <path d="M97.6713 43.0364C97.4903 43.0854 97.3363 43.204 97.2431 43.3661C97.1499 43.5282 97.1251 43.7206 97.1743 43.9009C97.1743 43.9009 97.6934 45.8499 97.4052 47.8945C97.2611 48.9168 96.9194 49.9379 96.2509 50.7626C95.5823 51.5872 94.5896 52.2486 92.9803 52.5465C92.8889 52.5633 92.8018 52.5979 92.7239 52.6483C92.6459 52.6987 92.5787 52.7639 92.5261 52.8401C92.4734 52.9163 92.4364 53.0022 92.4171 53.0927C92.3977 53.1832 92.3965 53.2766 92.4134 53.3676C92.4304 53.4585 92.4653 53.5453 92.5159 53.6229C92.5666 53.7005 92.6321 53.7673 92.7088 53.8197C92.7854 53.872 92.8717 53.9088 92.9626 53.928C93.0536 53.9471 93.1474 53.9483 93.2387 53.9313C95.1263 53.582 96.4746 52.7297 97.352 51.6475C98.2293 50.5653 98.6377 49.2865 98.8064 48.0899C99.1437 45.6968 98.5403 43.5318 98.5403 43.5318C98.5159 43.4424 98.4741 43.3587 98.4173 43.2854C98.3604 43.2122 98.2896 43.1508 98.2089 43.1048C98.1282 43.0587 98.0392 43.029 97.947 43.0173C97.8547 43.0055 97.761 43.012 97.6713 43.0364Z" fill="black"/>
        <path d="M104.976 56.943C104.792 56.981 104.631 57.0901 104.528 57.2463C102.661 60.0847 100.357 60.6046 98.4017 60.5025C96.4469 60.4004 94.9413 59.6042 94.9413 59.6042C94.776 59.5158 94.5822 59.4964 94.4025 59.5503C94.2229 59.6042 94.0721 59.7269 93.9833 59.8915C93.8945 60.0561 93.875 60.249 93.9291 60.4279C93.9833 60.6068 94.1065 60.757 94.2718 60.8454C94.2718 60.8454 96.025 61.7895 98.328 61.9097C100.631 62.0299 103.583 61.2536 105.712 58.0182C105.814 57.862 105.851 57.6715 105.812 57.4887C105.774 57.3059 105.665 57.1457 105.508 57.0432C105.43 56.9925 105.343 56.9576 105.252 56.9404C105.16 56.9232 105.067 56.9241 104.976 56.943Z" fill="black"/>
        <path d="M107.25 43.2605C107.063 43.2418 106.876 43.2978 106.731 43.4159C106.586 43.5341 106.494 43.7048 106.475 43.8907C106.341 45.2057 106.682 46.2725 107.342 46.9681C108.002 47.6637 108.928 47.9524 109.814 47.9016C110.7 47.8507 111.575 47.4726 112.213 46.7881C112.851 46.1035 113.221 45.0972 113.086 43.9424C113.075 43.8504 113.046 43.7615 113.001 43.6806C112.956 43.5997 112.895 43.5286 112.822 43.4711C112.749 43.4136 112.666 43.371 112.576 43.3457C112.487 43.3204 112.393 43.313 112.301 43.3237C112.115 43.3454 111.945 43.4398 111.828 43.5862C111.712 43.7326 111.659 43.9191 111.68 44.1045C111.772 44.8931 111.545 45.4338 111.176 45.8303C110.806 46.2269 110.263 46.4645 109.733 46.495C109.202 46.5254 108.713 46.3612 108.371 46.0008C108.028 45.6404 107.779 45.0482 107.883 44.0324C107.892 43.9403 107.883 43.8473 107.856 43.7587C107.829 43.6701 107.785 43.5875 107.727 43.5159C107.668 43.4442 107.595 43.3847 107.514 43.3409C107.432 43.2971 107.342 43.2698 107.25 43.2605Z" fill="black"/>
        <path d="M92.7058 43.5573C92.5189 43.5737 92.3463 43.6634 92.2258 43.8066C92.1053 43.9498 92.0468 44.1348 92.0633 44.3209C92.1466 45.2649 91.9053 45.8516 91.5535 46.2351C91.2016 46.6185 90.6974 46.8185 90.151 46.8269C89.058 46.8439 87.916 46.1604 87.8475 44.575C87.8435 44.4826 87.8212 44.3919 87.782 44.308C87.7427 44.2241 87.6873 44.1487 87.6188 44.0861C87.5504 44.0236 87.4702 43.9751 87.3829 43.9434C87.2955 43.9117 87.2028 43.8974 87.11 43.9014C87.0171 43.9054 86.926 43.9276 86.8417 43.9666C86.7575 44.0057 86.6818 44.0609 86.619 44.129C86.5561 44.1972 86.5074 44.2771 86.4756 44.364C86.4438 44.4509 86.4294 44.5432 86.4334 44.6357C86.5324 46.9241 88.3969 48.2627 90.1728 48.2354C91.0607 48.2217 91.9572 47.8836 92.5981 47.1851C93.239 46.4867 93.5832 45.4482 93.4728 44.197C93.4563 44.011 93.3662 43.839 93.2224 43.7191C93.0786 43.5991 92.8928 43.5409 92.7058 43.5573Z" fill="black"/>
        <path d="M90.5005 39.5974C87.059 39.5974 84.2537 42.3904 84.2537 45.8168C84.2537 49.2432 87.059 52.0362 90.5005 52.0362C93.9419 52.0362 96.7472 49.2432 96.7472 45.8168C96.7472 42.3904 93.9419 39.5974 90.5005 39.5974ZM90.5005 41.0091C93.1757 41.0091 95.3293 43.1533 95.3293 45.8168C95.3293 48.4803 93.1757 50.6246 90.5005 50.6246C87.8253 50.6246 85.6716 48.4803 85.6716 45.8168C85.6716 43.1533 87.8253 41.0091 90.5005 41.0091Z" fill="black"/>
        <path d="M109.213 38.6143C105.557 38.6143 102.578 41.5803 102.578 45.22C102.578 48.8596 105.557 51.825 109.213 51.825C112.868 51.825 115.847 48.8596 115.847 45.22C115.847 41.5803 112.868 38.6142 109.213 38.6143ZM109.213 40.0208C112.105 40.0208 114.435 42.3404 114.435 45.22C114.434 48.0995 112.105 50.4184 109.213 50.4184C106.32 50.4184 103.991 48.0995 103.991 45.22C103.991 42.3404 106.32 40.0208 109.213 40.0208Z" fill="black"/>
        <path d="M99.4868 39.6396C97.7207 39.4807 95.8979 40.1172 94.0557 41.373C93.9791 41.4253 93.9135 41.4921 93.8627 41.5696C93.812 41.6471 93.777 41.7338 93.76 41.8248C93.7429 41.9157 93.7439 42.0092 93.7631 42.0997C93.7823 42.1903 93.8192 42.2761 93.8717 42.3525C93.9242 42.4288 93.9913 42.4941 94.0691 42.5447C94.147 42.5952 94.2341 42.63 94.3254 42.647C94.4168 42.664 94.5106 42.6629 94.6016 42.6439C94.6925 42.6248 94.7788 42.588 94.8554 42.5357C96.5233 41.3987 98.0184 40.9223 99.3592 41.043C100.7 41.1635 101.965 41.868 103.215 43.3574C103.335 43.5007 103.508 43.5906 103.694 43.6072C103.881 43.6239 104.067 43.5659 104.211 43.4462C104.355 43.3264 104.445 43.1545 104.462 42.9684C104.479 42.7824 104.421 42.5973 104.3 42.454C102.884 40.7659 101.253 39.7985 99.4868 39.6396Z" fill="black"/>
        <path d="M109.926 34.4297C108.292 34.3066 106.605 34.7235 104.94 35.6128C104.858 35.6566 104.785 35.7159 104.726 35.7875C104.668 35.8591 104.623 35.9416 104.597 36.0302C104.57 36.1187 104.561 36.2117 104.57 36.3038C104.579 36.3958 104.606 36.4852 104.65 36.5667C104.694 36.6483 104.754 36.7204 104.826 36.779C104.898 36.8376 104.981 36.8816 105.07 36.9083C105.159 36.9351 105.252 36.9441 105.344 36.9349C105.437 36.9257 105.527 36.8984 105.608 36.8547C108.595 35.2597 111.123 35.3262 113.67 37.5481C113.811 37.6712 113.996 37.7334 114.183 37.7211C114.37 37.7088 114.545 37.6228 114.669 37.4823C114.792 37.3418 114.855 37.1581 114.842 36.9717C114.83 36.7853 114.744 36.6113 114.603 36.4882C113.144 35.216 111.561 34.5529 109.926 34.4297Z" fill="black"/>
        <path d="M91.7939 34.9059C88.7118 34.8536 86.3442 36.0025 84.7558 38.1385C84.6442 38.2886 84.5971 38.4768 84.6247 38.6615C84.6524 38.8462 84.7526 39.0125 84.9033 39.1237C84.978 39.1788 85.0629 39.2187 85.153 39.2411C85.2432 39.2636 85.337 39.2682 85.4289 39.2546C85.5209 39.2409 85.6093 39.2094 85.689 39.1617C85.7687 39.1141 85.8381 39.0512 85.8935 38.9768C87.6894 36.5617 90.3719 35.6481 94.7714 36.7345C94.9536 36.7793 95.1461 36.7503 95.3068 36.6538C95.4675 36.5573 95.5831 36.4012 95.6282 36.2199C95.6732 36.0386 95.6442 35.8469 95.5474 35.687C95.4506 35.527 95.294 35.4119 95.1119 35.3669C93.9282 35.0746 92.8213 34.9233 91.7939 34.9059Z" fill="black"/>
        <path d="M120.997 48.3026C120.81 48.2907 120.626 48.3534 120.485 48.4769C120.344 48.6003 120.258 48.7744 120.246 48.9608C119.877 54.7328 118.13 58.6044 115.32 61.0689C115.25 61.1301 115.193 61.2043 115.152 61.2874C115.111 61.3705 115.087 61.4608 115.081 61.5532C115.075 61.6456 115.088 61.7383 115.118 61.8258C115.148 61.9134 115.195 61.9942 115.257 62.0637C115.381 62.2038 115.556 62.2891 115.743 62.3008C115.93 62.3125 116.114 62.2497 116.255 62.1262C119.401 59.3669 121.273 55.0663 121.659 49.0502C121.67 48.8638 121.607 48.6803 121.483 48.5401C121.359 48.3999 121.185 48.3144 120.997 48.3026Z" fill="black"/>
        <path d="M125.122 40.0999C124.839 40.1338 124.553 40.2094 124.272 40.3291C123.06 40.8446 122.229 42.0434 121.598 43.0873C120.966 44.1315 120.577 45.0717 120.577 45.0717C120.542 45.1573 120.524 45.249 120.524 45.3416C120.524 45.4342 120.542 45.5258 120.578 45.6113C120.613 45.6968 120.666 45.7745 120.732 45.8399C120.797 45.9053 120.876 45.9571 120.962 45.9924C121.135 46.0637 121.33 46.0635 121.503 45.9918C121.676 45.9201 121.814 45.7827 121.886 45.61C121.886 45.61 122.24 44.7573 122.81 43.8139C123.381 42.8705 124.21 41.8873 124.828 41.6246C125.538 41.322 125.951 41.4331 126.352 41.841C126.754 42.2489 127.092 43.0882 127.106 44.2666C127.124 45.7114 126.85 48.6885 123.482 52.5292C123.481 52.5302 123.48 52.5313 123.478 52.5324C123.341 52.6899 122.609 53.2025 122.12 53.2839C121.876 53.3246 121.728 53.2957 121.607 53.2092C121.485 53.1226 121.317 52.9213 121.215 52.3875C121.197 52.2966 121.162 52.21 121.111 52.1327C121.06 52.0553 120.994 51.9887 120.917 51.9367C120.84 51.8847 120.754 51.8484 120.663 51.8296C120.572 51.8109 120.478 51.8102 120.387 51.8275C120.295 51.8449 120.208 51.88 120.131 51.9308C120.053 51.9817 119.986 52.0473 119.934 52.1239C119.882 52.2005 119.845 52.2867 119.826 52.3774C119.808 52.468 119.807 52.5615 119.824 52.6525C119.971 53.4165 120.293 54.006 120.783 54.3553C121.273 54.7046 121.859 54.7562 122.354 54.6739C123.341 54.5095 124.105 53.9626 124.546 53.4569C128.131 49.3678 128.54 45.9259 128.519 44.252C128.503 42.825 128.126 41.6331 127.361 40.8559C126.787 40.2731 125.966 39.9996 125.118 40.1013L125.122 40.0999Z" fill="black"/>
        <path d="M92.3358 0.0348497C88.3996 -0.0995065 76.7567 -0.379788 68.1927 10.6713C67.1089 12.0709 65.7259 14.4122 65.4018 17.427C65.0778 20.4417 65.8527 24.1089 68.9616 27.9906C70.7885 30.2679 77.5309 36.0839 91.068 33.0965C94.0735 32.4344 102.244 29.9656 107.508 21.1659C108.218 23.6208 109.955 28.3917 113.651 31.8528C116.259 34.2949 119.716 35.4289 122.994 35.4525C126.272 35.476 129.408 34.4016 131.366 32.2703C135.419 27.8651 138.041 19.6708 132.356 9.22319C131.081 6.87875 129.06 4.52565 126.353 3.06826C123.647 1.61084 120.24 1.08869 116.405 2.41382C114.141 3.19655 110.719 4.95074 108.163 9.31513C106.724 6.91757 101.986 0.360966 92.3352 0.0348497H92.3358ZM92.2871 1.44269C103.21 1.81183 107.536 11.0192 107.536 11.0192C107.593 11.1389 107.682 11.2403 107.794 11.3117C107.906 11.3832 108.036 11.4217 108.169 11.4231C108.302 11.4245 108.432 11.3887 108.546 11.3196C108.659 11.2506 108.751 11.1511 108.81 11.0326C111.225 6.19218 114.61 4.52621 116.869 3.74505C120.357 2.53996 123.278 3.01406 125.68 4.30754C128.082 5.60099 129.948 7.75358 131.112 9.89423C136.565 19.9171 133.999 27.3222 130.323 31.3184C128.719 33.0637 125.961 34.0641 123.005 34.0427C120.048 34.0215 116.932 32.99 114.621 30.8261C109.925 26.4286 108.461 19.2581 108.461 19.2581C108.433 19.1144 108.36 18.9831 108.253 18.8823C108.146 18.7816 108.011 18.7165 107.865 18.696C107.72 18.6756 107.571 18.7008 107.441 18.7683C107.31 18.8357 107.204 18.942 107.137 19.0723C102.208 28.634 93.7632 31.0597 90.7633 31.7206C77.7001 34.6037 71.5787 28.9928 70.0691 27.1114C67.1567 23.4747 66.5234 20.2436 66.81 17.577C67.0966 14.9105 68.3433 12.7867 69.3149 11.5319C77.4961 0.975251 88.3707 1.30963 92.2883 1.44333L92.2871 1.44269Z" fill="black"/>
        <path fill-rule="evenodd" clip-rule="evenodd" d="M107.766 19.395C107.766 19.395 109.218 26.7338 114.136 31.3399C119.055 35.9459 127.283 35.6713 130.845 31.7943C134.71 27.5936 137.304 19.7938 131.735 9.55851C129.296 5.07343 123.96 0.549105 116.638 3.07932C114.284 3.8933 110.682 5.69783 108.177 10.719C108.177 10.719 103.629 1.12121 92.3115 0.738736C88.3846 0.604707 77.1258 0.297404 68.7532 11.1015C66.6978 13.7559 63.4933 20.0324 69.515 27.5511C71.1829 29.6302 77.6151 35.3444 90.916 32.4088C94.0024 31.7289 102.71 29.2053 107.766 19.395Z" fill="black"/>
        <path d="M122.596 34.0433C122.503 34.0543 122.414 34.0833 122.333 34.1286C122.252 34.1739 122.181 34.2347 122.123 34.3074C122.066 34.3802 122.023 34.4635 121.998 34.5526C121.973 34.6417 121.966 34.7349 121.977 34.8268C121.977 34.8268 122.566 40.2427 121.339 43.5509C121.274 43.7262 121.282 43.92 121.36 44.0896C121.439 44.2593 121.582 44.3909 121.758 44.4556C121.934 44.5203 122.129 44.5127 122.299 44.4345C122.469 44.3563 122.602 44.214 122.667 44.0387C124.106 40.1551 123.382 34.6588 123.382 34.6588C123.36 34.4733 123.265 34.3043 123.117 34.1888C122.969 34.0734 122.782 34.0211 122.596 34.0433Z" fill="black"/>
        <path d="M132.387 28.9144C132.202 28.9479 132.038 29.053 131.932 29.2066C131.825 29.3602 131.784 29.5498 131.817 29.7336C131.817 29.7336 133.122 36.6914 127.234 42.9162C127.17 42.9836 127.12 43.0628 127.087 43.1493C127.055 43.2358 127.039 43.328 127.042 43.4205C127.045 43.513 127.066 43.604 127.104 43.6884C127.142 43.7728 127.196 43.8488 127.264 43.9123C127.332 43.9757 127.411 44.0253 127.498 44.0581C127.585 44.0909 127.678 44.1064 127.771 44.1036C127.864 44.1008 127.955 44.0798 128.04 44.0418C128.124 44.0038 128.201 43.9496 128.265 43.8822C134.591 37.1945 133.21 29.4807 133.21 29.4807C133.176 29.297 133.07 29.1342 132.916 29.028C132.762 28.9218 132.571 28.881 132.387 28.9144Z" fill="black"/>
        <path d="M131.947 34.1353C128.919 35.8712 125.926 36.3157 122.864 36.1414C122.677 36.1309 122.493 36.1948 122.353 36.3192C122.213 36.4436 122.128 36.6183 122.118 36.8048C122.107 36.9912 122.171 37.1742 122.296 37.3136C122.421 37.4529 122.596 37.5372 122.783 37.548C126.039 37.7333 129.363 37.243 132.653 35.3567C132.733 35.3106 132.804 35.2491 132.861 35.1757C132.917 35.1024 132.959 35.0187 132.983 34.9293C133.007 34.84 133.014 34.7468 133.002 34.655C132.99 34.5633 132.96 34.4747 132.913 34.3945C132.867 34.3143 132.805 34.244 132.731 34.1876C132.658 34.1312 132.574 34.0897 132.484 34.0656C132.394 34.0416 132.3 34.0353 132.208 34.0473C132.116 34.0592 132.027 34.0892 131.947 34.1353Z" fill="black"/>
        <path d="M131.073 37.0123C128.412 38.7619 125.687 39.382 122.819 39.1761C122.632 39.1626 122.447 39.2238 122.305 39.346C122.163 39.4683 122.076 39.6416 122.063 39.828C122.049 40.0143 122.11 40.1984 122.233 40.3397C122.356 40.481 122.53 40.5679 122.717 40.5814C125.858 40.8069 128.945 40.0994 131.852 38.1877C131.93 38.1368 131.997 38.0711 132.049 37.9944C132.101 37.9178 132.137 37.8317 132.156 37.741C132.175 37.6504 132.175 37.5569 132.157 37.4661C132.14 37.3752 132.104 37.2887 132.053 37.2115C131.95 37.0556 131.788 36.9471 131.604 36.9097C131.42 36.8724 131.229 36.9093 131.073 37.0123Z" fill="black"/>
        <path d="M114.251 41.324C114.064 41.3101 113.879 41.3708 113.737 41.4927C113.595 41.6146 113.507 41.7877 113.493 41.9739C113.479 42.1602 113.54 42.3443 113.663 42.4858C113.785 42.6273 113.959 42.7146 114.146 42.7286L122.302 43.3371C122.489 43.3509 122.674 43.2902 122.816 43.1683C122.958 43.0464 123.046 42.8733 123.06 42.6871C123.067 42.5948 123.055 42.5021 123.026 42.4142C122.997 42.3263 122.951 42.2449 122.891 42.1748C122.83 42.1047 122.756 42.0471 122.673 42.0054C122.59 41.9637 122.5 41.9387 122.407 41.9318L114.251 41.324Z" fill="black"/>
        <path d="M78.0794 49.3311C77.9874 49.3438 77.8987 49.3745 77.8186 49.4214C77.7385 49.4682 77.6683 49.5303 77.6123 49.6041C77.5563 49.6779 77.5154 49.762 77.492 49.8515C77.4686 49.9411 77.4632 50.0344 77.476 50.126C77.476 50.126 79.1019 62.2498 88.1085 68.3456C88.865 68.857 92.1828 71.2353 96.8191 71.9843C101.455 72.7333 107.48 71.8244 113.558 66.0426C113.694 65.9136 113.772 65.7361 113.777 65.5493C113.781 65.3625 113.71 65.1817 113.581 65.0466C113.517 64.9796 113.44 64.9259 113.355 64.8885C113.27 64.8511 113.178 64.8307 113.085 64.8285C112.992 64.8264 112.9 64.8426 112.813 64.876C112.726 64.9095 112.647 64.9597 112.58 65.0237C106.782 70.5395 101.323 71.2848 97.046 70.5938C92.7686 69.9028 89.7427 67.7472 88.9035 67.1798C80.5608 61.5334 78.877 49.9314 78.877 49.9314C78.8512 49.7465 78.7527 49.5793 78.6031 49.4666C78.4535 49.354 78.2651 49.305 78.0793 49.3306L78.0794 49.3311Z" fill="black"/>
        <path d="M79.6325 32.1676C79.4499 32.1247 79.2576 32.1559 79.098 32.2542C78.9384 32.3525 78.8246 32.5099 78.7816 32.6918C78.7816 32.6918 78.3883 34.3491 78.0665 36.4639C77.906 37.5185 77.7597 38.6848 77.6901 39.8331C77.4944 39.5747 77.2762 39.3259 77.0283 39.1033C76.5212 38.6481 75.8652 38.2899 75.0974 38.2752C74.2511 38.2589 73.4761 38.7321 72.8535 39.4551C72.231 40.1782 71.7372 41.1822 71.4632 42.4158C70.9152 44.8829 71.2638 48.2703 73.4499 52.1181C73.7323 52.6139 74.3778 53.7965 75.4623 54.4517C76.0045 54.7793 76.7498 54.9514 77.4599 54.6624C78.1699 54.3734 78.7595 53.7257 79.2972 52.6933C79.34 52.6112 79.3661 52.5215 79.3741 52.4293C79.382 52.337 79.3717 52.2441 79.3436 52.1559C79.3155 52.0677 79.2702 51.9858 79.2103 51.915C79.1504 51.8442 79.077 51.7859 78.9945 51.7433C78.8279 51.6574 78.6338 51.6409 78.455 51.6974C78.2762 51.7539 78.1272 51.8788 78.0409 52.0447C77.5902 52.9099 77.1781 53.2547 76.9244 53.358C76.6707 53.4613 76.4903 53.425 76.1965 53.2475C75.6092 52.8928 74.9414 51.8792 74.6818 51.4234C72.6393 47.828 72.3842 44.7986 72.8458 42.7203C73.0766 41.6811 73.4906 40.8804 73.9283 40.372C74.366 39.8636 74.8037 39.6786 75.0704 39.6837C75.4174 39.6903 75.7427 39.846 76.0811 40.1498C76.4196 40.4537 76.7411 40.8981 77.002 41.3565C77.5239 42.2733 77.7997 43.2037 77.7997 43.2037C77.8505 43.3746 77.9645 43.52 78.1187 43.6106C78.2729 43.7012 78.4559 43.7302 78.6307 43.6918C78.8056 43.6535 78.9593 43.5506 79.061 43.4038C79.1626 43.2571 79.2046 43.0774 79.1785 42.901C78.9253 41.2451 79.1539 38.73 79.4665 36.6752C79.7791 34.6204 80.1597 33.0155 80.1597 33.0155C80.1811 32.9254 80.1844 32.832 80.1695 32.7406C80.1547 32.6492 80.1218 32.5616 80.0729 32.4829C80.0241 32.4041 79.96 32.3358 79.8846 32.2817C79.8091 32.2276 79.7237 32.1888 79.6332 32.1676H79.6325Z" fill="black"/>
        <path d="M70.4975 27.8578C70.3101 27.8473 70.1263 27.9112 69.9863 28.0356C69.8463 28.16 69.7617 28.3347 69.751 28.5212C69.751 28.5212 69.6226 30.7529 69.8126 33.5198C70.0025 36.2868 70.4754 39.5965 71.8435 41.9126C71.8906 41.9924 71.9531 42.0622 72.0272 42.118C72.1014 42.1737 72.186 42.2144 72.2759 42.2376C72.3659 42.2609 72.4596 42.2662 72.5517 42.2534C72.6438 42.2406 72.7324 42.2099 72.8125 42.1629C72.8926 42.116 72.9626 42.0538 73.0186 41.9799C73.0745 41.906 73.1153 41.8218 73.1386 41.7323C73.1619 41.6427 73.1672 41.5494 73.1543 41.4578C73.1413 41.3662 73.1104 41.2779 73.0632 41.1982C71.9327 39.2842 71.4082 36.0968 71.2247 33.4241C71.0412 30.7514 71.1638 28.6016 71.1638 28.6016C71.1691 28.5092 71.1561 28.4167 71.1255 28.3293C71.0949 28.2419 71.0473 28.1614 70.9854 28.0923C70.9235 28.0232 70.8486 27.9669 70.7648 27.9267C70.6811 27.8865 70.5903 27.8631 70.4975 27.8578Z" fill="black"/>
        <path d="M70.527 30.623C70.435 30.6096 70.3413 30.6144 70.2512 30.6371C70.1611 30.6597 70.0763 30.6999 70.0018 30.7552C69.8513 30.8668 69.7514 31.0334 69.7243 31.2182C69.6971 31.4031 69.7448 31.5911 69.8568 31.741C69.8568 31.741 70.498 32.5713 71.9288 33.3985C73.3597 34.2257 75.6265 35.1131 79.0061 35.4474C79.1928 35.4658 79.3793 35.4097 79.5244 35.2913C79.6696 35.1728 79.7615 35.0018 79.7801 34.8159C79.7986 34.63 79.7422 34.4443 79.6233 34.2998C79.5043 34.1553 79.3326 34.0637 79.1459 34.0453C75.9488 33.729 73.8902 32.9034 72.6394 32.1803C71.3885 31.4572 70.9919 30.8995 70.9919 30.8995C70.8799 30.7496 70.7126 30.6502 70.527 30.623Z" fill="black"/>
        <path d="M70.8098 34.685C70.6247 34.6553 70.4354 34.6998 70.2833 34.8089C70.2078 34.863 70.1438 34.9314 70.0949 35.0101C70.0461 35.0888 70.0132 35.1764 69.9984 35.2678C69.9835 35.3592 69.9868 35.4525 70.0082 35.5426C70.0296 35.6327 70.0686 35.7177 70.123 35.7928C70.123 35.7928 70.2949 36.018 70.5892 36.264C70.8835 36.51 71.3323 36.8208 71.9795 37.1259C73.274 37.7363 75.3579 38.3243 78.6027 38.3729C78.7903 38.3757 78.9713 38.3043 79.106 38.1742C79.2407 38.0442 79.318 37.8663 79.3209 37.6795C79.3223 37.587 79.3054 37.4951 79.2711 37.409C79.2369 37.323 79.1859 37.2446 79.1212 37.1782C79.0564 37.1118 78.9792 37.0587 78.8939 37.022C78.8085 36.9854 78.7168 36.9658 78.6238 36.9644C75.5415 36.9182 73.6674 36.3623 72.5855 35.8522C72.0446 35.5971 71.7005 35.3533 71.4992 35.185C71.2978 35.0167 71.2709 34.9679 71.2709 34.9679C71.1609 34.8165 70.9951 34.7147 70.8098 34.685Z" fill="black"/>
        <path d="M78.3788 40.8514C78.1912 40.8465 78.0094 40.916 77.8732 41.0446C77.7371 41.1732 77.6579 41.3504 77.6529 41.5372C77.6505 41.6297 77.6664 41.7218 77.6997 41.8082C77.7331 41.8946 77.7832 41.9736 77.8472 42.0408C77.9112 42.1079 77.9879 42.1618 78.0728 42.1994C78.1578 42.237 78.2494 42.2576 78.3423 42.2599C78.3423 42.2599 82.6617 42.3802 85.9351 43.1563C86.0255 43.1778 86.1193 43.1813 86.211 43.1666C86.3028 43.152 86.3907 43.1194 86.4699 43.0709C86.549 43.0225 86.6178 42.9589 86.6723 42.884C86.7268 42.809 86.7659 42.7241 86.7874 42.6341C86.8309 42.4524 86.8001 42.2609 86.7019 42.1018C86.6036 41.9427 86.4459 41.8289 86.2635 41.7855C82.7535 40.9533 78.3788 40.8514 78.3788 40.8514Z" fill="black"/>
        <path d="M87.5954 69.3965C87.5047 69.3764 87.4109 69.3742 87.3193 69.3902C87.2278 69.4062 87.1403 69.44 87.0618 69.4897C87.0618 69.4897 77.5454 75.432 77.9062 84.7365C77.9115 84.874 77.9571 85.0069 78.0374 85.1189C78.1177 85.2309 78.2292 85.317 78.3581 85.3666C78.487 85.4163 78.6276 85.4273 78.7627 85.3982C78.8978 85.3692 79.0214 85.3014 79.1182 85.2033C79.1182 85.2033 80.9565 83.3461 82.9101 81.9802C83.887 81.2973 84.9055 80.7545 85.6016 80.6133C85.9497 80.5427 86.1896 80.5697 86.3378 80.6381C86.4861 80.7065 86.609 80.812 86.729 81.1495C86.76 81.2368 86.808 81.3171 86.8702 81.3859C86.9324 81.4547 87.0076 81.5106 87.0915 81.5505C87.1754 81.5903 87.2664 81.6133 87.3592 81.6181C87.4521 81.623 87.545 81.6095 87.6326 81.5786C87.7202 81.5477 87.8009 81.4999 87.87 81.438C87.9391 81.3761 87.9952 81.3012 88.0353 81.2177C88.0753 81.1341 88.0984 81.0435 88.1032 80.9511C88.1081 80.8587 88.0946 80.7662 88.0635 80.6789C87.8495 80.0773 87.4477 79.5974 86.9329 79.3598C86.4182 79.1223 85.8568 79.123 85.3188 79.2321C84.2428 79.4504 83.1489 80.0917 82.097 80.8271C81.072 81.5437 80.1134 82.3597 79.385 83.0151C80.1738 75.6226 87.8224 70.6778 87.8224 70.6778C87.9806 70.5774 88.0923 70.4187 88.133 70.2363C88.1736 70.054 88.1399 69.863 88.0392 69.7054C87.9382 69.5479 87.7786 69.4368 87.5954 69.3965Z" fill="black"/>
        <path d="M92.1088 71.3311C92.0218 71.2983 91.9293 71.2829 91.8363 71.2857C91.7434 71.2886 91.652 71.3097 91.5672 71.3477C91.4825 71.3858 91.4061 71.4401 91.3425 71.5076C91.2788 71.5751 91.2291 71.6544 91.1962 71.741C91.1962 71.741 86.2586 84.6965 87.2915 98.4594C87.2984 98.5516 87.3235 98.6416 87.3654 98.7242C87.4073 98.8069 87.4651 98.8804 87.5355 98.9408C87.606 99.0011 87.6877 99.0471 87.776 99.076C87.8643 99.105 87.9574 99.1163 88.0501 99.1093C88.1428 99.1024 88.2332 99.0774 88.3162 99.0357C88.3991 98.994 88.473 98.9364 88.5337 98.8663C88.5943 98.7962 88.6404 98.7149 88.6695 98.627C88.6985 98.5391 88.7099 98.4463 88.7029 98.354C87.7001 84.9907 92.5205 72.239 92.5205 72.239C92.5868 72.0642 92.5807 71.8705 92.5035 71.7002C92.4263 71.5299 92.2843 71.3971 92.1088 71.3311Z" fill="black"/>
        <path d="M104.693 74.6984C104.512 74.746 104.357 74.8633 104.262 75.0246C104.262 75.0246 97.9404 85.7686 96.6453 96.9104C96.6237 97.096 96.677 97.2825 96.7936 97.4289C96.9101 97.5753 97.0803 97.6697 97.2667 97.6912C97.359 97.7019 97.4526 97.6943 97.542 97.6689C97.6314 97.6435 97.7148 97.6009 97.7877 97.5434C97.8605 97.4858 97.9213 97.4146 97.9664 97.3337C98.0116 97.2528 98.0403 97.1639 98.051 97.0719C99.2972 86.3506 105.485 75.7346 105.485 75.7346C105.579 75.5732 105.606 75.3811 105.558 75.2004C105.51 75.0197 105.392 74.8653 105.23 74.7712C105.15 74.7245 105.061 74.6941 104.969 74.6816C104.877 74.6691 104.783 74.6748 104.693 74.6984Z" fill="black"/>
        <path d="M90.4665 75.5885C90.279 75.5972 90.1028 75.6796 89.9764 75.8176C89.85 75.9557 89.7838 76.1381 89.7925 76.3247C89.8967 78.5785 90.3952 80.3127 91.2642 81.5513C92.1332 82.7898 93.4042 83.4905 94.808 83.5995C97.6156 83.8175 100.862 81.944 103.938 78.6015C104.001 78.5332 104.049 78.4533 104.081 78.3664C104.113 78.2794 104.127 78.1871 104.123 78.0947C104.119 78.0023 104.096 77.9115 104.057 77.8277C104.018 77.7438 103.962 77.6686 103.894 77.6061C103.825 77.5436 103.745 77.4952 103.658 77.4636C103.57 77.4321 103.477 77.4179 103.385 77.422C103.292 77.4261 103.201 77.4484 103.116 77.4875C103.032 77.5267 102.957 77.5819 102.894 77.6502C99.9838 80.813 96.9725 82.3544 94.9183 82.1948C93.8912 82.1151 93.0802 81.6788 92.4249 80.7449C91.7697 79.8109 91.3019 78.3372 91.2059 76.2596C91.1971 76.073 91.1144 75.8974 90.9757 75.7716C90.8371 75.6458 90.6539 75.5799 90.4665 75.5885Z" fill="black"/>
        <path d="M113.047 70.4123C112.955 70.3997 112.862 70.4053 112.772 70.4288C112.682 70.4522 112.598 70.493 112.523 70.549C112.449 70.6048 112.387 70.6747 112.34 70.7545C112.293 70.8344 112.263 70.9227 112.25 71.0143C112.237 71.106 112.243 71.1993 112.266 71.2888C112.29 71.3783 112.331 71.4623 112.387 71.536C112.387 71.536 113.436 72.9082 113.742 75.1945C114.028 77.3342 113.642 80.2348 110.959 83.5586C110.434 82.845 109.594 81.771 108.393 80.7416C107.525 79.9974 106.567 79.3528 105.477 79.298C104.932 79.2706 104.352 79.4301 103.879 79.8024C103.405 80.1747 103.04 80.7259 102.757 81.4497C102.723 81.5359 102.707 81.6278 102.708 81.7203C102.71 81.8128 102.731 81.9041 102.768 81.9888C102.805 82.0735 102.859 82.1501 102.926 82.2142C102.993 82.2782 103.072 82.3285 103.159 82.3621C103.245 82.3957 103.338 82.412 103.431 82.41C103.524 82.4081 103.615 82.3879 103.7 82.3507C103.786 82.3134 103.862 82.2598 103.927 82.193C103.991 82.1261 104.041 82.0474 104.075 81.9611C104.296 81.3969 104.543 81.076 104.756 80.9083C104.97 80.7405 105.152 80.6924 105.406 80.7052C105.914 80.7307 106.71 81.159 107.47 81.8098C108.988 83.1114 110.348 85.1024 110.348 85.1024C110.408 85.1917 110.488 85.266 110.581 85.3197C110.675 85.3735 110.78 85.4051 110.887 85.4123C110.995 85.4195 111.103 85.4021 111.203 85.3613C111.303 85.3206 111.392 85.2575 111.464 85.1771C114.916 81.3004 115.498 77.6496 115.145 75.0087C114.792 72.3679 113.515 70.6849 113.515 70.6849C113.459 70.6112 113.389 70.5491 113.308 70.5023C113.228 70.4556 113.14 70.425 113.047 70.4123Z" fill="black"/>
        <path d="M42.7894 93.5961C31.2556 93.7458 22.4722 95.2108 22.4722 95.2108C22.2879 95.2414 22.1232 95.3434 22.0141 95.4944C21.905 95.6455 21.8604 95.8335 21.8899 96.0172C22.606 100.464 23.1127 104.747 23.4297 108.882C23.444 109.068 23.532 109.241 23.6744 109.363C23.8168 109.484 24.0019 109.545 24.1889 109.531C24.2816 109.524 24.372 109.499 24.455 109.457C24.5379 109.415 24.6118 109.357 24.6724 109.287C24.7329 109.217 24.779 109.136 24.8079 109.048C24.8369 108.96 24.8482 108.867 24.8411 108.775C24.5382 104.823 24.0488 100.729 23.3867 96.5012C25.1042 96.2326 35.24 94.737 47.8505 95.0295C61.6413 95.3493 77.811 97.9299 87.3793 106.61C87.4494 106.673 87.5316 106.722 87.621 106.753C87.7104 106.785 87.8052 106.798 87.8999 106.792C87.9945 106.786 88.087 106.762 88.1718 106.719C88.2567 106.677 88.3322 106.619 88.3938 106.547C88.3938 106.547 89.0636 105.745 91.1937 104.496C93.3238 103.247 96.8624 101.612 102.438 100.143C113.494 97.2295 132.596 94.9809 164.505 97.6377C164.256 98.7097 162.875 104.775 162.11 113.939C162.103 114.031 162.113 114.124 162.142 114.212C162.17 114.3 162.215 114.382 162.276 114.452C162.336 114.523 162.409 114.581 162.492 114.623C162.574 114.666 162.665 114.691 162.757 114.699C162.85 114.707 162.943 114.696 163.032 114.668C163.12 114.64 163.202 114.594 163.273 114.534C163.344 114.475 163.403 114.402 163.445 114.319C163.488 114.237 163.513 114.147 163.521 114.055C164.347 104.15 166.045 97.1569 166.045 97.1569C166.068 97.0582 166.071 96.9556 166.051 96.8559C166.032 96.7563 165.991 96.662 165.931 96.5796C165.872 96.4972 165.795 96.4286 165.706 96.3785C165.617 96.3284 165.519 96.2979 165.417 96.2892C132.895 93.5139 113.442 95.7858 102.076 98.7812C96.3925 100.279 92.7311 101.959 90.4754 103.281C89.0144 104.138 88.2818 104.743 87.834 105.153C77.7485 96.3898 61.6002 93.9385 47.8832 93.6204C46.1408 93.5799 44.4371 93.5746 42.7894 93.5961ZM24.298 127.884C24.1108 127.871 23.9263 127.933 23.785 128.056C23.6437 128.179 23.5572 128.352 23.5444 128.539C22.4962 143.96 18.8109 157.357 14.0816 169.987C14.0381 170.104 14.0263 170.23 14.0474 170.352C14.0685 170.475 14.1219 170.59 14.202 170.685C14.2821 170.781 14.3861 170.853 14.5035 170.896C14.6209 170.938 14.7475 170.949 14.8704 170.927C40.9243 166.244 60.763 166.262 74.0765 167.446C87.3899 168.629 94.1288 170.961 94.1288 170.961C94.3061 171.022 94.5006 171.011 94.6695 170.929C94.8383 170.848 94.9677 170.703 95.0292 170.526C95.0596 170.439 95.0725 170.346 95.0669 170.254C95.0614 170.162 95.0377 170.071 94.997 169.988C94.9564 169.905 94.8998 169.83 94.8302 169.769C94.7607 169.707 94.6797 169.66 94.5918 169.63C94.5918 169.63 87.6391 167.237 74.2028 166.042C60.9745 164.866 41.382 164.858 15.7984 169.348C20.3596 156.959 23.9278 143.768 24.9566 128.634C24.9628 128.542 24.9507 128.449 24.921 128.361C24.8912 128.274 24.8445 128.193 24.7833 128.123C24.7222 128.053 24.6478 127.996 24.5645 127.955C24.4813 127.914 24.3907 127.89 24.298 127.884ZM162.638 131.908C162.545 131.915 162.455 131.941 162.372 131.983C162.289 132.025 162.216 132.083 162.155 132.153C162.095 132.224 162.049 132.305 162.021 132.393C161.992 132.481 161.981 132.574 161.988 132.666C162.933 144.453 166.188 156.852 174.2 165.978C170.109 165.084 160.48 163.2 148.598 162.368C132.734 161.257 112.835 162.001 96.6568 169.56C96.5726 169.599 96.4971 169.654 96.4345 169.723C96.3719 169.791 96.3234 169.871 96.2918 169.958C96.2603 170.045 96.2462 170.138 96.2505 170.23C96.2548 170.322 96.2774 170.413 96.3169 170.497C96.3564 170.581 96.4121 170.656 96.4807 170.718C96.5494 170.781 96.6298 170.829 96.7172 170.86C96.8046 170.892 96.8974 170.906 96.9902 170.901C97.0831 170.897 97.1742 170.875 97.2583 170.835C113.063 163.451 132.762 162.671 148.499 163.773C164.236 164.875 175.979 167.834 175.979 167.834C176.129 167.872 176.287 167.859 176.429 167.799C176.571 167.739 176.69 167.635 176.767 167.501C176.844 167.368 176.874 167.213 176.855 167.06C176.835 166.908 176.766 166.766 176.657 166.656C167.877 157.771 164.387 144.871 163.399 132.554C163.384 132.368 163.296 132.195 163.153 132.074C163.01 131.953 162.825 131.893 162.638 131.908Z" fill="black"/>
        <path d="M87.5935 105.435C87.4193 105.504 87.2798 105.64 87.2059 105.811C87.1319 105.983 87.1295 106.177 87.1991 106.35C87.1991 106.35 88.4276 109.392 90.0015 118.36C91.5754 127.328 93.4711 142.162 94.7406 165.567C94.7508 165.754 94.835 165.929 94.9746 166.053C95.1142 166.178 95.2978 166.243 95.4852 166.233C95.578 166.228 95.6689 166.205 95.7527 166.165C95.8366 166.125 95.9117 166.069 95.9738 166C96.0359 165.931 96.0838 165.851 96.1147 165.763C96.1457 165.676 96.159 165.584 96.154 165.491C94.8822 142.042 92.982 127.156 91.3957 118.118C89.8093 109.079 88.5131 105.827 88.5131 105.827C88.4434 105.654 88.3074 105.515 88.135 105.442C87.9625 105.368 87.7677 105.366 87.5935 105.435Z" fill="black"/>
        <path d="M116.887 71.6069C116.208 71.5952 115.829 71.6164 115.829 71.6164C115.736 71.6217 115.646 71.6451 115.562 71.6853C115.478 71.7255 115.403 71.7818 115.341 71.8509C115.279 71.92 115.232 72.0005 115.201 72.0879C115.171 72.1753 115.158 72.2679 115.163 72.3603C115.168 72.4527 115.192 72.5431 115.232 72.6264C115.273 72.7098 115.329 72.7845 115.399 72.8461C115.468 72.9077 115.549 72.955 115.637 72.9855C115.724 73.016 115.817 73.029 115.91 73.0236C115.91 73.0236 121.66 72.6953 128.456 75.4167C135.253 78.138 143.038 83.8558 147.122 96.134C147.151 96.2219 147.198 96.3032 147.258 96.3733C147.319 96.4433 147.393 96.5008 147.476 96.5424C147.559 96.5839 147.65 96.6088 147.743 96.6155C147.835 96.6222 147.928 96.6107 148.017 96.5816C148.105 96.5524 148.187 96.5063 148.257 96.4457C148.327 96.3852 148.385 96.3115 148.426 96.2288C148.468 96.1461 148.493 96.056 148.5 95.9637C148.507 95.8714 148.495 95.7787 148.466 95.6909C144.253 83.0266 136.076 76.9483 128.985 74.1091C123.666 71.9796 118.925 71.6425 116.887 71.6069Z" fill="black"/>
        <path d="M80.7266 72.3131C80.7266 72.3131 61.2387 73.3894 50.5253 94.1222C50.4394 94.2884 50.4233 94.4817 50.4806 94.6596C50.5378 94.8375 50.6637 94.9855 50.8305 95.071C50.9974 95.1565 51.1915 95.1725 51.3702 95.1156C51.5489 95.0586 51.6976 94.9332 51.7835 94.7671C62.1887 74.6308 80.801 73.7196 80.801 73.7197C80.9883 73.7099 81.1641 73.6264 81.2896 73.4877C81.4152 73.3489 81.4802 73.1662 81.4705 72.9797C81.4656 72.8873 81.4425 72.7967 81.4025 72.7132C81.3625 72.6297 81.3063 72.5549 81.2372 72.493C81.1681 72.4311 81.0875 72.3833 80.9999 72.3525C80.9123 72.3216 80.8194 72.3082 80.7266 72.3131Z" fill="black"/>
        <path d="M22.1195 113.37C22.0334 113.335 21.9412 113.317 21.8482 113.318C21.7552 113.319 21.6633 113.338 21.5777 113.374C21.492 113.41 21.4144 113.462 21.3491 113.528C21.2839 113.594 21.2323 113.672 21.1974 113.758C21.1269 113.931 21.1284 114.125 21.2015 114.297C21.2747 114.469 21.4134 114.605 21.5873 114.675C21.5873 114.675 25.7621 116.373 28.7786 116.994C30.1191 117.272 31.6866 117.922 32.8874 118.679C34.0881 119.437 34.8204 120.368 34.8535 120.724C34.9146 121.368 34.7229 121.825 34.3642 122.109C34.0057 122.392 33.3986 122.555 32.4308 122.309C31.3145 122.024 28.4818 121.291 25.7652 120.61C24.4068 120.27 23.0772 119.942 22.0015 119.688C20.9259 119.435 20.1542 119.259 19.716 119.206C19.6237 119.195 19.5302 119.202 19.4407 119.227C19.3512 119.252 19.2674 119.294 19.1943 119.351C19.1212 119.408 19.0601 119.479 19.0145 119.56C18.9689 119.64 18.9396 119.729 18.9285 119.821C18.9173 119.913 18.9244 120.006 18.9494 120.095C18.9744 120.184 19.0168 120.268 19.0742 120.34C19.1315 120.413 19.2027 120.474 19.2837 120.519C19.3646 120.565 19.4538 120.594 19.5461 120.605C19.7596 120.631 20.6119 120.809 21.6757 121.06C22.7395 121.31 24.0647 121.637 25.4196 121.976C28.1293 122.656 30.9568 123.387 32.0799 123.674C33.3477 123.997 34.4708 123.823 35.244 123.213C36.0173 122.602 36.3589 121.608 36.2624 120.592C36.1405 119.291 35.0004 118.343 33.6447 117.488C32.2885 116.632 30.6155 115.934 29.0666 115.613C26.3044 115.045 22.1201 113.369 22.1201 113.369L22.1195 113.37Z" fill="black"/>
        <path d="M31.0962 122.09C31.0086 122.121 30.9279 122.169 30.8588 122.231C30.7897 122.293 30.7336 122.367 30.6935 122.451C30.6535 122.535 30.6304 122.625 30.6256 122.718C30.6207 122.81 30.6342 122.902 30.6653 122.99C30.6653 122.99 30.8102 123.442 30.7621 123.87C30.7382 124.083 30.6741 124.264 30.5531 124.408C30.432 124.552 30.2424 124.693 29.8214 124.777C28.9228 124.955 26.7005 124.94 24.6141 124.784C22.5277 124.628 20.431 124.32 19.8468 124.133C19.6681 124.076 19.474 124.092 19.307 124.177C19.1401 124.262 19.0141 124.41 18.9567 124.588C18.8993 124.766 18.9152 124.959 19.001 125.126C19.0867 125.292 19.2353 125.417 19.4139 125.475C20.3925 125.788 22.3674 126.029 24.5083 126.189C26.6493 126.349 28.8103 126.414 30.0984 126.158C30.7691 126.025 31.2965 125.718 31.6375 125.312C31.9785 124.907 32.1216 124.436 32.1678 124.026C32.26 123.206 31.9991 122.519 31.9991 122.519C31.9681 122.432 31.9202 122.351 31.858 122.283C31.7958 122.214 31.7205 122.158 31.6366 122.118C31.5527 122.078 31.4618 122.055 31.3689 122.05C31.2761 122.045 31.1832 122.059 31.0956 122.09L31.0962 122.09Z" fill="black"/>
        <path d="M18.0134 106.938C17.5025 106.951 16.9908 106.997 16.4813 107.081C15.406 107.257 14.5987 107.711 14.0669 108.316C13.5349 108.92 13.2858 109.638 13.1608 110.301C13.0358 110.964 13.0282 111.591 13.0113 112.061C13.0028 112.296 12.9917 112.493 12.9742 112.611C12.9689 112.646 12.963 112.654 12.9568 112.671C12.9262 112.691 12.698 112.864 12.3789 113.071C12.0348 113.294 11.6166 113.57 11.2451 113.944C10.8736 114.319 10.5322 114.822 10.4692 115.458C10.4061 116.094 10.6428 116.781 11.1643 117.452C11.9679 118.483 12.1855 119.42 12.4078 120.391C12.63 121.363 12.8631 122.435 13.8045 123.278C14.3482 123.766 14.5423 124.627 14.7613 125.641C14.9804 126.656 15.2641 127.888 16.4209 128.534C18.1377 129.494 20.4329 129.586 22.5369 129.456C24.6412 129.327 26.5574 128.937 27.4389 128.74C28.0077 128.613 28.4654 128.311 28.7516 127.937C29.0381 127.562 29.1594 127.146 29.2082 126.78C29.3057 126.048 29.1254 125.424 29.1254 125.424C29.0766 125.244 28.9578 125.09 28.7952 124.997C28.6327 124.904 28.4396 124.879 28.2584 124.928C28.0772 124.976 27.9228 125.094 27.8291 125.256C27.7354 125.418 27.7102 125.61 27.7589 125.791C27.7589 125.791 27.8577 126.199 27.805 126.594C27.7788 126.792 27.718 126.962 27.6261 127.082C27.5343 127.202 27.4182 127.301 27.1291 127.365C26.2901 127.553 24.4322 127.928 22.4503 128.05C20.4684 128.172 18.3661 128.005 17.1148 127.305C16.5545 126.992 16.3604 126.33 16.1478 125.346C15.9351 124.361 15.7434 123.119 14.7542 122.231C14.1622 121.701 14.0145 121.056 13.791 120.08C13.5676 119.103 13.275 117.86 12.2859 116.59C11.9127 116.11 11.8587 115.812 11.88 115.598C11.9013 115.383 12.0194 115.172 12.2545 114.935C12.4896 114.698 12.8257 114.465 13.1536 114.253C13.4815 114.04 13.7835 113.896 14.0732 113.563C14.3083 113.294 14.3424 113.047 14.3765 112.818C14.4107 112.588 14.4197 112.357 14.4285 112.111C14.4459 111.62 14.458 111.072 14.5541 110.562C14.6503 110.051 14.8245 109.596 15.1338 109.245C15.4432 108.893 15.8951 108.606 16.714 108.471C20.216 107.894 24.2684 109.514 26.6071 110.667C29.1361 111.913 32.0868 114.472 32.9347 115.243C32.9358 115.243 32.9369 115.243 32.938 115.243C32.9837 115.285 33.1463 115.494 33.2432 115.716C33.3401 115.938 33.3773 116.176 33.3599 116.292C33.3425 116.409 33.3645 116.417 33.1823 116.496C33.0002 116.574 32.5451 116.647 31.7637 116.521C31.5785 116.491 31.389 116.535 31.2367 116.644C31.0845 116.754 30.982 116.919 30.9519 117.103C30.9218 117.287 30.9665 117.476 31.0762 117.628C31.1859 117.779 31.3515 117.881 31.5367 117.911C32.4709 118.063 33.1739 118.035 33.7447 117.789C34.3154 117.543 34.6848 117.003 34.7598 116.499C34.8348 115.995 34.7101 115.541 34.5412 115.154C34.3724 114.768 34.1656 114.451 33.8902 114.202C32.9975 113.39 30.0529 110.792 27.2369 109.404C25.106 108.353 21.5922 106.848 18.0165 106.938L18.0134 106.938Z" fill="black"/>
        <path d="M12.5054 123.627C12.5054 123.627 3.9768 130.134 0.511419 142.857C-0.0878965 145.054 -0.262609 148.177 0.549896 151.34C1.36234 154.503 3.19422 157.711 6.60812 159.882C7.75258 160.611 9.63448 160.968 11.8821 160.913C14.1296 160.857 16.7164 160.337 19.0741 159.053C19.2385 158.964 19.3605 158.813 19.4132 158.633C19.4659 158.454 19.4449 158.262 19.355 158.098C19.3104 158.016 19.2502 157.945 19.1778 157.887C19.1053 157.829 19.0222 157.785 18.9329 157.759C18.8437 157.733 18.7503 157.725 18.6578 157.735C18.5654 157.745 18.4759 157.773 18.3943 157.817C16.28 158.969 13.9004 159.453 11.8468 159.504C9.79312 159.554 8.03858 159.121 7.37061 158.695C4.29352 156.738 2.66478 153.887 1.92096 150.991C1.17711 148.095 1.35047 145.158 1.87736 143.226C5.22171 130.948 13.366 124.746 13.366 124.746C13.4398 124.689 13.5017 124.619 13.5482 124.539C13.5948 124.459 13.625 124.371 13.6372 124.279C13.6494 124.187 13.6434 124.094 13.6194 124.004C13.5954 123.915 13.554 123.831 13.4974 123.758C13.4409 123.684 13.3705 123.623 13.29 123.576C13.2096 123.53 13.1208 123.5 13.0286 123.488C12.9365 123.476 12.8429 123.482 12.7531 123.506C12.6633 123.529 12.5792 123.571 12.5054 123.627Z" fill="black"/>
        <path fill-rule="evenodd" clip-rule="evenodd" d="M23.6757 134.817C23.3572 137.53 22.9632 140.181 22.4969 142.777C7.3671 141.59 11.7406 129.42 12.5713 127.39C13.2476 125.742 13.6515 126.174 13.9799 128.132C15.4377 136.837 23.6757 134.817 23.6757 134.817Z" fill="black"/>
        <path d="M166.957 117.564C166.782 117.496 166.588 117.5 166.416 117.575C166.416 117.575 159.414 120.619 157.049 121.951C156.306 122.372 155.785 122.825 155.467 123.344C155.15 123.863 155.071 124.476 155.251 124.989C155.611 126.016 156.69 126.527 157.841 126.598C160.266 126.748 165.467 126.369 168.076 125.67C168.257 125.621 168.412 125.503 168.505 125.341C168.599 125.18 168.624 124.987 168.576 124.807C168.527 124.626 168.408 124.473 168.246 124.379C168.083 124.286 167.89 124.261 167.709 124.309C165.459 124.912 160.054 125.323 157.928 125.192C157.178 125.145 156.667 124.753 156.587 124.524C156.547 124.409 156.535 124.307 156.675 124.077C156.816 123.847 157.145 123.518 157.747 123.177C159.862 121.986 166.983 118.866 166.983 118.866C167.068 118.829 167.145 118.775 167.21 118.708C167.274 118.641 167.325 118.563 167.358 118.477C167.392 118.39 167.408 118.298 167.407 118.206C167.405 118.113 167.384 118.022 167.347 117.937C167.272 117.766 167.131 117.632 166.956 117.564L166.957 117.564Z" fill="black"/>
        <path d="M159.214 125.263C159.126 125.232 159.033 125.217 158.941 125.221C158.848 125.225 158.757 125.247 158.672 125.286C158.672 125.286 158.232 125.487 157.785 125.835C157.339 126.183 156.762 126.724 156.779 127.569C156.791 128.256 157.15 128.976 157.837 129.467C158.523 129.958 159.5 130.242 160.815 130.261C163.331 130.298 168.195 129.943 168.195 129.943C168.383 129.929 168.557 129.842 168.679 129.701C168.802 129.56 168.864 129.376 168.85 129.189C168.837 129.003 168.749 128.83 168.607 128.707C168.465 128.585 168.281 128.524 168.093 128.537C168.093 128.537 163.186 128.888 160.836 128.853C159.718 128.836 159.034 128.588 158.663 128.323C158.293 128.057 158.198 127.796 158.194 127.544C158.194 127.543 158.194 127.542 158.194 127.541C158.191 127.453 158.358 127.178 158.658 126.944C158.957 126.711 159.269 126.563 159.269 126.563C159.354 126.524 159.429 126.469 159.492 126.401C159.555 126.333 159.604 126.253 159.636 126.166C159.667 126.079 159.682 125.987 159.678 125.894C159.674 125.802 159.652 125.711 159.612 125.627C159.533 125.458 159.39 125.327 159.214 125.263V125.263Z" fill="black"/>
        <path d="M168.713 110.649C166.927 110.701 164.723 111.484 162.361 113.457C161.465 114.204 160.076 115.516 158.801 116.787C157.527 118.058 156.422 119.204 155.96 119.876C155.73 120.211 155.567 120.568 155.527 120.961C155.486 121.354 155.603 121.797 155.889 122.115C156.459 122.751 157.375 122.86 158.583 122.691C158.769 122.665 158.937 122.566 159.05 122.417C159.163 122.268 159.211 122.08 159.185 121.895C159.159 121.71 159.06 121.543 158.911 121.431C158.761 121.318 158.572 121.27 158.386 121.296C157.394 121.434 156.976 121.212 156.944 121.176C156.928 121.158 156.927 121.181 156.935 121.104C156.942 121.028 156.994 120.866 157.128 120.672C157.375 120.312 158.548 119.035 159.802 117.784C161.057 116.533 162.448 115.223 163.269 114.538C167.608 110.913 170.784 112.19 171.408 113.051C172.475 114.528 173.89 115.735 175.681 117.323C176.527 118.072 177.34 119.029 177.824 119.841C178.066 120.248 178.222 120.621 178.275 120.869C178.327 121.118 178.28 121.17 178.291 121.158C178.021 121.48 177.349 122.029 176.799 122.725C176.249 123.421 175.782 124.422 176.156 125.5C176.361 126.093 176.301 126.766 175.929 127.699C175.558 128.632 174.874 129.778 173.958 131.162C173.096 132.469 172.299 133.041 171.554 133.314C170.809 133.586 170.064 133.562 169.273 133.486C168.59 133.419 166.866 133.021 165.13 132.557C163.394 132.094 161.594 131.564 160.574 131.235C160.164 131.102 160.004 130.95 159.927 130.837C159.85 130.723 159.829 130.611 159.84 130.455C159.862 130.145 160.063 129.796 160.063 129.796C160.113 129.718 160.148 129.632 160.165 129.541C160.183 129.45 160.181 129.356 160.162 129.266C160.143 129.175 160.106 129.089 160.054 129.013C160.001 128.937 159.934 128.871 159.856 128.821C159.778 128.77 159.691 128.736 159.6 128.719C159.509 128.702 159.415 128.703 159.324 128.722C159.233 128.741 159.147 128.778 159.07 128.83C158.993 128.882 158.928 128.949 158.877 129.026C158.877 129.026 158.482 129.588 158.428 130.356C158.401 130.74 158.471 131.21 158.755 131.627C159.039 132.044 159.509 132.372 160.137 132.576C161.196 132.917 163.003 133.448 164.763 133.918C166.523 134.388 168.181 134.795 169.134 134.888C169.978 134.969 170.983 135.024 172.041 134.637C173.098 134.25 174.156 133.425 175.139 131.937C176.072 130.526 176.801 129.328 177.243 128.218C177.685 127.108 177.838 126.039 177.492 125.04C177.313 124.526 177.496 124.121 177.91 123.597C178.324 123.073 178.933 122.588 179.375 122.06C179.74 121.624 179.76 121.062 179.657 120.577C179.554 120.093 179.331 119.615 179.038 119.123C178.453 118.139 177.57 117.113 176.62 116.27C174.82 114.675 173.484 113.516 172.554 112.227C171.865 111.278 170.497 110.6 168.711 110.652L168.713 110.649Z" fill="black"/>
        <path d="M178.509 125.423C178.443 125.488 178.39 125.565 178.354 125.65C178.318 125.736 178.299 125.827 178.298 125.92C178.297 126.012 178.315 126.104 178.35 126.19C178.385 126.276 178.436 126.354 178.502 126.42C178.502 126.42 185.261 133.367 184.527 141.224C184.094 145.817 183.359 150.357 181.257 153.359C179.155 156.361 175.769 158.011 169.372 156.904C169.187 156.872 168.997 156.915 168.844 157.022C168.69 157.13 168.586 157.294 168.554 157.478C168.538 157.569 168.54 157.662 168.56 157.753C168.581 157.843 168.619 157.929 168.672 158.004C168.726 158.08 168.794 158.144 168.872 158.194C168.951 158.244 169.038 158.277 169.13 158.293C175.86 159.458 180.029 157.575 182.418 154.165C184.807 150.754 185.498 146.004 185.936 141.356C186.751 132.645 179.51 125.432 179.51 125.432C179.445 125.366 179.368 125.313 179.282 125.277C179.196 125.241 179.104 125.222 179.012 125.221C178.919 125.221 178.826 125.238 178.74 125.273C178.654 125.308 178.576 125.359 178.509 125.424L178.509 125.423Z" fill="black"/>
        <path fill-rule="evenodd" clip-rule="evenodd" d="M163.022 135.935C163.022 135.935 166.933 138.665 171.237 137.455C172.981 136.965 176.616 135.526 177.588 130.996C177.778 130.097 178.756 128.933 179.006 130.747C179.298 132.849 178.96 137.932 176.153 141.561C175.562 142.323 171.976 147.027 164.017 142.274C163.597 140.168 163.269 138.047 163.022 135.935Z" fill="black"/>
    </g>
    <defs>
        <clipPath id="clip0_0_630">
            <rect width="186" height="171" fill="white"/>
        </clipPath>
    </defs>
</svg>
