<svg width="163" height="179" viewBox="0 0 163 179" fill="none" xmlns="http://www.w3.org/2000/svg">
    <g clip-path="url(#clip0_31_2096)">
        <path d="M12.4298 122.204C12.4298 122.204 9.36918 123.062 8.20523 123.366C6.75639 123.744 4.83582 125.013 3.34218 127.552H3.34291C2.61874 128.781 1.87934 130.287 1.28888 131.657C0.698418 133.028 0.258154 134.195 0.133307 135.01C0.0391845 135.623 -0.0764128 136.357 0.0686746 137.423C0.213766 138.488 0.59991 139.885 1.44797 142.02C2.30812 144.183 3.40068 146.104 4.42248 147.6C5.44428 149.097 6.34345 150.144 7.04116 150.675C7.12159 150.737 7.21328 150.782 7.31101 150.807C7.40873 150.833 7.51058 150.839 7.61071 150.826C7.71084 150.812 7.80729 150.779 7.89456 150.728C7.98183 150.677 8.0582 150.609 8.11931 150.528C8.24265 150.366 8.29646 150.16 8.26888 149.958C8.24131 149.756 8.13463 149.572 7.97229 149.449C7.59361 149.161 6.65602 148.143 5.6924 146.731C4.72879 145.319 3.68706 143.487 2.87699 141.45C2.05519 139.381 1.71242 138.092 1.59286 137.214C1.47331 136.337 1.55788 135.869 1.65394 135.244C1.71892 134.82 2.13337 133.585 2.70085 132.268C3.26832 130.951 3.99056 129.484 4.66752 128.335C5.97685 126.109 7.66657 125.098 8.59234 124.857C9.80372 124.541 12.8446 123.687 12.8446 123.687C12.9419 123.66 13.0329 123.614 13.1123 123.551C13.1918 123.489 13.2582 123.411 13.3077 123.323C13.3573 123.235 13.389 123.138 13.401 123.037C13.4131 122.937 13.4052 122.835 13.378 122.738C13.3229 122.541 13.192 122.374 13.0142 122.274C12.8364 122.174 12.6261 122.149 12.4298 122.204Z" fill="black"/>
        <path d="M80.835 27.4836C80.734 27.4812 80.6336 27.4986 80.5393 27.535C80.4451 27.5714 80.359 27.6261 80.2858 27.6959C80.2127 27.7656 80.154 27.8491 80.1131 27.9416C80.0721 28.0341 80.0498 28.1338 80.0473 28.2349C79.9424 32.5545 81.0412 35.2129 83.3741 37.1909C83.4512 37.2562 83.5404 37.3058 83.6366 37.3366C83.7328 37.3674 83.8341 37.379 83.9347 37.3706C84.0354 37.3622 84.1334 37.334 84.2232 37.2877C84.3129 37.2414 84.3927 37.1778 84.4579 37.1005C84.5897 36.9446 84.6542 36.7426 84.6373 36.539C84.6204 36.3354 84.5234 36.1468 84.3677 36.0148C82.3442 34.2991 81.4863 32.3379 81.585 28.2719C81.5898 28.0678 81.5135 27.8701 81.3729 27.7223C81.2323 27.5745 81.0388 27.4886 80.835 27.4836Z" fill="black"/>
        <path d="M89.6378 25.3833C89.4344 25.3978 89.245 25.4927 89.1114 25.6471C88.9778 25.8015 88.9109 26.0027 88.9254 26.2065C89.0278 27.6417 88.822 28.6268 88.5263 29.1996C88.2305 29.7724 87.9103 29.9483 87.5468 29.9829C86.8198 30.0522 85.5414 29.2268 84.9381 27.3213C84.8765 27.1266 84.7401 26.9644 84.5591 26.8704C84.3781 26.7763 84.1673 26.7581 83.9729 26.8198C83.7785 26.8815 83.6166 27.018 83.5227 27.1994C83.4288 27.3807 83.4106 27.5919 83.4722 27.7866C84.2217 30.1541 85.9049 31.6871 87.6924 31.5169C88.5862 31.4317 89.4119 30.839 89.8928 29.9075C90.3737 28.976 90.5754 27.7215 90.4596 26.0969C90.445 25.8931 90.3503 25.7034 90.1962 25.5696C90.0421 25.4358 89.8412 25.3688 89.6378 25.3833Z" fill="black"/>
        <path d="M88.8288 15.6929C88.7049 15.7242 88.5908 15.7858 88.4967 15.8722C88.4026 15.9587 88.3314 16.0672 88.2897 16.1881C88.0148 16.9833 87.0108 18.5515 85.5055 20.2919C84.0002 22.0322 81.9932 23.9956 79.6922 25.8242C75.0901 29.4815 69.3052 32.5631 64.0575 32.4736C63.9473 32.4718 63.838 32.4938 63.737 32.538C63.636 32.5822 63.5456 32.6476 63.4721 32.7299C63.3985 32.8121 63.3435 32.9093 63.3107 33.0147C63.2779 33.1201 63.2681 33.2313 63.2819 33.3409C63.2819 33.3409 63.9749 38.9581 66.2912 43.485C68.5796 47.9499 72.348 52.7428 76.0948 54.3946C79.5167 55.9066 84.5122 55.5921 87.4942 52.7227C90.75 49.5877 95.6618 45.2515 96.7636 33.6518C97.2669 28.35 96.4341 24.7407 94.9539 22.0414C93.4737 19.342 91.3921 17.587 89.5376 15.8736C89.4437 15.787 89.3297 15.725 89.206 15.6935C89.0822 15.6619 88.9526 15.6617 88.8288 15.6929ZM89.2123 17.69C90.8497 19.1938 92.4554 20.6853 93.6059 22.7834C94.9276 25.1938 95.7145 28.426 95.2323 33.506C94.1668 44.7242 89.7405 48.4233 86.4288 51.6121C84.0579 53.8935 79.5264 54.2271 76.7155 52.9852C73.6696 51.6426 69.8304 47.0157 67.6606 42.7821C65.7946 39.1352 65.1336 35.0736 64.966 33.9648C70.5208 33.7254 76.1424 30.6129 80.6489 27.0316C83.0284 25.1406 85.0951 23.1194 86.6682 21.3007C87.8642 19.918 88.6593 18.7415 89.213 17.69H89.2123Z" fill="black"/>
        <path d="M76.2688 28.3849C76.0656 28.4009 75.877 28.497 75.7445 28.6521C75.612 28.8073 75.5464 29.0088 75.5621 29.2124C75.5927 29.6049 75.4104 30.2049 75.0515 30.5065C74.6925 30.8081 74.1324 31.0049 72.9236 30.4759C72.831 30.4354 72.7314 30.4136 72.6304 30.4116C72.5294 30.4097 72.429 30.4276 72.3349 30.4646C72.2409 30.5015 72.155 30.5567 72.0822 30.6268C72.0095 30.697 71.9512 30.7809 71.9108 30.8736C71.8703 30.9664 71.8485 31.0662 71.8466 31.1673C71.8446 31.2685 71.8626 31.3691 71.8995 31.4633C71.9364 31.5575 71.9914 31.6435 72.0614 31.7164C72.1315 31.7893 72.2152 31.8477 72.3078 31.8882C73.8627 32.5686 75.2083 32.3851 76.0394 31.6868C76.8705 30.9885 77.1633 29.9687 77.0956 29.0935C77.0878 28.9926 77.0602 28.8942 77.0144 28.804C76.9686 28.7137 76.9056 28.6334 76.8288 28.5676C76.752 28.5018 76.663 28.4518 76.567 28.4204C76.4709 28.3891 76.3696 28.377 76.2688 28.3849Z" fill="black"/>
        <path d="M73.1416 50.6758C73.0406 50.677 72.9408 50.6981 72.8479 50.738C72.7551 50.7778 72.6709 50.8356 72.6004 50.908C72.5298 50.9804 72.4741 51.066 72.4366 51.16C72.3991 51.2539 72.3804 51.3544 72.3816 51.4556C72.3816 51.4556 72.3991 55.6546 69.9441 58.9609C69.8224 59.1248 69.7707 59.3305 69.8004 59.5327C69.8301 59.7348 69.9388 59.9169 70.1025 60.0387C70.1835 60.0991 70.2756 60.1429 70.3736 60.1676C70.4715 60.1923 70.5734 60.1974 70.6733 60.1826C70.7732 60.1679 70.8692 60.1336 70.9559 60.0817C71.0426 60.0298 71.1182 59.9613 71.1785 59.8801C74.0035 56.0757 73.9193 51.4378 73.9193 51.4378C73.9182 51.3366 73.8973 51.2366 73.8576 51.1436C73.8179 51.0505 73.7603 50.9662 73.6881 50.8954C73.6158 50.8246 73.5304 50.7688 73.4366 50.7311C73.3429 50.6935 73.2426 50.6747 73.1416 50.6758Z" fill="black"/>
        <path d="M87.9353 50.4398C87.7315 50.4459 87.5385 50.5328 87.3986 50.6814C87.2588 50.83 87.1836 51.0282 87.1895 51.2324C87.1895 51.2324 87.3118 55.5138 90.3096 59.5217C90.3702 59.6026 90.4461 59.6709 90.533 59.7224C90.6199 59.774 90.7161 59.8079 90.8161 59.8223C90.9161 59.8366 91.0179 59.8311 91.1157 59.806C91.2136 59.7809 91.3056 59.7367 91.3864 59.6761C91.5494 59.5535 91.6572 59.3711 91.6861 59.169C91.715 58.9669 91.6626 58.7616 91.5405 58.5982C88.8437 54.9927 88.7265 51.1868 88.7265 51.1868C88.7204 50.9827 88.6337 50.7893 88.4853 50.6492C88.3369 50.5091 88.1391 50.4338 87.9353 50.4398Z" fill="black"/>
        <path d="M93.6577 57.782C87.1856 58.6059 83.5815 61.2041 81.6553 63.6445C80.823 64.6989 80.3418 65.6956 80.0167 66.5288C77.8396 62.5914 75.1175 60.4183 72.7914 59.3835C70.1397 58.2038 67.9873 58.3348 67.9873 58.3348C67.8491 58.3439 67.7158 58.3902 67.6017 58.4688C67.4876 58.5475 67.3968 58.6555 67.3389 58.7816C67.3389 58.7816 66.213 61.2607 65.6286 63.1109C65.1038 63.2829 61.4547 64.5107 56.9572 67.6941C53.1696 70.3756 47.529 75.3158 40.1492 88.368C36.1728 95.4015 34.9423 101.626 25.2646 112.601C22.8436 115.345 18.4657 118.957 12.2749 122.266C12.1303 122.343 12.0142 122.465 11.9434 122.613C11.8726 122.761 11.8509 122.928 11.8814 123.089C11.8814 123.089 12.5417 126.751 13.6159 128.952C13.6602 129.043 13.7221 129.124 13.7978 129.191C13.8735 129.258 13.9617 129.31 14.0573 129.343C14.1529 129.375 14.254 129.389 14.3548 129.383C14.4556 129.377 14.5543 129.35 14.645 129.306C14.8282 129.216 14.9682 129.057 15.0344 128.864C15.1006 128.671 15.0875 128.459 14.998 128.276C14.2343 126.711 13.6662 124.06 13.5129 123.325C19.5587 120.021 23.9077 116.465 26.4173 113.62C36.2441 102.476 37.6388 95.9358 41.488 89.1271C48.7848 76.2218 54.1918 71.5379 57.8443 68.952C62.4834 65.6684 66.4582 64.4328 66.4582 64.4328C66.58 64.3949 66.6905 64.3273 66.7798 64.2361C66.8691 64.1448 66.9343 64.0327 66.9695 63.9098C67.3641 62.5336 68.2469 60.5356 68.5314 59.8986C69.0352 59.8988 70.2731 59.9489 72.1671 60.7915C74.5083 61.833 77.3914 64.0182 79.5246 68.8083C79.5935 68.9628 79.7113 69.0902 79.8597 69.1709C80.0082 69.2516 80.179 69.2812 80.3459 69.2549C80.5128 69.2287 80.6664 69.1482 80.783 69.0258C80.8996 68.9034 80.9728 68.746 80.9912 68.5778C80.9912 68.5778 81.179 66.7328 82.862 64.6007C84.4952 62.5315 87.5442 60.2455 93.3388 59.3963C93.4893 59.6861 93.6283 59.9652 93.9986 60.6186C94.5207 61.5397 95.1068 62.5474 95.6968 63.1578C96.1975 63.6757 96.7622 63.8013 97.5691 64.1098C98.3759 64.4183 99.381 64.7904 100.485 65.3022C102.694 66.3257 105.282 67.8995 107.362 70.5806C111.654 76.1121 117.122 85.8006 122.257 96.0155C125.811 103.082 127.13 112.715 146.852 124.351C146.697 125.067 146.063 127.895 144.894 130.112C144.799 130.293 144.779 130.504 144.839 130.699C144.9 130.894 145.035 131.057 145.215 131.153C145.396 131.248 145.606 131.268 145.801 131.208C145.996 131.147 146.159 131.012 146.254 130.831C147.753 127.987 148.489 124.136 148.489 124.136C148.52 123.979 148.501 123.816 148.435 123.67C148.369 123.524 148.259 123.402 148.121 123.322C128.188 111.716 127.4 102.816 123.632 95.3226C118.475 85.0654 113.012 75.3522 108.576 69.635C106.296 66.6954 103.47 64.9879 101.131 63.9042C99.9616 63.3622 98.9103 62.9737 98.1174 62.6705C97.3244 62.3673 96.7461 62.0293 96.8013 62.0864C96.5005 61.7752 95.8393 60.7446 95.3368 59.858C94.8342 58.9714 94.4397 58.1968 94.4397 58.1968C94.3679 58.0554 94.2542 57.9397 94.1142 57.8654C93.9743 57.7912 93.8148 57.7621 93.6577 57.782Z" fill="black"/>
        <path d="M7.13772 123.833C6.93575 123.86 6.75283 123.966 6.62912 124.128C6.5054 124.291 6.45101 124.495 6.4779 124.698C6.4779 124.698 7.12948 129.427 9.39346 133.368C8.91969 133.85 7.81241 135.014 7.09226 136.414C6.52843 137.509 6.24226 138.532 6.05459 139.351C5.86689 140.17 5.73326 140.818 5.65828 140.973C5.70842 140.869 5.61915 140.98 5.59151 140.977C5.56388 140.973 5.39314 140.988 5.1817 140.335C4.40179 137.922 4.50986 135.787 6.17676 130.8C6.20887 130.704 6.2218 130.603 6.2148 130.502C6.2078 130.401 6.18101 130.302 6.13596 130.212C6.09091 130.121 6.02848 130.04 5.95225 129.974C5.87602 129.908 5.78746 129.857 5.69166 129.825C5.49829 129.76 5.28717 129.775 5.10471 129.866C4.92224 129.957 4.78338 130.117 4.71862 130.311C3.01322 135.413 2.83616 138.081 3.7186 140.81C4.04011 141.803 4.70019 142.433 5.42958 142.51C6.15896 142.587 6.75349 142.243 7.04255 141.644C7.32342 141.063 7.37993 140.456 7.55392 139.696C7.72804 138.936 7.97626 138.057 8.45878 137.119C9.13698 135.802 10.8573 134.054 10.8573 134.054C10.9817 133.931 11.0605 133.769 11.0807 133.595C11.1008 133.421 11.0611 133.245 10.9681 133.097C8.69731 129.473 8.00209 124.494 8.00209 124.494C7.97493 124.291 7.86861 124.108 7.70651 123.984C7.54442 123.86 7.33983 123.805 7.13772 123.833Z" fill="black"/>
        <path d="M147.971 123.255C147.777 123.192 147.566 123.209 147.384 123.301C147.202 123.394 147.065 123.556 147.002 123.75C146.971 123.846 146.959 123.948 146.967 124.049C146.975 124.15 147.003 124.248 147.049 124.338C147.095 124.428 147.158 124.508 147.235 124.574C147.312 124.64 147.401 124.689 147.497 124.72C147.497 124.72 150.592 125.746 152.63 127.163C153.76 127.951 155.547 129.062 157.178 130.301C158.809 131.54 160.249 132.95 160.668 133.994C161.154 135.203 161.422 136.855 161.458 138.404C161.493 139.953 161.282 141.425 160.968 142.189C160.16 144.158 159.84 145.832 156.475 149.021C156.401 149.091 156.342 149.174 156.301 149.267C156.26 149.359 156.237 149.459 156.234 149.56C156.232 149.661 156.249 149.762 156.285 149.856C156.321 149.951 156.375 150.037 156.445 150.111C156.514 150.184 156.597 150.243 156.69 150.284C156.782 150.326 156.881 150.348 156.982 150.351C157.083 150.354 157.184 150.337 157.278 150.301C157.373 150.265 157.459 150.21 157.532 150.14C161.069 146.788 161.643 144.594 162.391 142.775C162.856 141.641 163.034 140.064 162.995 138.369C162.956 136.675 162.685 134.887 162.095 133.419C161.438 131.785 159.816 130.371 158.107 129.073C156.398 127.775 154.567 126.637 153.508 125.899C151.168 124.271 147.972 123.256 147.972 123.256L147.971 123.255Z" fill="black"/>
        <path d="M153.098 125.626C152.92 125.527 152.709 125.504 152.513 125.561C152.317 125.617 152.152 125.75 152.053 125.928C152.053 125.928 151.402 127.112 150.745 128.394C150.417 129.034 150.088 129.699 149.832 130.265C149.705 130.548 149.596 130.804 149.512 131.033C149.429 131.261 149.356 131.414 149.347 131.72C149.341 131.916 149.411 132.107 149.541 132.254C149.541 132.254 151.938 134.983 153.216 136.107C153.741 136.568 154.604 137.475 155.338 138.363C155.705 138.807 156.043 139.249 156.296 139.625C156.55 140.001 156.714 140.341 156.735 140.419C156.99 141.327 157.963 141.794 158.788 141.564C159.613 141.334 160.229 140.418 160.167 139.267C160.071 137.424 159.732 133.671 156.644 130.273C156.507 130.122 156.315 130.032 156.111 130.022C155.908 130.012 155.709 130.084 155.558 130.221C155.483 130.29 155.422 130.372 155.379 130.463C155.336 130.555 155.312 130.654 155.307 130.755C155.302 130.856 155.318 130.957 155.352 131.052C155.386 131.148 155.439 131.235 155.507 131.31C158.258 134.337 158.538 137.577 158.631 139.348C158.667 140.007 158.465 140.054 158.375 140.079C158.286 140.104 158.248 140.117 158.216 140.001C158.095 139.57 157.865 139.198 157.571 138.76C157.276 138.323 156.912 137.849 156.522 137.377C155.741 136.434 154.869 135.508 154.23 134.946C153.286 134.116 151.381 131.996 150.967 131.533C151.029 131.365 151.12 131.149 151.233 130.897C151.47 130.373 151.791 129.723 152.113 129.095C152.757 127.839 153.4 126.671 153.4 126.671C153.449 126.582 153.48 126.485 153.491 126.384C153.502 126.283 153.493 126.182 153.465 126.084C153.437 125.987 153.39 125.897 153.327 125.818C153.264 125.739 153.186 125.673 153.097 125.624L153.098 125.626Z" fill="black"/>
        <path d="M80.156 67.6303C79.9523 67.6385 79.7602 67.7275 79.622 67.8776C79.4837 68.0277 79.4107 68.2266 79.4188 68.4307C79.4188 68.4307 79.6048 73.0549 79.9514 78.4004C80.2981 83.746 80.7887 89.7662 81.4579 92.7799C81.4798 92.8787 81.5209 92.9722 81.5789 93.055C81.6369 93.1378 81.7106 93.2084 81.7958 93.2627C81.881 93.317 81.9761 93.354 82.0755 93.3715C82.175 93.389 82.2769 93.3867 82.3755 93.3647C82.4741 93.3428 82.5674 93.3016 82.6501 93.2435C82.7328 93.1854 82.8033 93.1116 82.8575 93.0263C82.9117 92.9409 82.9486 92.8457 82.9661 92.746C82.9836 92.6464 82.9813 92.5443 82.9593 92.4455C82.3521 89.7111 81.8315 83.6248 81.4863 78.3008C81.1411 72.9769 80.955 68.3688 80.955 68.3688C80.9467 68.1647 80.858 67.9723 80.7081 67.8338C80.5583 67.6953 80.3597 67.6221 80.156 67.6303Z" fill="black"/>
        <path fill-rule="evenodd" clip-rule="evenodd" d="M85.0569 76.3246C85.0569 76.6105 84.9435 76.8848 84.7417 77.087C84.5398 77.2892 84.266 77.4028 83.9806 77.4028C83.6951 77.4028 83.4213 77.2892 83.2194 77.087C83.0176 76.8848 82.9042 76.6105 82.9042 76.3246C82.9042 76.0386 83.0176 75.7644 83.2194 75.5621C83.4213 75.3599 83.6951 75.2463 83.9806 75.2463C84.266 75.2463 84.5398 75.3599 84.7417 75.5621C84.9435 75.7644 85.0569 76.0386 85.0569 76.3246Z" fill="black"/>
        <path fill-rule="evenodd" clip-rule="evenodd" d="M85.8585 83.9084C85.8585 84.1943 85.7451 84.4686 85.5432 84.6708C85.3414 84.873 85.0676 84.9866 84.7821 84.9866C84.4967 84.9866 84.2229 84.873 84.021 84.6708C83.8191 84.4686 83.7057 84.1943 83.7057 83.9084C83.7057 83.6224 83.8191 83.3481 84.021 83.1459C84.2229 82.9437 84.4967 82.8301 84.7821 82.8301C85.0676 82.8301 85.3414 82.9437 85.5432 83.1459C85.7451 83.3481 85.8585 83.6224 85.8585 83.9084Z" fill="black"/>
        <path fill-rule="evenodd" clip-rule="evenodd" d="M86.4226 91.3732C86.4226 91.6591 86.3092 91.9334 86.1074 92.1356C85.9055 92.3378 85.6317 92.4514 85.3463 92.4514C85.0608 92.4514 84.787 92.3378 84.5851 92.1356C84.3833 91.9334 84.2698 91.6591 84.2698 91.3732C84.2698 91.0872 84.3833 90.8129 84.5851 90.6107C84.787 90.4085 85.0608 90.2949 85.3463 90.2949C85.6317 90.2949 85.9055 90.4085 86.1074 90.6107C86.3092 90.8129 86.4226 91.0872 86.4226 91.3732Z" fill="black"/>
        <path d="M95.9945 61.9257C95.8043 61.9992 95.651 62.1453 95.5683 62.3319C93.6902 66.5729 88.4301 70.1947 82.6923 71.004C76.9544 71.8133 70.8316 69.9438 66.8914 63.3031C66.7872 63.1275 66.6175 63.0006 66.4199 62.9503C66.2222 62.9 66.0127 62.9304 65.8374 63.0348C65.7506 63.0865 65.6748 63.1548 65.6143 63.2358C65.5538 63.3168 65.5098 63.409 65.4849 63.507C65.4599 63.6051 65.4545 63.7071 65.4689 63.8072C65.4834 63.9074 65.5174 64.0037 65.5689 64.0907C69.8072 71.2339 76.6807 73.4082 82.9068 72.5301C89.1328 71.6519 94.8046 67.8551 96.9739 62.9566C97.0149 62.8641 97.0372 62.7644 97.0397 62.6633C97.0422 62.5621 97.0248 62.4615 96.9885 62.367C96.9521 62.2726 96.8976 62.1863 96.8279 62.113C96.7583 62.0397 96.6749 61.9809 96.5825 61.9399C96.3961 61.8573 96.1846 61.8521 95.9945 61.9257Z" fill="black"/>
        <path d="M82.2953 0.00377858C77.5443 -0.0771261 73.5083 1.15443 70.7225 2.4249C52.7262 10.6217 50.2193 22.4974 48.7219 28.7364C47.9218 32.0628 48.2533 36.0987 48.6758 39.8922C49.0983 43.6859 49.6076 47.2703 49.3434 49.3796C49.099 51.344 47.1131 54.5633 44.8788 58.0738C42.6446 61.5842 40.1933 65.4527 39.1607 69.2566C37.0499 77.0172 43.3674 84.0381 43.3674 84.0381C43.5026 84.1909 43.6928 84.2838 43.8964 84.2962C44.0999 84.3086 44.3 84.2395 44.4527 84.1042C44.5283 84.0371 44.5901 83.9558 44.6343 83.8648C44.6786 83.7738 44.7046 83.675 44.7107 83.574C44.7168 83.473 44.703 83.3717 44.6701 83.276C44.6371 83.1804 44.5857 83.0921 44.5187 83.0164C44.5187 83.0164 38.8066 76.4207 40.645 69.6614C41.5833 66.2054 43.9453 62.4064 46.1757 58.9019C48.406 55.3977 50.5356 52.2545 50.8697 49.571C51.1871 47.0359 50.6233 43.4778 50.205 39.7215C49.7866 35.9648 49.5097 32.0433 50.2184 29.0971C51.732 22.7907 53.8144 11.8193 71.3603 3.82787C76.6036 1.43661 86.4677 -0.899426 97.2729 6.71785C100.849 9.23817 106.126 15.8866 107.415 29.6556C107.608 31.7061 106.832 35.3831 105.984 38.8243C105.56 40.5449 105.124 42.2203 104.801 43.6637C104.477 45.107 104.251 46.2829 104.297 47.1947C104.362 48.4984 103.995 50.2253 105.043 52.2511C106.091 54.2769 108.447 56.4698 113.697 59.2291C116.559 60.7352 118.501 62.1639 120.098 64.5061C121.695 66.8483 122.955 70.1632 124.249 75.4115C124.657 77.0581 124.935 79.8079 124.436 82.6215C123.937 85.4351 122.687 88.2995 120.07 90.3851C119.991 90.4481 119.925 90.5261 119.876 90.6146C119.827 90.7031 119.796 90.8004 119.784 90.901C119.773 91.0015 119.781 91.1033 119.809 91.2006C119.837 91.2979 119.884 91.3887 119.947 91.4679C120.01 91.5471 120.088 91.6131 120.176 91.6622C120.264 91.7112 120.361 91.7424 120.462 91.7538C120.562 91.7653 120.664 91.7567 120.761 91.7288C120.858 91.7009 120.949 91.654 121.028 91.591C123.996 89.2252 125.404 85.9669 125.95 82.8912C126.495 79.8157 126.204 76.9101 125.742 75.0415C124.429 69.7155 123.132 66.2239 121.368 63.6367C119.603 61.0494 117.379 59.4257 114.412 57.8646C109.294 55.1744 107.228 53.1232 106.41 51.5418C105.591 49.9604 105.914 48.7167 105.833 47.1172C105.807 46.5753 105.988 45.4047 106.302 44.0016C106.617 42.5982 107.051 40.9262 107.478 39.1936C108.332 35.7282 109.188 32.0731 108.947 29.5119C107.626 15.3996 102.19 8.29968 98.1586 5.45789C92.5137 1.47844 87.0476 0.0854311 82.2966 0.00449005L82.2953 0.00377858Z" fill="black"/>
        <path fill-rule="evenodd" clip-rule="evenodd" d="M43.9423 83.528C43.9423 83.528 37.9276 76.7197 39.9022 69.4598C41.8732 62.1999 49.5279 54.124 50.1061 49.4759C50.6879 44.8314 47.9606 35.1892 49.4697 28.9164C50.9752 22.6436 53.2698 11.2201 71.0412 3.12597C76.4486 0.65985 86.6671 -1.70063 97.7146 6.0875C101.518 8.76853 106.875 15.6423 108.18 29.583C108.613 34.1947 104.918 44.2486 105.064 47.1555C105.209 50.0587 103.686 53.0967 114.053 58.5462C119.882 61.6134 122.388 64.6514 124.995 75.2262C125.864 78.7414 126.134 86.5369 120.548 90.9883C116.141 82.5372 111.66 74.8656 107.969 70.1082C103.609 64.4875 97.1401 63.544 96.2491 62.6224C95.3582 61.7008 93.7545 58.5462 93.7545 58.5462C92.7399 58.6774 91.7981 58.8486 90.9253 59.0599C88.078 55.2532 87.958 51.2098 87.958 51.2098C91.1217 48.1536 95.02 43.877 95.9982 33.5791C96.9837 23.1974 92.7581 19.897 89.0162 16.4401C87.6198 20.4799 75.1467 33.4334 64.0446 33.2439C64.0446 33.2439 64.7501 38.7845 66.9756 43.1339C68.5066 46.1209 70.7794 49.2755 73.1503 51.4466C73.1503 51.4466 73.2012 55.8652 70.5612 59.4205C69.0557 59.038 68.0375 59.1036 68.0375 59.1036C68.0375 59.1036 66.7283 61.9594 66.2301 63.697C66.2301 63.697 62.1355 64.972 57.4009 68.3233C54.2262 70.5709 49.7461 74.3993 43.9423 83.528ZM63.3755 33.3787C62.2046 29.94 59.6809 30.0238 59.3754 31.9836C59.0736 33.9434 61.5064 36.6208 62.5755 37.7209C63.641 38.821 64.3246 38.8829 63.9683 37.8993C63.6119 36.9195 63.3755 33.3787 63.3755 33.3787ZM96.8746 34.0162C96.7582 34.6828 96.911 35.3167 97.9728 34.61C99.0383 33.9033 100.427 32.2276 100.064 30.1914C99.7038 28.1551 99.311 26.9785 98.2965 28.2134C96.7001 30.1513 97.0055 33.2367 96.8746 34.0162Z" fill="black"/>
        <path d="M100.573 77.7529C100.385 77.8309 100.235 77.9807 100.157 78.1694C100.079 78.3581 100.079 78.5701 100.157 78.7589C100.157 78.7589 100.587 79.8008 101.061 81.0754C101.536 82.3501 102.055 83.8843 102.214 84.7082C102.533 86.3832 102.988 93.1316 102.708 96.6274C102.557 98.5139 102.546 101.831 102.633 104.932C102.677 106.483 102.745 107.974 102.837 109.195C102.929 110.416 103.017 111.312 103.201 111.918C103.377 112.497 103.344 113.86 102.887 115.225C102.43 116.59 101.59 117.977 100.365 118.878C97.6941 120.837 90.6361 124.853 80.2398 125.308C78.4157 125.388 75.1113 125.341 71.7595 124.764C68.4076 124.188 65.0199 123.057 62.9879 121.148C60.536 118.845 59.5117 116.679 59.2847 112.194C59.1647 109.785 58.4561 105.365 57.914 99.8198C57.3718 94.2739 56.996 87.642 57.534 80.9965C57.5422 80.8956 57.5304 80.7941 57.4995 80.6978C57.4685 80.6015 57.4188 80.5122 57.3534 80.4351C57.288 80.358 57.2081 80.2945 57.1181 80.2484C57.0282 80.2022 56.9301 80.1743 56.8294 80.1662C56.7287 80.158 56.6274 80.1697 56.5313 80.2008C56.4351 80.2318 56.346 80.2815 56.269 80.347C56.192 80.4126 56.1287 80.4927 56.0826 80.5827C56.0366 80.6728 56.0087 80.7711 56.0006 80.8719C55.4512 87.6571 55.8357 94.3744 56.3827 99.9699C56.9296 105.565 57.6393 110.078 57.7484 112.27C57.987 116.986 59.2681 119.767 61.9361 122.272C64.3552 124.545 67.9967 125.68 71.4996 126.283C75.0024 126.885 78.3786 126.931 80.3073 126.847C91.0671 126.376 98.3728 122.248 101.274 120.12C102.83 118.977 103.808 117.315 104.344 115.715C104.88 114.114 105.014 112.598 104.671 111.469C104.595 111.218 104.459 110.264 104.37 109.08C104.281 107.894 104.212 106.421 104.169 104.889C104.082 101.824 104.1 98.4957 104.24 96.7505C104.542 92.9832 104.124 86.5178 103.723 84.4179C103.519 83.3548 102.987 81.8401 102.502 80.5376C102.017 79.235 101.578 78.1712 101.578 78.1712C101.539 78.0777 101.482 77.9928 101.411 77.9212C101.34 77.8497 101.255 77.7929 101.161 77.7542C101.068 77.7155 100.968 77.6955 100.867 77.6956C100.766 77.6956 100.666 77.7156 100.573 77.7543L100.573 77.7529Z" fill="black"/>
        <path d="M56.6397 93.1036C56.5389 93.1091 56.44 93.1343 56.3489 93.178C56.2578 93.2218 56.1762 93.283 56.1087 93.3584C56.0412 93.4337 55.9892 93.5216 55.9557 93.617C55.9221 93.7125 55.9077 93.8136 55.9132 93.9147C55.9132 93.9147 56.0373 95.864 54.6596 99.5054C53.2819 103.147 50.3945 108.388 44.3276 114.669C40.805 118.314 29.0907 128.033 17.2232 128.668C17.0196 128.679 16.8287 128.77 16.6924 128.922C16.5562 129.074 16.4858 129.274 16.4966 129.478C16.502 129.579 16.5272 129.678 16.5707 129.769C16.6143 129.861 16.6753 129.943 16.7504 130.01C16.8256 130.078 16.9133 130.13 17.0085 130.164C17.1038 130.197 17.2047 130.212 17.3056 130.207C29.9377 129.531 41.6897 119.614 45.4328 115.741C51.6278 109.327 54.6402 103.903 56.0971 100.053C57.554 96.2018 57.448 93.8329 57.448 93.8329C57.4427 93.7319 57.4175 93.6328 57.374 93.5415C57.3304 93.4502 57.2693 93.3684 57.1942 93.3007C57.119 93.2331 57.0314 93.1809 56.9361 93.1472C56.8409 93.1135 56.7399 93.099 56.639 93.1044L56.6397 93.1036Z" fill="black"/>
        <path d="M103.238 95.3618C103.048 95.4353 102.895 95.5814 102.812 95.768C102.729 95.9547 102.724 96.1666 102.797 96.3572C102.797 96.3572 107.321 108.136 118.342 119.672C121.877 123.367 128.579 129.984 142.927 131.753C143.13 131.778 143.334 131.722 143.495 131.596C143.655 131.47 143.76 131.286 143.785 131.083C143.797 130.983 143.79 130.881 143.763 130.783C143.736 130.686 143.69 130.595 143.627 130.515C143.565 130.435 143.488 130.368 143.4 130.319C143.312 130.269 143.215 130.237 143.115 130.224C129.165 128.504 122.957 122.269 119.452 118.606C108.647 107.296 104.233 95.8043 104.233 95.8043C104.196 95.7099 104.142 95.6234 104.072 95.55C104.003 95.4767 103.919 95.4178 103.827 95.3767C103.735 95.3356 103.635 95.3131 103.534 95.3105C103.433 95.308 103.333 95.3254 103.238 95.3618Z" fill="black"/>
        <path fill-rule="evenodd" clip-rule="evenodd" d="M62.2192 167.041C49.3534 166.469 31.7893 162.695 31.7893 162.695C15.0321 157.93 11.92 152.189 10.7062 150.496C4.65694 142.059 9.82907 136.85 10.7062 135.848C14.7514 131.24 25.1873 131.513 27.6546 131.597C38.9895 131.972 52.9607 135.706 52.9607 135.706C53.0298 135.659 87.2235 148.248 102.304 158.127C102.598 158.32 102.991 158.24 103.184 157.945C103.377 157.65 103.293 157.256 102.998 157.063C88.1253 147.315 73.0886 141.163 54.6772 134.733C56.8518 133.666 59.5936 132.734 59.5936 132.734C58.7136 125.437 61.1791 120.352 61.1791 120.352C61.5609 120.815 61.9864 121.266 62.4628 121.711C66.9138 125.893 76.5213 126.242 80.2742 126.078C90.8526 125.616 98.0346 121.543 100.82 119.5C101.115 119.285 101.387 119.044 101.638 118.789C105.406 124.749 105.075 132.362 105.075 132.362C107.98 133.324 110.475 135.273 111.948 136.606C103.668 139.101 96.6928 140.813 88.4053 144.5C88.0853 144.645 87.9399 145.02 88.0817 145.341C88.2271 145.665 88.6017 145.807 88.9217 145.665C97.3837 141.899 113.351 137.994 113.351 137.994C127.686 134.602 138.127 133.626 141.741 133.582C152.829 133.444 155.873 141.269 156.123 142.318C157.607 148.543 153.247 153.348 149.858 155.792C145.036 159.278 131.716 162.141 131.716 162.141C132.079 162.178 120.508 164.742 105.577 167.048C105.231 167.103 104.991 167.427 105.046 167.777C105.1 168.123 105.424 168.363 105.773 168.308C121.541 165.871 124.141 164.695 134.57 163.442C136.461 165.026 137.628 167.609 137.698 168.786C138.025 174.129 132.636 176.024 130.417 176.453C118.122 178.825 110.511 176.129 107.962 175.43C99.4747 173.106 98.3038 167.78 98.3038 167.78C86.6125 171.463 68.8884 169.153 68.8884 169.153C68.6593 174.173 58.3245 177.138 56.5026 177.565C44.626 180.355 34.4003 178.366 32.4729 177.517C23.1967 173.43 26.8615 167.205 27.8819 165.995C28.3641 165.423 29.2623 164.658 30.0761 164.006C38.6258 165.817 48.6515 167.711 62.161 168.316C62.5137 168.33 62.8119 168.057 62.8264 167.707C62.841 167.358 62.5683 167.059 62.2192 167.041ZM82.6633 130.351C81.4379 130.351 80.4451 131.346 80.4451 132.573C80.4451 133.797 81.4379 134.792 82.6633 134.792C83.8852 134.792 84.8816 133.797 84.8816 132.573C84.8816 131.346 83.8852 130.351 82.6633 130.351ZM82.6633 131.626C83.1834 131.626 83.6088 132.049 83.6088 132.573C83.6088 133.094 83.1834 133.517 82.6633 133.517C82.1397 133.517 81.7179 133.094 81.7179 132.573C81.7179 132.049 82.1397 131.626 82.6633 131.626Z" fill="black"/>
        <path d="M75.9031 42.5139C75.8309 42.4431 75.7454 42.3872 75.6516 42.3494C75.5579 42.3117 75.4576 42.2929 75.3565 42.294C75.2555 42.2951 75.1556 42.3162 75.0627 42.356C74.9698 42.3958 74.8856 42.4535 74.815 42.5259C74.6724 42.672 74.5936 42.8688 74.5958 43.073C74.5981 43.2773 74.6812 43.4723 74.827 43.6151C77.32 46.058 80.4359 46.7788 83.6979 45.2921C83.8836 45.2074 84.028 45.0524 84.0996 44.8611C84.1711 44.6698 84.1638 44.4578 84.0794 44.2718C83.9949 44.0859 83.8401 43.9411 83.6491 43.8695C83.4581 43.7978 83.2465 43.8051 83.0609 43.8898C80.2645 45.1642 78.0792 44.6463 75.9031 42.5139Z" fill="black"/>
    </g>
    <defs>
        <clipPath id="clip0_31_2096">
            <rect width="163" height="179" fill="white"/>
        </clipPath>
    </defs>
</svg>
