<svg width="40" height="40" viewBox="0 0 40 40" fill="none" xmlns="http://www.w3.org/2000/svg" xmlns:xlink="http://www.w3.org/1999/xlink">
<path d="M28,16C28,22.627 22.627,28 16,28L16,32C24.837,32 32,24.837 32,16L28,16ZM16,28C9.373,28 4,22.627 4,16L0,16C0,24.837 7.163,32 16,32L16,28ZM4,16C4,9.373 9.373,4 16,4L16,0C7.163,0 0,7.163 0,16L4,16ZM16,4C22.627,4 28,9.373 28,16L32,16C32,7.163 24.837,0 16,0L16,4Z" fill="#8C8C8C"/>
<path d="M36.586,39.414C37.367,40.195 38.633,40.195 39.414,39.414C40.195,38.633 40.195,37.367 39.414,36.586L36.586,39.414ZM27.414,24.586C26.633,23.805 25.367,23.805 24.586,24.586C23.805,25.367 23.805,26.633 24.586,27.414L27.414,24.586ZM39.414,36.586L27.414,24.586L24.586,27.414L36.586,39.414L39.414,36.586Z" fill="#8C8C8C"/>
</svg>
