<svg width="16" height="18" viewBox="0 0 16 18" fill="none" xmlns="http://www.w3.org/2000/svg">
    <path d="M5.55563 10.3232L5.43584 10.3123C3.90803 10.1735 3.14412 10.104 2.90146 9.58142C2.65881 9.05884 3.09869 8.43044 3.97846 7.17364L7.56119 2.05544C8.14238 1.22517 8.43298 0.810035 8.6836 0.898309C8.93423 0.986584 8.90052 1.4922 8.83311 2.50343L8.62987 5.55194C8.56852 6.47214 8.53785 6.93224 8.80227 7.24188C9.06668 7.55152 9.52591 7.59326 10.4444 7.67676L10.5642 7.68765C12.092 7.82654 12.8559 7.89599 13.0985 8.41858C13.3412 8.94116 12.9013 9.56956 12.0215 10.8264L8.43881 15.9446C7.85762 16.7748 7.56702 17.19 7.3164 17.1017C7.06577 17.0134 7.09948 16.5078 7.16689 15.4966L7.37013 12.4481C7.43148 11.5279 7.46215 11.0678 7.19773 10.7581C6.93332 10.4485 6.47409 10.4067 5.55563 10.3232Z" fill="#0A0909"/>
    <path d="M14.5 1L13 3H15L13.5 5" stroke="#7E869E" stroke-opacity="0.25" stroke-linecap="round" stroke-linejoin="round"/>
    <path d="M2.5 13L1 15H3L1.5 17" stroke="#7E869E" stroke-opacity="0.25" stroke-linecap="round" stroke-linejoin="round"/>
</svg>
