<svg width="50" height="48" viewBox="0 0 50 48" fill="none" xmlns="http://www.w3.org/2000/svg" xmlns:xlink="http://www.w3.org/1999/xlink">
<path d="M19,10C19,11.105 19.895,12 21,12C22.105,12 23,11.105 23,10L19,10ZM25,6L25,4L25,6ZM29,10L27,10C27,10.773 27.446,11.477 28.145,11.808L29,10ZM37,22L39,22C39,21.969 38.999,21.937 38.998,21.906L37,22ZM37,28L35,28C35,28.08 35.005,28.161 35.014,28.24L37,28ZM41,34L41,36C41.908,36 42.703,35.388 42.934,34.51C43.165,33.631 42.776,32.707 41.986,32.26L41,34ZM9,34L8.014,32.26C7.224,32.707 6.835,33.631 7.066,34.51C7.297,35.388 8.092,36 9,36L9,34ZM13,28L14.986,28.24C14.995,28.161 15,28.08 15,28L13,28ZM13,22L11.002,21.906C11.001,21.937 11,21.969 11,22L13,22ZM21.855,11.808C22.854,11.336 23.28,10.144 22.808,9.145C22.336,8.146 21.144,7.72 20.145,8.192L21.855,11.808ZM23,10C23,9.47 23.211,8.961 23.586,8.586L20.757,5.757C19.632,6.883 19,8.409 19,10L23,10ZM23.586,8.586C23.961,8.211 24.47,8 25,8L25,4C23.409,4 21.883,4.632 20.757,5.757L23.586,8.586ZM25,8C25.53,8 26.039,8.211 26.414,8.586L29.243,5.757C28.117,4.632 26.591,4 25,4L25,8ZM26.414,8.586C26.789,8.961 27,9.47 27,10L31,10C31,8.409 30.368,6.883 29.243,5.757L26.414,8.586ZM28.145,11.808C30.114,12.739 31.792,14.188 33,16L36.328,13.781C34.718,11.365 32.48,9.433 29.855,8.192L28.145,11.808ZM33,16C34.208,17.812 34.9,19.918 35.002,22.094L38.998,21.906C38.862,19.006 37.939,16.197 36.328,13.781L33,16ZM35,22L35,28L39,28L39,22L35,22ZM35.014,28.24C35.203,29.795 35.753,31.283 36.622,32.586L39.95,30.367C39.429,29.585 39.098,28.692 38.986,27.76L35.014,28.24ZM36.622,32.586C37.49,33.888 38.652,34.969 40.014,35.74L41.986,32.26C41.168,31.797 40.471,31.148 39.95,30.367L36.622,32.586ZM41,32L9,32L9,36L41,36L41,32ZM9.986,35.74C11.348,34.969 12.51,33.888 13.378,32.586L10.05,30.367C9.529,31.148 8.832,31.797 8.014,32.26L9.986,35.74ZM13.378,32.586C14.247,31.283 14.797,29.795 14.986,28.24L11.014,27.76C10.902,28.692 10.571,29.585 10.05,30.367L13.378,32.586ZM15,28L15,22L11,22L11,28L15,28ZM14.998,22.094C15.1,19.918 15.792,17.812 17,16L13.672,13.781C12.061,16.197 11.138,19.006 11.002,21.906L14.998,22.094ZM17,16C18.208,14.188 19.886,12.739 21.855,11.808L20.145,8.192C17.52,9.433 15.282,11.365 13.672,13.781L17,16Z" fill="#1E232C"/>
<path d="M21,34C21,32.895 20.105,32 19,32C17.895,32 17,32.895 17,34L21,34ZM25,42L25,44L25,42ZM33,34C33,32.895 32.105,32 31,32C29.895,32 29,32.895 29,34L33,34ZM17,34L17,36L21,36L21,34L17,34ZM17,36C17,38.122 17.843,40.157 19.343,41.657L22.172,38.828C21.421,38.078 21,37.061 21,36L17,36ZM19.343,41.657C20.843,43.157 22.878,44 25,44L25,40C23.939,40 22.922,39.579 22.172,38.828L19.343,41.657ZM25,44C27.122,44 29.157,43.157 30.657,41.657L27.828,38.828C27.078,39.579 26.061,40 25,40L25,44ZM30.657,41.657C32.157,40.157 33,38.122 33,36L29,36C29,37.061 28.579,38.078 27.828,38.828L30.657,41.657ZM33,36L33,34L29,34L29,36L33,36Z" fill="#1E232C"/>
</svg>
