<svg width="14" height="16" viewBox="0 0 14 16" fill="none" xmlns="http://www.w3.org/2000/svg">
    <path d="M0 2V8C0 8.55228 0.447715 9 1 9H4.58579C4.851 9 5.10536 9.10536 5.29289 9.29289L6.70711 10.7071C6.89464 10.8946 7.149 11 7.41421 11H13.5C13.706 11 13.8236 10.7648 13.7 10.6L11 7L13.7 3.4C13.8236 3.23519 13.706 3 13.5 3H7.41421C7.149 3 6.89464 2.89464 6.70711 2.70711L5.29289 1.29289C5.10536 1.10536 4.851 1 4.58579 1H1C0.447715 1 0 1.44772 0 2Z" fill="#2A4157" fill-opacity="0.24"/>
    <path d="M0.5 0.5V15.5" stroke="#222222" stroke-linecap="round"/>
</svg>
