<svg width="32" height="40" viewBox="0 0 32 40" fill="none" xmlns="http://www.w3.org/2000/svg" xmlns:xlink="http://www.w3.org/1999/xlink">
<path d="M10,8C11.105,8 12,7.105 12,6C12,4.895 11.105,4 10,4L10,8ZM6,6L6,4L6,6ZM2,10L0,10L2,10ZM2,34L0,34L2,34ZM26,6L26,4L26,6ZM22,4C20.895,4 20,4.895 20,6C20,7.105 20.895,8 22,8L22,4ZM10,4L6,4L6,8L10,8L10,4ZM6,4C4.409,4 2.883,4.632 1.757,5.757L4.586,8.586C4.961,8.211 5.47,8 6,8L6,4ZM1.757,5.757C0.632,6.883 0,8.409 0,10L4,10C4,9.47 4.211,8.961 4.586,8.586L1.757,5.757ZM0,10L0,34L4,34L4,10L0,10ZM0,34C0,35.591 0.632,37.117 1.757,38.243L4.586,35.414C4.211,35.039 4,34.53 4,34L0,34ZM1.757,38.243C2.883,39.368 4.409,40 6,40L6,36C5.47,36 4.961,35.789 4.586,35.414L1.757,38.243ZM6,40L26,40L26,36L6,36L6,40ZM26,40C27.591,40 29.117,39.368 30.243,38.243L27.414,35.414C27.039,35.789 26.53,36 26,36L26,40ZM30.243,38.243C31.368,37.117 32,35.591 32,34L28,34C28,34.53 27.789,35.039 27.414,35.414L30.243,38.243ZM32,34L32,10L28,10L28,34L32,34ZM32,10C32,8.409 31.368,6.883 30.243,5.757L27.414,8.586C27.789,8.961 28,9.47 28,10L32,10ZM30.243,5.757C29.117,4.632 27.591,4 26,4L26,8C26.53,8 27.039,8.211 27.414,8.586L30.243,5.757ZM26,4L22,4L22,8L26,8L26,4Z" fill="#1E232C"/>
<path d="M14,4L18,4L18,0L14,0L14,4ZM18,4C19.105,4 20,4.895 20,6L24,6C24,2.686 21.314,0 18,0L18,4ZM20,6C20,7.105 19.105,8 18,8L18,12C21.314,12 24,9.314 24,6L20,6ZM18,8L14,8L14,12L18,12L18,8ZM14,8C12.895,8 12,7.105 12,6L8,6C8,9.314 10.686,12 14,12L14,8ZM12,6C12,4.895 12.895,4 14,4L14,0C10.686,0 8,2.686 8,6L12,6Z" fill="#1E232C"/>
<path d="M12,22C10.895,22 10,22.895 10,24C10,25.105 10.895,26 12,26L12,22ZM20,26C21.105,26 22,25.105 22,24C22,22.895 21.105,22 20,22L20,26ZM18,20C18,18.895 17.105,18 16,18C14.895,18 14,18.895 14,20L18,20ZM14,28C14,29.105 14.895,30 16,30C17.105,30 18,29.105 18,28L14,28ZM12,26L20,26L20,22L12,22L12,26ZM20,22L12,22L12,26L20,26L20,22ZM14,20L14,28L18,28L18,20L14,20Z" fill="#35C2C1"/>
</svg>
