<svg width="48" height="48" viewBox="0 0 48 48" fill="none" xmlns="http://www.w3.org/2000/svg" xmlns:xlink="http://www.w3.org/1999/xlink">
<path d="M12,26L24,26L36,26C39.314,26 42,23.314 42,20C42,16.686 39.314,14 36,14L36,14C35.441,14 35.161,14 34.966,13.961C34.37,13.841 34.087,13.658 33.733,13.163C33.618,13.001 33.454,12.637 33.128,11.91C31.564,8.426 28.066,6 24,6C19.934,6 16.436,8.426 14.872,11.91C14.546,12.637 14.382,13.001 14.267,13.163C13.913,13.658 13.63,13.841 13.034,13.961C12.839,14 12.559,14 12,14L12,14C8.686,14 6,16.686 6,20C6,23.314 8.686,26 12,26Z" clip-rule="evenodd" fill-rule="evenodd" fill="#7E869E" fill-opacity="0.25" stroke="#7E869E" stroke-opacity="0.25" stroke-width="0.6" stroke-miterlimit="3.999327"/>
<path d="M24,4.8C19.445,4.8 15.527,7.519 13.777,11.418C13.612,11.787 13.496,12.046 13.407,12.233C13.336,12.382 13.301,12.445 13.291,12.463L13.291,12.463L13.291,12.463C13.287,12.47 13.287,12.47 13.29,12.465C13.159,12.649 13.103,12.686 13.089,12.695C13.076,12.704 13.019,12.74 12.797,12.784C12.797,12.784 12.797,12.784 12.797,12.784L12.797,12.784C12.794,12.785 12.751,12.792 12.618,12.796C12.476,12.8 12.287,12.8 12,12.8C8.024,12.8 4.8,16.024 4.8,20C4.8,23.976 8.024,27.2 12,27.2L13.143,27.2L15.543,24.8L12,24.8C9.349,24.8 7.2,22.651 7.2,20C7.2,17.349 9.349,15.2 12,15.2L12.115,15.2L12.115,15.2C12.557,15.201 12.953,15.201 13.271,15.137C13.645,15.062 14.028,14.946 14.393,14.71C14.759,14.473 15.021,14.171 15.243,13.861C15.37,13.682 15.48,13.461 15.574,13.263C15.676,13.049 15.803,12.767 15.961,12.415L15.961,12.415L15.967,12.401C17.344,9.333 20.424,7.2 24,7.2C27.576,7.2 30.656,9.333 32.033,12.401L32.039,12.415C32.197,12.767 32.324,13.049 32.426,13.263C32.52,13.461 32.63,13.682 32.757,13.861C32.979,14.171 33.241,14.473 33.607,14.71C33.972,14.946 34.355,15.062 34.729,15.137C35.047,15.201 35.443,15.201 35.885,15.2L35.885,15.2L36,15.2C38.651,15.2 40.8,17.349 40.8,20C40.8,22.651 38.651,24.8 36,24.8L32.457,24.8L34.857,27.2L36,27.2C39.976,27.2 43.2,23.976 43.2,20C43.2,16.024 39.976,12.8 36,12.8C35.713,12.8 35.525,12.8 35.383,12.796C35.249,12.792 35.206,12.785 35.203,12.784C35.203,12.784 35.203,12.784 35.203,12.784C34.981,12.74 34.924,12.704 34.911,12.695C34.897,12.686 34.841,12.649 34.71,12.465C34.712,12.468 34.712,12.469 34.712,12.468C34.712,12.468 34.711,12.466 34.709,12.463C34.699,12.445 34.664,12.382 34.593,12.233C34.504,12.046 34.388,11.787 34.223,11.418C32.473,7.519 28.555,4.8 24,4.8Z" clip-rule="evenodd" fill-rule="evenodd" fill="#222222"/>
<path d="M15,33L14.151,32.151L13.303,33L14.151,33.849L15,33ZM33,34.2C33.663,34.2 34.2,33.663 34.2,33C34.2,32.337 33.663,31.8 33,31.8L33,34.2ZM22.151,24.151L14.151,32.151L15.849,33.849L23.849,25.849L22.151,24.151ZM14.151,33.849L22.151,41.849L23.849,40.151L15.849,32.151L14.151,33.849ZM15,34.2L33,34.2L33,31.8L15,31.8L15,34.2Z" transform="rotate(180 24 33)" fill="#222222"/>
</svg>
