<svg width="20" height="18" viewBox="0 0 20 18" fill="none" xmlns="http://www.w3.org/2000/svg">
    <path d="M15 1H15.502C16.7134 1 17.319 1 17.7834 1.232C18.2095 1.44495 18.5551 1.79048 18.768 2.21665C19 2.68096 19 3.28664 19 4.498V5M15 17H15.502C16.7134 17 17.319 17 17.7834 16.768C18.2095 16.5551 18.5551 16.2095 18.768 15.7834C19 15.319 19 14.7134 19 13.502V13M5 1H4.498C3.28664 1 2.68096 1 2.21665 1.232C1.79048 1.44495 1.44495 1.79048 1.232 2.21665C1 2.68096 1 3.28664 1 4.498V5M5 17H4.498C3.28664 17 2.68096 17 2.21665 16.768C1.79048 16.5551 1.44495 16.2095 1.232 15.7834C1 15.319 1 14.7134 1 13.502V13" stroke="#1E232C" stroke-width="2" stroke-linecap="round"/>
    <path d="M5.62584 14.0695C6.0447 13.4649 6.66228 12.9421 7.43355 12.571C8.20488 12.1999 9.09063 12 10 12C10.9094 12 11.7951 12.1999 12.5664 12.571C13.3377 12.9421 13.9553 13.4649 14.3742 14.0695" stroke="#35C2C1" stroke-width="2" stroke-linecap="round"/>
    <circle cx="10" cy="6" r="3" stroke="#35C2C1" stroke-width="2" stroke-linecap="round"/>
</svg>
