<svg width="174" height="252" viewBox="0 0 174 252" fill="none" xmlns="http://www.w3.org/2000/svg" xmlns:xlink="http://www.w3.org/1999/xlink">
<path d="M11.046,247.88C39.567,252.203 68.606,252.421 97.364,250.851C108.745,250 120.161,249.848 131.534,250.934C138.254,251.433 167.717,253.68 170.124,247.675C168.609,215.69 165.54,183.432 156.127,152.671C152.255,141.748 148.93,132.683 141.374,123.644C138.994,121.176 133.858,116 130.915,114.312C128.366,112.85 127.3,113.372 125.836,110.902C124.382,108.173 123.309,103.617 121.244,101.692C119.14,99.731 116.024,100.432 112.161,101.064C112.871,91.493 108.444,89.055 102.345,87.235C91.625,83.152 81.038,85.203 78.34,98.227C73.337,98.227 70.527,100.375 67.489,102.44C66.247,103.284 67.111,105.434 65.627,106.097C62.883,107.072 58.033,106.834 55.39,108.034C43.374,113.491 32.671,121.406 25.642,132.964C9.885,157.642 -0.94,209.625 0.933,238.874C0.113,240.159 1.248,242.001 1.536,243.381C1.9,244.583 3.079,245.382 4.31,245.245C6.027,247.088 8.683,247.498 11.046,247.88Z" clip-rule="evenodd" fill-rule="evenodd" fill="#FFFFFF"/>
<path d="M129.099,113.588C128.924,113.491 129.079,113.242 129.254,113.324C137.712,117.284 144.202,124.232 148.767,132.259C153.495,140.572 156.189,150.008 158.512,159.233L158.597,159.567C161.074,169.434 163.18,179.403 165.076,189.397C166.997,199.518 168.538,209.701 169.778,219.926C170.391,224.982 170.938,230.047 171.365,235.122C171.578,237.658 171.772,240.196 171.946,242.735C172.015,243.75 172.081,244.765 172.137,245.782L172.177,246.544C172.212,247.235 172.294,247.929 172.123,248.612C171.975,249.199 171.663,249.731 171.389,250.271C170.846,251.338 169.358,251.163 168.773,250.271L168.604,250.011C168.216,249.414 167.894,248.858 167.772,248.114C167.654,247.392 167.65,246.636 167.597,245.909C167.5,244.57 167.417,243.228 167.322,241.888C167.125,239.067 166.902,236.247 166.656,233.43C166.169,227.87 165.646,222.312 165.005,216.766C163.865,206.91 162.435,197.08 160.748,187.301C159.1,177.749 157.017,168.294 154.844,158.851L154.619,157.874C150.814,141.386 144.95,122.4 129.099,113.588ZM39.006,178.149C39.068,177.984 39.336,177.946 39.381,178.149C39.951,180.71 40.007,183.347 40.094,185.967C40.18,188.553 40.176,191.151 40.139,193.738C39.999,203.246 39.738,212.747 39.512,222.254C39.399,227.01 39.292,231.766 39.211,236.523C39.18,238.306 39.154,240.089 39.133,241.874L39.107,244.226C39.093,245.266 39.066,246.294 38.939,247.333C38.855,248.017 38.677,248.669 38.298,249.255C38.03,249.67 37.648,249.882 37.275,250.164L37.205,250.219C36.73,250.593 36.229,250.596 35.758,250.219L35.621,250.11C35.171,249.759 34.783,249.485 34.495,248.93C34.096,248.158 34.032,247.319 33.964,246.468C33.861,245.179 33.929,243.87 33.943,242.577C33.969,239.981 34.005,237.388 34.051,234.793C34.218,225.278 34.549,215.761 35.153,206.264C35.437,201.79 35.822,197.301 36.339,192.846L36.437,192.011C36.594,190.7 36.737,189.366 36.898,188.027C34.493,186.339 32.379,184.291 30.576,181.966C30.443,181.795 30.662,181.556 30.822,181.721C32.664,183.625 34.776,185.142 37.115,186.335C37.498,183.533 38.025,180.747 39.006,178.149ZM79.186,93.335C79.219,93.309 79.271,93.298 79.302,93.335C79.82,93.936 79.714,94.855 79.731,95.618L79.733,95.688C79.77,96.802 79.777,97.914 79.773,99.029L79.762,102.578C79.76,103.066 79.721,103.574 79.745,104.065L79.759,104.256C80.031,104.533 80.157,104.934 80.065,105.337C80.048,105.853 79.777,106.284 79.383,106.555L80.229,107.754L81.076,108.952C82.822,111.423 84.588,113.874 86.428,116.277C88.303,118.728 90.305,121.086 92.4,123.354C93.423,124.463 94.463,125.555 95.528,126.623C95.961,127.057 96.405,127.481 96.843,127.909L97.28,128.34C97.537,128.596 97.862,128.851 98.033,129.177C98.133,129.369 98.156,129.844 98.192,129.922C98.516,130.631 97.964,131.761 97.048,131.407L97.09,131.38C97.257,131.264 97.15,131.262 96.769,131.374C96.529,131.373 96.303,131.319 96.094,131.21L96.031,131.176C95.735,131.025 95.471,130.734 95.23,130.501L95.17,130.445C94.619,129.93 94.095,129.385 93.567,128.847C92.467,127.724 91.391,126.578 90.348,125.401C88.27,123.053 86.3,120.609 84.435,118.09C82.533,115.524 80.767,112.826 79.248,110.018C78.672,108.952 78.143,107.866 77.636,106.767C76.649,106.451 76.421,105.404 76.489,104.225C76.126,103.379 75.798,102.516 75.604,101.634C75.578,101.514 75.733,101.399 75.826,101.505C76.142,101.863 76.433,102.243 76.715,102.634C76.884,101.807 77.098,101.047 77.199,100.561L77.636,98.42C75.173,98.292 72.473,99.302 70.774,101.07C70.683,101.531 70.328,101.861 69.981,102.292C69.586,102.784 69.24,103.336 68.983,103.913C68.412,105.194 68.734,107.08 67.626,108.019C67.511,108.117 67.381,108.185 67.249,108.228C67.774,110.8 67.535,113.634 67.524,116.244L67.524,116.474C67.526,119.395 67.429,122.318 67.315,125.238L67.201,128.126C67.052,131.979 66.955,135.833 67.33,139.664C69.042,138.15 70.813,136.705 72.645,135.329C73.85,134.424 75.079,133.551 76.329,132.711L77.346,132.033C78.564,131.218 79.811,130.379 81.145,129.795C82.89,129.032 84.548,129.294 86.232,130.077C87.909,130.857 89.536,131.762 91.181,132.607C92.854,133.467 94.531,134.319 96.206,135.173C97.316,135.739 98.943,136.25 99.757,137.293C99.809,137.062 99.869,136.832 99.94,136.603C99.859,136.254 99.89,135.876 100.086,135.517C102.822,130.5 105.353,125.365 107.866,120.235C109.138,117.639 110.348,115.013 111.623,112.418L112.862,109.891C113.068,109.47 113.276,109.049 113.485,108.63C113.797,108.001 114.122,107.378 114.438,106.75C114.573,106.485 114.74,106.223 114.87,105.956L114.931,105.82C114.934,105.814 115.235,104.872 115.003,104.962L114.983,104.971C114.864,105.038 114.77,104.89 114.847,104.795C115.174,104.39 115.631,104.748 115.818,105.123C116.334,106.153 115.389,107.772 115.025,108.758L115.006,108.814C113.878,111.998 112.601,115.124 111.293,118.239C108.785,124.21 106.091,130.09 103.402,135.979L103.37,136.08C103.944,135.642 104.556,135.244 105.08,134.857C106.402,133.879 107.763,132.95 109.122,132.023C111.614,130.324 114.173,128.738 116.775,127.213L117.296,126.909C118.596,126.153 119.883,125.541 121.426,125.768C122.858,125.978 124.191,126.747 125.486,127.371L125.619,127.435L129.62,129.332C129.192,127.63 128.729,125.937 128.246,124.249C127.303,120.958 126.267,117.694 125.143,114.46C124.093,111.438 122.957,108.448 121.757,105.483L121.395,104.593C120.906,103.372 120.419,102.041 119.02,101.665C117.621,101.289 116.017,101.847 114.739,101.051C114.623,100.979 114.638,100.788 114.778,100.753L115.567,100.554C117.048,100.187 118.784,99.817 120.184,100.174C121.707,100.564 122.968,101.839 123.707,103.166C124.529,104.642 125.109,106.294 125.732,107.868L125.831,108.115C126.547,109.897 127.235,111.687 127.895,113.49C129.212,117.094 130.411,120.741 131.497,124.421C132.02,126.194 132.516,127.977 132.993,129.762C133.129,130.277 133.356,130.899 133.542,131.549C133.754,131.756 133.955,131.987 134.144,132.251C134.457,132.688 134.233,133.2 133.843,133.462C133.828,133.908 133.729,134.329 133.49,134.69C132.561,136.097 130.106,135.734 130.205,133.842C130.221,133.553 130.334,133.276 130.505,133.042L130.5,133.005L130.481,132.935C130.054,132.732 129.626,132.504 129.175,132.282L124.976,130.212C123.76,129.612 122.413,128.685 121.06,128.456C119.799,128.244 118.469,129.181 117.387,129.747L117.316,129.783C114.698,131.122 112.098,132.506 109.509,133.901C108.246,134.583 106.998,135.293 105.739,135.981C104.687,136.559 103.55,137.385 102.367,137.711C101.862,138.103 101.261,138.05 100.779,137.755C100.999,139.117 100.985,140.515 101.054,141.909C101.145,143.772 101.158,145.64 101.188,147.504L101.2,148.203C101.28,152.327 101.322,156.451 101.339,160.576C101.395,175.262 101.231,189.953 101.194,204.64C101.175,212.019 101.028,219.404 100.836,226.78C100.754,229.906 100.585,233.027 100.401,236.148L100.299,237.85C100.084,241.442 99.958,245.074 99.292,248.617C99.205,249.079 98.422,249.091 98.344,248.617C97.732,244.82 97.697,240.94 97.58,237.099L97.555,236.331C97.413,232.206 97.346,228.085 97.361,223.958C97.412,209.266 97.796,194.583 98.109,179.895C98.266,172.515 98.371,165.132 98.616,157.754C98.738,154.063 98.876,150.374 99.041,146.684C99.114,145.037 99.184,143.39 99.295,141.746L99.344,141.041C99.378,140.581 99.406,140.127 99.439,139.676C97.95,140.219 96.588,139.214 95.247,138.527C93.703,137.734 92.159,136.939 90.614,136.148L89.068,135.358L85.973,133.783C84.58,133.072 83.507,132.366 82.021,133.199C76.667,136.196 71.747,140.184 67.29,144.37C66.434,145.173 64.628,144.957 64.411,143.612C63.486,137.865 64.049,132.035 64.521,126.272L64.695,124.132C64.906,121.575 65.136,119.02 65.442,116.474C65.579,115.335 65.716,114.197 65.867,113.061L65.982,112.209C66.171,110.861 66.294,109.522 66.696,108.231C66.569,108.189 66.447,108.122 66.339,108.019C65.129,106.875 65.713,104.889 66.263,103.527C66.809,102.183 67.639,101.009 68.679,100C68.907,99.78 69.226,99.637 69.547,99.63C72.07,97.962 74.837,97.13 77.716,98.041C77.797,97.655 77.879,97.269 77.967,96.885L78.055,96.5C78.279,95.547 78.362,93.972 79.186,93.335ZM105.035,243.932C105.818,243.717 106.675,243.944 107.249,244.516C107.822,245.088 108.048,245.944 107.833,246.724C107.725,247.11 107.531,247.443 107.249,247.726C106.985,247.988 106.677,248.173 106.327,248.286L106.245,248.311L106.117,248.363C105.724,248.468 105.332,248.468 104.94,248.363C104.565,248.258 104.239,248.069 103.963,247.795C103.689,247.52 103.499,247.194 103.393,246.82C103.288,246.428 103.288,246.036 103.393,245.646L103.447,245.518C103.555,245.133 103.75,244.799 104.032,244.516C104.316,244.235 104.65,244.04 105.035,243.932ZM151.507,166.099C151.635,165.952 151.844,166.14 151.765,166.297C150.545,168.682 149.186,171.05 147.851,173.375C147.958,174.019 148.064,174.658 148.186,175.281C148.706,177.937 149.343,180.544 149.759,183.224C151.252,192.857 152.027,202.597 152.692,212.317C153.36,222.073 153.445,231.832 153.545,241.607C153.554,242.454 152.901,243.439 152.026,243.599C151.625,243.672 151.325,243.657 150.925,243.599C150.015,243.465 149.446,242.423 149.406,241.607C149.146,236.144 148.795,230.688 148.388,225.234C147.666,215.564 147.225,205.868 146.642,196.188L146.438,192.805C146.218,189.139 146.016,185.47 145.95,181.799C145.907,179.366 146.037,176.936 145.957,174.506C145.883,172.263 145.654,169.824 146.15,167.62C146.169,167.537 146.299,167.517 146.337,167.596C146.852,168.678 147.179,169.855 147.431,171.056C148.759,169.379 150.11,167.7 151.507,166.099ZM64.533,106.85C64.719,106.836 64.712,107.115 64.533,107.136C61.927,107.438 59.41,108.497 56.95,109.396L56.739,109.472C54.253,110.373 51.83,111.419 49.497,112.666C44.938,115.105 40.75,118.251 37.048,121.851C22.268,136.225 15.532,156.952 10.596,176.43C7.854,187.252 5.903,198.258 4.639,209.347C4.014,214.831 3.572,220.336 3.315,225.85C3.183,228.676 3.1,231.504 3.065,234.333C3.047,235.781 3.042,237.231 3.044,238.68C3.045,239.344 3.163,240.18 2.985,240.824C2.82,241.422 2.355,241.948 2.011,242.446C1.603,243.036 0.869,243.005 0.456,242.446L0.303,242.242C-0.138,241.658 -0.57,241.1 -0.633,240.336C-0.7,239.517 -0.653,238.674 -0.656,237.852C-0.663,236.196 -0.642,234.54 -0.609,232.884C-0.545,229.711 -0.42,226.539 -0.234,223.37C0.145,216.939 0.767,210.521 1.658,204.142C3.242,192.802 5.616,181.569 8.727,170.548C11.661,160.152 15.137,149.786 20.088,140.155C24.686,131.214 30.717,122.896 38.676,116.647C42.377,113.741 46.406,111.319 50.75,109.494C52.94,108.575 55.241,107.824 57.581,107.396C59.894,106.973 62.198,107.032 64.533,106.85ZM105.484,225.555C105.897,225.552 106.358,225.643 106.712,225.871L107.187,226.237C107.315,226.401 107.442,226.567 107.57,226.732C107.865,227.117 107.905,227.741 107.843,228.199C107.829,228.506 107.738,228.791 107.57,229.055L107.209,229.521C106.862,229.803 106.573,230.004 106.153,230.141C105.934,230.212 105.722,230.226 105.511,230.215L105.441,230.211L105.484,230.217L105.41,230.209C105.341,230.202 105.273,230.195 105.204,230.186C105.157,230.18 105.11,230.176 105.063,230.169C105.018,230.166 104.974,230.164 104.928,230.168C104.394,230.219 103.858,229.917 103.479,229.569C103.138,229.257 102.832,228.594 102.88,228.124L102.9,227.927C102.935,227.596 102.965,227.465 103.106,227.134C103.242,226.81 103.433,226.523 103.694,226.282C104.191,225.82 104.801,225.56 105.484,225.555ZM103.832,201.309C104.54,200.539 105.756,200.483 106.635,200.949C106.849,201.063 107.045,201.244 107.234,201.397C107.709,201.78 107.895,202.472 107.922,203.055C107.948,203.631 107.643,204.315 107.234,204.713L107.135,204.809C106.89,205.047 106.54,205.253 106.197,205.316C105.645,205.417 105.181,205.414 104.667,205.198C104.225,205.012 103.845,204.713 103.585,204.307L103.544,204.239C103.525,204.21 103.509,204.181 103.493,204.151L103.471,204.107C102.979,203.163 103.111,202.094 103.832,201.309ZM104.199,176.937C104.518,176.837 104.838,176.822 105.157,176.893C105.374,176.894 105.576,176.949 105.763,177.057C105.966,177.114 106.144,177.217 106.293,177.365C106.474,177.472 106.617,177.615 106.724,177.795C106.936,178.027 107.08,178.298 107.154,178.611L107.24,179.248L107.154,179.886L106.912,180.458C106.846,180.545 106.778,180.631 106.71,180.718C106.604,180.898 106.459,181.043 106.278,181.15C106.16,181.266 106.026,181.354 105.875,181.414C105.34,181.797 104.628,181.922 103.994,181.748C103.617,181.643 103.291,181.452 103.014,181.178C102.738,180.9 102.548,180.575 102.442,180.199L102.399,179.899C102.343,179.497 102.334,179.275 102.449,178.763C102.498,178.539 102.644,178.221 102.719,178.088C103.045,177.518 103.575,177.127 104.199,176.937ZM131.932,159.402C132.848,159.395 133.766,159.396 134.682,159.407L135.371,159.416C136.522,159.435 137.509,159.316 138.414,160.113C139.071,160.692 138.781,161.662 138.158,162.098C137.212,162.759 136.027,162.427 134.941,162.354C133.795,162.278 132.649,162.214 131.502,162.162C129.28,162.063 127.059,161.999 124.836,161.99C122.617,161.981 120.396,162.001 118.178,162.038C115.921,162.074 113.571,162.284 111.327,162.051C111.019,162.019 110.949,161.614 111.254,161.509C113.368,160.779 115.748,160.542 117.963,160.263C120.25,159.975 122.536,159.771 124.836,159.639C127.198,159.504 129.564,159.418 131.932,159.402ZM104.195,152.23L104.27,152.232C104.674,152.233 105.052,152.328 105.404,152.516L105.479,152.558L105.964,152.932C106.261,153.23 106.466,153.581 106.58,153.986L106.666,154.622C106.678,154.95 106.609,155.258 106.459,155.542C106.363,155.839 106.198,156.095 105.964,156.311C105.747,156.544 105.49,156.709 105.193,156.806C104.93,156.943 104.648,157.013 104.347,157.013L104.27,157.011C103.839,157.01 103.436,156.901 103.062,156.685L102.578,156.311C102.281,156.013 102.076,155.662 101.962,155.257L101.876,154.622C101.864,154.293 101.932,153.985 102.083,153.701C102.179,153.404 102.344,153.148 102.578,152.932C102.795,152.699 103.051,152.534 103.349,152.437C103.612,152.299 103.894,152.23 104.195,152.23ZM111.294,96.091C111.81,95.345 112.745,96.009 112.612,96.608C112.647,98.292 112.732,99.926 113.117,101.575C113.293,102.331 113.523,103.087 113.878,103.778L114.027,104.07C114.487,104.976 114.844,105.832 114.225,106.826C113.933,107.295 113.405,107.647 112.834,107.622C110.298,107.513 109.95,103.991 109.796,102.024C109.637,99.999 110.13,97.774 111.294,96.091Z" clip-rule="evenodd" fill-rule="evenodd" fill="#000000"/>
<path d="M137.499,51.054C136.673,37.502 132.266,22.138 119.297,15.484C90.708,4.033 53.118,32.87 51.128,62.329C50.434,72.413 56.044,83.432 66.296,86.235C68.576,89.249 72.023,91.089 75.425,92.687C115.949,113.67 142.127,96.614 137.499,51.054Z" clip-rule="evenodd" fill-rule="evenodd" fill="#FFFFFF"/>
<path d="M146.732,42.625C145.3,38.655 143.787,34.716 142.196,30.807C140.646,27.003 139.246,23.117 137.321,19.493C125.825,-2.151 104.92,-2.151 94.113,0.677C88.509,-1.732 78.013,-1.053 72.177,1.122C62.73,4.642 51.215,18.489 47.277,24.711C38.585,38.448 33.16,56.731 38.934,72.605C39.689,74.679 40.651,76.601 41.735,78.452C41.052,79.376 40.266,80.25 39.396,81.11C36.81,83.663 34.223,86.133 31.989,89.013C29.768,91.876 27.927,94.92 26.557,98.277C23.973,104.606 23.849,111.774 27.265,117.814C30.237,123.068 35.502,126.982 41.433,127.355C41.738,127.398 42.043,127.436 42.349,127.467C43.135,128.758 44.094,129.948 45.187,130.985C48.538,134.166 56.526,135.798 61.083,135.902C61.316,136.09 61.552,136.277 61.788,136.463C64.575,138.652 67.5,140.862 70.702,142.419C72.869,143.476 75.711,144.358 77.973,143.595C78.999,144.28 80.683,144.136 81.699,143.576C83.372,142.656 84.732,141.001 85.559,139.306C87.566,135.19 87.083,130.687 86.569,126.29C86,121.434 85.455,116.576 84.9,111.719C84.466,107.921 84.012,104.061 82.855,100.402C82.256,98.507 81.473,96.685 80.459,94.973C80.486,94.829 80.481,94.685 80.44,94.55C80.108,93.474 79.423,92.91 78.611,92.178C78.505,92.084 78.401,91.988 78.299,91.89C77.893,91.429 77.458,90.999 76.993,90.635C76.814,90.454 76.637,90.271 76.46,90.088C74.991,88.552 73.602,86.938 72.37,85.207C71.173,83.53 70.092,81.779 69.064,79.994C68.018,78.179 67.326,76.177 66.283,74.375C66.193,74.22 65.966,74.19 65.84,74.318C65.516,74.652 65.309,75.022 65.348,75.412L65.187,75.436C65.126,74.848 64.582,74.369 63.844,74.498C62.74,74.688 61.831,74.761 60.875,74.395C61.043,73.281 61.198,72.166 61.351,71.048C61.63,68.992 61.89,66.928 62.113,64.865C62.652,64.993 63.187,65.179 63.711,65.414C64.458,65.748 65.163,66.196 65.765,66.748C66.359,67.292 66.77,68.026 67.494,68.405C68.328,68.839 69.335,68.122 69.09,67.181C68.595,65.279 65.789,64.19 64.054,63.83C63.458,63.706 62.849,63.654 62.24,63.666C62.377,62.342 62.499,61.017 62.6,59.69C62.648,59.063 62.692,58.436 62.733,57.806C64.082,57.399 65.528,57.276 66.931,57.468C67.394,57.837 67.857,58.201 68.304,58.569C69.725,59.741 71.14,60.919 72.537,62.12C72.664,62.226 72.788,62.333 72.915,62.442C73.745,63.155 74.779,62.449 74.64,61.44C73.5,53.174 78.574,46.598 84.514,41.505C91.089,35.864 103.044,35.207 110.863,25.436C114.465,26.168 122.506,28.341 125.825,33.618C130.47,41.012 129.863,47.638 130.217,56.026C130.571,64.421 131.47,73.177 129.559,81.454C127.799,89.086 123.028,95.607 115.627,98.604C115.444,98.679 115.258,98.751 115.073,98.821C111.246,100.261 107.07,100.668 103.044,99.91C98.588,99.069 94.868,97.034 91.162,94.53C90.948,94.389 90.635,94.681 90.797,94.894C95.683,101.357 105.279,103.515 112.892,101.809C113.248,101.729 113.602,101.642 113.953,101.547C112.25,106.433 112.593,111.797 114.811,116.556C116.145,119.419 118.179,121.896 120.657,123.85C123.388,126.003 126.777,127.741 128.672,130.763C130.407,133.532 129.892,136.643 126.92,138.242C126.172,138.647 125.884,139.958 126.626,140.533C126.91,140.75 127.193,140.973 127.483,141.19C129.147,142.443 133.716,144.796 134.456,144.883C141.027,145.661 145.446,140.846 148.278,135.166C151.602,128.5 150.739,120.375 147.074,114.026C144.137,108.932 138.349,103.912 140.65,97.465C141.471,95.162 143.15,93.2 144.78,91.426C146.64,89.406 148.64,87.515 150.423,85.424C152.197,83.348 153.768,81.088 154.646,78.482C155.927,74.674 155.289,70.556 154.327,66.754C152.264,58.592 149.585,50.54 146.732,42.625Z" clip-rule="evenodd" fill-rule="evenodd" fill="#000000"/>
<path d="M109.924,85.233C108.456,84.636 107.147,83.639 106.189,82.366C105.857,81.923 105.771,81.456 105.84,81.028C105.919,80.548 106.204,80.112 106.592,79.82C106.982,79.527 107.47,79.382 107.941,79.456C108.351,79.52 108.758,79.744 109.082,80.208L109.149,80.3C109.718,81.069 110.459,81.699 111.304,82.107C112.119,82.498 113.03,82.681 113.972,82.575C115.768,82.372 117.005,81.403 118.321,80.087C118.484,79.921 118.647,79.75 118.811,79.576C118.914,79.418 119.059,79.316 119.218,79.263C119.394,79.204 119.595,79.208 119.779,79.272C119.955,79.332 120.114,79.45 120.22,79.606C120.32,79.753 120.378,79.936 120.359,80.146C120.239,81.509 119.525,82.726 118.51,83.682C117.382,84.743 115.888,85.477 114.482,85.735C112.933,86.019 111.354,85.816 109.924,85.233ZM115.213,64.195C116.862,65.195 119.374,67.527 117.6,70.006C115.512,72.193 112.507,69.687 111.026,68.553C109.653,67.674 108.109,69.934 109.383,70.96C120.086,78.868 124.43,64.457 116.047,63.02C115.124,62.861 114.782,63.886 115.213,64.195ZM96.035,54.997C96.217,52.74 99.66,52.228 100.003,54.461C100.309,56.461 99.948,58.298 99.045,60.099C98.183,61.819 96.015,61.017 95.851,59.45C95.631,57.35 95.921,56.4 96.035,54.997ZM122.245,53.998C122.726,53.37 123.419,52.942 124.249,53.184C126.844,53.941 126.079,57.617 125.168,59.406C124.673,60.378 123.072,60.624 122.349,59.769C121.17,58.374 120.605,55.587 122.104,54.213C122.145,54.142 122.191,54.07 122.245,53.998ZM99.009,45.124L99.419,45.052C100.687,44.833 102.263,44.623 103.16,45.64C103.636,46.18 103.799,47.182 103.16,47.699C102.035,48.607 100.791,48.255 99.444,48.332C98.333,48.396 97.265,48.579 96.196,48.884C93.848,49.554 91.936,50.776 89.931,52.118C89.668,52.294 89.4,51.958 89.525,51.713C90.682,49.451 92.924,47.593 95.171,46.46C96.371,45.855 97.682,45.354 99.009,45.124ZM119.88,44.11L120.194,44.174C123.608,44.886 128.043,46.309 129.659,49.655C129.721,50.129 129.656,50.23 129.604,50.296L129.586,50.318C129.542,50.375 129.508,50.453 129.302,50.517C129.245,50.504 129.187,50.489 129.129,50.474C128.387,50.28 127.802,50.013 127.234,49.736L126.618,49.434C125.904,49.084 125.184,48.748 124.42,48.499C122.792,47.969 121.116,47.595 119.415,47.396C119.046,47.353 118.691,47.228 118.411,47.015C118.145,46.813 117.941,46.534 117.848,46.162C117.729,45.68 117.764,45.316 118.022,44.882C118.216,44.556 118.495,44.33 118.815,44.2C119.14,44.068 119.511,44.036 119.88,44.11Z" clip-rule="evenodd" fill-rule="evenodd" fill="#000000"/>
</svg>
